<?xml version="1.0" encoding="UTF-8" standalone="no"?><svg xmlns="http://www.w3.org/2000/svg" xmlns:xlink="http://www.w3.org/1999/xlink" contentScriptType="application/ecmascript" contentStyleType="text/css" height="562.8px" preserveAspectRatio="none" style="width:246px;height:562px;" version="1.1" viewBox="0 0 246 562" width="246.4px" zoomAndPan="magnify"><defs><filter height="300%" id="fnf3cpwgqxje0" width="300%" x="-1" y="-1"><feGaussianBlur result="blurOut" stdDeviation="2.799999952316284"/><feColorMatrix in="blurOut" result="blurOut2" type="matrix" values="0 0 0 0 0 0 0 0 0 0 0 0 0 0 0 0 0 0 .4 0"/><feOffset dx="5.599999904632568" dy="5.599999904632568" in="blurOut2" result="blurOut3"/><feBlend in="SourceGraphic" in2="blurOut3" mode="normal"/></filter></defs><g><!--cluster mosaik--><polygon fill="#FFFFFF" filter="url(#fnf3cpwgqxje0)" points="36.4,33.6,123.2,33.6,133,64.8156,210,64.8156,210,169.4,36.4,169.4,36.4,33.6" style="stroke: #000000; stroke-width: 2.099999964237213;"/><line style="stroke: #000000; stroke-width: 2.099999964237213;" x1="36.4" x2="133" y1="64.8156" y2="64.8156"/><text fill="#000000" font-family="sans-serif" font-size="19.6" font-weight="bold" lengthAdjust="spacingAndGlyphs" textLength="78.4" x="42" y="54.5932">mosaik</text><!--cluster simpy--><polygon fill="#FFFFFF" filter="url(#fnf3cpwgqxje0)" points="30.8,238,105,238,114.8,269.2156,215.6,269.2156,215.6,546,30.8,546,30.8,238" style="stroke: #000000; stroke-width: 2.099999964237213;"/><line style="stroke: #000000; stroke-width: 2.099999964237213;" x1="30.8" x2="114.8" y1="269.2156" y2="269.2156"/><text fill="#000000" font-family="sans-serif" font-size="19.6" font-weight="bold" lengthAdjust="spacingAndGlyphs" textLength="65.8" x="36.4" y="258.9932">simpy</text><!--entity mosaik --><rect fill="#FEFECE" filter="url(#fnf3cpwgqxje0)" height="64.8156" style="stroke: #A80036; stroke-width: 2.099999964237213;" width="127.4" x="59.5" y="82.6"/><rect fill="#FEFECE" height="14" style="stroke: #A80036; stroke-width: 2.099999964237213;" width="21" x="158.9" y="89.6"/><rect fill="#FEFECE" height="2.8" style="stroke: #A80036; stroke-width: 2.099999964237213;" width="5.6" x="156.1" y="92.4"/><rect fill="#FEFECE" height="2.8" style="stroke: #A80036; stroke-width: 2.099999964237213;" width="5.6" x="156.1" y="98"/><text fill="#000000" font-family="sans-serif" font-size="19.6" lengthAdjust="spacingAndGlyphs" textLength="71.4" x="80.5" y="128.7932">mosaik</text><!--entity simpy--><rect fill="#FEFECE" filter="url(#fnf3cpwgqxje0)" height="64.8156" style="stroke: #A80036; stroke-width: 2.099999964237213;" width="114.8" x="65.8" y="287"/><rect fill="#FEFECE" height="14" style="stroke: #A80036; stroke-width: 2.099999964237213;" width="21" x="152.6" y="294"/><rect fill="#FEFECE" height="2.8" style="stroke: #A80036; stroke-width: 2.099999964237213;" width="5.6" x="149.8" y="296.8"/><rect fill="#FEFECE" height="2.8" style="stroke: #A80036; stroke-width: 2.099999964237213;" width="5.6" x="149.8" y="302.4"/><text fill="#000000" font-family="sans-serif" font-size="19.6" lengthAdjust="spacingAndGlyphs" textLength="58.8" x="86.8" y="333.1932">simpy</text><!--entity simpy.io--><rect fill="#FEFECE" filter="url(#fnf3cpwgqxje0)" height="64.8156" style="stroke: #A80036; stroke-width: 2.099999964237213;" width="138.6" x="53.9" y="459.2"/><rect fill="#FEFECE" height="14" style="stroke: #A80036; stroke-width: 2.099999964237213;" width="21" x="164.5" y="466.2"/><rect fill="#FEFECE" height="2.8" style="stroke: #A80036; stroke-width: 2.099999964237213;" width="5.6" x="161.7" y="469"/><rect fill="#FEFECE" height="2.8" style="stroke: #A80036; stroke-width: 2.099999964237213;" width="5.6" x="161.7" y="474.6"/><text fill="#000000" font-family="sans-serif" font-size="19.6" lengthAdjust="spacingAndGlyphs" textLength="82.6" x="74.9" y="505.3932">simpy.io</text><!--link simpy to simpy.io--><path d="M123.2,351.6702 C123.2,379.967 123.2,421.8298 123.2,452.0863 " fill="none" id="simpy-simpy.io" style="stroke: #A80036; stroke-width: 1.399999976158142; stroke-dasharray: 7.0,7.0;"/><polygon fill="#A80036" points="123.2,459.1264,128.8,446.5264,123.2,452.1264,117.6,446.5264,123.2,459.1264" style="stroke: #A80036; stroke-width: 1.399999976158142;"/><text fill="#000000" font-family="sans-serif" font-size="18.2" lengthAdjust="spacingAndGlyphs" textLength="32.2" x="124.6" y="411.6936">use</text><!--link mosaik  to simpy--><path d="M123.2,147.2576 C123.2,182.6706 123.2,240.6096 123.2,278.9752 " fill="none" id="mosaik -simpy" style="stroke: #A80036; stroke-width: 1.399999976158142;"/><polygon fill="#A80036" points="123.2,286.3742,128.8,273.7742,123.2,279.3742,117.6,273.7742,123.2,286.3742" style="stroke: #A80036; stroke-width: 1.399999976158142;"/><text fill="#000000" font-family="sans-serif" font-size="18.2" lengthAdjust="spacingAndGlyphs" textLength="60.2" x="124.6" y="210.0936">import</text><!--
@startuml
skinparam componentStyle uml2

package "mosaik" {
[mosaik ]
}

package "simpy" {
[simpy] ..> [simpy.io] : use
}

[mosaik ] - -> [simpy] : import

@enduml

PlantUML version 1.2018.01(Sun Jan 28 19:08:22 CET 2018)
(GPL source distribution)
Java Runtime: OpenJDK Runtime Environment
JVM: OpenJDK 64-Bit Server VM
Java Version: 1.8.0_152-release-1136-b20
Operating System: Linux
OS Version: 4.13.0-46-generic
Default Encoding: UTF-8
Language: de
Country: DE
--></g></svg>