<?xml version="1.0" encoding="UTF-8" standalone="no"?>
<!DOCTYPE svg PUBLIC "-//W3C//DTD SVG 1.1//EN"
 "http://www.w3.org/Graphics/SVG/1.1/DTD/svg11.dtd">
<!-- Generated by graphviz version 2.38.0 (20140413.2041)
 -->
<!-- Title: G Pages: 1 -->
<svg width="341pt" height="299pt"
 viewBox="0.00 0.00 341.00 299.22" xmlns="http://www.w3.org/2000/svg" xmlns:xlink="http://www.w3.org/1999/xlink">
<g id="graph0" class="graph" transform="scale(1 1) rotate(0) translate(4 295.22)">
<title>G</title>
<polygon fill="white" stroke="none" points="-4,4 -4,-295.22 337,-295.22 337,4 -4,4"/>
<g id="clust1" class="cluster"><title>cluster__debug</title>
<path fill="#808080" fill-opacity="0.094118" stroke="black" d="M20,-8C20,-8 313,-8 313,-8 319,-8 325,-14 325,-20 325,-20 325,-271.22 325,-271.22 325,-277.22 319,-283.22 313,-283.22 313,-283.22 20,-283.22 20,-283.22 14,-283.22 8,-277.22 8,-271.22 8,-271.22 8,-20 8,-20 8,-14 14,-8 20,-8"/>
<text text-anchor="middle" x="166.5" y="-268.02" font-family="Times,serif" font-size="14.00">_debug</text>
</g>
<g id="clust2" class="cluster"><title>cluster__debug__enable</title>
<path fill="#808080" fill-opacity="0.094118" stroke="black" d="M171,-97.7401C171,-97.7401 305,-97.7401 305,-97.7401 311,-97.7401 317,-103.74 317,-109.74 317,-109.74 317,-178.48 317,-178.48 317,-184.48 311,-190.48 305,-190.48 305,-190.48 171,-190.48 171,-190.48 165,-190.48 159,-184.48 159,-178.48 159,-178.48 159,-109.74 159,-109.74 159,-103.74 165,-97.7401 171,-97.7401"/>
<text text-anchor="middle" x="238" y="-175.28" font-family="Times,serif" font-size="14.00">_debug.enable</text>
</g>
<!-- _debug__enable -->
<g id="node1" class="node"><title>_debug__enable</title>
<ellipse fill="#ccfecc" fill-opacity="0.698039" stroke="black" cx="246" cy="-225.35" rx="70.922" ry="26.7407"/>
<text text-anchor="middle" x="246" y="-229.15" font-family="Times,serif" font-size="14.00" fill="#000000">enable</text>
<text text-anchor="middle" x="246" y="-214.15" font-family="Times,serif" font-size="14.00" fill="#000000">(_debug.py:16)</text>
</g>
<!-- _debug__enable__wrapped_step -->
<g id="node5" class="node"><title>_debug__enable__wrapped_step</title>
<ellipse fill="#99ff99" fill-opacity="0.698039" stroke="black" cx="238" cy="-132.61" rx="70.922" ry="26.7407"/>
<text text-anchor="middle" x="238" y="-136.41" font-family="Times,serif" font-size="14.00" fill="#000000">wrapped_step</text>
<text text-anchor="middle" x="238" y="-121.41" font-family="Times,serif" font-size="14.00" fill="#000000">(_debug.py:21)</text>
</g>
<!-- _debug__enable&#45;&gt;_debug__enable__wrapped_step -->
<g id="edge3" class="edge"><title>_debug__enable&#45;&gt;_debug__enable__wrapped_step</title>
<path fill="none" stroke="black" d="M243.686,-198.104C242.9,-189.187 242.007,-179.062 241.166,-169.522"/>
<polygon fill="black" stroke="black" points="244.646,-169.138 240.281,-159.484 237.673,-169.752 244.646,-169.138"/>
</g>
<!-- _debug__pre_step -->
<g id="node2" class="node"><title>_debug__pre_step</title>
<ellipse fill="#ccfecc" fill-opacity="0.698039" stroke="black" cx="87" cy="-42.8701" rx="70.922" ry="26.7407"/>
<text text-anchor="middle" x="87" y="-46.6701" font-family="Times,serif" font-size="14.00" fill="#000000">pre_step</text>
<text text-anchor="middle" x="87" y="-31.6701" font-family="Times,serif" font-size="14.00" fill="#000000">(_debug.py:36)</text>
</g>
<!-- _debug__post_step -->
<g id="node3" class="node"><title>_debug__post_step</title>
<ellipse fill="#ccfecc" fill-opacity="0.698039" stroke="black" cx="246" cy="-42.8701" rx="70.922" ry="26.7407"/>
<text text-anchor="middle" x="246" y="-46.6701" font-family="Times,serif" font-size="14.00" fill="#000000">post_step</text>
<text text-anchor="middle" x="246" y="-31.6701" font-family="Times,serif" font-size="14.00" fill="#000000">(_debug.py:75)</text>
</g>
<!-- _debug__disable -->
<g id="node4" class="node"><title>_debug__disable</title>
<ellipse fill="#ccfecc" fill-opacity="0.698039" stroke="black" cx="87" cy="-225.35" rx="70.922" ry="26.7407"/>
<text text-anchor="middle" x="87" y="-229.15" font-family="Times,serif" font-size="14.00" fill="#000000">disable</text>
<text text-anchor="middle" x="87" y="-214.15" font-family="Times,serif" font-size="14.00" fill="#000000">(_debug.py:30)</text>
</g>
<!-- _debug__enable__wrapped_step&#45;&gt;_debug__pre_step -->
<g id="edge1" class="edge"><title>_debug__enable__wrapped_step&#45;&gt;_debug__pre_step</title>
<path fill="none" stroke="black" d="M200.286,-109.696C179.94,-97.874 154.662,-83.1859 133.15,-70.6857"/>
<polygon fill="black" stroke="black" points="134.9,-67.6547 124.495,-65.6568 131.383,-73.7071 134.9,-67.6547"/>
</g>
<!-- _debug__enable__wrapped_step&#45;&gt;_debug__post_step -->
<g id="edge2" class="edge"><title>_debug__enable__wrapped_step&#45;&gt;_debug__post_step</title>
<path fill="none" stroke="black" d="M240.4,-105.285C241.127,-97.3185 241.937,-88.4275 242.711,-79.9391"/>
<polygon fill="black" stroke="black" points="246.206,-80.1506 243.629,-69.874 239.235,-79.5149 246.206,-80.1506"/>
</g>
</g>
</svg>
