<?xml version="1.0" encoding="UTF-8" standalone="no"?>
<!DOCTYPE svg PUBLIC "-//W3C//DTD SVG 1.1//EN"
 "http://www.w3.org/Graphics/SVG/1.1/DTD/svg11.dtd">
<!-- Generated by graphviz version 2.38.0 (20140413.2041)
 -->
<!-- Title: G Pages: 1 -->
<svg width="401pt" height="335pt"
 viewBox="0.00 0.00 400.66 335.22" xmlns="http://www.w3.org/2000/svg" xmlns:xlink="http://www.w3.org/1999/xlink">
<g id="graph0" class="graph" transform="scale(1 1) rotate(0) translate(4 331.22)">
<title>G</title>
<polygon fill="white" stroke="none" points="-4,4 -4,-331.22 396.66,-331.22 396.66,4 -4,4"/>
<g id="clust1" class="cluster"><title>cluster__debug</title>
<path fill="#808080" fill-opacity="0.094118" stroke="black" d="M20,-8C20,-8 321,-8 321,-8 327,-8 333,-14 333,-20 333,-20 333,-271.22 333,-271.22 333,-277.22 327,-283.22 321,-283.22 321,-283.22 20,-283.22 20,-283.22 14,-283.22 8,-277.22 8,-271.22 8,-271.22 8,-20 8,-20 8,-14 14,-8 20,-8"/>
<text text-anchor="middle" x="170.5" y="-268.02" font-family="Times,serif" font-size="14.00">_debug</text>
</g>
<g id="clust2" class="cluster"><title>cluster__debug__enable</title>
<path fill="#808080" fill-opacity="0.094118" stroke="black" d="M179,-97.7401C179,-97.7401 313,-97.7401 313,-97.7401 319,-97.7401 325,-103.74 325,-109.74 325,-109.74 325,-178.48 325,-178.48 325,-184.48 319,-190.48 313,-190.48 313,-190.48 179,-190.48 179,-190.48 173,-190.48 167,-184.48 167,-178.48 167,-178.48 167,-109.74 167,-109.74 167,-103.74 173,-97.7401 179,-97.7401"/>
<text text-anchor="middle" x="246" y="-175.28" font-family="Times,serif" font-size="14.00">_debug.enable</text>
</g>
<!-- _debug -->
<g id="node1" class="node"><title>_debug</title>
<ellipse fill="#ffffff" fill-opacity="0.698039" stroke="black" cx="295" cy="-309.22" rx="36.2938" ry="18"/>
<text text-anchor="middle" x="295" y="-305.52" font-family="Times,serif" font-size="14.00" fill="#000000">_debug</text>
</g>
<!-- _debug__enable -->
<g id="node2" class="node"><title>_debug__enable</title>
<ellipse fill="#ccfecc" fill-opacity="0.698039" stroke="black" cx="246" cy="-225.35" rx="70.922" ry="26.7407"/>
<text text-anchor="middle" x="246" y="-229.15" font-family="Times,serif" font-size="14.00" fill="#000000">enable</text>
<text text-anchor="middle" x="246" y="-214.15" font-family="Times,serif" font-size="14.00" fill="#000000">(_debug.py:16)</text>
</g>
<!-- _debug&#45;&gt;_debug__enable -->
<g id="edge3" class="edge"><title>_debug&#45;&gt;_debug__enable</title>
<path fill="none" stroke="#838b8b" stroke-dasharray="5,2" d="M285.084,-291.653C279.71,-282.673 272.863,-271.233 266.407,-260.446"/>
<polygon fill="#838b8b" stroke="#838b8b" points="269.255,-258.39 261.116,-251.606 263.248,-261.985 269.255,-258.39"/>
</g>
<!-- _debug__pre_step -->
<g id="node3" class="node"><title>_debug__pre_step</title>
<ellipse fill="#ccfecc" fill-opacity="0.698039" stroke="black" cx="95" cy="-42.8701" rx="70.922" ry="26.7407"/>
<text text-anchor="middle" x="95" y="-46.6701" font-family="Times,serif" font-size="14.00" fill="#000000">pre_step</text>
<text text-anchor="middle" x="95" y="-31.6701" font-family="Times,serif" font-size="14.00" fill="#000000">(_debug.py:36)</text>
</g>
<!-- _debug&#45;&gt;_debug__pre_step -->
<g id="edge1" class="edge"><title>_debug&#45;&gt;_debug__pre_step</title>
<path fill="none" stroke="#838b8b" stroke-dasharray="5,2" d="M316.896,-294.666C320.546,-291.384 323.842,-287.552 326,-283.22 344.384,-246.323 355.432,-129.374 329,-97.7401 306.557,-70.8801 207.935,-78.318 174,-69.7401 167.94,-68.2082 161.669,-66.4542 155.432,-64.597"/>
<polygon fill="#838b8b" stroke="#838b8b" points="156.281,-61.1965 145.694,-61.6107 154.229,-67.8889 156.281,-61.1965"/>
</g>
<!-- _debug__post_step -->
<g id="node4" class="node"><title>_debug__post_step</title>
<ellipse fill="#ccfecc" fill-opacity="0.698039" stroke="black" cx="254" cy="-42.8701" rx="70.922" ry="26.7407"/>
<text text-anchor="middle" x="254" y="-46.6701" font-family="Times,serif" font-size="14.00" fill="#000000">post_step</text>
<text text-anchor="middle" x="254" y="-31.6701" font-family="Times,serif" font-size="14.00" fill="#000000">(_debug.py:75)</text>
</g>
<!-- _debug&#45;&gt;_debug__post_step -->
<g id="edge4" class="edge"><title>_debug&#45;&gt;_debug__post_step</title>
<path fill="none" stroke="#838b8b" stroke-dasharray="5,2" d="M329.166,-302.872C340.584,-299.278 352.138,-293.268 359,-283.22 405.492,-215.146 401.974,-168.088 359,-97.7401 349.848,-82.7591 335.06,-71.7717 319.434,-63.7827"/>
<polygon fill="#838b8b" stroke="#838b8b" points="320.711,-60.5152 310.173,-59.4179 317.726,-66.8472 320.711,-60.5152"/>
</g>
<!-- _debug__disable -->
<g id="node5" class="node"><title>_debug__disable</title>
<ellipse fill="#ccfecc" fill-opacity="0.698039" stroke="black" cx="87" cy="-225.35" rx="70.922" ry="26.7407"/>
<text text-anchor="middle" x="87" y="-229.15" font-family="Times,serif" font-size="14.00" fill="#000000">disable</text>
<text text-anchor="middle" x="87" y="-214.15" font-family="Times,serif" font-size="14.00" fill="#000000">(_debug.py:30)</text>
</g>
<!-- _debug&#45;&gt;_debug__disable -->
<g id="edge2" class="edge"><title>_debug&#45;&gt;_debug__disable</title>
<path fill="none" stroke="#838b8b" stroke-dasharray="5,2" d="M259.291,-305.468C232.69,-302.439 195.948,-296.154 166,-283.22 150.601,-276.57 135.267,-266.527 122.262,-256.722"/>
<polygon fill="#838b8b" stroke="#838b8b" points="124.117,-253.731 114.076,-250.352 119.818,-259.255 124.117,-253.731"/>
</g>
<!-- _debug__enable__wrapped_step -->
<g id="node6" class="node"><title>_debug__enable__wrapped_step</title>
<ellipse fill="#99ff99" fill-opacity="0.698039" stroke="black" cx="246" cy="-132.61" rx="70.922" ry="26.7407"/>
<text text-anchor="middle" x="246" y="-136.41" font-family="Times,serif" font-size="14.00" fill="#000000">wrapped_step</text>
<text text-anchor="middle" x="246" y="-121.41" font-family="Times,serif" font-size="14.00" fill="#000000">(_debug.py:21)</text>
</g>
<!-- _debug__enable&#45;&gt;_debug__enable__wrapped_step -->
<g id="edge5" class="edge"><title>_debug__enable&#45;&gt;_debug__enable__wrapped_step</title>
<path fill="none" stroke="#838b8b" stroke-dasharray="5,2" d="M239.814,-198.104C239.256,-189.187 239.112,-179.062 239.382,-169.522"/>
<polygon fill="#838b8b" stroke="#838b8b" points="242.881,-169.632 239.838,-159.484 235.888,-169.315 242.881,-169.632"/>
</g>
<!-- _debug__enable&#45;&gt;_debug__enable__wrapped_step -->
<g id="edge8" class="edge"><title>_debug__enable&#45;&gt;_debug__enable__wrapped_step</title>
<path fill="none" stroke="black" d="M252.186,-198.104C252.744,-189.187 252.888,-179.062 252.618,-169.522"/>
<polygon fill="black" stroke="black" points="256.112,-169.315 252.162,-159.484 249.119,-169.632 256.112,-169.315"/>
</g>
<!-- _debug__enable__wrapped_step&#45;&gt;_debug__pre_step -->
<g id="edge6" class="edge"><title>_debug__enable__wrapped_step&#45;&gt;_debug__pre_step</title>
<path fill="none" stroke="black" d="M208.286,-109.696C187.94,-97.874 162.662,-83.1859 141.15,-70.6857"/>
<polygon fill="black" stroke="black" points="142.9,-67.6547 132.495,-65.6568 139.383,-73.7071 142.9,-67.6547"/>
</g>
<!-- _debug__enable__wrapped_step&#45;&gt;_debug__post_step -->
<g id="edge7" class="edge"><title>_debug__enable__wrapped_step&#45;&gt;_debug__post_step</title>
<path fill="none" stroke="black" d="M248.4,-105.285C249.127,-97.3185 249.937,-88.4275 250.711,-79.9391"/>
<polygon fill="black" stroke="black" points="254.206,-80.1506 251.629,-69.874 247.235,-79.5149 254.206,-80.1506"/>
</g>
</g>
</svg>
