<?xml version="1.0" encoding="UTF-8" standalone="no"?>
<!DOCTYPE svg PUBLIC "-//W3C//DTD SVG 1.1//EN"
 "http://www.w3.org/Graphics/SVG/1.1/DTD/svg11.dtd">
<!-- Generated by graphviz version 2.38.0 (20140413.2041)
 -->
<!-- Title: G Pages: 1 -->
<svg width="574pt" height="156pt"
 viewBox="0.00 0.00 574.00 155.74" xmlns="http://www.w3.org/2000/svg" xmlns:xlink="http://www.w3.org/1999/xlink">
<g id="graph0" class="graph" transform="scale(1 1) rotate(0) translate(4 151.74)">
<title>G</title>
<polygon fill="white" stroke="none" points="-4,4 -4,-151.74 570,-151.74 570,4 -4,4"/>
<g id="clust1" class="cluster"><title>cluster_exceptions</title>
<path fill="#808080" fill-opacity="0.094118" stroke="black" d="M20,-8C20,-8 546,-8 546,-8 552,-8 558,-14 558,-20 558,-20 558,-127.74 558,-127.74 558,-133.74 552,-139.74 546,-139.74 546,-139.74 20,-139.74 20,-139.74 14,-139.74 8,-133.74 8,-127.74 8,-127.74 8,-20 8,-20 8,-14 14,-8 20,-8"/>
<text text-anchor="middle" x="283" y="-124.54" font-family="Times,serif" font-size="14.00">exceptions</text>
</g>
<g id="clust2" class="cluster"><title>cluster_exceptions__SimulationError</title>
<path fill="#808080" fill-opacity="0.094118" stroke="black" d="M380,-16C380,-16 538,-16 538,-16 544,-16 550,-22 550,-28 550,-28 550,-96.7401 550,-96.7401 550,-102.74 544,-108.74 538,-108.74 538,-108.74 380,-108.74 380,-108.74 374,-108.74 368,-102.74 368,-96.7401 368,-96.7401 368,-28 368,-28 368,-22 374,-16 380,-16"/>
<text text-anchor="middle" x="459" y="-93.5401" font-family="Times,serif" font-size="14.00">exceptions.SimulationError</text>
</g>
<!-- exceptions__ScenarioError -->
<g id="node1" class="node"><title>exceptions__ScenarioError</title>
<ellipse fill="#ccfecc" fill-opacity="0.698039" stroke="black" cx="279" cy="-50.8701" rx="78.4777" ry="26.7407"/>
<text text-anchor="middle" x="279" y="-54.6701" font-family="Times,serif" font-size="14.00" fill="#000000">ScenarioError</text>
<text text-anchor="middle" x="279" y="-39.6701" font-family="Times,serif" font-size="14.00" fill="#000000">(exceptions.py:7)</text>
</g>
<!-- exceptions__SimulationError -->
<g id="node2" class="node"><title>exceptions__SimulationError</title>
<ellipse fill="#ccfecc" fill-opacity="0.698039" stroke="black" cx="99" cy="-50.8701" rx="83.3772" ry="26.7407"/>
<text text-anchor="middle" x="99" y="-54.6701" font-family="Times,serif" font-size="14.00" fill="#000000">SimulationError</text>
<text text-anchor="middle" x="99" y="-39.6701" font-family="Times,serif" font-size="14.00" fill="#000000">(exceptions.py:14)</text>
</g>
<!-- exceptions__SimulationError____init__ -->
<g id="node3" class="node"><title>exceptions__SimulationError____init__</title>
<ellipse fill="#99ff99" fill-opacity="0.698039" stroke="black" cx="459" cy="-50.8701" rx="83.3772" ry="26.7407"/>
<text text-anchor="middle" x="459" y="-54.6701" font-family="Times,serif" font-size="14.00" fill="#000000">__init__</text>
<text text-anchor="middle" x="459" y="-39.6701" font-family="Times,serif" font-size="14.00" fill="#000000">(exceptions.py:19)</text>
</g>
</g>
</svg>
