<?xml version="1.0" encoding="UTF-8" standalone="no"?>
<!DOCTYPE svg PUBLIC "-//W3C//DTD SVG 1.1//EN"
 "http://www.w3.org/Graphics/SVG/1.1/DTD/svg11.dtd">
<!-- Generated by graphviz version 2.38.0 (20140413.2041)
 -->
<!-- Title: G Pages: 1 -->
<svg width="381pt" height="253pt"
 viewBox="0.00 0.00 381.00 253.48" xmlns="http://www.w3.org/2000/svg" xmlns:xlink="http://www.w3.org/1999/xlink">
<g id="graph0" class="graph" transform="scale(1 1) rotate(0) translate(4 249.48)">
<title>G</title>
<polygon fill="white" stroke="none" points="-4,4 -4,-249.48 377,-249.48 377,4 -4,4"/>
<g id="clust1" class="cluster"><title>cluster_exceptions</title>
<path fill="#808080" fill-opacity="0.094118" stroke="black" d="M20,-8C20,-8 353,-8 353,-8 359,-8 365,-14 365,-20 365,-20 365,-189.48 365,-189.48 365,-195.48 359,-201.48 353,-201.48 353,-201.48 20,-201.48 20,-201.48 14,-201.48 8,-195.48 8,-189.48 8,-189.48 8,-20 8,-20 8,-14 14,-8 20,-8"/>
<text text-anchor="middle" x="186.5" y="-186.28" font-family="Times,serif" font-size="14.00">exceptions</text>
</g>
<g id="clust2" class="cluster"><title>cluster_exceptions__SimulationError</title>
<path fill="#808080" fill-opacity="0.094118" stroke="black" d="M28,-16C28,-16 186,-16 186,-16 192,-16 198,-22 198,-28 198,-28 198,-96.7401 198,-96.7401 198,-102.74 192,-108.74 186,-108.74 186,-108.74 28,-108.74 28,-108.74 22,-108.74 16,-102.74 16,-96.7401 16,-96.7401 16,-28 16,-28 16,-22 22,-16 28,-16"/>
<text text-anchor="middle" x="107" y="-93.5401" font-family="Times,serif" font-size="14.00">exceptions.SimulationError</text>
</g>
<!-- exceptions -->
<g id="node1" class="node"><title>exceptions</title>
<ellipse fill="#ffffff" fill-opacity="0.698039" stroke="black" cx="189" cy="-227.48" rx="48.1917" ry="18"/>
<text text-anchor="middle" x="189" y="-223.78" font-family="Times,serif" font-size="14.00" fill="#000000">exceptions</text>
</g>
<!-- exceptions__ScenarioError -->
<g id="node2" class="node"><title>exceptions__ScenarioError</title>
<ellipse fill="#ccfecc" fill-opacity="0.698039" stroke="black" cx="279" cy="-143.61" rx="78.4777" ry="26.7407"/>
<text text-anchor="middle" x="279" y="-147.41" font-family="Times,serif" font-size="14.00" fill="#000000">ScenarioError</text>
<text text-anchor="middle" x="279" y="-132.41" font-family="Times,serif" font-size="14.00" fill="#000000">(exceptions.py:7)</text>
</g>
<!-- exceptions&#45;&gt;exceptions__ScenarioError -->
<g id="edge1" class="edge"><title>exceptions&#45;&gt;exceptions__ScenarioError</title>
<path fill="none" stroke="#838b8b" stroke-dasharray="5,2" d="M206.781,-210.305C217.573,-200.489 231.709,-187.629 244.612,-175.892"/>
<polygon fill="#838b8b" stroke="#838b8b" points="246.989,-178.461 252.031,-169.143 242.279,-173.283 246.989,-178.461"/>
</g>
<!-- exceptions__SimulationError -->
<g id="node3" class="node"><title>exceptions__SimulationError</title>
<ellipse fill="#ccfecc" fill-opacity="0.698039" stroke="black" cx="99" cy="-143.61" rx="83.3772" ry="26.7407"/>
<text text-anchor="middle" x="99" y="-147.41" font-family="Times,serif" font-size="14.00" fill="#000000">SimulationError</text>
<text text-anchor="middle" x="99" y="-132.41" font-family="Times,serif" font-size="14.00" fill="#000000">(exceptions.py:14)</text>
</g>
<!-- exceptions&#45;&gt;exceptions__SimulationError -->
<g id="edge2" class="edge"><title>exceptions&#45;&gt;exceptions__SimulationError</title>
<path fill="none" stroke="#838b8b" stroke-dasharray="5,2" d="M171.219,-210.305C160.427,-200.489 146.291,-187.629 133.388,-175.892"/>
<polygon fill="#838b8b" stroke="#838b8b" points="135.721,-173.283 125.969,-169.143 131.011,-178.461 135.721,-173.283"/>
</g>
<!-- exceptions__SimulationError____init__ -->
<g id="node4" class="node"><title>exceptions__SimulationError____init__</title>
<ellipse fill="#99ff99" fill-opacity="0.698039" stroke="black" cx="107" cy="-50.8701" rx="83.3772" ry="26.7407"/>
<text text-anchor="middle" x="107" y="-54.6701" font-family="Times,serif" font-size="14.00" fill="#000000">__init__</text>
<text text-anchor="middle" x="107" y="-39.6701" font-family="Times,serif" font-size="14.00" fill="#000000">(exceptions.py:19)</text>
</g>
<!-- exceptions__SimulationError&#45;&gt;exceptions__SimulationError____init__ -->
<g id="edge3" class="edge"><title>exceptions__SimulationError&#45;&gt;exceptions__SimulationError____init__</title>
<path fill="none" stroke="#838b8b" stroke-dasharray="5,2" d="M101.314,-116.364C102.1,-107.447 102.993,-97.3223 103.834,-87.7819"/>
<polygon fill="#838b8b" stroke="#838b8b" points="107.327,-88.0123 104.719,-77.7435 100.354,-87.3975 107.327,-88.0123"/>
</g>
</g>
</svg>
