<?xml version="1.0" encoding="UTF-8" standalone="no"?>
<!DOCTYPE svg PUBLIC "-//W3C//DTD SVG 1.1//EN"
 "http://www.w3.org/Graphics/SVG/1.1/DTD/svg11.dtd">
<!-- Generated by graphviz version 2.38.0 (20140413.2041)
 -->
<!-- Title: G Pages: 1 -->
<svg width="2569pt" height="466pt"
 viewBox="0.00 0.00 2569.00 465.96" xmlns="http://www.w3.org/2000/svg" xmlns:xlink="http://www.w3.org/1999/xlink">
<g id="graph0" class="graph" transform="scale(1 1) rotate(0) translate(4 461.96)">
<title>G</title>
<polygon fill="white" stroke="none" points="-4,4 -4,-461.96 2565,-461.96 2565,4 -4,4"/>
<g id="clust1" class="cluster"><title>cluster_mosaik__scenario</title>
<path fill="#808080" fill-opacity="0.094118" stroke="black" d="M20,-8C20,-8 2541,-8 2541,-8 2547,-8 2553,-14 2553,-20 2553,-20 2553,-437.96 2553,-437.96 2553,-443.96 2547,-449.96 2541,-449.96 2541,-449.96 20,-449.96 20,-449.96 14,-449.96 8,-443.96 8,-437.96 8,-437.96 8,-20 8,-20 8,-14 14,-8 20,-8"/>
<text text-anchor="middle" x="1280.5" y="-434.76" font-family="Times,serif" font-size="14.00">mosaik.scenario</text>
</g>
<g id="clust2" class="cluster"><title>cluster_mosaik__scenario__Entity</title>
<path fill="#808080" fill-opacity="0.094118" stroke="black" d="M1031,-24C1031,-24 1682,-24 1682,-24 1688,-24 1694,-30 1694,-36 1694,-36 1694,-104.74 1694,-104.74 1694,-110.74 1688,-116.74 1682,-116.74 1682,-116.74 1031,-116.74 1031,-116.74 1025,-116.74 1019,-110.74 1019,-104.74 1019,-104.74 1019,-36 1019,-36 1019,-30 1025,-24 1031,-24"/>
<text text-anchor="middle" x="1356.5" y="-101.54" font-family="Times,serif" font-size="14.00">mosaik.scenario.Entity</text>
</g>
<g id="clust3" class="cluster"><title>cluster_mosaik__scenario__ModelFactory</title>
<path fill="#808080" fill-opacity="0.094118" stroke="black" d="M2059,-124.74C2059,-124.74 2373,-124.74 2373,-124.74 2379,-124.74 2385,-130.74 2385,-136.74 2385,-136.74 2385,-406.96 2385,-406.96 2385,-412.96 2379,-418.96 2373,-418.96 2373,-418.96 2059,-418.96 2059,-418.96 2053,-418.96 2047,-412.96 2047,-406.96 2047,-406.96 2047,-136.74 2047,-136.74 2047,-130.74 2053,-124.74 2059,-124.74"/>
<text text-anchor="middle" x="2216" y="-403.76" font-family="Times,serif" font-size="14.00">mosaik.scenario.ModelFactory</text>
</g>
<g id="clust4" class="cluster"><title>cluster_mosaik__scenario__ModelFactory____init__</title>
<path fill="#808080" fill-opacity="0.094118" stroke="black" d="M2067,-132.74C2067,-132.74 2365,-132.74 2365,-132.74 2371,-132.74 2377,-138.74 2377,-144.74 2377,-144.74 2377,-314.22 2377,-314.22 2377,-320.22 2371,-326.22 2365,-326.22 2365,-326.22 2067,-326.22 2067,-326.22 2061,-326.22 2055,-320.22 2055,-314.22 2055,-314.22 2055,-144.74 2055,-144.74 2055,-138.74 2061,-132.74 2067,-132.74"/>
<text text-anchor="middle" x="2216" y="-311.02" font-family="Times,serif" font-size="14.00">mosaik.scenario.ModelFactory.__init__</text>
</g>
<g id="clust5" class="cluster"><title>cluster_mosaik__scenario__ModelFactory____init____get_wrapper</title>
<path fill="#808080" fill-opacity="0.094118" stroke="black" d="M2075,-140.74C2075,-140.74 2357,-140.74 2357,-140.74 2363,-140.74 2369,-146.74 2369,-152.74 2369,-152.74 2369,-221.48 2369,-221.48 2369,-227.48 2363,-233.48 2357,-233.48 2357,-233.48 2075,-233.48 2075,-233.48 2069,-233.48 2063,-227.48 2063,-221.48 2063,-221.48 2063,-152.74 2063,-152.74 2063,-146.74 2069,-140.74 2075,-140.74"/>
<text text-anchor="middle" x="2216" y="-218.28" font-family="Times,serif" font-size="14.00">mosaik.scenario.ModelFactory.__init__.get_wrapper</text>
</g>
<g id="clust6" class="cluster"><title>cluster_mosaik__scenario__ModelMock</title>
<path fill="#808080" fill-opacity="0.094118" stroke="black" d="M1714,-24C1714,-24 2027,-24 2027,-24 2033,-24 2039,-30 2039,-36 2039,-36 2039,-406.96 2039,-406.96 2039,-412.96 2033,-418.96 2027,-418.96 2027,-418.96 1714,-418.96 1714,-418.96 1708,-418.96 1702,-412.96 1702,-406.96 1702,-406.96 1702,-36 1702,-36 1702,-30 1708,-24 1714,-24"/>
<text text-anchor="middle" x="1870.5" y="-403.76" font-family="Times,serif" font-size="14.00">mosaik.scenario.ModelMock</text>
</g>
<g id="clust7" class="cluster"><title>cluster_mosaik__scenario__World</title>
<path fill="#808080" fill-opacity="0.094118" stroke="black" d="M28,-16C28,-16 838,-16 838,-16 844,-16 850,-22 850,-28 850,-28 850,-221.48 850,-221.48 850,-227.48 844,-233.48 838,-233.48 838,-233.48 28,-233.48 28,-233.48 22,-233.48 16,-227.48 16,-221.48 16,-221.48 16,-28 16,-28 16,-22 22,-16 28,-16"/>
<text text-anchor="middle" x="433" y="-218.28" font-family="Times,serif" font-size="14.00">mosaik.scenario.World</text>
</g>
<g id="clust8" class="cluster"><title>cluster_mosaik__scenario__World__get_data</title>
<path fill="#808080" fill-opacity="0.094118" stroke="black" d="M196,-24C196,-24 366,-24 366,-24 372,-24 378,-30 378,-36 378,-36 378,-104.74 378,-104.74 378,-110.74 372,-116.74 366,-116.74 366,-116.74 196,-116.74 196,-116.74 190,-116.74 184,-110.74 184,-104.74 184,-104.74 184,-36 184,-36 184,-30 190,-24 196,-24"/>
<text text-anchor="middle" x="281" y="-101.54" font-family="Times,serif" font-size="14.00">mosaik.scenario.World.get_data</text>
</g>
<!-- mosaik__scenario__World -->
<g id="node1" class="node"><title>mosaik__scenario__World</title>
<ellipse fill="#99ff99" fill-opacity="0.698039" stroke="black" cx="854" cy="-361.09" rx="70.922" ry="26.7407"/>
<text text-anchor="middle" x="854" y="-364.89" font-family="Times,serif" font-size="14.00" fill="#000000">World</text>
<text text-anchor="middle" x="854" y="-349.89" font-family="Times,serif" font-size="14.00" fill="#000000">(mosaik.py:32)</text>
</g>
<!-- mosaik__scenario__ModelFactory -->
<g id="node2" class="node"><title>mosaik__scenario__ModelFactory</title>
<ellipse fill="#99ff99" fill-opacity="0.698039" stroke="black" cx="934" cy="-58.8701" rx="75.8212" ry="26.7407"/>
<text text-anchor="middle" x="934" y="-62.6701" font-family="Times,serif" font-size="14.00" fill="#000000">ModelFactory</text>
<text text-anchor="middle" x="934" y="-47.6701" font-family="Times,serif" font-size="14.00" fill="#000000">(mosaik.py:333)</text>
</g>
<!-- mosaik__scenario__ModelMock -->
<g id="node3" class="node"><title>mosaik__scenario__ModelMock</title>
<ellipse fill="#99ff99" fill-opacity="0.698039" stroke="black" cx="2469" cy="-268.35" rx="75.8212" ry="26.7407"/>
<text text-anchor="middle" x="2469" y="-272.15" font-family="Times,serif" font-size="14.00" fill="#000000">ModelMock</text>
<text text-anchor="middle" x="2469" y="-257.15" font-family="Times,serif" font-size="14.00" fill="#000000">(mosaik.py:378)</text>
</g>
<!-- mosaik__scenario__Entity -->
<g id="node4" class="node"><title>mosaik__scenario__Entity</title>
<ellipse fill="#99ff99" fill-opacity="0.698039" stroke="black" cx="2124" cy="-58.8701" rx="75.8212" ry="26.7407"/>
<text text-anchor="middle" x="2124" y="-62.6701" font-family="Times,serif" font-size="14.00" fill="#000000">Entity</text>
<text text-anchor="middle" x="2124" y="-47.6701" font-family="Times,serif" font-size="14.00" fill="#000000">(mosaik.py:465)</text>
</g>
<!-- mosaik__scenario__Entity____init__ -->
<g id="node5" class="node"><title>mosaik__scenario__Entity____init__</title>
<ellipse fill="#65ff65" fill-opacity="0.698039" stroke="black" cx="1610" cy="-58.8701" rx="75.8212" ry="26.7407"/>
<text text-anchor="middle" x="1610" y="-62.6701" font-family="Times,serif" font-size="14.00" fill="#000000">__init__</text>
<text text-anchor="middle" x="1610" y="-47.6701" font-family="Times,serif" font-size="14.00" fill="#000000">(mosaik.py:469)</text>
</g>
<!-- mosaik__scenario__Entity__full_id -->
<g id="node6" class="node"><title>mosaik__scenario__Entity__full_id</title>
<ellipse fill="#65ff65" fill-opacity="0.698039" stroke="black" cx="1441" cy="-58.8701" rx="75.8212" ry="26.7407"/>
<text text-anchor="middle" x="1441" y="-62.6701" font-family="Times,serif" font-size="14.00" fill="#000000">full_id</text>
<text text-anchor="middle" x="1441" y="-47.6701" font-family="Times,serif" font-size="14.00" fill="#000000">(mosaik.py:488)</text>
</g>
<!-- mosaik__scenario__Entity____str__ -->
<g id="node7" class="node"><title>mosaik__scenario__Entity____str__</title>
<ellipse fill="#65ff65" fill-opacity="0.698039" stroke="black" cx="1272" cy="-58.8701" rx="75.8212" ry="26.7407"/>
<text text-anchor="middle" x="1272" y="-62.6701" font-family="Times,serif" font-size="14.00" fill="#000000">__str__</text>
<text text-anchor="middle" x="1272" y="-47.6701" font-family="Times,serif" font-size="14.00" fill="#000000">(mosaik.py:493)</text>
</g>
<!-- mosaik__scenario__Entity____repr__ -->
<g id="node8" class="node"><title>mosaik__scenario__Entity____repr__</title>
<ellipse fill="#65ff65" fill-opacity="0.698039" stroke="black" cx="1103" cy="-58.8701" rx="75.8212" ry="26.7407"/>
<text text-anchor="middle" x="1103" y="-62.6701" font-family="Times,serif" font-size="14.00" fill="#000000">__repr__</text>
<text text-anchor="middle" x="1103" y="-47.6701" font-family="Times,serif" font-size="14.00" fill="#000000">(mosaik.py:497)</text>
</g>
<!-- mosaik__scenario__ModelFactory____init__ -->
<g id="node9" class="node"><title>mosaik__scenario__ModelFactory____init__</title>
<ellipse fill="#65ff65" fill-opacity="0.698039" stroke="black" cx="2300" cy="-361.09" rx="75.8212" ry="26.7407"/>
<text text-anchor="middle" x="2300" y="-364.89" font-family="Times,serif" font-size="14.00" fill="#000000">__init__</text>
<text text-anchor="middle" x="2300" y="-349.89" font-family="Times,serif" font-size="14.00" fill="#000000">(mosaik.py:344)</text>
</g>
<!-- mosaik__scenario__ModelFactory____init__&#45;&gt;mosaik__scenario__ModelMock -->
<g id="edge7" class="edge"><title>mosaik__scenario__ModelFactory____init__&#45;&gt;mosaik__scenario__ModelMock</title>
<path fill="none" stroke="black" d="M2349.91,-340.863C2360.34,-336.389 2371.16,-331.407 2381,-326.22 2396.59,-318.005 2412.99,-307.862 2427.35,-298.427"/>
<polygon fill="black" stroke="black" points="2429.61,-301.123 2436,-292.668 2425.73,-295.297 2429.61,-301.123"/>
</g>
<!-- mosaik__scenario__ModelFactory____init____get_wrapper -->
<g id="node11" class="node"><title>mosaik__scenario__ModelFactory____init____get_wrapper</title>
<ellipse fill="#32ff32" fill-opacity="0.698039" stroke="black" cx="2289" cy="-268.35" rx="75.8212" ry="26.7407"/>
<text text-anchor="middle" x="2289" y="-272.15" font-family="Times,serif" font-size="14.00" fill="#000000">get_wrapper</text>
<text text-anchor="middle" x="2289" y="-257.15" font-family="Times,serif" font-size="14.00" fill="#000000">(mosaik.py:360)</text>
</g>
<!-- mosaik__scenario__ModelFactory____init__&#45;&gt;mosaik__scenario__ModelFactory____init____get_wrapper -->
<g id="edge6" class="edge"><title>mosaik__scenario__ModelFactory____init__&#45;&gt;mosaik__scenario__ModelFactory____init____get_wrapper</title>
<path fill="none" stroke="black" d="M2296.82,-333.845C2295.74,-324.927 2294.51,-314.803 2293.35,-305.262"/>
<polygon fill="black" stroke="black" points="2296.81,-304.73 2292.14,-295.224 2289.87,-305.572 2296.81,-304.73"/>
</g>
<!-- mosaik__scenario__ModelFactory____getattr__ -->
<g id="node10" class="node"><title>mosaik__scenario__ModelFactory____getattr__</title>
<ellipse fill="#65ff65" fill-opacity="0.698039" stroke="black" cx="2131" cy="-361.09" rx="75.8212" ry="26.7407"/>
<text text-anchor="middle" x="2131" y="-364.89" font-family="Times,serif" font-size="14.00" fill="#000000">__getattr__</text>
<text text-anchor="middle" x="2131" y="-349.89" font-family="Times,serif" font-size="14.00" fill="#000000">(mosaik.py:368)</text>
</g>
<!-- mosaik__scenario__ModelFactory____init____get_wrapper__wrapper -->
<g id="node12" class="node"><title>mosaik__scenario__ModelFactory____init____get_wrapper__wrapper</title>
<ellipse fill="#00ff00" fill-opacity="0.698039" stroke="black" cx="2285" cy="-175.61" rx="75.8212" ry="26.7407"/>
<text text-anchor="middle" x="2285" y="-179.41" font-family="Times,serif" font-size="14.00" fill="#000000">wrapper</text>
<text text-anchor="middle" x="2285" y="-164.41" font-family="Times,serif" font-size="14.00" fill="#000000">(mosaik.py:361)</text>
</g>
<!-- mosaik__scenario__ModelFactory____init____get_wrapper&#45;&gt;mosaik__scenario__ModelFactory____init____get_wrapper__wrapper -->
<g id="edge8" class="edge"><title>mosaik__scenario__ModelFactory____init____get_wrapper&#45;&gt;mosaik__scenario__ModelFactory____init____get_wrapper__wrapper</title>
<path fill="none" stroke="black" d="M2287.84,-241.104C2287.45,-232.187 2287,-222.062 2286.58,-212.522"/>
<polygon fill="black" stroke="black" points="2290.08,-212.32 2286.14,-202.484 2283.08,-212.628 2290.08,-212.32"/>
</g>
<!-- mosaik__scenario__ModelMock____init__ -->
<g id="node13" class="node"><title>mosaik__scenario__ModelMock____init__</title>
<ellipse fill="#65ff65" fill-opacity="0.698039" stroke="black" cx="1955" cy="-361.09" rx="75.8212" ry="26.7407"/>
<text text-anchor="middle" x="1955" y="-364.89" font-family="Times,serif" font-size="14.00" fill="#000000">__init__</text>
<text text-anchor="middle" x="1955" y="-349.89" font-family="Times,serif" font-size="14.00" fill="#000000">(mosaik.py:388)</text>
</g>
<!-- mosaik__scenario__ModelMock____call__ -->
<g id="node14" class="node"><title>mosaik__scenario__ModelMock____call__</title>
<ellipse fill="#65ff65" fill-opacity="0.698039" stroke="black" cx="1786" cy="-361.09" rx="75.8212" ry="26.7407"/>
<text text-anchor="middle" x="1786" y="-364.89" font-family="Times,serif" font-size="14.00" fill="#000000">__call__</text>
<text text-anchor="middle" x="1786" y="-349.89" font-family="Times,serif" font-size="14.00" fill="#000000">(mosaik.py:396)</text>
</g>
<!-- mosaik__scenario__ModelMock___check_params -->
<g id="node15" class="node"><title>mosaik__scenario__ModelMock___check_params</title>
<ellipse fill="#65ff65" fill-opacity="0.698039" stroke="black" cx="1786" cy="-175.61" rx="75.8212" ry="26.7407"/>
<text text-anchor="middle" x="1786" y="-179.41" font-family="Times,serif" font-size="14.00" fill="#000000">_check_params</text>
<text text-anchor="middle" x="1786" y="-164.41" font-family="Times,serif" font-size="14.00" fill="#000000">(mosaik.py:420)</text>
</g>
<!-- mosaik__scenario__ModelMock____call__&#45;&gt;mosaik__scenario__ModelMock___check_params -->
<g id="edge10" class="edge"><title>mosaik__scenario__ModelMock____call__&#45;&gt;mosaik__scenario__ModelMock___check_params</title>
<path fill="none" stroke="black" d="M1786,-334.191C1786,-302.454 1786,-248.497 1786,-212.704"/>
<polygon fill="black" stroke="black" points="1789.5,-212.674 1786,-202.674 1782.5,-212.674 1789.5,-212.674"/>
</g>
<!-- mosaik__scenario__ModelMock__create -->
<g id="node16" class="node"><title>mosaik__scenario__ModelMock__create</title>
<ellipse fill="#65ff65" fill-opacity="0.698039" stroke="black" cx="1881" cy="-268.35" rx="75.8212" ry="26.7407"/>
<text text-anchor="middle" x="1881" y="-272.15" font-family="Times,serif" font-size="14.00" fill="#000000">create</text>
<text text-anchor="middle" x="1881" y="-257.15" font-family="Times,serif" font-size="14.00" fill="#000000">(mosaik.py:401)</text>
</g>
<!-- mosaik__scenario__ModelMock____call__&#45;&gt;mosaik__scenario__ModelMock__create -->
<g id="edge9" class="edge"><title>mosaik__scenario__ModelMock____call__&#45;&gt;mosaik__scenario__ModelMock__create</title>
<path fill="none" stroke="black" d="M1811.46,-335.774C1822.75,-324.992 1836.17,-312.173 1848.19,-300.685"/>
<polygon fill="black" stroke="black" points="1850.66,-303.172 1855.47,-293.734 1845.82,-298.11 1850.66,-303.172"/>
</g>
<!-- mosaik__scenario__ModelMock__create&#45;&gt;mosaik__scenario__ModelMock___check_params -->
<g id="edge12" class="edge"><title>mosaik__scenario__ModelMock__create&#45;&gt;mosaik__scenario__ModelMock___check_params</title>
<path fill="none" stroke="black" d="M1855.54,-243.034C1844.25,-232.252 1830.83,-219.432 1818.81,-207.945"/>
<polygon fill="black" stroke="black" points="1821.18,-205.37 1811.53,-200.994 1816.34,-210.432 1821.18,-205.37"/>
</g>
<!-- mosaik__scenario__ModelMock___make_entities -->
<g id="node17" class="node"><title>mosaik__scenario__ModelMock___make_entities</title>
<ellipse fill="#65ff65" fill-opacity="0.698039" stroke="black" cx="1955" cy="-175.61" rx="75.8212" ry="26.7407"/>
<text text-anchor="middle" x="1955" y="-179.41" font-family="Times,serif" font-size="14.00" fill="#000000">_make_entities</text>
<text text-anchor="middle" x="1955" y="-164.41" font-family="Times,serif" font-size="14.00" fill="#000000">(mosaik.py:428)</text>
</g>
<!-- mosaik__scenario__ModelMock__create&#45;&gt;mosaik__scenario__ModelMock___make_entities -->
<g id="edge11" class="edge"><title>mosaik__scenario__ModelMock__create&#45;&gt;mosaik__scenario__ModelMock___make_entities</title>
<path fill="none" stroke="black" d="M1901.61,-242.074C1909.79,-232.045 1919.31,-220.374 1928.02,-209.688"/>
<polygon fill="black" stroke="black" points="1930.89,-211.713 1934.5,-201.751 1925.46,-207.289 1930.89,-211.713"/>
</g>
<!-- mosaik__scenario__ModelMock___make_entities&#45;&gt;mosaik__scenario__Entity -->
<g id="edge13" class="edge"><title>mosaik__scenario__ModelMock___make_entities&#45;&gt;mosaik__scenario__Entity</title>
<path fill="none" stroke="black" d="M1990.28,-151.762C2006.42,-141.215 2025.76,-128.457 2043,-116.74 2055.93,-107.951 2069.91,-98.2246 2082.55,-89.3376"/>
<polygon fill="black" stroke="black" points="2084.9,-91.9627 2091.05,-83.341 2080.86,-86.2409 2084.9,-91.9627"/>
</g>
<!-- mosaik__scenario__ModelMock___make_entities&#45;&gt;mosaik__scenario__Entity__full_id -->
<g id="edge15" class="edge"><title>mosaik__scenario__ModelMock___make_entities&#45;&gt;mosaik__scenario__Entity__full_id</title>
<path fill="none" stroke="black" d="M1924.08,-151.047C1908.93,-140.915 1889.91,-130.166 1871,-124.74 1834.04,-114.134 1561.63,-128.439 1525,-116.74 1507.47,-111.142 1490.26,-100.639 1476.02,-90.1676"/>
<polygon fill="black" stroke="black" points="1478.07,-87.3323 1468,-84.0434 1473.82,-92.8951 1478.07,-87.3323"/>
</g>
<!-- mosaik__scenario__ModelMock___assert_model_type -->
<g id="node18" class="node"><title>mosaik__scenario__ModelMock___assert_model_type</title>
<ellipse fill="#65ff65" fill-opacity="0.698039" stroke="black" cx="1942" cy="-58.8701" rx="88.2768" ry="26.7407"/>
<text text-anchor="middle" x="1942" y="-62.6701" font-family="Times,serif" font-size="14.00" fill="#000000">_assert_model_type</text>
<text text-anchor="middle" x="1942" y="-47.6701" font-family="Times,serif" font-size="14.00" fill="#000000">(mosaik.py:452)</text>
</g>
<!-- mosaik__scenario__ModelMock___make_entities&#45;&gt;mosaik__scenario__ModelMock___assert_model_type -->
<g id="edge14" class="edge"><title>mosaik__scenario__ModelMock___make_entities&#45;&gt;mosaik__scenario__ModelMock___assert_model_type</title>
<path fill="none" stroke="black" d="M1952.05,-148.574C1950.29,-133.023 1948.02,-113.042 1946.09,-95.9824"/>
<polygon fill="black" stroke="black" points="1949.54,-95.3457 1944.94,-85.8033 1942.59,-96.1338 1949.54,-95.3457"/>
</g>
<!-- mosaik__scenario__World____init__ -->
<g id="node19" class="node"><title>mosaik__scenario__World____init__</title>
<ellipse fill="#65ff65" fill-opacity="0.698039" stroke="black" cx="771" cy="-175.61" rx="70.922" ry="26.7407"/>
<text text-anchor="middle" x="771" y="-179.41" font-family="Times,serif" font-size="14.00" fill="#000000">__init__</text>
<text text-anchor="middle" x="771" y="-164.41" font-family="Times,serif" font-size="14.00" fill="#000000">(mosaik.py:60)</text>
</g>
<!-- mosaik__scenario__World__start -->
<g id="node20" class="node"><title>mosaik__scenario__World__start</title>
<ellipse fill="#65ff65" fill-opacity="0.698039" stroke="black" cx="607" cy="-175.61" rx="75.8212" ry="26.7407"/>
<text text-anchor="middle" x="607" y="-179.41" font-family="Times,serif" font-size="14.00" fill="#000000">start</text>
<text text-anchor="middle" x="607" y="-164.41" font-family="Times,serif" font-size="14.00" fill="#000000">(mosaik.py:109)</text>
</g>
<!-- mosaik__scenario__World__start&#45;&gt;mosaik__scenario__ModelFactory -->
<g id="edge1" class="edge"><title>mosaik__scenario__World__start&#45;&gt;mosaik__scenario__ModelFactory</title>
<path fill="none" stroke="black" d="M638.38,-151.006C653.476,-140.997 672.324,-130.362 691,-124.74 725.726,-114.286 819.733,-128.612 854,-116.74 870.534,-111.012 886.676,-100.728 900.08,-90.4663"/>
<polygon fill="black" stroke="black" points="902.407,-93.087 908.051,-84.1202 898.047,-87.6107 902.407,-93.087"/>
</g>
<!-- mosaik__scenario__World__connect -->
<g id="node21" class="node"><title>mosaik__scenario__World__connect</title>
<ellipse fill="#65ff65" fill-opacity="0.698039" stroke="black" cx="438" cy="-175.61" rx="75.8212" ry="26.7407"/>
<text text-anchor="middle" x="438" y="-179.41" font-family="Times,serif" font-size="14.00" fill="#000000">connect</text>
<text text-anchor="middle" x="438" y="-164.41" font-family="Times,serif" font-size="14.00" fill="#000000">(mosaik.py:123)</text>
</g>
<!-- mosaik__scenario__World__connect&#45;&gt;mosaik__scenario__Entity__full_id -->
<g id="edge3" class="edge"><title>mosaik__scenario__World__connect&#45;&gt;mosaik__scenario__Entity__full_id</title>
<path fill="none" stroke="black" d="M468.89,-150.933C484.03,-140.774 503.053,-130.038 522,-124.74 566.677,-112.247 1312.71,-130.554 1357,-116.74 1374.57,-111.26 1391.79,-100.779 1406.02,-90.2924"/>
<polygon fill="black" stroke="black" points="1408.22,-93.0142 1414.03,-84.155 1403.97,-87.4569 1408.22,-93.0142"/>
</g>
<!-- mosaik__scenario__World___check_attributes -->
<g id="node22" class="node"><title>mosaik__scenario__World___check_attributes</title>
<ellipse fill="#65ff65" fill-opacity="0.698039" stroke="black" cx="465" cy="-58.8701" rx="79.3924" ry="26.7407"/>
<text text-anchor="middle" x="465" y="-62.6701" font-family="Times,serif" font-size="14.00" fill="#000000">_check_attributes</text>
<text text-anchor="middle" x="465" y="-47.6701" font-family="Times,serif" font-size="14.00" fill="#000000">(mosaik.py:314)</text>
</g>
<!-- mosaik__scenario__World__connect&#45;&gt;mosaik__scenario__World___check_attributes -->
<g id="edge2" class="edge"><title>mosaik__scenario__World__connect&#45;&gt;mosaik__scenario__World___check_attributes</title>
<path fill="none" stroke="black" d="M444.127,-148.574C447.786,-133.023 452.488,-113.042 456.502,-95.9824"/>
<polygon fill="black" stroke="black" points="460.014,-96.3392 458.898,-85.8033 453.2,-94.7357 460.014,-96.3392"/>
</g>
<!-- mosaik__scenario__World__get_data -->
<g id="node23" class="node"><title>mosaik__scenario__World__get_data</title>
<ellipse fill="#65ff65" fill-opacity="0.698039" stroke="black" cx="269" cy="-175.61" rx="75.8212" ry="26.7407"/>
<text text-anchor="middle" x="269" y="-179.41" font-family="Times,serif" font-size="14.00" fill="#000000">get_data</text>
<text text-anchor="middle" x="269" y="-164.41" font-family="Times,serif" font-size="14.00" fill="#000000">(mosaik.py:214)</text>
</g>
<!-- mosaik__scenario__World__get_data__request_data -->
<g id="node26" class="node"><title>mosaik__scenario__World__get_data__request_data</title>
<ellipse fill="#32ff32" fill-opacity="0.698039" stroke="black" cx="269" cy="-58.8701" rx="75.8212" ry="26.7407"/>
<text text-anchor="middle" x="269" y="-62.6701" font-family="Times,serif" font-size="14.00" fill="#000000">request_data</text>
<text text-anchor="middle" x="269" y="-47.6701" font-family="Times,serif" font-size="14.00" fill="#000000">(mosaik.py:235)</text>
</g>
<!-- mosaik__scenario__World__get_data&#45;&gt;mosaik__scenario__World__get_data__request_data -->
<g id="edge4" class="edge"><title>mosaik__scenario__World__get_data&#45;&gt;mosaik__scenario__World__get_data__request_data</title>
<path fill="none" stroke="black" d="M269,-148.574C269,-133.023 269,-113.042 269,-95.9824"/>
<polygon fill="black" stroke="black" points="272.5,-95.8033 269,-85.8033 265.5,-95.8034 272.5,-95.8033"/>
</g>
<!-- mosaik__scenario__World__run -->
<g id="node24" class="node"><title>mosaik__scenario__World__run</title>
<ellipse fill="#65ff65" fill-opacity="0.698039" stroke="black" cx="100" cy="-175.61" rx="75.8212" ry="26.7407"/>
<text text-anchor="middle" x="100" y="-179.41" font-family="Times,serif" font-size="14.00" fill="#000000">run</text>
<text text-anchor="middle" x="100" y="-164.41" font-family="Times,serif" font-size="14.00" fill="#000000">(mosaik.py:265)</text>
</g>
<!-- mosaik__scenario__World__shutdown -->
<g id="node25" class="node"><title>mosaik__scenario__World__shutdown</title>
<ellipse fill="#65ff65" fill-opacity="0.698039" stroke="black" cx="100" cy="-58.8701" rx="75.8212" ry="26.7407"/>
<text text-anchor="middle" x="100" y="-62.6701" font-family="Times,serif" font-size="14.00" fill="#000000">shutdown</text>
<text text-anchor="middle" x="100" y="-47.6701" font-family="Times,serif" font-size="14.00" fill="#000000">(mosaik.py:305)</text>
</g>
<!-- mosaik__scenario__World__run&#45;&gt;mosaik__scenario__World__shutdown -->
<g id="edge5" class="edge"><title>mosaik__scenario__World__run&#45;&gt;mosaik__scenario__World__shutdown</title>
<path fill="none" stroke="black" d="M100,-148.574C100,-133.023 100,-113.042 100,-95.9824"/>
<polygon fill="black" stroke="black" points="103.5,-95.8033 100,-85.8033 96.5001,-95.8034 103.5,-95.8033"/>
</g>
</g>
</svg>
