<?xml version="1.0" encoding="UTF-8" standalone="no"?>
<!DOCTYPE svg PUBLIC "-//W3C//DTD SVG 1.1//EN"
 "http://www.w3.org/Graphics/SVG/1.1/DTD/svg11.dtd">
<!-- Generated by graphviz version 2.38.0 (20140413.2041)
 -->
<!-- Title: G Pages: 1 -->
<svg width="2468pt" height="466pt"
 viewBox="0.00 0.00 2468.00 465.96" xmlns="http://www.w3.org/2000/svg" xmlns:xlink="http://www.w3.org/1999/xlink">
<g id="graph0" class="graph" transform="scale(1 1) rotate(0) translate(4 461.96)">
<title>G</title>
<polygon fill="white" stroke="none" points="-4,4 -4,-461.96 2464,-461.96 2464,4 -4,4"/>
<g id="clust1" class="cluster"><title>cluster_scenario</title>
<path fill="#808080" fill-opacity="0.094118" stroke="black" d="M20,-8C20,-8 2440,-8 2440,-8 2446,-8 2452,-14 2452,-20 2452,-20 2452,-437.96 2452,-437.96 2452,-443.96 2446,-449.96 2440,-449.96 2440,-449.96 20,-449.96 20,-449.96 14,-449.96 8,-443.96 8,-437.96 8,-437.96 8,-20 8,-20 8,-14 14,-8 20,-8"/>
<text text-anchor="middle" x="1230" y="-434.76" font-family="Times,serif" font-size="14.00">scenario</text>
</g>
<g id="clust7" class="cluster"><title>cluster_scenario__World</title>
<path fill="#808080" fill-opacity="0.094118" stroke="black" d="M1422,-16C1422,-16 2266,-16 2266,-16 2272,-16 2278,-22 2278,-28 2278,-28 2278,-221.48 2278,-221.48 2278,-227.48 2272,-233.48 2266,-233.48 2266,-233.48 1422,-233.48 1422,-233.48 1416,-233.48 1410,-227.48 1410,-221.48 1410,-221.48 1410,-28 1410,-28 1410,-22 1416,-16 1422,-16"/>
<text text-anchor="middle" x="1844" y="-218.28" font-family="Times,serif" font-size="14.00">scenario.World</text>
</g>
<g id="clust8" class="cluster"><title>cluster_scenario__World__get_data</title>
<path fill="#808080" fill-opacity="0.094118" stroke="black" d="M1774,-24C1774,-24 1924,-24 1924,-24 1930,-24 1936,-30 1936,-36 1936,-36 1936,-104.74 1936,-104.74 1936,-110.74 1930,-116.74 1924,-116.74 1924,-116.74 1774,-116.74 1774,-116.74 1768,-116.74 1762,-110.74 1762,-104.74 1762,-104.74 1762,-36 1762,-36 1762,-30 1768,-24 1774,-24"/>
<text text-anchor="middle" x="1849" y="-101.54" font-family="Times,serif" font-size="14.00">scenario.World.get_data</text>
</g>
<g id="clust3" class="cluster"><title>cluster_scenario__ModelFactory</title>
<path fill="#808080" fill-opacity="0.094118" stroke="black" d="M804,-124.74C804,-124.74 1130,-124.74 1130,-124.74 1136,-124.74 1142,-130.74 1142,-136.74 1142,-136.74 1142,-406.96 1142,-406.96 1142,-412.96 1136,-418.96 1130,-418.96 1130,-418.96 804,-418.96 804,-418.96 798,-418.96 792,-412.96 792,-406.96 792,-406.96 792,-136.74 792,-136.74 792,-130.74 798,-124.74 804,-124.74"/>
<text text-anchor="middle" x="967" y="-403.76" font-family="Times,serif" font-size="14.00">scenario.ModelFactory</text>
</g>
<g id="clust4" class="cluster"><title>cluster_scenario__ModelFactory____init__</title>
<path fill="#808080" fill-opacity="0.094118" stroke="black" d="M867,-132.74C867,-132.74 1122,-132.74 1122,-132.74 1128,-132.74 1134,-138.74 1134,-144.74 1134,-144.74 1134,-314.22 1134,-314.22 1134,-320.22 1128,-326.22 1122,-326.22 1122,-326.22 867,-326.22 867,-326.22 861,-326.22 855,-320.22 855,-314.22 855,-314.22 855,-144.74 855,-144.74 855,-138.74 861,-132.74 867,-132.74"/>
<text text-anchor="middle" x="994.5" y="-311.02" font-family="Times,serif" font-size="14.00">scenario.ModelFactory.__init__</text>
</g>
<g id="clust5" class="cluster"><title>cluster_scenario__ModelFactory____init____get_wrapper</title>
<path fill="#808080" fill-opacity="0.094118" stroke="black" d="M875,-140.74C875,-140.74 1114,-140.74 1114,-140.74 1120,-140.74 1126,-146.74 1126,-152.74 1126,-152.74 1126,-221.48 1126,-221.48 1126,-227.48 1120,-233.48 1114,-233.48 1114,-233.48 875,-233.48 875,-233.48 869,-233.48 863,-227.48 863,-221.48 863,-221.48 863,-152.74 863,-152.74 863,-146.74 869,-140.74 875,-140.74"/>
<text text-anchor="middle" x="994.5" y="-218.28" font-family="Times,serif" font-size="14.00">scenario.ModelFactory.__init__.get_wrapper</text>
</g>
<g id="clust6" class="cluster"><title>cluster_scenario__ModelMock</title>
<path fill="#808080" fill-opacity="0.094118" stroke="black" d="M186,-24C186,-24 512,-24 512,-24 518,-24 524,-30 524,-36 524,-36 524,-406.96 524,-406.96 524,-412.96 518,-418.96 512,-418.96 512,-418.96 186,-418.96 186,-418.96 180,-418.96 174,-412.96 174,-406.96 174,-406.96 174,-36 174,-36 174,-30 180,-24 186,-24"/>
<text text-anchor="middle" x="349" y="-403.76" font-family="Times,serif" font-size="14.00">scenario.ModelMock</text>
</g>
<g id="clust2" class="cluster"><title>cluster_scenario__Entity</title>
<path fill="#808080" fill-opacity="0.094118" stroke="black" d="M712,-24C712,-24 1390,-24 1390,-24 1396,-24 1402,-30 1402,-36 1402,-36 1402,-104.74 1402,-104.74 1402,-110.74 1396,-116.74 1390,-116.74 1390,-116.74 712,-116.74 712,-116.74 706,-116.74 700,-110.74 700,-104.74 700,-104.74 700,-36 700,-36 700,-30 706,-24 712,-24"/>
<text text-anchor="middle" x="1051" y="-101.54" font-family="Times,serif" font-size="14.00">scenario.Entity</text>
</g>
<!-- scenario__World -->
<g id="node1" class="node"><title>scenario__World</title>
<ellipse fill="#ccfecc" fill-opacity="0.698039" stroke="black" cx="90" cy="-361.09" rx="74.4932" ry="26.7407"/>
<text text-anchor="middle" x="90" y="-364.89" font-family="Times,serif" font-size="14.00" fill="#000000">World</text>
<text text-anchor="middle" x="90" y="-349.89" font-family="Times,serif" font-size="14.00" fill="#000000">(scenario.py:32)</text>
</g>
<!-- scenario__ModelFactory -->
<g id="node2" class="node"><title>scenario__ModelFactory</title>
<ellipse fill="#ccfecc" fill-opacity="0.698039" stroke="black" cx="2365" cy="-58.8701" rx="79.3924" ry="26.7407"/>
<text text-anchor="middle" x="2365" y="-62.6701" font-family="Times,serif" font-size="14.00" fill="#000000">ModelFactory</text>
<text text-anchor="middle" x="2365" y="-47.6701" font-family="Times,serif" font-size="14.00" fill="#000000">(scenario.py:285)</text>
</g>
<!-- scenario__ModelMock -->
<g id="node3" class="node"><title>scenario__ModelMock</title>
<ellipse fill="#ccfecc" fill-opacity="0.698039" stroke="black" cx="1229" cy="-268.35" rx="79.3924" ry="26.7407"/>
<text text-anchor="middle" x="1229" y="-272.15" font-family="Times,serif" font-size="14.00" fill="#000000">ModelMock</text>
<text text-anchor="middle" x="1229" y="-257.15" font-family="Times,serif" font-size="14.00" fill="#000000">(scenario.py:330)</text>
</g>
<!-- scenario__Entity -->
<g id="node4" class="node"><title>scenario__Entity</title>
<ellipse fill="#ccfecc" fill-opacity="0.698039" stroke="black" cx="611" cy="-58.8701" rx="79.3924" ry="26.7407"/>
<text text-anchor="middle" x="611" y="-62.6701" font-family="Times,serif" font-size="14.00" fill="#000000">Entity</text>
<text text-anchor="middle" x="611" y="-47.6701" font-family="Times,serif" font-size="14.00" fill="#000000">(scenario.py:417)</text>
</g>
<!-- scenario__Entity____init__ -->
<g id="node5" class="node"><title>scenario__Entity____init__</title>
<ellipse fill="#99ff99" fill-opacity="0.698039" stroke="black" cx="1315" cy="-58.8701" rx="79.3924" ry="26.7407"/>
<text text-anchor="middle" x="1315" y="-62.6701" font-family="Times,serif" font-size="14.00" fill="#000000">__init__</text>
<text text-anchor="middle" x="1315" y="-47.6701" font-family="Times,serif" font-size="14.00" fill="#000000">(scenario.py:421)</text>
</g>
<!-- scenario__Entity__full_id -->
<g id="node6" class="node"><title>scenario__Entity__full_id</title>
<ellipse fill="#99ff99" fill-opacity="0.698039" stroke="black" cx="1139" cy="-58.8701" rx="79.3924" ry="26.7407"/>
<text text-anchor="middle" x="1139" y="-62.6701" font-family="Times,serif" font-size="14.00" fill="#000000">full_id</text>
<text text-anchor="middle" x="1139" y="-47.6701" font-family="Times,serif" font-size="14.00" fill="#000000">(scenario.py:440)</text>
</g>
<!-- scenario__Entity____str__ -->
<g id="node7" class="node"><title>scenario__Entity____str__</title>
<ellipse fill="#99ff99" fill-opacity="0.698039" stroke="black" cx="963" cy="-58.8701" rx="79.3924" ry="26.7407"/>
<text text-anchor="middle" x="963" y="-62.6701" font-family="Times,serif" font-size="14.00" fill="#000000">__str__</text>
<text text-anchor="middle" x="963" y="-47.6701" font-family="Times,serif" font-size="14.00" fill="#000000">(scenario.py:445)</text>
</g>
<!-- scenario__Entity____repr__ -->
<g id="node8" class="node"><title>scenario__Entity____repr__</title>
<ellipse fill="#99ff99" fill-opacity="0.698039" stroke="black" cx="787" cy="-58.8701" rx="79.3924" ry="26.7407"/>
<text text-anchor="middle" x="787" y="-62.6701" font-family="Times,serif" font-size="14.00" fill="#000000">__repr__</text>
<text text-anchor="middle" x="787" y="-47.6701" font-family="Times,serif" font-size="14.00" fill="#000000">(scenario.py:449)</text>
</g>
<!-- scenario__ModelFactory____init__ -->
<g id="node9" class="node"><title>scenario__ModelFactory____init__</title>
<ellipse fill="#99ff99" fill-opacity="0.698039" stroke="black" cx="1055" cy="-361.09" rx="79.3924" ry="26.7407"/>
<text text-anchor="middle" x="1055" y="-364.89" font-family="Times,serif" font-size="14.00" fill="#000000">__init__</text>
<text text-anchor="middle" x="1055" y="-349.89" font-family="Times,serif" font-size="14.00" fill="#000000">(scenario.py:296)</text>
</g>
<!-- scenario__ModelFactory____init__&#45;&gt;scenario__ModelMock -->
<g id="edge7" class="edge"><title>scenario__ModelFactory____init__&#45;&gt;scenario__ModelMock</title>
<path fill="none" stroke="black" d="M1106.54,-340.662C1117.1,-336.238 1128.02,-331.325 1138,-326.22 1154.22,-317.92 1171.33,-307.661 1186.28,-298.151"/>
<polygon fill="black" stroke="black" points="1188.3,-301.015 1194.81,-292.659 1184.51,-295.13 1188.3,-301.015"/>
</g>
<!-- scenario__ModelFactory____init____get_wrapper -->
<g id="node11" class="node"><title>scenario__ModelFactory____init____get_wrapper</title>
<ellipse fill="#65ff65" fill-opacity="0.698039" stroke="black" cx="1043" cy="-268.35" rx="79.3924" ry="26.7407"/>
<text text-anchor="middle" x="1043" y="-272.15" font-family="Times,serif" font-size="14.00" fill="#000000">get_wrapper</text>
<text text-anchor="middle" x="1043" y="-257.15" font-family="Times,serif" font-size="14.00" fill="#000000">(scenario.py:312)</text>
</g>
<!-- scenario__ModelFactory____init__&#45;&gt;scenario__ModelFactory____init____get_wrapper -->
<g id="edge6" class="edge"><title>scenario__ModelFactory____init__&#45;&gt;scenario__ModelFactory____init____get_wrapper</title>
<path fill="none" stroke="black" d="M1051.53,-333.845C1050.35,-324.927 1049.01,-314.803 1047.75,-305.262"/>
<polygon fill="black" stroke="black" points="1051.2,-304.679 1046.42,-295.224 1044.26,-305.596 1051.2,-304.679"/>
</g>
<!-- scenario__ModelFactory____getattr__ -->
<g id="node10" class="node"><title>scenario__ModelFactory____getattr__</title>
<ellipse fill="#99ff99" fill-opacity="0.698039" stroke="black" cx="879" cy="-361.09" rx="79.3924" ry="26.7407"/>
<text text-anchor="middle" x="879" y="-364.89" font-family="Times,serif" font-size="14.00" fill="#000000">__getattr__</text>
<text text-anchor="middle" x="879" y="-349.89" font-family="Times,serif" font-size="14.00" fill="#000000">(scenario.py:320)</text>
</g>
<!-- scenario__ModelFactory____init____get_wrapper__wrapper -->
<g id="node12" class="node"><title>scenario__ModelFactory____init____get_wrapper__wrapper</title>
<ellipse fill="#32ff32" fill-opacity="0.698039" stroke="black" cx="1039" cy="-175.61" rx="79.3924" ry="26.7407"/>
<text text-anchor="middle" x="1039" y="-179.41" font-family="Times,serif" font-size="14.00" fill="#000000">wrapper</text>
<text text-anchor="middle" x="1039" y="-164.41" font-family="Times,serif" font-size="14.00" fill="#000000">(scenario.py:313)</text>
</g>
<!-- scenario__ModelFactory____init____get_wrapper&#45;&gt;scenario__ModelFactory____init____get_wrapper__wrapper -->
<g id="edge8" class="edge"><title>scenario__ModelFactory____init____get_wrapper&#45;&gt;scenario__ModelFactory____init____get_wrapper__wrapper</title>
<path fill="none" stroke="black" d="M1041.84,-241.104C1041.45,-232.187 1041,-222.062 1040.58,-212.522"/>
<polygon fill="black" stroke="black" points="1044.08,-212.32 1040.14,-202.484 1037.08,-212.628 1044.08,-212.32"/>
</g>
<!-- scenario__ModelMock____init__ -->
<g id="node13" class="node"><title>scenario__ModelMock____init__</title>
<ellipse fill="#99ff99" fill-opacity="0.698039" stroke="black" cx="437" cy="-361.09" rx="79.3924" ry="26.7407"/>
<text text-anchor="middle" x="437" y="-364.89" font-family="Times,serif" font-size="14.00" fill="#000000">__init__</text>
<text text-anchor="middle" x="437" y="-349.89" font-family="Times,serif" font-size="14.00" fill="#000000">(scenario.py:340)</text>
</g>
<!-- scenario__ModelMock____call__ -->
<g id="node14" class="node"><title>scenario__ModelMock____call__</title>
<ellipse fill="#99ff99" fill-opacity="0.698039" stroke="black" cx="261" cy="-361.09" rx="79.3924" ry="26.7407"/>
<text text-anchor="middle" x="261" y="-364.89" font-family="Times,serif" font-size="14.00" fill="#000000">__call__</text>
<text text-anchor="middle" x="261" y="-349.89" font-family="Times,serif" font-size="14.00" fill="#000000">(scenario.py:348)</text>
</g>
<!-- scenario__ModelMock___check_params -->
<g id="node15" class="node"><title>scenario__ModelMock___check_params</title>
<ellipse fill="#99ff99" fill-opacity="0.698039" stroke="black" cx="261" cy="-175.61" rx="79.3924" ry="26.7407"/>
<text text-anchor="middle" x="261" y="-179.41" font-family="Times,serif" font-size="14.00" fill="#000000">_check_params</text>
<text text-anchor="middle" x="261" y="-164.41" font-family="Times,serif" font-size="14.00" fill="#000000">(scenario.py:372)</text>
</g>
<!-- scenario__ModelMock____call__&#45;&gt;scenario__ModelMock___check_params -->
<g id="edge10" class="edge"><title>scenario__ModelMock____call__&#45;&gt;scenario__ModelMock___check_params</title>
<path fill="none" stroke="black" d="M261,-334.191C261,-302.454 261,-248.497 261,-212.704"/>
<polygon fill="black" stroke="black" points="264.5,-212.674 261,-202.674 257.5,-212.674 264.5,-212.674"/>
</g>
<!-- scenario__ModelMock__create -->
<g id="node16" class="node"><title>scenario__ModelMock__create</title>
<ellipse fill="#99ff99" fill-opacity="0.698039" stroke="black" cx="359" cy="-268.35" rx="79.3924" ry="26.7407"/>
<text text-anchor="middle" x="359" y="-272.15" font-family="Times,serif" font-size="14.00" fill="#000000">create</text>
<text text-anchor="middle" x="359" y="-257.15" font-family="Times,serif" font-size="14.00" fill="#000000">(scenario.py:353)</text>
</g>
<!-- scenario__ModelMock____call__&#45;&gt;scenario__ModelMock__create -->
<g id="edge9" class="edge"><title>scenario__ModelMock____call__&#45;&gt;scenario__ModelMock__create</title>
<path fill="none" stroke="black" d="M287.52,-335.535C299.068,-324.842 312.743,-312.181 325.024,-300.81"/>
<polygon fill="black" stroke="black" points="327.499,-303.288 332.459,-293.925 322.743,-298.151 327.499,-303.288"/>
</g>
<!-- scenario__ModelMock__create&#45;&gt;scenario__ModelMock___check_params -->
<g id="edge12" class="edge"><title>scenario__ModelMock__create&#45;&gt;scenario__ModelMock___check_params</title>
<path fill="none" stroke="black" d="M332.48,-242.795C320.932,-232.102 307.257,-219.441 294.976,-208.07"/>
<polygon fill="black" stroke="black" points="297.257,-205.411 287.541,-201.185 292.501,-210.548 297.257,-205.411"/>
</g>
<!-- scenario__ModelMock___make_entities -->
<g id="node17" class="node"><title>scenario__ModelMock___make_entities</title>
<ellipse fill="#99ff99" fill-opacity="0.698039" stroke="black" cx="437" cy="-175.61" rx="79.3924" ry="26.7407"/>
<text text-anchor="middle" x="437" y="-179.41" font-family="Times,serif" font-size="14.00" fill="#000000">_make_entities</text>
<text text-anchor="middle" x="437" y="-164.41" font-family="Times,serif" font-size="14.00" fill="#000000">(scenario.py:380)</text>
</g>
<!-- scenario__ModelMock__create&#45;&gt;scenario__ModelMock___make_entities -->
<g id="edge11" class="edge"><title>scenario__ModelMock__create&#45;&gt;scenario__ModelMock___make_entities</title>
<path fill="none" stroke="black" d="M380.727,-242.074C389.433,-231.947 399.577,-220.145 408.837,-209.374"/>
<polygon fill="black" stroke="black" points="411.525,-211.616 415.389,-201.751 406.216,-207.053 411.525,-211.616"/>
</g>
<!-- scenario__ModelMock___make_entities&#45;&gt;scenario__Entity -->
<g id="edge15" class="edge"><title>scenario__ModelMock___make_entities&#45;&gt;scenario__Entity</title>
<path fill="none" stroke="black" d="M473.935,-151.524C490.545,-141.039 510.345,-128.397 528,-116.74 541.392,-107.897 555.863,-98.0768 568.912,-89.1193"/>
<polygon fill="black" stroke="black" points="571.003,-91.929 577.256,-83.3765 567.034,-86.1627 571.003,-91.929"/>
</g>
<!-- scenario__ModelMock___make_entities&#45;&gt;scenario__Entity__full_id -->
<g id="edge13" class="edge"><title>scenario__ModelMock___make_entities&#45;&gt;scenario__Entity__full_id</title>
<path fill="none" stroke="black" d="M509.267,-164.375C593.173,-152.886 735.821,-134.57 859,-124.74 901.568,-121.343 1010.3,-129.673 1051,-116.74 1068.97,-111.03 1086.82,-100.62 1101.69,-90.2523"/>
<polygon fill="black" stroke="black" points="1104.03,-92.8818 1110.08,-84.1889 1099.93,-87.2075 1104.03,-92.8818"/>
</g>
<!-- scenario__ModelMock___assert_model_type -->
<g id="node18" class="node"><title>scenario__ModelMock___assert_model_type</title>
<ellipse fill="#99ff99" fill-opacity="0.698039" stroke="black" cx="425" cy="-58.8701" rx="88.2768" ry="26.7407"/>
<text text-anchor="middle" x="425" y="-62.6701" font-family="Times,serif" font-size="14.00" fill="#000000">_assert_model_type</text>
<text text-anchor="middle" x="425" y="-47.6701" font-family="Times,serif" font-size="14.00" fill="#000000">(scenario.py:404)</text>
</g>
<!-- scenario__ModelMock___make_entities&#45;&gt;scenario__ModelMock___assert_model_type -->
<g id="edge14" class="edge"><title>scenario__ModelMock___make_entities&#45;&gt;scenario__ModelMock___assert_model_type</title>
<path fill="none" stroke="black" d="M434.277,-148.574C432.651,-133.023 430.561,-113.042 428.777,-95.9824"/>
<polygon fill="black" stroke="black" points="432.233,-95.385 427.712,-85.8033 425.271,-96.1132 432.233,-95.385"/>
</g>
<!-- scenario__World____init__ -->
<g id="node19" class="node"><title>scenario__World____init__</title>
<ellipse fill="#99ff99" fill-opacity="0.698039" stroke="black" cx="2196" cy="-175.61" rx="74.4932" ry="26.7407"/>
<text text-anchor="middle" x="2196" y="-179.41" font-family="Times,serif" font-size="14.00" fill="#000000">__init__</text>
<text text-anchor="middle" x="2196" y="-164.41" font-family="Times,serif" font-size="14.00" fill="#000000">(scenario.py:60)</text>
</g>
<!-- scenario__World__start -->
<g id="node20" class="node"><title>scenario__World__start</title>
<ellipse fill="#99ff99" fill-opacity="0.698039" stroke="black" cx="2025" cy="-175.61" rx="79.3924" ry="26.7407"/>
<text text-anchor="middle" x="2025" y="-179.41" font-family="Times,serif" font-size="14.00" fill="#000000">start</text>
<text text-anchor="middle" x="2025" y="-164.41" font-family="Times,serif" font-size="14.00" fill="#000000">(scenario.py:104)</text>
</g>
<!-- scenario__World__start&#45;&gt;scenario__ModelFactory -->
<g id="edge1" class="edge"><title>scenario__World__start&#45;&gt;scenario__ModelFactory</title>
<path fill="none" stroke="black" d="M2060.74,-151.507C2076.32,-142.197 2095.09,-131.972 2113,-124.74 2169.26,-102.024 2235.84,-85.2894 2286.43,-74.5117"/>
<polygon fill="black" stroke="black" points="2287.26,-77.9141 2296.33,-72.4356 2285.83,-71.0631 2287.26,-77.9141"/>
</g>
<!-- scenario__World__connect -->
<g id="node21" class="node"><title>scenario__World__connect</title>
<ellipse fill="#99ff99" fill-opacity="0.698039" stroke="black" cx="1497" cy="-175.61" rx="79.3924" ry="26.7407"/>
<text text-anchor="middle" x="1497" y="-179.41" font-family="Times,serif" font-size="14.00" fill="#000000">connect</text>
<text text-anchor="middle" x="1497" y="-164.41" font-family="Times,serif" font-size="14.00" fill="#000000">(scenario.py:117)</text>
</g>
<!-- scenario__World__connect&#45;&gt;scenario__Entity__full_id -->
<g id="edge2" class="edge"><title>scenario__World__connect&#45;&gt;scenario__Entity__full_id</title>
<path fill="none" stroke="black" d="M1422.65,-166.063C1367.17,-157.942 1290.34,-142.958 1227,-116.74 1210.14,-109.762 1192.98,-99.5201 1178.35,-89.6443"/>
<polygon fill="black" stroke="black" points="1180.26,-86.7107 1170.04,-83.8992 1176.28,-92.4672 1180.26,-86.7107"/>
</g>
<!-- scenario__World___check_attributes -->
<g id="node22" class="node"><title>scenario__World___check_attributes</title>
<ellipse fill="#99ff99" fill-opacity="0.698039" stroke="black" cx="1497" cy="-58.8701" rx="79.3924" ry="26.7407"/>
<text text-anchor="middle" x="1497" y="-62.6701" font-family="Times,serif" font-size="14.00" fill="#000000">_check_attributes</text>
<text text-anchor="middle" x="1497" y="-47.6701" font-family="Times,serif" font-size="14.00" fill="#000000">(scenario.py:266)</text>
</g>
<!-- scenario__World__connect&#45;&gt;scenario__World___check_attributes -->
<g id="edge3" class="edge"><title>scenario__World__connect&#45;&gt;scenario__World___check_attributes</title>
<path fill="none" stroke="black" d="M1497,-148.574C1497,-133.023 1497,-113.042 1497,-95.9824"/>
<polygon fill="black" stroke="black" points="1500.5,-95.8033 1497,-85.8033 1493.5,-95.8034 1500.5,-95.8033"/>
</g>
<!-- scenario__World__get_data -->
<g id="node23" class="node"><title>scenario__World__get_data</title>
<ellipse fill="#99ff99" fill-opacity="0.698039" stroke="black" cx="1849" cy="-175.61" rx="79.3924" ry="26.7407"/>
<text text-anchor="middle" x="1849" y="-179.41" font-family="Times,serif" font-size="14.00" fill="#000000">get_data</text>
<text text-anchor="middle" x="1849" y="-164.41" font-family="Times,serif" font-size="14.00" fill="#000000">(scenario.py:166)</text>
</g>
<!-- scenario__World__get_data__request_data -->
<g id="node26" class="node"><title>scenario__World__get_data__request_data</title>
<ellipse fill="#65ff65" fill-opacity="0.698039" stroke="black" cx="1849" cy="-58.8701" rx="79.3924" ry="26.7407"/>
<text text-anchor="middle" x="1849" y="-62.6701" font-family="Times,serif" font-size="14.00" fill="#000000">request_data</text>
<text text-anchor="middle" x="1849" y="-47.6701" font-family="Times,serif" font-size="14.00" fill="#000000">(scenario.py:187)</text>
</g>
<!-- scenario__World__get_data&#45;&gt;scenario__World__get_data__request_data -->
<g id="edge4" class="edge"><title>scenario__World__get_data&#45;&gt;scenario__World__get_data__request_data</title>
<path fill="none" stroke="black" d="M1849,-148.574C1849,-133.023 1849,-113.042 1849,-95.9824"/>
<polygon fill="black" stroke="black" points="1852.5,-95.8033 1849,-85.8033 1845.5,-95.8034 1852.5,-95.8033"/>
</g>
<!-- scenario__World__run -->
<g id="node24" class="node"><title>scenario__World__run</title>
<ellipse fill="#99ff99" fill-opacity="0.698039" stroke="black" cx="1673" cy="-175.61" rx="79.3924" ry="26.7407"/>
<text text-anchor="middle" x="1673" y="-179.41" font-family="Times,serif" font-size="14.00" fill="#000000">run</text>
<text text-anchor="middle" x="1673" y="-164.41" font-family="Times,serif" font-size="14.00" fill="#000000">(scenario.py:217)</text>
</g>
<!-- scenario__World__shutdown -->
<g id="node25" class="node"><title>scenario__World__shutdown</title>
<ellipse fill="#99ff99" fill-opacity="0.698039" stroke="black" cx="1673" cy="-58.8701" rx="79.3924" ry="26.7407"/>
<text text-anchor="middle" x="1673" y="-62.6701" font-family="Times,serif" font-size="14.00" fill="#000000">shutdown</text>
<text text-anchor="middle" x="1673" y="-47.6701" font-family="Times,serif" font-size="14.00" fill="#000000">(scenario.py:257)</text>
</g>
<!-- scenario__World__run&#45;&gt;scenario__World__shutdown -->
<g id="edge5" class="edge"><title>scenario__World__run&#45;&gt;scenario__World__shutdown</title>
<path fill="none" stroke="black" d="M1673,-148.574C1673,-133.023 1673,-113.042 1673,-95.9824"/>
<polygon fill="black" stroke="black" points="1676.5,-95.8033 1673,-85.8033 1669.5,-95.8034 1676.5,-95.8033"/>
</g>
</g>
</svg>
