<?xml version="1.0" encoding="UTF-8" standalone="no"?>
<!DOCTYPE svg PUBLIC "-//W3C//DTD SVG 1.1//EN"
 "http://www.w3.org/Graphics/SVG/1.1/DTD/svg11.dtd">
<!-- Generated by graphviz version 2.38.0 (20140413.2041)
 -->
<!-- Title: G Pages: 1 -->
<svg width="1808pt" height="1010pt"
 viewBox="0.00 0.00 1808.00 1010.40" xmlns="http://www.w3.org/2000/svg" xmlns:xlink="http://www.w3.org/1999/xlink">
<g id="graph0" class="graph" transform="scale(1 1) rotate(0) translate(4 1006.4)">
<title>G</title>
<polygon fill="white" stroke="none" points="-4,4 -4,-1006.4 1804,-1006.4 1804,4 -4,4"/>
<g id="clust1" class="cluster"><title>cluster_scenario</title>
<path fill="#808080" fill-opacity="0.094118" stroke="black" d="M20,-8C20,-8 1780,-8 1780,-8 1786,-8 1792,-14 1792,-20 1792,-20 1792,-946.401 1792,-946.401 1792,-952.401 1786,-958.401 1780,-958.401 1780,-958.401 20,-958.401 20,-958.401 14,-958.401 8,-952.401 8,-946.401 8,-946.401 8,-20 8,-20 8,-14 14,-8 20,-8"/>
<text text-anchor="middle" x="900" y="-943.201" font-family="Times,serif" font-size="14.00">scenario</text>
</g>
<g id="clust6" class="cluster"><title>cluster_scenario__ModelMock</title>
<path fill="#808080" fill-opacity="0.094118" stroke="black" d="M1056,-116.74C1056,-116.74 1422,-116.74 1422,-116.74 1428,-116.74 1434,-122.74 1434,-128.74 1434,-128.74 1434,-466.701 1434,-466.701 1434,-472.701 1428,-478.701 1422,-478.701 1422,-478.701 1056,-478.701 1056,-478.701 1050,-478.701 1044,-472.701 1044,-466.701 1044,-466.701 1044,-128.74 1044,-128.74 1044,-122.74 1050,-116.74 1056,-116.74"/>
<text text-anchor="middle" x="1239" y="-463.501" font-family="Times,serif" font-size="14.00">scenario.ModelMock</text>
</g>
<g id="clust7" class="cluster"><title>cluster_scenario__World</title>
<path fill="#808080" fill-opacity="0.094118" stroke="black" d="M60,-672.181C60,-672.181 1080,-672.181 1080,-672.181 1086,-672.181 1092,-678.181 1092,-684.181 1092,-684.181 1092,-853.661 1092,-853.661 1092,-859.661 1086,-865.661 1080,-865.661 1080,-865.661 60,-865.661 60,-865.661 54,-865.661 48,-859.661 48,-853.661 48,-853.661 48,-684.181 48,-684.181 48,-678.181 54,-672.181 60,-672.181"/>
<text text-anchor="middle" x="570" y="-850.461" font-family="Times,serif" font-size="14.00">scenario.World</text>
</g>
<g id="clust8" class="cluster"><title>cluster_scenario__World__get_data</title>
<path fill="#808080" fill-opacity="0.094118" stroke="black" d="M236,-680.181C236,-680.181 386,-680.181 386,-680.181 392,-680.181 398,-686.181 398,-692.181 398,-692.181 398,-760.921 398,-760.921 398,-766.921 392,-772.921 386,-772.921 386,-772.921 236,-772.921 236,-772.921 230,-772.921 224,-766.921 224,-760.921 224,-760.921 224,-692.181 224,-692.181 224,-686.181 230,-680.181 236,-680.181"/>
<text text-anchor="middle" x="311" y="-757.721" font-family="Times,serif" font-size="14.00">scenario.World.get_data</text>
</g>
<g id="clust2" class="cluster"><title>cluster_scenario__Entity</title>
<path fill="#808080" fill-opacity="0.094118" stroke="black" d="M1094,-16C1094,-16 1772,-16 1772,-16 1778,-16 1784,-22 1784,-28 1784,-28 1784,-96.7401 1784,-96.7401 1784,-102.74 1778,-108.74 1772,-108.74 1772,-108.74 1094,-108.74 1094,-108.74 1088,-108.74 1082,-102.74 1082,-96.7401 1082,-96.7401 1082,-28 1082,-28 1082,-22 1088,-16 1094,-16"/>
<text text-anchor="middle" x="1433" y="-93.5401" font-family="Times,serif" font-size="14.00">scenario.Entity</text>
</g>
<g id="clust3" class="cluster"><title>cluster_scenario__ModelFactory</title>
<path fill="#808080" fill-opacity="0.094118" stroke="black" d="M686,-369.96C686,-369.96 1012,-369.96 1012,-369.96 1018,-369.96 1024,-375.96 1024,-381.96 1024,-381.96 1024,-652.181 1024,-652.181 1024,-658.181 1018,-664.181 1012,-664.181 1012,-664.181 686,-664.181 686,-664.181 680,-664.181 674,-658.181 674,-652.181 674,-652.181 674,-381.96 674,-381.96 674,-375.96 680,-369.96 686,-369.96"/>
<text text-anchor="middle" x="849" y="-648.981" font-family="Times,serif" font-size="14.00">scenario.ModelFactory</text>
</g>
<g id="clust4" class="cluster"><title>cluster_scenario__ModelFactory____init__</title>
<path fill="#808080" fill-opacity="0.094118" stroke="black" d="M749,-377.96C749,-377.96 1004,-377.96 1004,-377.96 1010,-377.96 1016,-383.96 1016,-389.96 1016,-389.96 1016,-559.441 1016,-559.441 1016,-565.441 1010,-571.441 1004,-571.441 1004,-571.441 749,-571.441 749,-571.441 743,-571.441 737,-565.441 737,-559.441 737,-559.441 737,-389.96 737,-389.96 737,-383.96 743,-377.96 749,-377.96"/>
<text text-anchor="middle" x="876.5" y="-556.241" font-family="Times,serif" font-size="14.00">scenario.ModelFactory.__init__</text>
</g>
<g id="clust5" class="cluster"><title>cluster_scenario__ModelFactory____init____get_wrapper</title>
<path fill="#808080" fill-opacity="0.094118" stroke="black" d="M757,-385.96C757,-385.96 996,-385.96 996,-385.96 1002,-385.96 1008,-391.96 1008,-397.96 1008,-397.96 1008,-466.701 1008,-466.701 1008,-472.701 1002,-478.701 996,-478.701 996,-478.701 757,-478.701 757,-478.701 751,-478.701 745,-472.701 745,-466.701 745,-466.701 745,-397.96 745,-397.96 745,-391.96 751,-385.96 757,-385.96"/>
<text text-anchor="middle" x="876.5" y="-463.501" font-family="Times,serif" font-size="14.00">scenario.ModelFactory.__init__.get_wrapper</text>
</g>
<!-- scenario -->
<g id="node1" class="node"><title>scenario</title>
<ellipse fill="#ffffff" fill-opacity="0.698039" stroke="black" cx="1249" cy="-984.401" rx="40.0939" ry="18"/>
<text text-anchor="middle" x="1249" y="-980.701" font-family="Times,serif" font-size="14.00" fill="#000000">scenario</text>
</g>
<!-- scenario__World -->
<g id="node2" class="node"><title>scenario__World</title>
<ellipse fill="#ccfecc" fill-opacity="0.698039" stroke="black" cx="487" cy="-900.531" rx="74.4932" ry="26.7407"/>
<text text-anchor="middle" x="487" y="-904.331" font-family="Times,serif" font-size="14.00" fill="#000000">World</text>
<text text-anchor="middle" x="487" y="-889.331" font-family="Times,serif" font-size="14.00" fill="#000000">(scenario.py:37)</text>
</g>
<!-- scenario&#45;&gt;scenario__World -->
<g id="edge3" class="edge"><title>scenario&#45;&gt;scenario__World</title>
<path fill="none" stroke="#838b8b" stroke-dasharray="5,2" d="M1210.16,-979.229C1091.31,-966.459 730.723,-927.717 568.091,-910.244"/>
<polygon fill="#838b8b" stroke="#838b8b" points="567.986,-906.712 557.67,-909.124 567.239,-913.672 567.986,-906.712"/>
</g>
<!-- scenario__ModelFactory -->
<g id="node3" class="node"><title>scenario__ModelFactory</title>
<ellipse fill="#ccfecc" fill-opacity="0.698039" stroke="black" cx="1179" cy="-715.051" rx="79.3924" ry="26.7407"/>
<text text-anchor="middle" x="1179" y="-718.851" font-family="Times,serif" font-size="14.00" fill="#000000">ModelFactory</text>
<text text-anchor="middle" x="1179" y="-703.851" font-family="Times,serif" font-size="14.00" fill="#000000">(scenario.py:315)</text>
</g>
<!-- scenario&#45;&gt;scenario__ModelFactory -->
<g id="edge4" class="edge"><title>scenario&#45;&gt;scenario__ModelFactory</title>
<path fill="none" stroke="#838b8b" stroke-dasharray="5,2" d="M1244.51,-966.27C1233.27,-923.326 1203.69,-810.356 1188.42,-752.034"/>
<polygon fill="#838b8b" stroke="#838b8b" points="1191.75,-750.934 1185.83,-742.147 1184.98,-752.707 1191.75,-750.934"/>
</g>
<!-- scenario__ModelMock -->
<g id="node4" class="node"><title>scenario__ModelMock</title>
<ellipse fill="#ccfecc" fill-opacity="0.698039" stroke="black" cx="1111" cy="-513.571" rx="79.3924" ry="26.7407"/>
<text text-anchor="middle" x="1111" y="-517.371" font-family="Times,serif" font-size="14.00" fill="#000000">ModelMock</text>
<text text-anchor="middle" x="1111" y="-502.371" font-family="Times,serif" font-size="14.00" fill="#000000">(scenario.py:360)</text>
</g>
<!-- scenario&#45;&gt;scenario__ModelMock -->
<g id="edge1" class="edge"><title>scenario&#45;&gt;scenario__ModelMock</title>
<path fill="none" stroke="#838b8b" stroke-dasharray="5,2" d="M1255.11,-966.308C1265.62,-935.332 1286,-867.667 1286,-808.791 1286,-808.791 1286,-808.791 1286,-714.051 1286,-637.184 1211.66,-575.779 1159.89,-542.332"/>
<polygon fill="#838b8b" stroke="#838b8b" points="1161.47,-539.192 1151.15,-536.81 1157.73,-545.11 1161.47,-539.192"/>
</g>
<!-- scenario__Entity -->
<g id="node5" class="node"><title>scenario__Entity</title>
<ellipse fill="#ccfecc" fill-opacity="0.698039" stroke="black" cx="1521" cy="-151.61" rx="79.3924" ry="26.7407"/>
<text text-anchor="middle" x="1521" y="-155.41" font-family="Times,serif" font-size="14.00" fill="#000000">Entity</text>
<text text-anchor="middle" x="1521" y="-140.41" font-family="Times,serif" font-size="14.00" fill="#000000">(scenario.py:447)</text>
</g>
<!-- scenario&#45;&gt;scenario__Entity -->
<g id="edge2" class="edge"><title>scenario&#45;&gt;scenario__Entity</title>
<path fill="none" stroke="#838b8b" stroke-dasharray="5,2" d="M1284.53,-975.874C1353.11,-959.036 1497,-911.472 1497,-808.791 1497,-808.791 1497,-808.791 1497,-330.09 1497,-280.708 1506.24,-224.288 1513.25,-188.569"/>
<polygon fill="#838b8b" stroke="#838b8b" points="1516.71,-189.118 1515.25,-178.624 1509.85,-187.737 1516.71,-189.118"/>
</g>
<!-- scenario__World____init__ -->
<g id="node20" class="node"><title>scenario__World____init__</title>
<ellipse fill="#99ff99" fill-opacity="0.698039" stroke="black" cx="1010" cy="-807.791" rx="74.4932" ry="26.7407"/>
<text text-anchor="middle" x="1010" y="-811.591" font-family="Times,serif" font-size="14.00" fill="#000000">__init__</text>
<text text-anchor="middle" x="1010" y="-796.591" font-family="Times,serif" font-size="14.00" fill="#000000">(scenario.py:65)</text>
</g>
<!-- scenario__World&#45;&gt;scenario__World____init__ -->
<g id="edge5" class="edge"><title>scenario__World&#45;&gt;scenario__World____init__</title>
<path fill="none" stroke="#838b8b" stroke-dasharray="5,2" d="M561.329,-898.446C668.729,-896.094 861.604,-888.703 927,-865.661 943.918,-859.7 960.618,-849.371 974.553,-839.137"/>
<polygon fill="#838b8b" stroke="#838b8b" points="977.016,-841.661 982.85,-832.817 972.774,-836.093 977.016,-841.661"/>
</g>
<!-- scenario__World__start -->
<g id="node21" class="node"><title>scenario__World__start</title>
<ellipse fill="#99ff99" fill-opacity="0.698039" stroke="black" cx="839" cy="-807.791" rx="79.3924" ry="26.7407"/>
<text text-anchor="middle" x="839" y="-811.591" font-family="Times,serif" font-size="14.00" fill="#000000">start</text>
<text text-anchor="middle" x="839" y="-796.591" font-family="Times,serif" font-size="14.00" fill="#000000">(scenario.py:117)</text>
</g>
<!-- scenario__World&#45;&gt;scenario__World__start -->
<g id="edge7" class="edge"><title>scenario__World&#45;&gt;scenario__World__start</title>
<path fill="none" stroke="#838b8b" stroke-dasharray="5,2" d="M561.342,-898.745C615.414,-896.101 689.593,-888.123 751,-865.661 768.422,-859.288 785.929,-848.967 800.689,-838.856"/>
<polygon fill="#838b8b" stroke="#838b8b" points="802.891,-841.585 809.04,-832.958 798.852,-835.868 802.891,-841.585"/>
</g>
<!-- scenario__World__connect -->
<g id="node22" class="node"><title>scenario__World__connect</title>
<ellipse fill="#99ff99" fill-opacity="0.698039" stroke="black" cx="663" cy="-807.791" rx="79.3924" ry="26.7407"/>
<text text-anchor="middle" x="663" y="-811.591" font-family="Times,serif" font-size="14.00" fill="#000000">connect</text>
<text text-anchor="middle" x="663" y="-796.591" font-family="Times,serif" font-size="14.00" fill="#000000">(scenario.py:130)</text>
</g>
<!-- scenario__World&#45;&gt;scenario__World__connect -->
<g id="edge9" class="edge"><title>scenario__World&#45;&gt;scenario__World__connect</title>
<path fill="none" stroke="#838b8b" stroke-dasharray="5,2" d="M539.427,-881.393C551.327,-876.717 563.765,-871.376 575,-865.661 590.709,-857.67 607.133,-847.581 621.48,-838.128"/>
<polygon fill="#838b8b" stroke="#838b8b" points="623.754,-840.817 630.12,-832.348 619.862,-834.999 623.754,-840.817"/>
</g>
<!-- scenario__World___check_attributes -->
<g id="node23" class="node"><title>scenario__World___check_attributes</title>
<ellipse fill="#99ff99" fill-opacity="0.698039" stroke="black" cx="526" cy="-715.051" rx="79.3924" ry="26.7407"/>
<text text-anchor="middle" x="526" y="-718.851" font-family="Times,serif" font-size="14.00" fill="#000000">_check_attributes</text>
<text text-anchor="middle" x="526" y="-703.851" font-family="Times,serif" font-size="14.00" fill="#000000">(scenario.py:296)</text>
</g>
<!-- scenario__World&#45;&gt;scenario__World___check_attributes -->
<g id="edge11" class="edge"><title>scenario__World&#45;&gt;scenario__World___check_attributes</title>
<path fill="none" stroke="#838b8b" stroke-dasharray="5,2" d="M412.686,-899.193C293.701,-897.869 71.2704,-891.871 47,-865.661 21.4111,-838.027 20.6705,-807.85 47,-780.921 60.7912,-766.815 382.776,-777.347 402,-772.921 428.472,-766.827 456.115,-754.777 478.565,-743.333"/>
<polygon fill="#838b8b" stroke="#838b8b" points="480.286,-746.383 487.532,-738.654 477.047,-740.177 480.286,-746.383"/>
</g>
<!-- scenario__World__set_event -->
<g id="node24" class="node"><title>scenario__World__set_event</title>
<ellipse fill="#99ff99" fill-opacity="0.698039" stroke="black" cx="487" cy="-807.791" rx="79.3924" ry="26.7407"/>
<text text-anchor="middle" x="487" y="-811.591" font-family="Times,serif" font-size="14.00" fill="#000000">set_event</text>
<text text-anchor="middle" x="487" y="-796.591" font-family="Times,serif" font-size="14.00" fill="#000000">(scenario.py:181)</text>
</g>
<!-- scenario__World&#45;&gt;scenario__World__set_event -->
<g id="edge6" class="edge"><title>scenario__World&#45;&gt;scenario__World__set_event</title>
<path fill="none" stroke="#838b8b" stroke-dasharray="5,2" d="M487,-873.285C487,-864.368 487,-854.243 487,-844.703"/>
<polygon fill="#838b8b" stroke="#838b8b" points="490.5,-844.664 487,-834.664 483.5,-844.664 490.5,-844.664"/>
</g>
<!-- scenario__World__get_data -->
<g id="node25" class="node"><title>scenario__World__get_data</title>
<ellipse fill="#99ff99" fill-opacity="0.698039" stroke="black" cx="311" cy="-807.791" rx="79.3924" ry="26.7407"/>
<text text-anchor="middle" x="311" y="-811.591" font-family="Times,serif" font-size="14.00" fill="#000000">get_data</text>
<text text-anchor="middle" x="311" y="-796.591" font-family="Times,serif" font-size="14.00" fill="#000000">(scenario.py:196)</text>
</g>
<!-- scenario__World&#45;&gt;scenario__World__get_data -->
<g id="edge8" class="edge"><title>scenario__World&#45;&gt;scenario__World__get_data</title>
<path fill="none" stroke="#838b8b" stroke-dasharray="5,2" d="M434.573,-881.393C422.673,-876.717 410.235,-871.376 399,-865.661 383.291,-857.67 366.867,-847.581 352.52,-838.128"/>
<polygon fill="#838b8b" stroke="#838b8b" points="354.138,-834.999 343.88,-832.348 350.246,-840.817 354.138,-834.999"/>
</g>
<!-- scenario__World__run -->
<g id="node26" class="node"><title>scenario__World__run</title>
<ellipse fill="#99ff99" fill-opacity="0.698039" stroke="black" cx="135" cy="-807.791" rx="79.3924" ry="26.7407"/>
<text text-anchor="middle" x="135" y="-811.591" font-family="Times,serif" font-size="14.00" fill="#000000">run</text>
<text text-anchor="middle" x="135" y="-796.591" font-family="Times,serif" font-size="14.00" fill="#000000">(scenario.py:247)</text>
</g>
<!-- scenario__World&#45;&gt;scenario__World__run -->
<g id="edge12" class="edge"><title>scenario__World&#45;&gt;scenario__World__run</title>
<path fill="none" stroke="#838b8b" stroke-dasharray="5,2" d="M412.658,-898.745C358.586,-896.101 284.407,-888.123 223,-865.661 205.578,-859.288 188.071,-848.967 173.311,-838.856"/>
<polygon fill="#838b8b" stroke="#838b8b" points="175.148,-835.868 164.96,-832.958 171.109,-841.585 175.148,-835.868"/>
</g>
<!-- scenario__World__shutdown -->
<g id="node27" class="node"><title>scenario__World__shutdown</title>
<ellipse fill="#99ff99" fill-opacity="0.698039" stroke="black" cx="135" cy="-715.051" rx="79.3924" ry="26.7407"/>
<text text-anchor="middle" x="135" y="-718.851" font-family="Times,serif" font-size="14.00" fill="#000000">shutdown</text>
<text text-anchor="middle" x="135" y="-703.851" font-family="Times,serif" font-size="14.00" fill="#000000">(scenario.py:287)</text>
</g>
<!-- scenario__World&#45;&gt;scenario__World__shutdown -->
<g id="edge10" class="edge"><title>scenario__World&#45;&gt;scenario__World__shutdown</title>
<path fill="none" stroke="#838b8b" stroke-dasharray="5,2" d="M412.801,-899.511C288.665,-898.695 49.8585,-893.48 24,-865.661 -1.64136,-838.075 5.25507,-813.587 24,-780.921 34.5016,-762.62 52.3829,-748.99 70.7618,-739.076"/>
<polygon fill="#838b8b" stroke="#838b8b" points="72.453,-742.143 79.7941,-734.503 69.2913,-735.897 72.453,-742.143"/>
</g>
<!-- scenario__ModelFactory____init__ -->
<g id="node10" class="node"><title>scenario__ModelFactory____init__</title>
<ellipse fill="#99ff99" fill-opacity="0.698039" stroke="black" cx="937" cy="-606.311" rx="79.3924" ry="26.7407"/>
<text text-anchor="middle" x="937" y="-610.111" font-family="Times,serif" font-size="14.00" fill="#000000">__init__</text>
<text text-anchor="middle" x="937" y="-595.111" font-family="Times,serif" font-size="14.00" fill="#000000">(scenario.py:326)</text>
</g>
<!-- scenario__ModelFactory&#45;&gt;scenario__ModelFactory____init__ -->
<g id="edge15" class="edge"><title>scenario__ModelFactory&#45;&gt;scenario__ModelFactory____init__</title>
<path fill="none" stroke="#838b8b" stroke-dasharray="5,2" d="M1140.93,-691.21C1127.21,-683.972 1111.33,-676.689 1096,-672.181 1063.42,-662.597 1051.87,-675.916 1020,-664.181 1003.44,-658.083 987.022,-647.941 973.216,-637.896"/>
<polygon fill="#838b8b" stroke="#838b8b" points="975.072,-634.912 964.978,-631.691 970.86,-640.504 975.072,-634.912"/>
</g>
<!-- scenario__ModelFactory____getattr__ -->
<g id="node11" class="node"><title>scenario__ModelFactory____getattr__</title>
<ellipse fill="#99ff99" fill-opacity="0.698039" stroke="black" cx="761" cy="-606.311" rx="79.3924" ry="26.7407"/>
<text text-anchor="middle" x="761" y="-610.111" font-family="Times,serif" font-size="14.00" fill="#000000">__getattr__</text>
<text text-anchor="middle" x="761" y="-595.111" font-family="Times,serif" font-size="14.00" fill="#000000">(scenario.py:350)</text>
</g>
<!-- scenario__ModelFactory&#45;&gt;scenario__ModelFactory____getattr__ -->
<g id="edge14" class="edge"><title>scenario__ModelFactory&#45;&gt;scenario__ModelFactory____getattr__</title>
<path fill="none" stroke="#838b8b" stroke-dasharray="5,2" d="M1141.93,-691.022C1128.05,-683.578 1111.79,-676.21 1096,-672.181 1042.79,-658.605 901.415,-680.57 849,-664.181 830.859,-658.508 812.866,-647.992 797.922,-637.53"/>
<polygon fill="#838b8b" stroke="#838b8b" points="799.647,-634.457 789.498,-631.414 795.534,-640.122 799.647,-634.457"/>
</g>
<!-- scenario__ModelMock____init__ -->
<g id="node14" class="node"><title>scenario__ModelMock____init__</title>
<ellipse fill="#99ff99" fill-opacity="0.698039" stroke="black" cx="1347" cy="-420.831" rx="79.3924" ry="26.7407"/>
<text text-anchor="middle" x="1347" y="-424.631" font-family="Times,serif" font-size="14.00" fill="#000000">__init__</text>
<text text-anchor="middle" x="1347" y="-409.631" font-family="Times,serif" font-size="14.00" fill="#000000">(scenario.py:370)</text>
</g>
<!-- scenario__ModelMock&#45;&gt;scenario__ModelMock____init__ -->
<g id="edge21" class="edge"><title>scenario__ModelMock&#45;&gt;scenario__ModelMock____init__</title>
<path fill="none" stroke="#838b8b" stroke-dasharray="5,2" d="M1182.22,-501.506C1207.1,-496.285 1234.84,-488.898 1259,-478.701 1275.81,-471.606 1292.96,-461.339 1307.6,-451.475"/>
<polygon fill="#838b8b" stroke="#838b8b" points="1309.67,-454.302 1315.91,-445.742 1305.69,-448.541 1309.67,-454.302"/>
</g>
<!-- scenario__ModelMock____call__ -->
<g id="node15" class="node"><title>scenario__ModelMock____call__</title>
<ellipse fill="#99ff99" fill-opacity="0.698039" stroke="black" cx="1171" cy="-420.831" rx="79.3924" ry="26.7407"/>
<text text-anchor="middle" x="1171" y="-424.631" font-family="Times,serif" font-size="14.00" fill="#000000">__call__</text>
<text text-anchor="middle" x="1171" y="-409.631" font-family="Times,serif" font-size="14.00" fill="#000000">(scenario.py:378)</text>
</g>
<!-- scenario__ModelMock&#45;&gt;scenario__ModelMock____call__ -->
<g id="edge20" class="edge"><title>scenario__ModelMock&#45;&gt;scenario__ModelMock____call__</title>
<path fill="none" stroke="#838b8b" stroke-dasharray="5,2" d="M1127.71,-487.294C1134.16,-477.544 1141.63,-466.242 1148.54,-455.801"/>
<polygon fill="#838b8b" stroke="#838b8b" points="1151.57,-457.558 1154.17,-447.286 1145.73,-453.697 1151.57,-457.558"/>
</g>
<!-- scenario__ModelMock___check_params -->
<g id="node16" class="node"><title>scenario__ModelMock___check_params</title>
<ellipse fill="#99ff99" fill-opacity="0.698039" stroke="black" cx="1131" cy="-241.35" rx="79.3924" ry="26.7407"/>
<text text-anchor="middle" x="1131" y="-245.15" font-family="Times,serif" font-size="14.00" fill="#000000">_check_params</text>
<text text-anchor="middle" x="1131" y="-230.15" font-family="Times,serif" font-size="14.00" fill="#000000">(scenario.py:402)</text>
</g>
<!-- scenario__ModelMock&#45;&gt;scenario__ModelMock___check_params -->
<g id="edge19" class="edge"><title>scenario__ModelMock&#45;&gt;scenario__ModelMock___check_params</title>
<path fill="none" stroke="#838b8b" stroke-dasharray="5,2" d="M1075.52,-489.528C1072.52,-486.246 1069.91,-482.633 1068,-478.701 1034.14,-408.935 1038,-375.729 1068,-304.22 1072.91,-292.508 1081.25,-281.897 1090.27,-272.9"/>
<polygon fill="#838b8b" stroke="#838b8b" points="1092.69,-275.429 1097.6,-266.041 1087.91,-270.317 1092.69,-275.429"/>
</g>
<!-- scenario__ModelMock__create -->
<g id="node17" class="node"><title>scenario__ModelMock__create</title>
<ellipse fill="#99ff99" fill-opacity="0.698039" stroke="black" cx="1287" cy="-331.09" rx="79.3924" ry="26.7407"/>
<text text-anchor="middle" x="1287" y="-334.89" font-family="Times,serif" font-size="14.00" fill="#000000">create</text>
<text text-anchor="middle" x="1287" y="-319.89" font-family="Times,serif" font-size="14.00" fill="#000000">(scenario.py:383)</text>
</g>
<!-- scenario__ModelMock&#45;&gt;scenario__ModelMock__create -->
<g id="edge23" class="edge"><title>scenario__ModelMock&#45;&gt;scenario__ModelMock__create</title>
<path fill="none" stroke="#838b8b" stroke-dasharray="5,2" d="M1189.48,-509.771C1280.1,-505.715 1418.84,-496.637 1435,-478.701 1467.35,-442.794 1465.92,-407.107 1435,-369.96 1416.21,-347.381 1398.52,-365.011 1370,-357.96 1364.27,-356.545 1358.36,-354.959 1352.45,-353.287"/>
<polygon fill="#838b8b" stroke="#838b8b" points="1353.13,-349.838 1342.55,-350.408 1351.18,-356.56 1353.13,-349.838"/>
</g>
<!-- scenario__ModelMock___make_entities -->
<g id="node18" class="node"><title>scenario__ModelMock___make_entities</title>
<ellipse fill="#99ff99" fill-opacity="0.698039" stroke="black" cx="1307" cy="-241.35" rx="79.3924" ry="26.7407"/>
<text text-anchor="middle" x="1307" y="-245.15" font-family="Times,serif" font-size="14.00" fill="#000000">_make_entities</text>
<text text-anchor="middle" x="1307" y="-230.15" font-family="Times,serif" font-size="14.00" fill="#000000">(scenario.py:410)</text>
</g>
<!-- scenario__ModelMock&#45;&gt;scenario__ModelMock___make_entities -->
<g id="edge22" class="edge"><title>scenario__ModelMock&#45;&gt;scenario__ModelMock___make_entities</title>
<path fill="none" stroke="#838b8b" stroke-dasharray="5,2" d="M1087.54,-487.857C1085.71,-484.933 1084.14,-481.859 1083,-478.701 1066.64,-433.226 1058.71,-411.745 1083,-369.96 1101.6,-337.959 1189.67,-294.039 1249.68,-266.961"/>
<polygon fill="#838b8b" stroke="#838b8b" points="1251.36,-270.045 1259.06,-262.765 1248.5,-263.656 1251.36,-270.045"/>
</g>
<!-- scenario__ModelMock___assert_model_type -->
<g id="node19" class="node"><title>scenario__ModelMock___assert_model_type</title>
<ellipse fill="#99ff99" fill-opacity="0.698039" stroke="black" cx="1170" cy="-151.61" rx="88.2768" ry="26.7407"/>
<text text-anchor="middle" x="1170" y="-155.41" font-family="Times,serif" font-size="14.00" fill="#000000">_assert_model_type</text>
<text text-anchor="middle" x="1170" y="-140.41" font-family="Times,serif" font-size="14.00" fill="#000000">(scenario.py:434)</text>
</g>
<!-- scenario__ModelMock&#45;&gt;scenario__ModelMock___assert_model_type -->
<g id="edge18" class="edge"><title>scenario__ModelMock&#45;&gt;scenario__ModelMock___assert_model_type</title>
<path fill="none" stroke="#838b8b" stroke-dasharray="5,2" d="M1056.26,-494.123C1050.23,-489.955 1044.87,-484.877 1041,-478.701 1028.72,-459.115 1028.73,-236.987 1043,-214.48 1054.85,-195.801 1074.11,-182.604 1094.09,-173.345"/>
<polygon fill="#838b8b" stroke="#838b8b" points="1095.51,-176.544 1103.3,-169.362 1092.73,-170.12 1095.51,-176.544"/>
</g>
<!-- scenario__Entity____init__ -->
<g id="node6" class="node"><title>scenario__Entity____init__</title>
<ellipse fill="#99ff99" fill-opacity="0.698039" stroke="black" cx="1697" cy="-50.8701" rx="79.3924" ry="26.7407"/>
<text text-anchor="middle" x="1697" y="-54.6701" font-family="Times,serif" font-size="14.00" fill="#000000">__init__</text>
<text text-anchor="middle" x="1697" y="-39.6701" font-family="Times,serif" font-size="14.00" fill="#000000">(scenario.py:451)</text>
</g>
<!-- scenario__Entity&#45;&gt;scenario__Entity____init__ -->
<g id="edge24" class="edge"><title>scenario__Entity&#45;&gt;scenario__Entity____init__</title>
<path fill="none" stroke="#838b8b" stroke-dasharray="5,2" d="M1567.7,-129.77C1581.21,-123.373 1595.85,-116.077 1609,-108.74 1624.13,-100.3 1640.18,-90.2686 1654.37,-80.9987"/>
<polygon fill="#838b8b" stroke="#838b8b" points="1656.52,-83.773 1662.95,-75.3462 1652.67,-77.929 1656.52,-83.773"/>
</g>
<!-- scenario__Entity__full_id -->
<g id="node7" class="node"><title>scenario__Entity__full_id</title>
<ellipse fill="#99ff99" fill-opacity="0.698039" stroke="black" cx="1169" cy="-50.8701" rx="79.3924" ry="26.7407"/>
<text text-anchor="middle" x="1169" y="-54.6701" font-family="Times,serif" font-size="14.00" fill="#000000">full_id</text>
<text text-anchor="middle" x="1169" y="-39.6701" font-family="Times,serif" font-size="14.00" fill="#000000">(scenario.py:470)</text>
</g>
<!-- scenario__Entity&#45;&gt;scenario__Entity__full_id -->
<g id="edge26" class="edge"><title>scenario__Entity&#45;&gt;scenario__Entity__full_id</title>
<path fill="none" stroke="#838b8b" stroke-dasharray="5,2" d="M1476.67,-129.254C1464.41,-124.259 1450.92,-119.573 1438,-116.74 1398.67,-108.119 1295.36,-120.982 1257,-108.74 1239.04,-103.007 1221.19,-92.5927 1206.32,-82.2282"/>
<polygon fill="#838b8b" stroke="#838b8b" points="1208.08,-79.1834 1197.92,-76.1672 1203.98,-84.8587 1208.08,-79.1834"/>
</g>
<!-- scenario__Entity____str__ -->
<g id="node8" class="node"><title>scenario__Entity____str__</title>
<ellipse fill="#99ff99" fill-opacity="0.698039" stroke="black" cx="1521" cy="-50.8701" rx="79.3924" ry="26.7407"/>
<text text-anchor="middle" x="1521" y="-54.6701" font-family="Times,serif" font-size="14.00" fill="#000000">__str__</text>
<text text-anchor="middle" x="1521" y="-39.6701" font-family="Times,serif" font-size="14.00" fill="#000000">(scenario.py:475)</text>
</g>
<!-- scenario__Entity&#45;&gt;scenario__Entity____str__ -->
<g id="edge27" class="edge"><title>scenario__Entity&#45;&gt;scenario__Entity____str__</title>
<path fill="none" stroke="#838b8b" stroke-dasharray="5,2" d="M1521,-124.667C1521,-113.531 1521,-100.324 1521,-88.2362"/>
<polygon fill="#838b8b" stroke="#838b8b" points="1524.5,-87.9824 1521,-77.9824 1517.5,-87.9825 1524.5,-87.9824"/>
</g>
<!-- scenario__Entity____repr__ -->
<g id="node9" class="node"><title>scenario__Entity____repr__</title>
<ellipse fill="#99ff99" fill-opacity="0.698039" stroke="black" cx="1345" cy="-50.8701" rx="79.3924" ry="26.7407"/>
<text text-anchor="middle" x="1345" y="-54.6701" font-family="Times,serif" font-size="14.00" fill="#000000">__repr__</text>
<text text-anchor="middle" x="1345" y="-39.6701" font-family="Times,serif" font-size="14.00" fill="#000000">(scenario.py:479)</text>
</g>
<!-- scenario__Entity&#45;&gt;scenario__Entity____repr__ -->
<g id="edge25" class="edge"><title>scenario__Entity&#45;&gt;scenario__Entity____repr__</title>
<path fill="none" stroke="#838b8b" stroke-dasharray="5,2" d="M1474.3,-129.77C1460.79,-123.373 1446.15,-116.077 1433,-108.74 1417.87,-100.3 1401.82,-90.2686 1387.63,-80.9987"/>
<polygon fill="#838b8b" stroke="#838b8b" points="1389.33,-77.929 1379.05,-75.3462 1385.48,-83.773 1389.33,-77.929"/>
</g>
<!-- scenario__ModelFactory____init__&#45;&gt;scenario__ModelMock -->
<g id="edge33" class="edge"><title>scenario__ModelFactory____init__&#45;&gt;scenario__ModelMock</title>
<path fill="none" stroke="black" d="M988.537,-585.883C999.095,-581.458 1010.02,-576.546 1020,-571.441 1036.22,-563.14 1053.33,-552.881 1068.28,-543.371"/>
<polygon fill="black" stroke="black" points="1070.3,-546.236 1076.81,-537.88 1066.51,-540.35 1070.3,-546.236"/>
</g>
<!-- scenario__ModelFactory____init____get_wrapper -->
<g id="node12" class="node"><title>scenario__ModelFactory____init____get_wrapper</title>
<ellipse fill="#65ff65" fill-opacity="0.698039" stroke="black" cx="925" cy="-513.571" rx="79.3924" ry="26.7407"/>
<text text-anchor="middle" x="925" y="-517.371" font-family="Times,serif" font-size="14.00" fill="#000000">get_wrapper</text>
<text text-anchor="middle" x="925" y="-502.371" font-family="Times,serif" font-size="14.00" fill="#000000">(scenario.py:342)</text>
</g>
<!-- scenario__ModelFactory____init__&#45;&gt;scenario__ModelFactory____init____get_wrapper -->
<g id="edge16" class="edge"><title>scenario__ModelFactory____init__&#45;&gt;scenario__ModelFactory____init____get_wrapper</title>
<path fill="none" stroke="#838b8b" stroke-dasharray="5,2" d="M927.438,-579.551C925.681,-570.624 924.177,-560.443 923.168,-550.831"/>
<polygon fill="#838b8b" stroke="#838b8b" points="926.64,-550.365 922.278,-540.71 919.667,-550.978 926.64,-550.365"/>
</g>
<!-- scenario__ModelFactory____init__&#45;&gt;scenario__ModelFactory____init____get_wrapper -->
<g id="edge34" class="edge"><title>scenario__ModelFactory____init__&#45;&gt;scenario__ModelFactory____init____get_wrapper</title>
<path fill="none" stroke="black" d="M939.715,-579.065C939.094,-570.147 937.899,-560.023 936.367,-550.483"/>
<polygon fill="black" stroke="black" points="939.779,-549.678 934.584,-540.444 932.887,-550.902 939.779,-549.678"/>
</g>
<!-- scenario__ModelFactory____init____get_wrapper__wrapper -->
<g id="node13" class="node"><title>scenario__ModelFactory____init____get_wrapper__wrapper</title>
<ellipse fill="#32ff32" fill-opacity="0.698039" stroke="black" cx="921" cy="-420.831" rx="79.3924" ry="26.7407"/>
<text text-anchor="middle" x="921" y="-424.631" font-family="Times,serif" font-size="14.00" fill="#000000">wrapper</text>
<text text-anchor="middle" x="921" y="-409.631" font-family="Times,serif" font-size="14.00" fill="#000000">(scenario.py:343)</text>
</g>
<!-- scenario__ModelFactory____init____get_wrapper&#45;&gt;scenario__ModelFactory____init____get_wrapper__wrapper -->
<g id="edge17" class="edge"><title>scenario__ModelFactory____init____get_wrapper&#45;&gt;scenario__ModelFactory____init____get_wrapper__wrapper</title>
<path fill="none" stroke="#838b8b" stroke-dasharray="5,2" d="M917.709,-486.811C916.731,-477.807 916.123,-467.527 915.967,-457.842"/>
<polygon fill="#838b8b" stroke="#838b8b" points="919.467,-457.659 915.979,-447.655 912.467,-457.65 919.467,-457.659"/>
</g>
<!-- scenario__ModelFactory____init____get_wrapper&#45;&gt;scenario__ModelFactory____init____get_wrapper__wrapper -->
<g id="edge35" class="edge"><title>scenario__ModelFactory____init____get_wrapper&#45;&gt;scenario__ModelFactory____init____get_wrapper__wrapper</title>
<path fill="none" stroke="black" d="M930.029,-486.325C930.194,-477.407 929.892,-467.283 929.201,-457.742"/>
<polygon fill="black" stroke="black" points="932.68,-457.352 928.303,-447.704 925.708,-457.976 932.68,-457.352"/>
</g>
<!-- scenario__ModelMock____call__&#45;&gt;scenario__ModelMock___check_params -->
<g id="edge36" class="edge"><title>scenario__ModelMock____call__&#45;&gt;scenario__ModelMock___check_params</title>
<path fill="none" stroke="black" d="M1165.12,-393.657C1159.86,-370.223 1151.93,-334.925 1145,-304.22 1143.1,-295.819 1141.06,-286.777 1139.14,-278.27"/>
<polygon fill="black" stroke="black" points="1142.49,-277.217 1136.87,-268.237 1135.66,-278.763 1142.49,-277.217"/>
</g>
<!-- scenario__ModelMock____call__&#45;&gt;scenario__ModelMock__create -->
<g id="edge37" class="edge"><title>scenario__ModelMock____call__&#45;&gt;scenario__ModelMock__create</title>
<path fill="none" stroke="black" d="M1202.39,-396.087C1216.32,-385.553 1232.86,-373.042 1247.6,-361.889"/>
<polygon fill="black" stroke="black" points="1249.72,-364.677 1255.58,-355.853 1245.5,-359.094 1249.72,-364.677"/>
</g>
<!-- scenario__ModelMock__create&#45;&gt;scenario__ModelMock___check_params -->
<g id="edge38" class="edge"><title>scenario__ModelMock__create&#45;&gt;scenario__ModelMock___check_params</title>
<path fill="none" stroke="black" d="M1247.23,-307.723C1226.6,-296.121 1201.23,-281.853 1179.47,-269.61"/>
<polygon fill="black" stroke="black" points="1181.13,-266.529 1170.7,-264.677 1177.7,-272.63 1181.13,-266.529"/>
</g>
<!-- scenario__ModelMock__create&#45;&gt;scenario__ModelMock___make_entities -->
<g id="edge39" class="edge"><title>scenario__ModelMock__create&#45;&gt;scenario__ModelMock___make_entities</title>
<path fill="none" stroke="black" d="M1292.89,-304.24C1294.75,-296.102 1296.83,-286.962 1298.82,-278.255"/>
<polygon fill="black" stroke="black" points="1302.27,-278.847 1301.08,-268.319 1295.45,-277.291 1302.27,-278.847"/>
</g>
<!-- scenario__ModelMock___make_entities&#45;&gt;scenario__Entity -->
<g id="edge41" class="edge"><title>scenario__ModelMock___make_entities&#45;&gt;scenario__Entity</title>
<path fill="none" stroke="black" d="M1356.1,-220.221C1387.66,-207.281 1428.83,-190.399 1462.14,-176.741"/>
<polygon fill="black" stroke="black" points="1463.84,-179.83 1471.76,-172.798 1461.18,-173.353 1463.84,-179.83"/>
</g>
<!-- scenario__ModelMock___make_entities&#45;&gt;scenario__Entity__full_id -->
<g id="edge40" class="edge"><title>scenario__ModelMock___make_entities&#45;&gt;scenario__Entity__full_id</title>
<path fill="none" stroke="black" d="M1303.72,-214.362C1299.25,-187.61 1289.1,-145.84 1267,-116.74 1264.95,-114.042 1238.64,-96.6774 1213.8,-80.5936"/>
<polygon fill="black" stroke="black" points="1215.42,-77.4706 1205.12,-74.9841 1211.62,-83.3504 1215.42,-77.4706"/>
</g>
<!-- scenario__ModelMock___make_entities&#45;&gt;scenario__ModelMock___assert_model_type -->
<g id="edge42" class="edge"><title>scenario__ModelMock___make_entities&#45;&gt;scenario__ModelMock___assert_model_type</title>
<path fill="none" stroke="black" d="M1271,-217.298C1253.97,-206.389 1233.45,-193.246 1215.36,-181.663"/>
<polygon fill="black" stroke="black" points="1217.02,-178.565 1206.71,-176.119 1213.24,-184.46 1217.02,-178.565"/>
</g>
<!-- scenario__World__start&#45;&gt;scenario__ModelFactory -->
<g id="edge28" class="edge"><title>scenario__World__start&#45;&gt;scenario__ModelFactory</title>
<path fill="none" stroke="black" d="M894.395,-788.333C905.107,-785.384 916.321,-782.717 927,-780.921 964.077,-774.686 1060.36,-784.891 1096,-772.921 1113,-767.21 1129.72,-756.931 1143.65,-746.666"/>
<polygon fill="black" stroke="black" points="1146.12,-749.178 1151.93,-740.318 1141.87,-743.621 1146.12,-749.178"/>
</g>
<!-- scenario__World__connect&#45;&gt;scenario__Entity__full_id -->
<g id="edge29" class="edge"><title>scenario__World__connect&#45;&gt;scenario__Entity__full_id</title>
<path fill="none" stroke="black" d="M663,-780.651C663,-742.537 663,-669.475 663,-607.311 663,-607.311 663,-607.311 663,-240.35 663,-228.64 660.244,-223.254 668,-214.48 773.388,-95.2708 966.961,-62.9898 1080.16,-54.5407"/>
<polygon fill="black" stroke="black" points="1080.45,-58.0288 1090.18,-53.839 1079.96,-51.0458 1080.45,-58.0288"/>
</g>
<!-- scenario__World__connect&#45;&gt;scenario__World___check_attributes -->
<g id="edge30" class="edge"><title>scenario__World__connect&#45;&gt;scenario__World___check_attributes</title>
<path fill="none" stroke="black" d="M628.075,-783.659C610.338,-771.911 588.611,-757.52 569.768,-745.04"/>
<polygon fill="black" stroke="black" points="571.608,-742.061 561.338,-739.456 567.742,-747.897 571.608,-742.061"/>
</g>
<!-- scenario__World__get_data__request_data -->
<g id="node28" class="node"><title>scenario__World__get_data__request_data</title>
<ellipse fill="#65ff65" fill-opacity="0.698039" stroke="black" cx="311" cy="-715.051" rx="79.3924" ry="26.7407"/>
<text text-anchor="middle" x="311" y="-718.851" font-family="Times,serif" font-size="14.00" fill="#000000">request_data</text>
<text text-anchor="middle" x="311" y="-703.851" font-family="Times,serif" font-size="14.00" fill="#000000">(scenario.py:217)</text>
</g>
<!-- scenario__World__get_data&#45;&gt;scenario__World__get_data__request_data -->
<g id="edge13" class="edge"><title>scenario__World__get_data&#45;&gt;scenario__World__get_data__request_data</title>
<path fill="none" stroke="#838b8b" stroke-dasharray="5,2" d="M304.814,-780.545C304.256,-771.627 304.112,-761.503 304.382,-751.963"/>
<polygon fill="#838b8b" stroke="#838b8b" points="307.881,-752.073 304.838,-741.924 300.888,-751.755 307.881,-752.073"/>
</g>
<!-- scenario__World__get_data&#45;&gt;scenario__World__get_data__request_data -->
<g id="edge31" class="edge"><title>scenario__World__get_data&#45;&gt;scenario__World__get_data__request_data</title>
<path fill="none" stroke="black" d="M317.186,-780.545C317.744,-771.627 317.888,-761.503 317.618,-751.963"/>
<polygon fill="black" stroke="black" points="321.112,-751.755 317.162,-741.924 314.119,-752.073 321.112,-751.755"/>
</g>
<!-- scenario__World__run&#45;&gt;scenario__World__shutdown -->
<g id="edge32" class="edge"><title>scenario__World__run&#45;&gt;scenario__World__shutdown</title>
<path fill="none" stroke="black" d="M135,-780.545C135,-771.627 135,-761.503 135,-751.963"/>
<polygon fill="black" stroke="black" points="138.5,-751.924 135,-741.924 131.5,-751.924 138.5,-751.924"/>
</g>
</g>
</svg>
