<?xml version="1.0" encoding="UTF-8" standalone="no"?>
<!DOCTYPE svg PUBLIC "-//W3C//DTD SVG 1.1//EN"
 "http://www.w3.org/Graphics/SVG/1.1/DTD/svg11.dtd">
<!-- Generated by graphviz version 2.38.0 (20140413.2041)
 -->
<!-- Title: G Pages: 1 -->
<svg width="1573pt" height="523pt"
 viewBox="0.00 0.00 1573.32 522.70" xmlns="http://www.w3.org/2000/svg" xmlns:xlink="http://www.w3.org/1999/xlink">
<g id="graph0" class="graph" transform="scale(1 1) rotate(0) translate(4 518.701)">
<title>G</title>
<polygon fill="white" stroke="none" points="-4,4 -4,-518.701 1569.32,-518.701 1569.32,4 -4,4"/>
<g id="clust1" class="cluster"><title>cluster_scheduler</title>
<path fill="#808080" fill-opacity="0.094118" stroke="black" d="M20,-8C20,-8 1520,-8 1520,-8 1526,-8 1532,-14 1532,-20 1532,-20 1532,-458.701 1532,-458.701 1532,-464.701 1526,-470.701 1520,-470.701 1520,-470.701 20,-470.701 20,-470.701 14,-470.701 8,-464.701 8,-458.701 8,-458.701 8,-20 8,-20 8,-14 14,-8 20,-8"/>
<text text-anchor="middle" x="770" y="-455.501" font-family="Times,serif" font-size="14.00">scheduler</text>
</g>
<g id="clust2" class="cluster"><title>cluster_scheduler__get_keep_running_func</title>
<path fill="#808080" fill-opacity="0.094118" stroke="black" d="M126,-16C126,-16 302,-16 302,-16 308,-16 314,-22 314,-28 314,-28 314,-186.48 314,-186.48 314,-192.48 308,-198.48 302,-198.48 302,-198.48 126,-198.48 126,-198.48 120,-198.48 114,-192.48 114,-186.48 114,-186.48 114,-28 114,-28 114,-22 120,-16 126,-16"/>
<text text-anchor="middle" x="214" y="-183.28" font-family="Times,serif" font-size="14.00">scheduler.get_keep_running_func</text>
</g>
<!-- scheduler -->
<g id="node1" class="node"><title>scheduler</title>
<ellipse fill="#ffffff" fill-opacity="0.698039" stroke="black" cx="964" cy="-496.701" rx="44.393" ry="18"/>
<text text-anchor="middle" x="964" y="-493.001" font-family="Times,serif" font-size="14.00" fill="#000000">scheduler</text>
</g>
<!-- scheduler__run -->
<g id="node2" class="node"><title>scheduler__run</title>
<ellipse fill="#ccfecc" fill-opacity="0.698039" stroke="black" cx="705" cy="-412.831" rx="79.3924" ry="26.7407"/>
<text text-anchor="middle" x="705" y="-416.631" font-family="Times,serif" font-size="14.00" fill="#000000">run</text>
<text text-anchor="middle" x="705" y="-401.631" font-family="Times,serif" font-size="14.00" fill="#000000">(scheduler.py:14)</text>
</g>
<!-- scheduler&#45;&gt;scheduler__run -->
<g id="edge1" class="edge"><title>scheduler&#45;&gt;scheduler__run</title>
<path fill="none" stroke="#838b8b" stroke-dasharray="5,2" d="M920.187,-493.857C886.022,-491.3 837.846,-485.208 798,-470.701 779.544,-463.981 760.768,-453.364 744.964,-443.113"/>
<polygon fill="#838b8b" stroke="#838b8b" points="746.774,-440.113 736.511,-437.482 742.894,-445.939 746.774,-440.113"/>
</g>
<!-- scheduler__sim_process -->
<g id="node3" class="node"><title>scheduler__sim_process</title>
<ellipse fill="#ccfecc" fill-opacity="0.698039" stroke="black" cx="705" cy="-323.09" rx="79.3924" ry="26.7407"/>
<text text-anchor="middle" x="705" y="-326.89" font-family="Times,serif" font-size="14.00" fill="#000000">sim_process</text>
<text text-anchor="middle" x="705" y="-311.89" font-family="Times,serif" font-size="14.00" fill="#000000">(scheduler.py:47)</text>
</g>
<!-- scheduler&#45;&gt;scheduler__sim_process -->
<g id="edge5" class="edge"><title>scheduler&#45;&gt;scheduler__sim_process</title>
<path fill="none" stroke="#838b8b" stroke-dasharray="5,2" d="M921.692,-491.46C889.786,-487.533 849.323,-480.767 836,-470.701 802.303,-445.241 820.651,-417.884 793,-385.96 781.862,-373.101 767.508,-361.559 753.637,-352.026"/>
<polygon fill="#838b8b" stroke="#838b8b" points="755.363,-348.971 745.096,-346.356 751.491,-354.803 755.363,-348.971"/>
</g>
<!-- scheduler__get_keep_running_func -->
<g id="node4" class="node"><title>scheduler__get_keep_running_func</title>
<ellipse fill="#ccfecc" fill-opacity="0.698039" stroke="black" cx="119" cy="-233.35" rx="102.561" ry="26.7407"/>
<text text-anchor="middle" x="119" y="-237.15" font-family="Times,serif" font-size="14.00" fill="#000000">get_keep_running_func</text>
<text text-anchor="middle" x="119" y="-222.15" font-family="Times,serif" font-size="14.00" fill="#000000">(scheduler.py:85)</text>
</g>
<!-- scheduler&#45;&gt;scheduler__get_keep_running_func -->
<g id="edge8" class="edge"><title>scheduler&#45;&gt;scheduler__get_keep_running_func</title>
<path fill="none" stroke="#838b8b" stroke-dasharray="5,2" d="M928.407,-485.754C919.154,-482.04 909.648,-477.114 902,-470.701 831.94,-411.947 871.51,-343.088 793,-296.22 685.546,-232.074 354.823,-278.363 231,-260.22 220.974,-258.751 210.52,-256.848 200.201,-254.739"/>
<polygon fill="#838b8b" stroke="#838b8b" points="200.876,-251.304 190.368,-252.662 199.429,-258.153 200.876,-251.304"/>
</g>
<!-- scheduler__step_required -->
<g id="node5" class="node"><title>scheduler__step_required</title>
<ellipse fill="#ccfecc" fill-opacity="0.698039" stroke="black" cx="324" cy="-233.35" rx="84.2917" ry="26.7407"/>
<text text-anchor="middle" x="324" y="-237.15" font-family="Times,serif" font-size="14.00" fill="#000000">step_required</text>
<text text-anchor="middle" x="324" y="-222.15" font-family="Times,serif" font-size="14.00" fill="#000000">(scheduler.py:113)</text>
</g>
<!-- scheduler&#45;&gt;scheduler__step_required -->
<g id="edge9" class="edge"><title>scheduler&#45;&gt;scheduler__step_required</title>
<path fill="none" stroke="#838b8b" stroke-dasharray="5,2" d="M945.171,-480.262C942.201,-477.29 939.342,-474.052 937,-470.701 912.921,-436.252 898.025,-320.896 864,-296.22 783.327,-237.714 515.118,-277.653 417,-260.22 409.14,-258.824 400.986,-257.051 392.918,-255.091"/>
<polygon fill="#838b8b" stroke="#838b8b" points="393.699,-251.679 383.146,-252.62 391.983,-258.465 393.699,-251.679"/>
</g>
<!-- scheduler__get_input_data -->
<g id="node6" class="node"><title>scheduler__get_input_data</title>
<ellipse fill="#ccfecc" fill-opacity="0.698039" stroke="black" cx="510" cy="-233.35" rx="84.2917" ry="26.7407"/>
<text text-anchor="middle" x="510" y="-237.15" font-family="Times,serif" font-size="14.00" fill="#000000">get_input_data</text>
<text text-anchor="middle" x="510" y="-222.15" font-family="Times,serif" font-size="14.00" fill="#000000">(scheduler.py:187)</text>
</g>
<!-- scheduler&#45;&gt;scheduler__get_input_data -->
<g id="edge6" class="edge"><title>scheduler&#45;&gt;scheduler__get_input_data</title>
<path fill="none" stroke="#838b8b" stroke-dasharray="5,2" d="M961.113,-478.581C953.357,-434.728 930.699,-320.131 902,-296.22 850.583,-253.382 668.649,-273.225 603,-260.22 595.371,-258.709 587.452,-256.896 579.599,-254.939"/>
<polygon fill="#838b8b" stroke="#838b8b" points="580.27,-251.498 569.713,-252.396 578.526,-258.277 580.27,-251.498"/>
</g>
<!-- scheduler__rt_sleep -->
<g id="node7" class="node"><title>scheduler__rt_sleep</title>
<ellipse fill="#ccfecc" fill-opacity="0.698039" stroke="black" cx="696" cy="-233.35" rx="84.2917" ry="26.7407"/>
<text text-anchor="middle" x="696" y="-237.15" font-family="Times,serif" font-size="14.00" fill="#000000">rt_sleep</text>
<text text-anchor="middle" x="696" y="-222.15" font-family="Times,serif" font-size="14.00" fill="#000000">(scheduler.py:305)</text>
</g>
<!-- scheduler&#45;&gt;scheduler__rt_sleep -->
<g id="edge12" class="edge"><title>scheduler&#45;&gt;scheduler__rt_sleep</title>
<path fill="none" stroke="#838b8b" stroke-dasharray="5,2" d="M967.723,-478.715C974.962,-440.753 986.432,-348.288 940,-296.22 894.082,-244.729 855.801,-277.468 789,-260.22 781.972,-258.406 774.66,-256.465 767.361,-254.492"/>
<polygon fill="#838b8b" stroke="#838b8b" points="768.012,-251.042 757.444,-251.791 766.173,-257.796 768.012,-251.042"/>
</g>
<!-- scheduler__step -->
<g id="node8" class="node"><title>scheduler__step</title>
<ellipse fill="#ccfecc" fill-opacity="0.698039" stroke="black" cx="882" cy="-233.35" rx="84.2917" ry="26.7407"/>
<text text-anchor="middle" x="882" y="-237.15" font-family="Times,serif" font-size="14.00" fill="#000000">step</text>
<text text-anchor="middle" x="882" y="-222.15" font-family="Times,serif" font-size="14.00" fill="#000000">(scheduler.py:223)</text>
</g>
<!-- scheduler&#45;&gt;scheduler__step -->
<g id="edge2" class="edge"><title>scheduler&#45;&gt;scheduler__step</title>
<path fill="none" stroke="#838b8b" stroke-dasharray="5,2" d="M974.862,-478.979C976.155,-476.302 977.272,-473.492 978,-470.701 997.579,-395.666 1015.12,-364.305 978,-296.22 969.865,-281.299 956.416,-269.434 942.123,-260.251"/>
<polygon fill="#838b8b" stroke="#838b8b" points="943.532,-257.015 933.155,-254.877 939.933,-263.019 943.532,-257.015"/>
</g>
<!-- scheduler__rt_check -->
<g id="node9" class="node"><title>scheduler__rt_check</title>
<ellipse fill="#ccfecc" fill-opacity="0.698039" stroke="black" cx="1068" cy="-233.35" rx="84.2917" ry="26.7407"/>
<text text-anchor="middle" x="1068" y="-237.15" font-family="Times,serif" font-size="14.00" fill="#000000">rt_check</text>
<text text-anchor="middle" x="1068" y="-222.15" font-family="Times,serif" font-size="14.00" fill="#000000">(scheduler.py:314)</text>
</g>
<!-- scheduler&#45;&gt;scheduler__rt_check -->
<g id="edge3" class="edge"><title>scheduler&#45;&gt;scheduler__rt_check</title>
<path fill="none" stroke="#838b8b" stroke-dasharray="5,2" d="M990.258,-482.072C994.668,-478.835 998.834,-475.038 1002,-470.701 1046.47,-409.792 1060.99,-320.114 1065.73,-270.572"/>
<polygon fill="#838b8b" stroke="#838b8b" points="1069.24,-270.608 1066.62,-260.342 1062.26,-270.001 1069.24,-270.608"/>
</g>
<!-- scheduler__get_outputs -->
<g id="node10" class="node"><title>scheduler__get_outputs</title>
<ellipse fill="#ccfecc" fill-opacity="0.698039" stroke="black" cx="1254" cy="-233.35" rx="84.2917" ry="26.7407"/>
<text text-anchor="middle" x="1254" y="-237.15" font-family="Times,serif" font-size="14.00" fill="#000000">get_outputs</text>
<text text-anchor="middle" x="1254" y="-222.15" font-family="Times,serif" font-size="14.00" fill="#000000">(scheduler.py:244)</text>
</g>
<!-- scheduler&#45;&gt;scheduler__get_outputs -->
<g id="edge4" class="edge"><title>scheduler&#45;&gt;scheduler__get_outputs</title>
<path fill="none" stroke="#838b8b" stroke-dasharray="5,2" d="M1001.14,-486.648C1012.86,-482.808 1025.49,-477.589 1036,-470.701 1120.97,-415.033 1195.29,-319.083 1231.17,-268.246"/>
<polygon fill="#838b8b" stroke="#838b8b" points="1234.15,-270.095 1237.01,-259.892 1228.41,-266.086 1234.15,-270.095"/>
</g>
<!-- scheduler__get_progress -->
<g id="node11" class="node"><title>scheduler__get_progress</title>
<ellipse fill="#ccfecc" fill-opacity="0.698039" stroke="black" cx="1440" cy="-233.35" rx="84.2917" ry="26.7407"/>
<text text-anchor="middle" x="1440" y="-237.15" font-family="Times,serif" font-size="14.00" fill="#000000">get_progress</text>
<text text-anchor="middle" x="1440" y="-222.15" font-family="Times,serif" font-size="14.00" fill="#000000">(scheduler.py:298)</text>
</g>
<!-- scheduler&#45;&gt;scheduler__get_progress -->
<g id="edge11" class="edge"><title>scheduler&#45;&gt;scheduler__get_progress</title>
<path fill="none" stroke="#838b8b" stroke-dasharray="5,2" d="M1006.97,-492.409C1034.17,-489.207 1069.62,-482.934 1099,-470.701 1222.84,-419.128 1346.97,-317.503 1405.42,-265.948"/>
<polygon fill="#838b8b" stroke="#838b8b" points="1408.08,-268.273 1413.23,-259.016 1403.43,-263.039 1408.08,-268.273"/>
</g>
<!-- scheduler__wait_for_dependencies -->
<g id="node12" class="node"><title>scheduler__wait_for_dependencies</title>
<ellipse fill="#ccfecc" fill-opacity="0.698039" stroke="black" cx="507" cy="-412.831" rx="100.318" ry="26.7407"/>
<text text-anchor="middle" x="507" y="-416.631" font-family="Times,serif" font-size="14.00" fill="#000000">wait_for_dependencies</text>
<text text-anchor="middle" x="507" y="-401.631" font-family="Times,serif" font-size="14.00" fill="#000000">(scheduler.py:146)</text>
</g>
<!-- scheduler&#45;&gt;scheduler__wait_for_dependencies -->
<g id="edge7" class="edge"><title>scheduler&#45;&gt;scheduler__wait_for_dependencies</title>
<path fill="none" stroke="#838b8b" stroke-dasharray="5,2" d="M919.932,-494.733C839.658,-492.607 672.739,-486.4 617,-470.701 594.848,-464.462 571.989,-453.496 552.886,-442.849"/>
<polygon fill="#838b8b" stroke="#838b8b" points="554.53,-439.757 544.111,-437.834 551.056,-445.834 554.53,-439.757"/>
</g>
<!-- scheduler__schedule_events -->
<g id="node13" class="node"><title>scheduler__schedule_events</title>
<ellipse fill="#ccfecc" fill-opacity="0.698039" stroke="black" cx="1246" cy="-140.61" rx="84.2917" ry="26.7407"/>
<text text-anchor="middle" x="1246" y="-144.41" font-family="Times,serif" font-size="14.00" fill="#000000">schedule_events</text>
<text text-anchor="middle" x="1246" y="-129.41" font-family="Times,serif" font-size="14.00" fill="#000000">(scheduler.py:341)</text>
</g>
<!-- scheduler&#45;&gt;scheduler__schedule_events -->
<g id="edge10" class="edge"><title>scheduler&#45;&gt;scheduler__schedule_events</title>
<path fill="none" stroke="#838b8b" stroke-dasharray="5,2" d="M1008.39,-496.308C1054.29,-495.662 1127.46,-491.034 1187,-470.701 1357.34,-412.531 1444.79,-417.123 1533,-260.22 1544.7,-239.4 1549.54,-223.714 1533,-206.48 1518.06,-190.914 1359.64,-204.753 1339,-198.48 1320.05,-192.723 1301.06,-182.173 1285.22,-171.709"/>
<polygon fill="#838b8b" stroke="#838b8b" points="1287,-168.685 1276.77,-165.935 1283.05,-174.465 1287,-168.685"/>
</g>
<!-- scheduler__activate_new_event -->
<g id="node14" class="node"><title>scheduler__activate_new_event</title>
<ellipse fill="#ccfecc" fill-opacity="0.698039" stroke="black" cx="1436" cy="-140.61" rx="87.8629" ry="26.7407"/>
<text text-anchor="middle" x="1436" y="-144.41" font-family="Times,serif" font-size="14.00" fill="#000000">activate_new_event</text>
<text text-anchor="middle" x="1436" y="-129.41" font-family="Times,serif" font-size="14.00" fill="#000000">(scheduler.py:329)</text>
</g>
<!-- scheduler&#45;&gt;scheduler__activate_new_event -->
<g id="edge13" class="edge"><title>scheduler&#45;&gt;scheduler__activate_new_event</title>
<path fill="none" stroke="#838b8b" stroke-dasharray="5,2" d="M1008.17,-495.351C1089.96,-494.247 1261.81,-489.67 1318,-470.701 1410.67,-439.412 1435.38,-421.582 1502,-349.96 1547.99,-300.513 1586.16,-264.73 1552,-206.48 1541.32,-188.264 1523.44,-174.782 1504.89,-164.976"/>
<polygon fill="#838b8b" stroke="#838b8b" points="1506.27,-161.754 1495.76,-160.454 1503.16,-168.027 1506.27,-161.754"/>
</g>
<!-- scheduler__run&#45;&gt;scheduler__sim_process -->
<g id="edge16" class="edge"><title>scheduler__run&#45;&gt;scheduler__sim_process</title>
<path fill="none" stroke="black" d="M705,-385.506C705,-377.539 705,-368.648 705,-360.159"/>
<polygon fill="black" stroke="black" points="708.5,-360.094 705,-350.094 701.5,-360.094 708.5,-360.094"/>
</g>
<!-- scheduler__sim_process&#45;&gt;scheduler__get_keep_running_func -->
<g id="edge19" class="edge"><title>scheduler__sim_process&#45;&gt;scheduler__get_keep_running_func</title>
<path fill="none" stroke="black" d="M629.535,-314.53C535.715,-304.605 370.864,-285.44 231,-260.22 221.499,-258.507 211.59,-256.518 201.766,-254.418"/>
<polygon fill="black" stroke="black" points="202.504,-250.996 191.988,-252.287 201.013,-257.836 202.504,-250.996"/>
</g>
<!-- scheduler__sim_process&#45;&gt;scheduler__step_required -->
<g id="edge22" class="edge"><title>scheduler__sim_process&#45;&gt;scheduler__step_required</title>
<path fill="none" stroke="black" d="M637.818,-308.84C579.283,-297.014 492.231,-278.747 417,-260.22 409.815,-258.451 402.342,-256.522 394.895,-254.542"/>
<polygon fill="black" stroke="black" points="395.71,-251.137 385.144,-251.918 393.891,-257.897 395.71,-251.137"/>
</g>
<!-- scheduler__sim_process&#45;&gt;scheduler__get_input_data -->
<g id="edge18" class="edge"><title>scheduler__sim_process&#45;&gt;scheduler__get_input_data</title>
<path fill="none" stroke="black" d="M658.293,-301.074C630.74,-288.677 595.679,-272.902 566.567,-259.803"/>
<polygon fill="black" stroke="black" points="567.897,-256.563 557.341,-255.651 565.024,-262.947 567.897,-256.563"/>
</g>
<!-- scheduler__sim_process&#45;&gt;scheduler__rt_sleep -->
<g id="edge24" class="edge"><title>scheduler__sim_process&#45;&gt;scheduler__rt_sleep</title>
<path fill="none" stroke="black" d="M702.3,-295.765C701.483,-287.799 700.571,-278.908 699.7,-270.419"/>
<polygon fill="black" stroke="black" points="703.17,-269.945 698.667,-260.354 696.206,-270.659 703.17,-269.945"/>
</g>
<!-- scheduler__sim_process&#45;&gt;scheduler__step -->
<g id="edge20" class="edge"><title>scheduler__sim_process&#45;&gt;scheduler__step</title>
<path fill="none" stroke="black" d="M748.753,-300.402C772.914,-288.425 803.114,-273.454 828.652,-260.795"/>
<polygon fill="black" stroke="black" points="830.424,-263.823 837.829,-256.246 827.315,-257.551 830.424,-263.823"/>
</g>
<!-- scheduler__sim_process&#45;&gt;scheduler__rt_check -->
<g id="edge17" class="edge"><title>scheduler__sim_process&#45;&gt;scheduler__rt_check</title>
<path fill="none" stroke="black" d="M770.674,-307.928C825.473,-295.899 905.543,-277.829 975,-260.22 982.036,-258.437 989.353,-256.516 996.656,-254.556"/>
<polygon fill="black" stroke="black" points="997.839,-257.861 1006.58,-251.867 996.008,-251.105 997.839,-257.861"/>
</g>
<!-- scheduler__sim_process&#45;&gt;scheduler__get_outputs -->
<g id="edge21" class="edge"><title>scheduler__sim_process&#45;&gt;scheduler__get_outputs</title>
<path fill="none" stroke="black" d="M780.574,-315.028C871.463,-305.801 1028.37,-287.533 1161,-260.22 1168.56,-258.664 1176.41,-256.83 1184.2,-254.869"/>
<polygon fill="black" stroke="black" points="1185.21,-258.224 1194.01,-252.328 1183.45,-251.447 1185.21,-258.224"/>
</g>
<!-- scheduler__sim_process&#45;&gt;scheduler__get_progress -->
<g id="edge23" class="edge"><title>scheduler__sim_process&#45;&gt;scheduler__get_progress</title>
<path fill="none" stroke="black" d="M783.69,-318.95C905.358,-313.098 1146.08,-297.548 1347,-260.22 1354.85,-258.762 1363,-256.951 1371.06,-254.969"/>
<polygon fill="black" stroke="black" points="1372,-258.34 1380.83,-252.478 1370.27,-251.557 1372,-258.34"/>
</g>
<!-- scheduler__get_keep_running_func__check_time -->
<g id="node15" class="node"><title>scheduler__get_keep_running_func__check_time</title>
<ellipse fill="#99ff99" fill-opacity="0.698039" stroke="black" cx="201" cy="-50.8701" rx="79.3924" ry="26.7407"/>
<text text-anchor="middle" x="201" y="-54.6701" font-family="Times,serif" font-size="14.00" fill="#000000">check_time</text>
<text text-anchor="middle" x="201" y="-39.6701" font-family="Times,serif" font-size="14.00" fill="#000000">(scheduler.py:93)</text>
</g>
<!-- scheduler__get_keep_running_func&#45;&gt;scheduler__get_keep_running_func__check_time -->
<g id="edge14" class="edge"><title>scheduler__get_keep_running_func&#45;&gt;scheduler__get_keep_running_func__check_time</title>
<path fill="none" stroke="#838b8b" stroke-dasharray="5,2" d="M108.857,-206.294C104.813,-181.18 105.14,-142.813 120,-113.74 126.704,-100.624 137.503,-89.1253 149.103,-79.713"/>
<polygon fill="#838b8b" stroke="#838b8b" points="151.383,-82.3765 157.222,-73.5359 147.144,-76.8057 151.383,-82.3765"/>
</g>
<!-- scheduler__get_keep_running_func&#45;&gt;scheduler__get_keep_running_func__check_time -->
<g id="edge25" class="edge"><title>scheduler__get_keep_running_func&#45;&gt;scheduler__get_keep_running_func__check_time</title>
<path fill="none" stroke="black" d="M122.625,-206.294C122.813,-181.18 123.14,-142.813 138,-113.74 144.037,-101.929 153.395,-91.429 163.109,-82.5833"/>
<polygon fill="black" stroke="black" points="165.63,-85.0308 170.919,-75.8505 161.06,-79.7289 165.63,-85.0308"/>
</g>
<!-- scheduler__get_keep_running_func__keep_running -->
<g id="node16" class="node"><title>scheduler__get_keep_running_func__keep_running</title>
<ellipse fill="#99ff99" fill-opacity="0.698039" stroke="black" cx="222" cy="-140.61" rx="84.2917" ry="26.7407"/>
<text text-anchor="middle" x="222" y="-144.41" font-family="Times,serif" font-size="14.00" fill="#000000">keep_running</text>
<text text-anchor="middle" x="222" y="-129.41" font-family="Times,serif" font-size="14.00" fill="#000000">(scheduler.py:107)</text>
</g>
<!-- scheduler__get_keep_running_func&#45;&gt;scheduler__get_keep_running_func__keep_running -->
<g id="edge15" class="edge"><title>scheduler__get_keep_running_func&#45;&gt;scheduler__get_keep_running_func__keep_running</title>
<path fill="none" stroke="#838b8b" stroke-dasharray="5,2" d="M141.568,-207.074C153.184,-196.203 167.617,-183.402 181.072,-172.017"/>
<polygon fill="#838b8b" stroke="#838b8b" points="183.432,-174.606 188.852,-165.503 178.938,-169.239 183.432,-174.606"/>
</g>
<!-- scheduler__get_keep_running_func&#45;&gt;scheduler__get_keep_running_func__keep_running -->
<g id="edge26" class="edge"><title>scheduler__get_keep_running_func&#45;&gt;scheduler__get_keep_running_func__keep_running</title>
<path fill="none" stroke="black" d="M152.948,-207.795C165.621,-197.276 179.86,-184.852 192.142,-173.625"/>
<polygon fill="black" stroke="black" points="194.539,-176.176 199.506,-166.818 189.787,-171.036 194.539,-176.176"/>
</g>
<!-- scheduler__get_outputs&#45;&gt;scheduler__schedule_events -->
<g id="edge29" class="edge"><title>scheduler__get_outputs&#45;&gt;scheduler__schedule_events</title>
<path fill="none" stroke="black" d="M1251.69,-206.104C1250.9,-197.187 1250.01,-187.062 1249.17,-177.522"/>
<polygon fill="black" stroke="black" points="1252.65,-177.138 1248.28,-167.484 1245.67,-177.752 1252.65,-177.138"/>
</g>
<!-- scheduler__get_outputs&#45;&gt;scheduler__activate_new_event -->
<g id="edge28" class="edge"><title>scheduler__get_outputs&#45;&gt;scheduler__activate_new_event</title>
<path fill="none" stroke="black" d="M1307.59,-212.427C1318.13,-208.11 1329.01,-203.364 1339,-198.48 1356.16,-190.088 1374.38,-179.8 1390.34,-170.293"/>
<polygon fill="black" stroke="black" points="1392.19,-173.265 1398.95,-165.108 1388.58,-167.268 1392.19,-173.265"/>
</g>
<!-- scheduler__get_keep_running_func__keep_running&#45;&gt;scheduler__get_keep_running_func__check_time -->
<g id="edge27" class="edge"><title>scheduler__get_keep_running_func__keep_running&#45;&gt;scheduler__get_keep_running_func__check_time</title>
<path fill="none" stroke="black" d="M215.813,-113.76C213.865,-105.621 211.677,-96.4816 209.594,-87.7749"/>
<polygon fill="black" stroke="black" points="212.947,-86.7495 207.215,-77.8389 206.139,-88.3789 212.947,-86.7495"/>
</g>
</g>
</svg>
