<?xml version="1.0" encoding="UTF-8" standalone="no"?>
<!DOCTYPE svg PUBLIC "-//W3C//DTD SVG 1.1//EN"
 "http://www.w3.org/Graphics/SVG/1.1/DTD/svg11.dtd">
<!-- Generated by graphviz version 2.38.0 (20140413.2041)
 -->
<!-- Title: G Pages: 1 -->
<svg width="1648pt" height="487pt"
 viewBox="0.00 0.00 1648.00 486.70" xmlns="http://www.w3.org/2000/svg" xmlns:xlink="http://www.w3.org/1999/xlink">
<g id="graph0" class="graph" transform="scale(1 1) rotate(0) translate(4 482.701)">
<title>G</title>
<polygon fill="white" stroke="none" points="-4,4 -4,-482.701 1644,-482.701 1644,4 -4,4"/>
<g id="clust1" class="cluster"><title>cluster_mosaik__scheduler</title>
<path fill="#808080" fill-opacity="0.094118" stroke="black" d="M20,-8C20,-8 1620,-8 1620,-8 1626,-8 1632,-14 1632,-20 1632,-20 1632,-458.701 1632,-458.701 1632,-464.701 1626,-470.701 1620,-470.701 1620,-470.701 20,-470.701 20,-470.701 14,-470.701 8,-464.701 8,-458.701 8,-458.701 8,-20 8,-20 8,-14 14,-8 20,-8"/>
<text text-anchor="middle" x="820" y="-455.501" font-family="Times,serif" font-size="14.00">mosaik.scheduler</text>
</g>
<g id="clust2" class="cluster"><title>cluster_mosaik__scheduler__get_keep_running_func</title>
<path fill="#808080" fill-opacity="0.094118" stroke="black" d="M51,-16C51,-16 271,-16 271,-16 277,-16 283,-22 283,-28 283,-28 283,-186.48 283,-186.48 283,-192.48 277,-198.48 271,-198.48 271,-198.48 51,-198.48 51,-198.48 45,-198.48 39,-192.48 39,-186.48 39,-186.48 39,-28 39,-28 39,-22 45,-16 51,-16"/>
<text text-anchor="middle" x="161" y="-183.28" font-family="Times,serif" font-size="14.00">mosaik.scheduler.get_keep_running_func</text>
</g>
<!-- mosaik__scheduler__run -->
<g id="node1" class="node"><title>mosaik__scheduler__run</title>
<ellipse fill="#99ff99" fill-opacity="0.698039" stroke="black" cx="872" cy="-412.831" rx="70.922" ry="26.7407"/>
<text text-anchor="middle" x="872" y="-416.631" font-family="Times,serif" font-size="14.00" fill="#000000">run</text>
<text text-anchor="middle" x="872" y="-401.631" font-family="Times,serif" font-size="14.00" fill="#000000">(mosaik.py:11)</text>
</g>
<!-- mosaik__scheduler__sim_process -->
<g id="node2" class="node"><title>mosaik__scheduler__sim_process</title>
<ellipse fill="#99ff99" fill-opacity="0.698039" stroke="black" cx="872" cy="-323.09" rx="70.922" ry="26.7407"/>
<text text-anchor="middle" x="872" y="-326.89" font-family="Times,serif" font-size="14.00" fill="#000000">sim_process</text>
<text text-anchor="middle" x="872" y="-311.89" font-family="Times,serif" font-size="14.00" fill="#000000">(mosaik.py:44)</text>
</g>
<!-- mosaik__scheduler__run&#45;&gt;mosaik__scheduler__sim_process -->
<g id="edge1" class="edge"><title>mosaik__scheduler__run&#45;&gt;mosaik__scheduler__sim_process</title>
<path fill="none" stroke="black" d="M872,-385.506C872,-377.539 872,-368.648 872,-360.159"/>
<polygon fill="black" stroke="black" points="875.5,-360.094 872,-350.094 868.5,-360.094 875.5,-360.094"/>
</g>
<!-- mosaik__scheduler__get_keep_running_func -->
<g id="node3" class="node"><title>mosaik__scheduler__get_keep_running_func</title>
<ellipse fill="#99ff99" fill-opacity="0.698039" stroke="black" cx="119" cy="-233.35" rx="102.561" ry="26.7407"/>
<text text-anchor="middle" x="119" y="-237.15" font-family="Times,serif" font-size="14.00" fill="#000000">get_keep_running_func</text>
<text text-anchor="middle" x="119" y="-222.15" font-family="Times,serif" font-size="14.00" fill="#000000">(mosaik.py:80)</text>
</g>
<!-- mosaik__scheduler__sim_process&#45;&gt;mosaik__scheduler__get_keep_running_func -->
<g id="edge3" class="edge"><title>mosaik__scheduler__sim_process&#45;&gt;mosaik__scheduler__get_keep_running_func</title>
<path fill="none" stroke="black" d="M802.257,-318.414C683.95,-311.498 436.633,-294.102 230,-260.22 220.58,-258.676 210.768,-256.795 201.048,-254.759"/>
<polygon fill="black" stroke="black" points="201.483,-251.272 190.97,-252.588 200.009,-258.115 201.483,-251.272"/>
</g>
<!-- mosaik__scheduler__step_required -->
<g id="node4" class="node"><title>mosaik__scheduler__step_required</title>
<ellipse fill="#99ff99" fill-opacity="0.698039" stroke="black" cx="315" cy="-233.35" rx="75.8212" ry="26.7407"/>
<text text-anchor="middle" x="315" y="-237.15" font-family="Times,serif" font-size="14.00" fill="#000000">step_required</text>
<text text-anchor="middle" x="315" y="-222.15" font-family="Times,serif" font-size="14.00" fill="#000000">(mosaik.py:108)</text>
</g>
<!-- mosaik__scheduler__sim_process&#45;&gt;mosaik__scheduler__step_required -->
<g id="edge8" class="edge"><title>mosaik__scheduler__sim_process&#45;&gt;mosaik__scheduler__step_required</title>
<path fill="none" stroke="black" d="M802.996,-316.641C710.505,-308.52 541.566,-290.822 400,-260.22 393.055,-258.719 385.858,-256.921 378.723,-254.98"/>
<polygon fill="black" stroke="black" points="379.637,-251.602 369.063,-252.261 377.741,-258.34 379.637,-251.602"/>
</g>
<!-- mosaik__scheduler__wait_for_dependencies -->
<g id="node5" class="node"><title>mosaik__scheduler__wait_for_dependencies</title>
<ellipse fill="#99ff99" fill-opacity="0.698039" stroke="black" cx="509" cy="-233.35" rx="100.318" ry="26.7407"/>
<text text-anchor="middle" x="509" y="-237.15" font-family="Times,serif" font-size="14.00" fill="#000000">wait_for_dependencies</text>
<text text-anchor="middle" x="509" y="-222.15" font-family="Times,serif" font-size="14.00" fill="#000000">(mosaik.py:134)</text>
</g>
<!-- mosaik__scheduler__sim_process&#45;&gt;mosaik__scheduler__wait_for_dependencies -->
<g id="edge9" class="edge"><title>mosaik__scheduler__sim_process&#45;&gt;mosaik__scheduler__wait_for_dependencies</title>
<path fill="none" stroke="black" d="M813.274,-307.896C753.126,-293.357 659.111,-270.633 591.502,-254.292"/>
<polygon fill="black" stroke="black" points="592.268,-250.876 581.726,-251.929 590.624,-257.68 592.268,-250.876"/>
</g>
<!-- mosaik__scheduler__get_input_data -->
<g id="node6" class="node"><title>mosaik__scheduler__get_input_data</title>
<ellipse fill="#99ff99" fill-opacity="0.698039" stroke="black" cx="703" cy="-233.35" rx="75.8212" ry="26.7407"/>
<text text-anchor="middle" x="703" y="-237.15" font-family="Times,serif" font-size="14.00" fill="#000000">get_input_data</text>
<text text-anchor="middle" x="703" y="-222.15" font-family="Times,serif" font-size="14.00" fill="#000000">(mosaik.py:185)</text>
</g>
<!-- mosaik__scheduler__sim_process&#45;&gt;mosaik__scheduler__get_input_data -->
<g id="edge4" class="edge"><title>mosaik__scheduler__sim_process&#45;&gt;mosaik__scheduler__get_input_data</title>
<path fill="none" stroke="black" d="M831.09,-300.851C807.686,-288.7 778.139,-273.36 753.322,-260.476"/>
<polygon fill="black" stroke="black" points="754.901,-257.352 744.413,-255.851 751.675,-263.565 754.901,-257.352"/>
</g>
<!-- mosaik__scheduler__rt_sleep -->
<g id="node7" class="node"><title>mosaik__scheduler__rt_sleep</title>
<ellipse fill="#99ff99" fill-opacity="0.698039" stroke="black" cx="872" cy="-233.35" rx="75.8212" ry="26.7407"/>
<text text-anchor="middle" x="872" y="-237.15" font-family="Times,serif" font-size="14.00" fill="#000000">rt_sleep</text>
<text text-anchor="middle" x="872" y="-222.15" font-family="Times,serif" font-size="14.00" fill="#000000">(mosaik.py:307)</text>
</g>
<!-- mosaik__scheduler__sim_process&#45;&gt;mosaik__scheduler__rt_sleep -->
<g id="edge2" class="edge"><title>mosaik__scheduler__sim_process&#45;&gt;mosaik__scheduler__rt_sleep</title>
<path fill="none" stroke="black" d="M872,-295.765C872,-287.799 872,-278.908 872,-270.419"/>
<polygon fill="black" stroke="black" points="875.5,-270.354 872,-260.354 868.5,-270.354 875.5,-270.354"/>
</g>
<!-- mosaik__scheduler__step -->
<g id="node8" class="node"><title>mosaik__scheduler__step</title>
<ellipse fill="#99ff99" fill-opacity="0.698039" stroke="black" cx="1041" cy="-233.35" rx="75.8212" ry="26.7407"/>
<text text-anchor="middle" x="1041" y="-237.15" font-family="Times,serif" font-size="14.00" fill="#000000">step</text>
<text text-anchor="middle" x="1041" y="-222.15" font-family="Times,serif" font-size="14.00" fill="#000000">(mosaik.py:224)</text>
</g>
<!-- mosaik__scheduler__sim_process&#45;&gt;mosaik__scheduler__step -->
<g id="edge6" class="edge"><title>mosaik__scheduler__sim_process&#45;&gt;mosaik__scheduler__step</title>
<path fill="none" stroke="black" d="M912.91,-300.851C936.314,-288.7 965.861,-273.36 990.678,-260.476"/>
<polygon fill="black" stroke="black" points="992.325,-263.565 999.587,-255.851 989.099,-257.352 992.325,-263.565"/>
</g>
<!-- mosaik__scheduler__rt_check -->
<g id="node9" class="node"><title>mosaik__scheduler__rt_check</title>
<ellipse fill="#99ff99" fill-opacity="0.698039" stroke="black" cx="1210" cy="-233.35" rx="75.8212" ry="26.7407"/>
<text text-anchor="middle" x="1210" y="-237.15" font-family="Times,serif" font-size="14.00" fill="#000000">rt_check</text>
<text text-anchor="middle" x="1210" y="-222.15" font-family="Times,serif" font-size="14.00" fill="#000000">(mosaik.py:316)</text>
</g>
<!-- mosaik__scheduler__sim_process&#45;&gt;mosaik__scheduler__rt_check -->
<g id="edge5" class="edge"><title>mosaik__scheduler__sim_process&#45;&gt;mosaik__scheduler__rt_check</title>
<path fill="none" stroke="black" d="M931.792,-308.591C983.43,-296.679 1059.93,-278.424 1126,-260.22 1132.08,-258.545 1138.39,-256.735 1144.69,-254.88"/>
<polygon fill="black" stroke="black" points="1145.98,-258.149 1154.56,-251.937 1143.98,-251.441 1145.98,-258.149"/>
</g>
<!-- mosaik__scheduler__get_outputs -->
<g id="node10" class="node"><title>mosaik__scheduler__get_outputs</title>
<ellipse fill="#99ff99" fill-opacity="0.698039" stroke="black" cx="1379" cy="-233.35" rx="75.8212" ry="26.7407"/>
<text text-anchor="middle" x="1379" y="-237.15" font-family="Times,serif" font-size="14.00" fill="#000000">get_outputs</text>
<text text-anchor="middle" x="1379" y="-222.15" font-family="Times,serif" font-size="14.00" fill="#000000">(mosaik.py:244)</text>
</g>
<!-- mosaik__scheduler__sim_process&#45;&gt;mosaik__scheduler__get_outputs -->
<g id="edge7" class="edge"><title>mosaik__scheduler__sim_process&#45;&gt;mosaik__scheduler__get_outputs</title>
<path fill="none" stroke="black" d="M939.988,-315.399C1024.05,-306.382 1171.2,-288.164 1295,-260.22 1301.6,-258.731 1308.43,-256.981 1315.22,-255.105"/>
<polygon fill="black" stroke="black" points="1316.45,-258.395 1325.11,-252.284 1314.53,-251.664 1316.45,-258.395"/>
</g>
<!-- mosaik__scheduler__get_progress -->
<g id="node11" class="node"><title>mosaik__scheduler__get_progress</title>
<ellipse fill="#99ff99" fill-opacity="0.698039" stroke="black" cx="1548" cy="-233.35" rx="75.8212" ry="26.7407"/>
<text text-anchor="middle" x="1548" y="-237.15" font-family="Times,serif" font-size="14.00" fill="#000000">get_progress</text>
<text text-anchor="middle" x="1548" y="-222.15" font-family="Times,serif" font-size="14.00" fill="#000000">(mosaik.py:300)</text>
</g>
<!-- mosaik__scheduler__sim_process&#45;&gt;mosaik__scheduler__get_progress -->
<g id="edge10" class="edge"><title>mosaik__scheduler__sim_process&#45;&gt;mosaik__scheduler__get_progress</title>
<path fill="none" stroke="black" d="M942.39,-319.166C1053.99,-313.541 1277.96,-298.213 1464,-260.22 1470.73,-258.846 1477.69,-257.155 1484.59,-255.301"/>
<polygon fill="black" stroke="black" points="1485.95,-258.557 1494.63,-252.487 1484.06,-251.817 1485.95,-258.557"/>
</g>
<!-- mosaik__scheduler__get_keep_running_func__check_time -->
<g id="node12" class="node"><title>mosaik__scheduler__get_keep_running_func__check_time</title>
<ellipse fill="#65ff65" fill-opacity="0.698039" stroke="black" cx="132" cy="-50.8701" rx="70.922" ry="26.7407"/>
<text text-anchor="middle" x="132" y="-54.6701" font-family="Times,serif" font-size="14.00" fill="#000000">check_time</text>
<text text-anchor="middle" x="132" y="-39.6701" font-family="Times,serif" font-size="14.00" fill="#000000">(mosaik.py:88)</text>
</g>
<!-- mosaik__scheduler__get_keep_running_func&#45;&gt;mosaik__scheduler__get_keep_running_func__check_time -->
<g id="edge11" class="edge"><title>mosaik__scheduler__get_keep_running_func&#45;&gt;mosaik__scheduler__get_keep_running_func__check_time</title>
<path fill="none" stroke="black" d="M70.8568,-209.488C67.3826,-206.239 64.3341,-202.582 62,-198.48 43.374,-165.746 46.523,-148.075 62,-113.74 67.6831,-101.132 77.3459,-90.0595 87.707,-80.8978"/>
<polygon fill="black" stroke="black" points="90.2411,-83.3436 95.7119,-74.2705 85.7771,-77.9517 90.2411,-83.3436"/>
</g>
<!-- mosaik__scheduler__get_keep_running_func__keep_running -->
<g id="node13" class="node"><title>mosaik__scheduler__get_keep_running_func__keep_running</title>
<ellipse fill="#65ff65" fill-opacity="0.698039" stroke="black" cx="147" cy="-140.61" rx="75.8212" ry="26.7407"/>
<text text-anchor="middle" x="147" y="-144.41" font-family="Times,serif" font-size="14.00" fill="#000000">keep_running</text>
<text text-anchor="middle" x="147" y="-129.41" font-family="Times,serif" font-size="14.00" fill="#000000">(mosaik.py:102)</text>
</g>
<!-- mosaik__scheduler__get_keep_running_func&#45;&gt;mosaik__scheduler__get_keep_running_func__keep_running -->
<g id="edge12" class="edge"><title>mosaik__scheduler__get_keep_running_func&#45;&gt;mosaik__scheduler__get_keep_running_func__keep_running</title>
<path fill="none" stroke="black" d="M127.099,-206.104C129.88,-197.092 133.041,-186.847 136.012,-177.218"/>
<polygon fill="black" stroke="black" points="139.412,-178.071 139.016,-167.484 132.723,-176.007 139.412,-178.071"/>
</g>
<!-- mosaik__scheduler__get_keep_running_func__keep_running&#45;&gt;mosaik__scheduler__get_keep_running_func__check_time -->
<g id="edge13" class="edge"><title>mosaik__scheduler__get_keep_running_func__keep_running&#45;&gt;mosaik__scheduler__get_keep_running_func__check_time</title>
<path fill="none" stroke="black" d="M142.581,-113.76C141.189,-105.621 139.627,-96.4816 138.138,-87.7749"/>
<polygon fill="black" stroke="black" points="141.575,-87.106 136.44,-77.8389 134.675,-88.2857 141.575,-87.106"/>
</g>
</g>
</svg>
