<?xml version="1.0" encoding="UTF-8" standalone="no"?>
<!DOCTYPE svg PUBLIC "-//W3C//DTD SVG 1.1//EN"
 "http://www.w3.org/Graphics/SVG/1.1/DTD/svg11.dtd">
<!-- Generated by graphviz version 2.38.0 (20140413.2041)
 -->
<!-- Title: G Pages: 1 -->
<svg width="1768pt" height="487pt"
 viewBox="0.00 0.00 1768.00 486.70" xmlns="http://www.w3.org/2000/svg" xmlns:xlink="http://www.w3.org/1999/xlink">
<g id="graph0" class="graph" transform="scale(1 1) rotate(0) translate(4 482.701)">
<title>G</title>
<polygon fill="white" stroke="none" points="-4,4 -4,-482.701 1764,-482.701 1764,4 -4,4"/>
<g id="clust1" class="cluster"><title>cluster_scheduler</title>
<path fill="#808080" fill-opacity="0.094118" stroke="black" d="M20,-8C20,-8 1740,-8 1740,-8 1746,-8 1752,-14 1752,-20 1752,-20 1752,-458.701 1752,-458.701 1752,-464.701 1746,-470.701 1740,-470.701 1740,-470.701 20,-470.701 20,-470.701 14,-470.701 8,-464.701 8,-458.701 8,-458.701 8,-20 8,-20 8,-14 14,-8 20,-8"/>
<text text-anchor="middle" x="880" y="-455.501" font-family="Times,serif" font-size="14.00">scheduler</text>
</g>
<g id="clust2" class="cluster"><title>cluster_scheduler__get_keep_running_func</title>
<path fill="#808080" fill-opacity="0.094118" stroke="black" d="M35,-16C35,-16 211,-16 211,-16 217,-16 223,-22 223,-28 223,-28 223,-186.48 223,-186.48 223,-192.48 217,-198.48 211,-198.48 211,-198.48 35,-198.48 35,-198.48 29,-198.48 23,-192.48 23,-186.48 23,-186.48 23,-28 23,-28 23,-22 29,-16 35,-16"/>
<text text-anchor="middle" x="123" y="-183.28" font-family="Times,serif" font-size="14.00">scheduler.get_keep_running_func</text>
</g>
<!-- scheduler__run -->
<g id="node1" class="node"><title>scheduler__run</title>
<ellipse fill="#ccfecc" fill-opacity="0.698039" stroke="black" cx="916" cy="-412.831" rx="79.3924" ry="26.7407"/>
<text text-anchor="middle" x="916" y="-416.631" font-family="Times,serif" font-size="14.00" fill="#000000">run</text>
<text text-anchor="middle" x="916" y="-401.631" font-family="Times,serif" font-size="14.00" fill="#000000">(scheduler.py:11)</text>
</g>
<!-- scheduler__sim_process -->
<g id="node2" class="node"><title>scheduler__sim_process</title>
<ellipse fill="#ccfecc" fill-opacity="0.698039" stroke="black" cx="916" cy="-323.09" rx="79.3924" ry="26.7407"/>
<text text-anchor="middle" x="916" y="-326.89" font-family="Times,serif" font-size="14.00" fill="#000000">sim_process</text>
<text text-anchor="middle" x="916" y="-311.89" font-family="Times,serif" font-size="14.00" fill="#000000">(scheduler.py:44)</text>
</g>
<!-- scheduler__run&#45;&gt;scheduler__sim_process -->
<g id="edge1" class="edge"><title>scheduler__run&#45;&gt;scheduler__sim_process</title>
<path fill="none" stroke="black" d="M916,-385.506C916,-377.539 916,-368.648 916,-360.159"/>
<polygon fill="black" stroke="black" points="919.5,-360.094 916,-350.094 912.5,-360.094 919.5,-360.094"/>
</g>
<!-- scheduler__get_keep_running_func -->
<g id="node3" class="node"><title>scheduler__get_keep_running_func</title>
<ellipse fill="#ccfecc" fill-opacity="0.698039" stroke="black" cx="119" cy="-233.35" rx="102.561" ry="26.7407"/>
<text text-anchor="middle" x="119" y="-237.15" font-family="Times,serif" font-size="14.00" fill="#000000">get_keep_running_func</text>
<text text-anchor="middle" x="119" y="-222.15" font-family="Times,serif" font-size="14.00" fill="#000000">(scheduler.py:80)</text>
</g>
<!-- scheduler__sim_process&#45;&gt;scheduler__get_keep_running_func -->
<g id="edge6" class="edge"><title>scheduler__sim_process&#45;&gt;scheduler__get_keep_running_func</title>
<path fill="none" stroke="black" d="M837.752,-318.514C710.077,-311.899 449.281,-295.119 231,-260.22 221.245,-258.661 211.076,-256.737 201.016,-254.648"/>
<polygon fill="black" stroke="black" points="201.523,-251.178 191.013,-252.512 200.061,-258.023 201.523,-251.178"/>
</g>
<!-- scheduler__step_required -->
<g id="node4" class="node"><title>scheduler__step_required</title>
<ellipse fill="#ccfecc" fill-opacity="0.698039" stroke="black" cx="324" cy="-233.35" rx="84.2917" ry="26.7407"/>
<text text-anchor="middle" x="324" y="-237.15" font-family="Times,serif" font-size="14.00" fill="#000000">step_required</text>
<text text-anchor="middle" x="324" y="-222.15" font-family="Times,serif" font-size="14.00" fill="#000000">(scheduler.py:108)</text>
</g>
<!-- scheduler__sim_process&#45;&gt;scheduler__step_required -->
<g id="edge10" class="edge"><title>scheduler__sim_process&#45;&gt;scheduler__step_required</title>
<path fill="none" stroke="black" d="M839.519,-316.057C741.288,-307.517 565.835,-289.586 418,-260.22 410.151,-258.661 401.995,-256.796 393.914,-254.79"/>
<polygon fill="black" stroke="black" points="394.674,-251.372 384.118,-252.285 392.939,-258.154 394.674,-251.372"/>
</g>
<!-- scheduler__wait_for_dependencies -->
<g id="node5" class="node"><title>scheduler__wait_for_dependencies</title>
<ellipse fill="#ccfecc" fill-opacity="0.698039" stroke="black" cx="527" cy="-233.35" rx="100.318" ry="26.7407"/>
<text text-anchor="middle" x="527" y="-237.15" font-family="Times,serif" font-size="14.00" fill="#000000">wait_for_dependencies</text>
<text text-anchor="middle" x="527" y="-222.15" font-family="Times,serif" font-size="14.00" fill="#000000">(scheduler.py:134)</text>
</g>
<!-- scheduler__sim_process&#45;&gt;scheduler__wait_for_dependencies -->
<g id="edge2" class="edge"><title>scheduler__sim_process&#45;&gt;scheduler__wait_for_dependencies</title>
<path fill="none" stroke="black" d="M850.555,-307.825C793.981,-295.433 710.036,-276.906 637,-260.22 628.292,-258.231 619.202,-256.131 610.141,-254.022"/>
<polygon fill="black" stroke="black" points="610.874,-250.599 600.34,-251.736 609.283,-257.416 610.874,-250.599"/>
</g>
<!-- scheduler__get_input_data -->
<g id="node6" class="node"><title>scheduler__get_input_data</title>
<ellipse fill="#ccfecc" fill-opacity="0.698039" stroke="black" cx="730" cy="-233.35" rx="84.2917" ry="26.7407"/>
<text text-anchor="middle" x="730" y="-237.15" font-family="Times,serif" font-size="14.00" fill="#000000">get_input_data</text>
<text text-anchor="middle" x="730" y="-222.15" font-family="Times,serif" font-size="14.00" fill="#000000">(scheduler.py:175)</text>
</g>
<!-- scheduler__sim_process&#45;&gt;scheduler__get_input_data -->
<g id="edge7" class="edge"><title>scheduler__sim_process&#45;&gt;scheduler__get_input_data</title>
<path fill="none" stroke="black" d="M870.975,-300.851C845.087,-288.639 812.37,-273.206 784.973,-260.282"/>
<polygon fill="black" stroke="black" points="786.44,-257.105 775.903,-256.004 783.454,-263.436 786.44,-257.105"/>
</g>
<!-- scheduler__rt_sleep -->
<g id="node7" class="node"><title>scheduler__rt_sleep</title>
<ellipse fill="#ccfecc" fill-opacity="0.698039" stroke="black" cx="916" cy="-233.35" rx="84.2917" ry="26.7407"/>
<text text-anchor="middle" x="916" y="-237.15" font-family="Times,serif" font-size="14.00" fill="#000000">rt_sleep</text>
<text text-anchor="middle" x="916" y="-222.15" font-family="Times,serif" font-size="14.00" fill="#000000">(scheduler.py:282)</text>
</g>
<!-- scheduler__sim_process&#45;&gt;scheduler__rt_sleep -->
<g id="edge4" class="edge"><title>scheduler__sim_process&#45;&gt;scheduler__rt_sleep</title>
<path fill="none" stroke="black" d="M916,-295.765C916,-287.799 916,-278.908 916,-270.419"/>
<polygon fill="black" stroke="black" points="919.5,-270.354 916,-260.354 912.5,-270.354 919.5,-270.354"/>
</g>
<!-- scheduler__step -->
<g id="node8" class="node"><title>scheduler__step</title>
<ellipse fill="#ccfecc" fill-opacity="0.698039" stroke="black" cx="1102" cy="-233.35" rx="84.2917" ry="26.7407"/>
<text text-anchor="middle" x="1102" y="-237.15" font-family="Times,serif" font-size="14.00" fill="#000000">step</text>
<text text-anchor="middle" x="1102" y="-222.15" font-family="Times,serif" font-size="14.00" fill="#000000">(scheduler.py:211)</text>
</g>
<!-- scheduler__sim_process&#45;&gt;scheduler__step -->
<g id="edge8" class="edge"><title>scheduler__sim_process&#45;&gt;scheduler__step</title>
<path fill="none" stroke="black" d="M961.025,-300.851C986.913,-288.639 1019.63,-273.206 1047.03,-260.282"/>
<polygon fill="black" stroke="black" points="1048.55,-263.436 1056.1,-256.004 1045.56,-257.105 1048.55,-263.436"/>
</g>
<!-- scheduler__rt_check -->
<g id="node9" class="node"><title>scheduler__rt_check</title>
<ellipse fill="#ccfecc" fill-opacity="0.698039" stroke="black" cx="1288" cy="-233.35" rx="84.2917" ry="26.7407"/>
<text text-anchor="middle" x="1288" y="-237.15" font-family="Times,serif" font-size="14.00" fill="#000000">rt_check</text>
<text text-anchor="middle" x="1288" y="-222.15" font-family="Times,serif" font-size="14.00" fill="#000000">(scheduler.py:291)</text>
</g>
<!-- scheduler__sim_process&#45;&gt;scheduler__rt_check -->
<g id="edge5" class="edge"><title>scheduler__sim_process&#45;&gt;scheduler__rt_check</title>
<path fill="none" stroke="black" d="M982.469,-308.388C1039.14,-296.457 1122.68,-278.285 1195,-260.22 1202.18,-258.427 1209.65,-256.483 1217.09,-254.493"/>
<polygon fill="black" stroke="black" points="1218.1,-257.847 1226.84,-251.86 1216.27,-251.089 1218.1,-257.847"/>
</g>
<!-- scheduler__get_outputs -->
<g id="node10" class="node"><title>scheduler__get_outputs</title>
<ellipse fill="#ccfecc" fill-opacity="0.698039" stroke="black" cx="1474" cy="-233.35" rx="84.2917" ry="26.7407"/>
<text text-anchor="middle" x="1474" y="-237.15" font-family="Times,serif" font-size="14.00" fill="#000000">get_outputs</text>
<text text-anchor="middle" x="1474" y="-222.15" font-family="Times,serif" font-size="14.00" fill="#000000">(scheduler.py:231)</text>
</g>
<!-- scheduler__sim_process&#45;&gt;scheduler__get_outputs -->
<g id="edge9" class="edge"><title>scheduler__sim_process&#45;&gt;scheduler__get_outputs</title>
<path fill="none" stroke="black" d="M991.843,-315.27C1084.34,-306.201 1245.16,-288.01 1381,-260.22 1388.62,-258.662 1396.53,-256.818 1404.38,-254.844"/>
<polygon fill="black" stroke="black" points="1405.46,-258.18 1414.26,-252.285 1403.71,-251.403 1405.46,-258.18"/>
</g>
<!-- scheduler__get_progress -->
<g id="node11" class="node"><title>scheduler__get_progress</title>
<ellipse fill="#ccfecc" fill-opacity="0.698039" stroke="black" cx="1660" cy="-233.35" rx="84.2917" ry="26.7407"/>
<text text-anchor="middle" x="1660" y="-237.15" font-family="Times,serif" font-size="14.00" fill="#000000">get_progress</text>
<text text-anchor="middle" x="1660" y="-222.15" font-family="Times,serif" font-size="14.00" fill="#000000">(scheduler.py:275)</text>
</g>
<!-- scheduler__sim_process&#45;&gt;scheduler__get_progress -->
<g id="edge3" class="edge"><title>scheduler__sim_process&#45;&gt;scheduler__get_progress</title>
<path fill="none" stroke="black" d="M994.53,-319.103C1117.49,-313.423 1362.57,-298.061 1567,-260.22 1574.85,-258.767 1583,-256.959 1591.06,-254.979"/>
<polygon fill="black" stroke="black" points="1592,-258.351 1600.83,-252.49 1590.28,-251.568 1592,-258.351"/>
</g>
<!-- scheduler__get_keep_running_func__check_time -->
<g id="node12" class="node"><title>scheduler__get_keep_running_func__check_time</title>
<ellipse fill="#99ff99" fill-opacity="0.698039" stroke="black" cx="116" cy="-50.8701" rx="79.3924" ry="26.7407"/>
<text text-anchor="middle" x="116" y="-54.6701" font-family="Times,serif" font-size="14.00" fill="#000000">check_time</text>
<text text-anchor="middle" x="116" y="-39.6701" font-family="Times,serif" font-size="14.00" fill="#000000">(scheduler.py:88)</text>
</g>
<!-- scheduler__get_keep_running_func&#45;&gt;scheduler__get_keep_running_func__check_time -->
<g id="edge12" class="edge"><title>scheduler__get_keep_running_func&#45;&gt;scheduler__get_keep_running_func__check_time</title>
<path fill="none" stroke="black" d="M45.9161,-214.387C39.3251,-210.157 33.4656,-204.932 29,-198.48 7.56586,-167.512 11.7316,-147.21 29,-113.74 36.3196,-99.5531 48.5623,-87.9089 61.5868,-78.7023"/>
<polygon fill="black" stroke="black" points="63.8006,-81.4347 70.2148,-73.0021 59.9419,-75.5942 63.8006,-81.4347"/>
</g>
<!-- scheduler__get_keep_running_func__keep_running -->
<g id="node13" class="node"><title>scheduler__get_keep_running_func__keep_running</title>
<ellipse fill="#99ff99" fill-opacity="0.698039" stroke="black" cx="122" cy="-140.61" rx="84.2917" ry="26.7407"/>
<text text-anchor="middle" x="122" y="-144.41" font-family="Times,serif" font-size="14.00" fill="#000000">keep_running</text>
<text text-anchor="middle" x="122" y="-129.41" font-family="Times,serif" font-size="14.00" fill="#000000">(scheduler.py:102)</text>
</g>
<!-- scheduler__get_keep_running_func&#45;&gt;scheduler__get_keep_running_func__keep_running -->
<g id="edge11" class="edge"><title>scheduler__get_keep_running_func&#45;&gt;scheduler__get_keep_running_func__keep_running</title>
<path fill="none" stroke="black" d="M119.868,-206.104C120.163,-197.187 120.497,-187.062 120.813,-177.522"/>
<polygon fill="black" stroke="black" points="124.312,-177.594 121.145,-167.484 117.316,-177.362 124.312,-177.594"/>
</g>
<!-- scheduler__get_keep_running_func__keep_running&#45;&gt;scheduler__get_keep_running_func__check_time -->
<g id="edge13" class="edge"><title>scheduler__get_keep_running_func__keep_running&#45;&gt;scheduler__get_keep_running_func__check_time</title>
<path fill="none" stroke="black" d="M120.2,-113.285C119.655,-105.319 119.047,-96.4275 118.467,-87.9391"/>
<polygon fill="black" stroke="black" points="121.952,-87.6119 117.778,-77.874 114.969,-88.0896 121.952,-87.6119"/>
</g>
</g>
</svg>
