<?xml version="1.0" encoding="UTF-8" standalone="no"?>
<!DOCTYPE svg PUBLIC "-//W3C//DTD SVG 1.1//EN"
 "http://www.w3.org/Graphics/SVG/1.1/DTD/svg11.dtd">
<!-- Generated by graphviz version 2.38.0 (20140413.2041)
 -->
<!-- Title: G Pages: 1 -->
<svg width="2760pt" height="618pt"
 viewBox="0.00 0.00 2760.00 618.44" xmlns="http://www.w3.org/2000/svg" xmlns:xlink="http://www.w3.org/1999/xlink">
<g id="graph0" class="graph" transform="scale(1 1) rotate(0) translate(4 614.441)">
<title>G</title>
<polygon fill="white" stroke="none" points="-4,4 -4,-614.441 2756,-614.441 2756,4 -4,4"/>
<g id="clust1" class="cluster"><title>cluster_simmanager</title>
<path fill="#808080" fill-opacity="0.094118" stroke="black" d="M20,-8C20,-8 2732,-8 2732,-8 2738,-8 2744,-14 2744,-20 2744,-20 2744,-590.441 2744,-590.441 2744,-596.441 2738,-602.441 2732,-602.441 2732,-602.441 20,-602.441 20,-602.441 14,-602.441 8,-596.441 8,-590.441 8,-590.441 8,-20 8,-20 8,-14 14,-8 20,-8"/>
<text text-anchor="middle" x="1376" y="-587.241" font-family="Times,serif" font-size="14.00">simmanager</text>
</g>
<g id="clust3" class="cluster"><title>cluster_simmanager__MosaikRemote</title>
<path fill="#808080" fill-opacity="0.094118" stroke="black" d="M664,-288.22C664,-288.22 1886,-288.22 1886,-288.22 1892,-288.22 1898,-294.22 1898,-300.22 1898,-300.22 1898,-458.701 1898,-458.701 1898,-464.701 1892,-470.701 1886,-470.701 1886,-470.701 664,-470.701 664,-470.701 658,-470.701 652,-464.701 652,-458.701 652,-458.701 652,-300.22 652,-300.22 652,-294.22 658,-288.22 664,-288.22"/>
<text text-anchor="middle" x="1275" y="-455.501" font-family="Times,serif" font-size="14.00">simmanager.MosaikRemote</text>
</g>
<g id="clust2" class="cluster"><title>cluster_simmanager__LocalProcess</title>
<path fill="#808080" fill-opacity="0.094118" stroke="black" d="M2126,-478.701C2126,-478.701 2724,-478.701 2724,-478.701 2730,-478.701 2736,-484.701 2736,-490.701 2736,-490.701 2736,-559.441 2736,-559.441 2736,-565.441 2730,-571.441 2724,-571.441 2724,-571.441 2126,-571.441 2126,-571.441 2120,-571.441 2114,-565.441 2114,-559.441 2114,-559.441 2114,-490.701 2114,-490.701 2114,-484.701 2120,-478.701 2126,-478.701"/>
<text text-anchor="middle" x="2425" y="-556.241" font-family="Times,serif" font-size="14.00">simmanager.LocalProcess</text>
</g>
<g id="clust4" class="cluster"><title>cluster_simmanager__RemoteProcess</title>
<path fill="#808080" fill-opacity="0.094118" stroke="black" d="M1496,-478.701C1496,-478.701 2094,-478.701 2094,-478.701 2100,-478.701 2106,-484.701 2106,-490.701 2106,-490.701 2106,-559.441 2106,-559.441 2106,-565.441 2100,-571.441 2094,-571.441 2094,-571.441 1496,-571.441 1496,-571.441 1490,-571.441 1484,-565.441 1484,-559.441 1484,-559.441 1484,-490.701 1484,-490.701 1484,-484.701 1490,-478.701 1496,-478.701"/>
<text text-anchor="middle" x="1795" y="-556.241" font-family="Times,serif" font-size="14.00">simmanager.RemoteProcess</text>
</g>
<g id="clust5" class="cluster"><title>cluster_simmanager__SimProxy</title>
<path fill="#808080" fill-opacity="0.094118" stroke="black" d="M1918,-288.22C1918,-288.22 2399,-288.22 2399,-288.22 2405,-288.22 2411,-294.22 2411,-300.22 2411,-300.22 2411,-458.701 2411,-458.701 2411,-464.701 2405,-470.701 2399,-470.701 2399,-470.701 1918,-470.701 1918,-470.701 1912,-470.701 1906,-464.701 1906,-458.701 1906,-458.701 1906,-300.22 1906,-300.22 1906,-294.22 1912,-288.22 1918,-288.22"/>
<text text-anchor="middle" x="2158.5" y="-455.501" font-family="Times,serif" font-size="14.00">simmanager.SimProxy</text>
</g>
<g id="clust6" class="cluster"><title>cluster_simmanager__make_proxy</title>
<path fill="#808080" fill-opacity="0.094118" stroke="black" d="M342,-187.48C342,-187.48 732,-187.48 732,-187.48 738,-187.48 744,-193.48 744,-199.48 744,-199.48 744,-268.22 744,-268.22 744,-274.22 738,-280.22 732,-280.22 732,-280.22 342,-280.22 342,-280.22 336,-280.22 330,-274.22 330,-268.22 330,-268.22 330,-199.48 330,-199.48 330,-193.48 336,-187.48 342,-187.48"/>
<text text-anchor="middle" x="537" y="-265.02" font-family="Times,serif" font-size="14.00">simmanager.make_proxy</text>
</g>
<!-- simmanager__start -->
<g id="node1" class="node"><title>simmanager__start</title>
<ellipse fill="#ccfecc" fill-opacity="0.698039" stroke="black" cx="282" cy="-513.571" rx="90.5193" ry="26.7407"/>
<text text-anchor="middle" x="282" y="-517.371" font-family="Times,serif" font-size="14.00" fill="#000000">start</text>
<text text-anchor="middle" x="282" y="-502.371" font-family="Times,serif" font-size="14.00" fill="#000000">(simmanager.py:37)</text>
</g>
<!-- simmanager__start_inproc -->
<g id="node2" class="node"><title>simmanager__start_inproc</title>
<ellipse fill="#ccfecc" fill-opacity="0.698039" stroke="black" cx="225" cy="-222.35" rx="94.5053" ry="26.7407"/>
<text text-anchor="middle" x="225" y="-226.15" font-family="Times,serif" font-size="14.00" fill="#000000">start_inproc</text>
<text text-anchor="middle" x="225" y="-211.15" font-family="Times,serif" font-size="14.00" fill="#000000">(simmanager.py:105)</text>
</g>
<!-- simmanager__start&#45;&gt;simmanager__start_inproc -->
<g id="edge1" class="edge"><title>simmanager__start&#45;&gt;simmanager__start_inproc</title>
<path fill="none" stroke="black" d="M247.856,-488.389C242.701,-483.162 238.083,-477.221 235,-470.701 217.797,-434.324 220.411,-318.819 223.055,-259.41"/>
<polygon fill="black" stroke="black" points="226.554,-259.498 223.527,-249.344 219.562,-259.169 226.554,-259.498"/>
</g>
<!-- simmanager__start_proc -->
<g id="node3" class="node"><title>simmanager__start_proc</title>
<ellipse fill="#ccfecc" fill-opacity="0.698039" stroke="black" cx="547" cy="-412.831" rx="94.5053" ry="26.7407"/>
<text text-anchor="middle" x="547" y="-416.631" font-family="Times,serif" font-size="14.00" fill="#000000">start_proc</text>
<text text-anchor="middle" x="547" y="-401.631" font-family="Times,serif" font-size="14.00" fill="#000000">(simmanager.py:144)</text>
</g>
<!-- simmanager__start&#45;&gt;simmanager__start_proc -->
<g id="edge2" class="edge"><title>simmanager__start&#45;&gt;simmanager__start_proc</title>
<path fill="none" stroke="black" d="M354.942,-497.621C382.965,-490.842 414.943,-481.823 443,-470.701 462.386,-463.016 482.72,-452.504 500.215,-442.607"/>
<polygon fill="black" stroke="black" points="502.16,-445.526 509.084,-437.506 498.67,-439.457 502.16,-445.526"/>
</g>
<!-- simmanager__start_connect -->
<g id="node4" class="node"><title>simmanager__start_connect</title>
<ellipse fill="#ccfecc" fill-opacity="0.698039" stroke="black" cx="339" cy="-412.831" rx="94.5053" ry="26.7407"/>
<text text-anchor="middle" x="339" y="-416.631" font-family="Times,serif" font-size="14.00" fill="#000000">start_connect</text>
<text text-anchor="middle" x="339" y="-401.631" font-family="Times,serif" font-size="14.00" fill="#000000">(simmanager.py:184)</text>
</g>
<!-- simmanager__start&#45;&gt;simmanager__start_connect -->
<g id="edge3" class="edge"><title>simmanager__start&#45;&gt;simmanager__start_connect</title>
<path fill="none" stroke="black" d="M296.827,-486.886C303.622,-475.115 311.777,-460.989 319.096,-448.31"/>
<polygon fill="black" stroke="black" points="322.279,-449.797 324.247,-439.387 316.216,-446.298 322.279,-449.797"/>
</g>
<!-- simmanager__validate_api_version -->
<g id="node5" class="node"><title>simmanager__validate_api_version</title>
<ellipse fill="#ccfecc" fill-opacity="0.698039" stroke="black" cx="111" cy="-412.831" rx="94.5053" ry="26.7407"/>
<text text-anchor="middle" x="111" y="-416.631" font-family="Times,serif" font-size="14.00" fill="#000000">validate_api_version</text>
<text text-anchor="middle" x="111" y="-401.631" font-family="Times,serif" font-size="14.00" fill="#000000">(simmanager.py:274)</text>
</g>
<!-- simmanager__start&#45;&gt;simmanager__validate_api_version -->
<g id="edge4" class="edge"><title>simmanager__start&#45;&gt;simmanager__validate_api_version</title>
<path fill="none" stroke="black" d="M241.908,-489.42C217.536,-475.347 186.229,-457.27 160.343,-442.323"/>
<polygon fill="black" stroke="black" points="161.843,-439.147 151.433,-437.178 158.343,-445.209 161.843,-439.147"/>
</g>
<!-- simmanager__LocalProcess -->
<g id="node6" class="node"><title>simmanager__LocalProcess</title>
<ellipse fill="#ccfecc" fill-opacity="0.698039" stroke="black" cx="329" cy="-132.61" rx="94.5053" ry="26.7407"/>
<text text-anchor="middle" x="329" y="-136.41" font-family="Times,serif" font-size="14.00" fill="#000000">LocalProcess</text>
<text text-anchor="middle" x="329" y="-121.41" font-family="Times,serif" font-size="14.00" fill="#000000">(simmanager.py:370)</text>
</g>
<!-- simmanager__start_inproc&#45;&gt;simmanager__LocalProcess -->
<g id="edge5" class="edge"><title>simmanager__start_inproc&#45;&gt;simmanager__LocalProcess</title>
<path fill="none" stroke="black" d="M254.247,-196.676C265.878,-186.864 279.4,-175.455 291.721,-165.06"/>
<polygon fill="black" stroke="black" points="294.226,-167.526 299.613,-158.403 289.712,-162.176 294.226,-167.526"/>
</g>
<!-- simmanager__make_proxy -->
<g id="node7" class="node"><title>simmanager__make_proxy</title>
<ellipse fill="#ccfecc" fill-opacity="0.698039" stroke="black" cx="490" cy="-323.09" rx="94.5053" ry="26.7407"/>
<text text-anchor="middle" x="490" y="-326.89" font-family="Times,serif" font-size="14.00" fill="#000000">make_proxy</text>
<text text-anchor="middle" x="490" y="-311.89" font-family="Times,serif" font-size="14.00" fill="#000000">(simmanager.py:208)</text>
</g>
<!-- simmanager__start_proc&#45;&gt;simmanager__make_proxy -->
<g id="edge6" class="edge"><title>simmanager__start_proc&#45;&gt;simmanager__make_proxy</title>
<path fill="none" stroke="black" d="M530.206,-385.98C524.582,-377.323 518.222,-367.532 512.247,-358.335"/>
<polygon fill="black" stroke="black" points="515.056,-356.235 506.674,-349.756 509.186,-360.049 515.056,-356.235"/>
</g>
<!-- simmanager__start_connect&#45;&gt;simmanager__make_proxy -->
<g id="edge7" class="edge"><title>simmanager__start_connect&#45;&gt;simmanager__make_proxy</title>
<path fill="none" stroke="black" d="M379.465,-388.318C398.329,-377.357 420.941,-364.218 440.786,-352.687"/>
<polygon fill="black" stroke="black" points="442.797,-355.566 449.685,-347.516 439.28,-349.514 442.797,-355.566"/>
</g>
<!-- simmanager__SimProxy -->
<g id="node9" class="node"><title>simmanager__SimProxy</title>
<ellipse fill="#ccfecc" fill-opacity="0.698039" stroke="black" cx="459" cy="-42.8701" rx="94.5053" ry="26.7407"/>
<text text-anchor="middle" x="459" y="-46.6701" font-family="Times,serif" font-size="14.00" fill="#000000">SimProxy</text>
<text text-anchor="middle" x="459" y="-31.6701" font-family="Times,serif" font-size="14.00" fill="#000000">(simmanager.py:298)</text>
</g>
<!-- simmanager__LocalProcess&#45;&gt;simmanager__SimProxy -->
<g id="edge13" class="edge"><title>simmanager__LocalProcess&#45;&gt;simmanager__SimProxy</title>
<path fill="none" stroke="black" d="M364.523,-107.635C380.143,-97.0922 398.645,-84.605 415.117,-73.4876"/>
<polygon fill="black" stroke="black" points="417.189,-76.3119 423.52,-67.8164 413.273,-70.5097 417.189,-76.3119"/>
</g>
<!-- simmanager__make_proxy__greeter -->
<g id="node28" class="node"><title>simmanager__make_proxy__greeter</title>
<ellipse fill="#99ff99" fill-opacity="0.698039" stroke="black" cx="641" cy="-222.35" rx="94.5053" ry="26.7407"/>
<text text-anchor="middle" x="641" y="-226.15" font-family="Times,serif" font-size="14.00" fill="#000000">greeter</text>
<text text-anchor="middle" x="641" y="-211.15" font-family="Times,serif" font-size="14.00" fill="#000000">(simmanager.py:223)</text>
</g>
<!-- simmanager__make_proxy&#45;&gt;simmanager__make_proxy__greeter -->
<g id="edge9" class="edge"><title>simmanager__make_proxy&#45;&gt;simmanager__make_proxy__greeter</title>
<path fill="none" stroke="black" d="M526.553,-298.188C547.435,-284.533 573.79,-267.299 595.944,-252.812"/>
<polygon fill="black" stroke="black" points="598.068,-255.606 604.522,-247.203 594.237,-249.747 598.068,-255.606"/>
</g>
<!-- simmanager__make_proxy__terminate -->
<g id="node29" class="node"><title>simmanager__make_proxy__terminate</title>
<ellipse fill="#99ff99" fill-opacity="0.698039" stroke="black" cx="433" cy="-222.35" rx="94.5053" ry="26.7407"/>
<text text-anchor="middle" x="433" y="-226.15" font-family="Times,serif" font-size="14.00" fill="#000000">terminate</text>
<text text-anchor="middle" x="433" y="-211.15" font-family="Times,serif" font-size="14.00" fill="#000000">(simmanager.py:261)</text>
</g>
<!-- simmanager__make_proxy&#45;&gt;simmanager__make_proxy__terminate -->
<g id="edge8" class="edge"><title>simmanager__make_proxy&#45;&gt;simmanager__make_proxy__terminate</title>
<path fill="none" stroke="black" d="M475.173,-296.405C468.378,-284.634 460.223,-270.509 452.904,-257.83"/>
<polygon fill="black" stroke="black" points="455.784,-255.817 447.753,-248.907 449.721,-259.317 455.784,-255.817"/>
</g>
<!-- simmanager__RemoteProcess -->
<g id="node8" class="node"><title>simmanager__RemoteProcess</title>
<ellipse fill="#ccfecc" fill-opacity="0.698039" stroke="black" cx="589" cy="-132.61" rx="94.5053" ry="26.7407"/>
<text text-anchor="middle" x="589" y="-136.41" font-family="Times,serif" font-size="14.00" fill="#000000">RemoteProcess</text>
<text text-anchor="middle" x="589" y="-121.41" font-family="Times,serif" font-size="14.00" fill="#000000">(simmanager.py:404)</text>
</g>
<!-- simmanager__RemoteProcess&#45;&gt;simmanager__SimProxy -->
<g id="edge17" class="edge"><title>simmanager__RemoteProcess&#45;&gt;simmanager__SimProxy</title>
<path fill="none" stroke="black" d="M553.477,-107.635C537.857,-97.0922 519.355,-84.605 502.883,-73.4876"/>
<polygon fill="black" stroke="black" points="504.727,-70.5097 494.48,-67.8164 500.811,-76.3119 504.727,-70.5097"/>
</g>
<!-- simmanager__MosaikRemote -->
<g id="node10" class="node"><title>simmanager__MosaikRemote</title>
<ellipse fill="#ccfecc" fill-opacity="0.698039" stroke="black" cx="2574" cy="-412.831" rx="94.5053" ry="26.7407"/>
<text text-anchor="middle" x="2574" y="-416.631" font-family="Times,serif" font-size="14.00" fill="#000000">MosaikRemote</text>
<text text-anchor="middle" x="2574" y="-401.631" font-family="Times,serif" font-size="14.00" fill="#000000">(simmanager.py:439)</text>
</g>
<!-- simmanager__LocalProcess____init__ -->
<g id="node11" class="node"><title>simmanager__LocalProcess____init__</title>
<ellipse fill="#99ff99" fill-opacity="0.698039" stroke="black" cx="2633" cy="-513.571" rx="94.5053" ry="26.7407"/>
<text text-anchor="middle" x="2633" y="-517.371" font-family="Times,serif" font-size="14.00" fill="#000000">__init__</text>
<text text-anchor="middle" x="2633" y="-502.371" font-family="Times,serif" font-size="14.00" fill="#000000">(simmanager.py:372)</text>
</g>
<!-- simmanager__LocalProcess____init__&#45;&gt;simmanager__MosaikRemote -->
<g id="edge16" class="edge"><title>simmanager__LocalProcess____init__&#45;&gt;simmanager__MosaikRemote</title>
<path fill="none" stroke="black" d="M2617.65,-486.886C2610.62,-475.115 2602.18,-460.989 2594.6,-448.31"/>
<polygon fill="black" stroke="black" points="2597.4,-446.176 2589.27,-439.387 2591.4,-449.767 2597.4,-446.176"/>
</g>
<!-- simmanager__MosaikRemote____init__ -->
<g id="node14" class="node"><title>simmanager__MosaikRemote____init__</title>
<ellipse fill="#99ff99" fill-opacity="0.698039" stroke="black" cx="1795" cy="-412.831" rx="94.5053" ry="26.7407"/>
<text text-anchor="middle" x="1795" y="-416.631" font-family="Times,serif" font-size="14.00" fill="#000000">__init__</text>
<text text-anchor="middle" x="1795" y="-401.631" font-family="Times,serif" font-size="14.00" fill="#000000">(simmanager.py:449)</text>
</g>
<!-- simmanager__LocalProcess____init__&#45;&gt;simmanager__MosaikRemote____init__ -->
<g id="edge14" class="edge"><title>simmanager__LocalProcess____init__&#45;&gt;simmanager__MosaikRemote____init__</title>
<path fill="none" stroke="black" d="M2578.72,-491.476C2562.93,-486.279 2545.49,-481.425 2529,-478.701 2460.26,-467.339 1969.5,-487.981 1902,-470.701 1879.83,-465.025 1857.18,-453.905 1838.47,-442.993"/>
<polygon fill="black" stroke="black" points="1840.26,-439.989 1829.89,-437.846 1836.66,-445.992 1840.26,-439.989"/>
</g>
<!-- simmanager__SimProxy____init__ -->
<g id="node24" class="node"><title>simmanager__SimProxy____init__</title>
<ellipse fill="#99ff99" fill-opacity="0.698039" stroke="black" cx="2263" cy="-412.831" rx="94.5053" ry="26.7407"/>
<text text-anchor="middle" x="2263" y="-416.631" font-family="Times,serif" font-size="14.00" fill="#000000">__init__</text>
<text text-anchor="middle" x="2263" y="-401.631" font-family="Times,serif" font-size="14.00" fill="#000000">(simmanager.py:305)</text>
</g>
<!-- simmanager__LocalProcess____init__&#45;&gt;simmanager__SimProxy____init__ -->
<g id="edge15" class="edge"><title>simmanager__LocalProcess____init__&#45;&gt;simmanager__SimProxy____init__</title>
<path fill="none" stroke="black" d="M2577.84,-491.584C2562.27,-486.491 2545.16,-481.663 2529,-478.701 2492.46,-471.999 2397.66,-481.134 2362,-470.701 2341.91,-464.823 2321.55,-454.119 2304.56,-443.569"/>
<polygon fill="black" stroke="black" points="2306.31,-440.535 2296,-438.093 2302.54,-446.431 2306.31,-440.535"/>
</g>
<!-- simmanager__LocalProcess___get_proxy -->
<g id="node12" class="node"><title>simmanager__LocalProcess___get_proxy</title>
<ellipse fill="#99ff99" fill-opacity="0.698039" stroke="black" cx="2425" cy="-513.571" rx="94.5053" ry="26.7407"/>
<text text-anchor="middle" x="2425" y="-517.371" font-family="Times,serif" font-size="14.00" fill="#000000">_get_proxy</text>
<text text-anchor="middle" x="2425" y="-502.371" font-family="Times,serif" font-size="14.00" fill="#000000">(simmanager.py:393)</text>
</g>
<!-- simmanager__LocalProcess__stop -->
<g id="node13" class="node"><title>simmanager__LocalProcess__stop</title>
<ellipse fill="#99ff99" fill-opacity="0.698039" stroke="black" cx="2217" cy="-513.571" rx="94.5053" ry="26.7407"/>
<text text-anchor="middle" x="2217" y="-517.371" font-family="Times,serif" font-size="14.00" fill="#000000">stop</text>
<text text-anchor="middle" x="2217" y="-502.371" font-family="Times,serif" font-size="14.00" fill="#000000">(simmanager.py:388)</text>
</g>
<!-- simmanager__MosaikRemote__rpc -->
<g id="node15" class="node"><title>simmanager__MosaikRemote__rpc</title>
<ellipse fill="#99ff99" fill-opacity="0.698039" stroke="black" cx="1587" cy="-412.831" rx="94.5053" ry="26.7407"/>
<text text-anchor="middle" x="1587" y="-416.631" font-family="Times,serif" font-size="14.00" fill="#000000">rpc</text>
<text text-anchor="middle" x="1587" y="-401.631" font-family="Times,serif" font-size="14.00" fill="#000000">(simmanager.py:445)</text>
</g>
<!-- simmanager__MosaikRemote__get_progress -->
<g id="node16" class="node"><title>simmanager__MosaikRemote__get_progress</title>
<ellipse fill="#99ff99" fill-opacity="0.698039" stroke="black" cx="1379" cy="-412.831" rx="94.5053" ry="26.7407"/>
<text text-anchor="middle" x="1379" y="-416.631" font-family="Times,serif" font-size="14.00" fill="#000000">get_progress</text>
<text text-anchor="middle" x="1379" y="-401.631" font-family="Times,serif" font-size="14.00" fill="#000000">(simmanager.py:453)</text>
</g>
<!-- simmanager__MosaikRemote__get_related_entities -->
<g id="node17" class="node"><title>simmanager__MosaikRemote__get_related_entities</title>
<ellipse fill="#99ff99" fill-opacity="0.698039" stroke="black" cx="1171" cy="-412.831" rx="94.5053" ry="26.7407"/>
<text text-anchor="middle" x="1171" y="-416.631" font-family="Times,serif" font-size="14.00" fill="#000000">get_related_entities</text>
<text text-anchor="middle" x="1171" y="-401.631" font-family="Times,serif" font-size="14.00" fill="#000000">(simmanager.py:461)</text>
</g>
<!-- simmanager__MosaikRemote__get_data -->
<g id="node18" class="node"><title>simmanager__MosaikRemote__get_data</title>
<ellipse fill="#99ff99" fill-opacity="0.698039" stroke="black" cx="755" cy="-412.831" rx="94.5053" ry="26.7407"/>
<text text-anchor="middle" x="755" y="-416.631" font-family="Times,serif" font-size="14.00" fill="#000000">get_data</text>
<text text-anchor="middle" x="755" y="-401.631" font-family="Times,serif" font-size="14.00" fill="#000000">(simmanager.py:520)</text>
</g>
<!-- simmanager__MosaikRemote___assert_async_requests -->
<g id="node19" class="node"><title>simmanager__MosaikRemote___assert_async_requests</title>
<ellipse fill="#99ff99" fill-opacity="0.698039" stroke="black" cx="862" cy="-323.09" rx="101.233" ry="26.7407"/>
<text text-anchor="middle" x="862" y="-326.89" font-family="Times,serif" font-size="14.00" fill="#000000">_assert_async_requests</text>
<text text-anchor="middle" x="862" y="-311.89" font-family="Times,serif" font-size="14.00" fill="#000000">(simmanager.py:587)</text>
</g>
<!-- simmanager__MosaikRemote__get_data&#45;&gt;simmanager__MosaikRemote___assert_async_requests -->
<g id="edge23" class="edge"><title>simmanager__MosaikRemote__get_data&#45;&gt;simmanager__MosaikRemote___assert_async_requests</title>
<path fill="none" stroke="black" d="M785.09,-387.157C797.171,-377.251 811.235,-365.718 824.008,-355.244"/>
<polygon fill="black" stroke="black" points="826.252,-357.93 831.765,-348.883 821.813,-352.518 826.252,-357.93"/>
</g>
<!-- simmanager__MosaikRemote__set_data -->
<g id="node20" class="node"><title>simmanager__MosaikRemote__set_data</title>
<ellipse fill="#99ff99" fill-opacity="0.698039" stroke="black" cx="963" cy="-412.831" rx="94.5053" ry="26.7407"/>
<text text-anchor="middle" x="963" y="-416.631" font-family="Times,serif" font-size="14.00" fill="#000000">set_data</text>
<text text-anchor="middle" x="963" y="-401.631" font-family="Times,serif" font-size="14.00" fill="#000000">(simmanager.py:567)</text>
</g>
<!-- simmanager__MosaikRemote__set_data&#45;&gt;simmanager__MosaikRemote___assert_async_requests -->
<g id="edge24" class="edge"><title>simmanager__MosaikRemote__set_data&#45;&gt;simmanager__MosaikRemote___assert_async_requests</title>
<path fill="none" stroke="black" d="M934.597,-387.157C923.302,-377.344 910.169,-365.935 898.203,-355.541"/>
<polygon fill="black" stroke="black" points="900.384,-352.799 890.54,-348.883 895.794,-358.084 900.384,-352.799"/>
</g>
<!-- simmanager__RemoteProcess____init__ -->
<g id="node21" class="node"><title>simmanager__RemoteProcess____init__</title>
<ellipse fill="#99ff99" fill-opacity="0.698039" stroke="black" cx="1587" cy="-513.571" rx="94.5053" ry="26.7407"/>
<text text-anchor="middle" x="1587" y="-517.371" font-family="Times,serif" font-size="14.00" fill="#000000">__init__</text>
<text text-anchor="middle" x="1587" y="-502.371" font-family="Times,serif" font-size="14.00" fill="#000000">(simmanager.py:406)</text>
</g>
<!-- simmanager__RemoteProcess____init__&#45;&gt;simmanager__MosaikRemote -->
<g id="edge21" class="edge"><title>simmanager__RemoteProcess____init__&#45;&gt;simmanager__MosaikRemote</title>
<path fill="none" stroke="black" d="M1641.28,-491.458C1657.07,-486.261 1674.51,-481.411 1691,-478.701 1770.38,-465.65 2335.81,-484.887 2415,-470.701 2449.5,-464.519 2486.46,-451.707 2516.05,-439.806"/>
<polygon fill="black" stroke="black" points="2517.46,-443.012 2525.39,-435.984 2514.81,-436.534 2517.46,-443.012"/>
</g>
<!-- simmanager__RemoteProcess____init__&#45;&gt;simmanager__MosaikRemote____init__ -->
<g id="edge20" class="edge"><title>simmanager__RemoteProcess____init__&#45;&gt;simmanager__MosaikRemote____init__</title>
<path fill="none" stroke="black" d="M1642.31,-491.707C1658.19,-485.338 1675.43,-478.062 1691,-470.701 1709.05,-462.167 1728.36,-451.932 1745.38,-442.512"/>
<polygon fill="black" stroke="black" points="1747.55,-445.308 1754.58,-437.378 1744.14,-439.196 1747.55,-445.308"/>
</g>
<!-- simmanager__RemoteProcess____init__&#45;&gt;simmanager__MosaikRemote__rpc -->
<g id="edge19" class="edge"><title>simmanager__RemoteProcess____init__&#45;&gt;simmanager__MosaikRemote__rpc</title>
<path fill="none" stroke="black" d="M1587,-486.628C1587,-475.491 1587,-462.284 1587,-450.197"/>
<polygon fill="black" stroke="black" points="1590.5,-449.943 1587,-439.943 1583.5,-449.943 1590.5,-449.943"/>
</g>
<!-- simmanager__RemoteProcess____init__&#45;&gt;simmanager__SimProxy____init__ -->
<g id="edge18" class="edge"><title>simmanager__RemoteProcess____init__&#45;&gt;simmanager__SimProxy____init__</title>
<path fill="none" stroke="black" d="M1641.29,-491.542C1657.08,-486.346 1674.52,-481.477 1691,-478.701 1783.49,-463.119 2020.91,-488.476 2113,-470.701 2145.04,-464.515 2179.18,-452.077 2206.78,-440.405"/>
<polygon fill="black" stroke="black" points="2208.46,-443.493 2216.26,-436.32 2205.69,-437.065 2208.46,-443.493"/>
</g>
<!-- simmanager__RemoteProcess___get_proxy -->
<g id="node22" class="node"><title>simmanager__RemoteProcess___get_proxy</title>
<ellipse fill="#99ff99" fill-opacity="0.698039" stroke="black" cx="1795" cy="-513.571" rx="94.5053" ry="26.7407"/>
<text text-anchor="middle" x="1795" y="-517.371" font-family="Times,serif" font-size="14.00" fill="#000000">_get_proxy</text>
<text text-anchor="middle" x="1795" y="-502.371" font-family="Times,serif" font-size="14.00" fill="#000000">(simmanager.py:434)</text>
</g>
<!-- simmanager__RemoteProcess__stop -->
<g id="node23" class="node"><title>simmanager__RemoteProcess__stop</title>
<ellipse fill="#99ff99" fill-opacity="0.698039" stroke="black" cx="2003" cy="-513.571" rx="94.5053" ry="26.7407"/>
<text text-anchor="middle" x="2003" y="-517.371" font-family="Times,serif" font-size="14.00" fill="#000000">stop</text>
<text text-anchor="middle" x="2003" y="-502.371" font-family="Times,serif" font-size="14.00" fill="#000000">(simmanager.py:414)</text>
</g>
<!-- simmanager__SimProxy__stop -->
<g id="node27" class="node"><title>simmanager__SimProxy__stop</title>
<ellipse fill="#99ff99" fill-opacity="0.698039" stroke="black" cx="2009" cy="-412.831" rx="94.5053" ry="26.7407"/>
<text text-anchor="middle" x="2009" y="-416.631" font-family="Times,serif" font-size="14.00" fill="#000000">stop</text>
<text text-anchor="middle" x="2009" y="-401.631" font-family="Times,serif" font-size="14.00" fill="#000000">(simmanager.py:339)</text>
</g>
<!-- simmanager__RemoteProcess__stop&#45;&gt;simmanager__SimProxy__stop -->
<g id="edge22" class="edge"><title>simmanager__RemoteProcess__stop&#45;&gt;simmanager__SimProxy__stop</title>
<path fill="none" stroke="black" d="M2004.58,-486.628C2005.25,-475.491 2006.06,-462.284 2006.79,-450.197"/>
<polygon fill="black" stroke="black" points="2010.3,-450.137 2007.41,-439.943 2003.31,-449.712 2010.3,-450.137"/>
</g>
<!-- simmanager__SimProxy___check_model_and_meth_names -->
<g id="node25" class="node"><title>simmanager__SimProxy___check_model_and_meth_names</title>
<ellipse fill="#99ff99" fill-opacity="0.698039" stroke="black" cx="2055" cy="-323.09" rx="140.929" ry="26.7407"/>
<text text-anchor="middle" x="2055" y="-326.89" font-family="Times,serif" font-size="14.00" fill="#000000">_check_model_and_meth_names</text>
<text text-anchor="middle" x="2055" y="-311.89" font-family="Times,serif" font-size="14.00" fill="#000000">(simmanager.py:350)</text>
</g>
<!-- simmanager__SimProxy____init__&#45;&gt;simmanager__SimProxy___check_model_and_meth_names -->
<g id="edge12" class="edge"><title>simmanager__SimProxy____init__&#45;&gt;simmanager__SimProxy___check_model_and_meth_names</title>
<path fill="none" stroke="black" d="M2211.58,-390.142C2184.12,-378.557 2150.02,-364.171 2120.65,-351.785"/>
<polygon fill="black" stroke="black" points="2121.88,-348.502 2111.3,-347.84 2119.16,-354.952 2121.88,-348.502"/>
</g>
<!-- simmanager__SimProxy___get_proxy -->
<g id="node26" class="node"><title>simmanager__SimProxy___get_proxy</title>
<ellipse fill="#99ff99" fill-opacity="0.698039" stroke="black" cx="2308" cy="-323.09" rx="94.5053" ry="26.7407"/>
<text text-anchor="middle" x="2308" y="-326.89" font-family="Times,serif" font-size="14.00" fill="#000000">_get_proxy</text>
<text text-anchor="middle" x="2308" y="-311.89" font-family="Times,serif" font-size="14.00" fill="#000000">(simmanager.py:347)</text>
</g>
<!-- simmanager__SimProxy____init__&#45;&gt;simmanager__SimProxy___get_proxy -->
<g id="edge11" class="edge"><title>simmanager__SimProxy____init__&#45;&gt;simmanager__SimProxy___get_proxy</title>
<path fill="none" stroke="black" d="M2276.26,-385.98C2280.61,-377.501 2285.51,-367.936 2290.14,-358.905"/>
<polygon fill="black" stroke="black" points="2293.39,-360.251 2294.84,-349.756 2287.16,-357.057 2293.39,-360.251"/>
</g>
<!-- simmanager__make_proxy__greeter&#45;&gt;simmanager__RemoteProcess -->
<g id="edge10" class="edge"><title>simmanager__make_proxy__greeter&#45;&gt;simmanager__RemoteProcess</title>
<path fill="none" stroke="black" d="M625.68,-195.5C620.602,-186.932 614.866,-177.254 609.464,-168.14"/>
<polygon fill="black" stroke="black" points="612.32,-166.094 604.211,-159.276 606.299,-169.663 612.32,-166.094"/>
</g>
</g>
</svg>
