<?xml version="1.0" encoding="UTF-8" standalone="no"?>
<!DOCTYPE svg PUBLIC "-//W3C//DTD SVG 1.1//EN"
 "http://www.w3.org/Graphics/SVG/1.1/DTD/svg11.dtd">
<!-- Generated by graphviz version 2.38.0 (20140413.2041)
 -->
<!-- Title: G Pages: 1 -->
<svg width="2210pt" height="899pt"
 viewBox="0.00 0.00 2210.00 898.66" xmlns="http://www.w3.org/2000/svg" xmlns:xlink="http://www.w3.org/1999/xlink">
<g id="graph0" class="graph" transform="scale(1 1) rotate(0) translate(4 894.661)">
<title>G</title>
<polygon fill="white" stroke="none" points="-4,4 -4,-894.661 2206,-894.661 2206,4 -4,4"/>
<g id="clust1" class="cluster"><title>cluster_simmanager</title>
<path fill="#808080" fill-opacity="0.094118" stroke="black" d="M20,-8C20,-8 2182,-8 2182,-8 2188,-8 2194,-14 2194,-20 2194,-20 2194,-834.661 2194,-834.661 2194,-840.661 2188,-846.661 2182,-846.661 2182,-846.661 20,-846.661 20,-846.661 14,-846.661 8,-840.661 8,-834.661 8,-834.661 8,-20 8,-20 8,-14 14,-8 20,-8"/>
<text text-anchor="middle" x="1101" y="-831.461" font-family="Times,serif" font-size="14.00">simmanager</text>
</g>
<g id="clust3" class="cluster"><title>cluster_simmanager__MosaikRemote</title>
<path fill="#808080" fill-opacity="0.094118" stroke="black" d="M732,-16C732,-16 2162,-16 2162,-16 2168,-16 2174,-22 2174,-28 2174,-28 2174,-186.48 2174,-186.48 2174,-192.48 2168,-198.48 2162,-198.48 2162,-198.48 732,-198.48 732,-198.48 726,-198.48 720,-192.48 720,-186.48 720,-186.48 720,-28 720,-28 720,-22 726,-16 732,-16"/>
<text text-anchor="middle" x="1447" y="-183.28" font-family="Times,serif" font-size="14.00">simmanager.MosaikRemote</text>
</g>
<g id="clust4" class="cluster"><title>cluster_simmanager__RemoteProcess</title>
<path fill="#808080" fill-opacity="0.094118" stroke="black" d="M28,-299.22C28,-299.22 626,-299.22 626,-299.22 632,-299.22 638,-305.22 638,-311.22 638,-311.22 638,-379.96 638,-379.96 638,-385.96 632,-391.96 626,-391.96 626,-391.96 28,-391.96 28,-391.96 22,-391.96 16,-385.96 16,-379.96 16,-379.96 16,-311.22 16,-311.22 16,-305.22 22,-299.22 28,-299.22"/>
<text text-anchor="middle" x="327" y="-376.76" font-family="Times,serif" font-size="14.00">simmanager.RemoteProcess</text>
</g>
<g id="clust6" class="cluster"><title>cluster_simmanager__make_proxy</title>
<path fill="#808080" fill-opacity="0.094118" stroke="black" d="M236,-481.701C236,-481.701 626,-481.701 626,-481.701 632,-481.701 638,-487.701 638,-493.701 638,-493.701 638,-562.441 638,-562.441 638,-568.441 632,-574.441 626,-574.441 626,-574.441 236,-574.441 236,-574.441 230,-574.441 224,-568.441 224,-562.441 224,-562.441 224,-493.701 224,-493.701 224,-487.701 230,-481.701 236,-481.701"/>
<text text-anchor="middle" x="431" y="-559.241" font-family="Times,serif" font-size="14.00">simmanager.make_proxy</text>
</g>
<g id="clust2" class="cluster"><title>cluster_simmanager__LocalProcess</title>
<path fill="#808080" fill-opacity="0.094118" stroke="black" d="M860,-299.22C860,-299.22 1458,-299.22 1458,-299.22 1464,-299.22 1470,-305.22 1470,-311.22 1470,-311.22 1470,-379.96 1470,-379.96 1470,-385.96 1464,-391.96 1458,-391.96 1458,-391.96 860,-391.96 860,-391.96 854,-391.96 848,-385.96 848,-379.96 848,-379.96 848,-311.22 848,-311.22 848,-305.22 854,-299.22 860,-299.22"/>
<text text-anchor="middle" x="1159" y="-376.76" font-family="Times,serif" font-size="14.00">simmanager.LocalProcess</text>
</g>
<g id="clust5" class="cluster"><title>cluster_simmanager__SimProxy</title>
<path fill="#808080" fill-opacity="0.094118" stroke="black" d="M219,-105.74C219,-105.74 700,-105.74 700,-105.74 706,-105.74 712,-111.74 712,-117.74 712,-117.74 712,-279.22 712,-279.22 712,-285.22 706,-291.22 700,-291.22 700,-291.22 219,-291.22 219,-291.22 213,-291.22 207,-285.22 207,-279.22 207,-279.22 207,-117.74 207,-117.74 207,-111.74 213,-105.74 219,-105.74"/>
<text text-anchor="middle" x="459.5" y="-276.02" font-family="Times,serif" font-size="14.00">simmanager.SimProxy</text>
</g>
<!-- simmanager -->
<g id="node1" class="node"><title>simmanager</title>
<ellipse fill="#ffffff" fill-opacity="0.698039" stroke="black" cx="658" cy="-872.661" rx="54.6905" ry="18"/>
<text text-anchor="middle" x="658" y="-868.961" font-family="Times,serif" font-size="14.00" fill="#000000">simmanager</text>
</g>
<!-- simmanager__start -->
<g id="node2" class="node"><title>simmanager__start</title>
<ellipse fill="#ccfecc" fill-opacity="0.698039" stroke="black" cx="718" cy="-788.791" rx="90.5193" ry="26.7407"/>
<text text-anchor="middle" x="718" y="-792.591" font-family="Times,serif" font-size="14.00" fill="#000000">start</text>
<text text-anchor="middle" x="718" y="-777.591" font-family="Times,serif" font-size="14.00" fill="#000000">(simmanager.py:40)</text>
</g>
<!-- simmanager&#45;&gt;simmanager__start -->
<g id="edge9" class="edge"><title>simmanager&#45;&gt;simmanager__start</title>
<path fill="none" stroke="#838b8b" stroke-dasharray="5,2" d="M670.142,-855.093C676.8,-846.009 685.303,-834.406 693.29,-823.508"/>
<polygon fill="#838b8b" stroke="#838b8b" points="696.169,-825.5 699.257,-815.365 690.523,-821.362 696.169,-825.5"/>
</g>
<!-- simmanager__start_inproc -->
<g id="node3" class="node"><title>simmanager__start_inproc</title>
<ellipse fill="#ccfecc" fill-opacity="0.698039" stroke="black" cx="951" cy="-516.571" rx="94.5053" ry="26.7407"/>
<text text-anchor="middle" x="951" y="-520.371" font-family="Times,serif" font-size="14.00" fill="#000000">start_inproc</text>
<text text-anchor="middle" x="951" y="-505.371" font-family="Times,serif" font-size="14.00" fill="#000000">(simmanager.py:108)</text>
</g>
<!-- simmanager&#45;&gt;simmanager__start_inproc -->
<g id="edge1" class="edge"><title>simmanager&#45;&gt;simmanager__start_inproc</title>
<path fill="none" stroke="#838b8b" stroke-dasharray="5,2" d="M711.724,-868.687C758.89,-865.326 823.399,-858.685 846,-846.661 909.301,-812.984 924.615,-791.765 953,-725.921 977.276,-669.608 968.524,-596.513 959.841,-553.556"/>
<polygon fill="#838b8b" stroke="#838b8b" points="963.221,-552.621 957.713,-543.571 956.374,-554.081 963.221,-552.621"/>
</g>
<!-- simmanager__start_proc -->
<g id="node4" class="node"><title>simmanager__start_proc</title>
<ellipse fill="#ccfecc" fill-opacity="0.698039" stroke="black" cx="837" cy="-699.051" rx="94.5053" ry="26.7407"/>
<text text-anchor="middle" x="837" y="-702.851" font-family="Times,serif" font-size="14.00" fill="#000000">start_proc</text>
<text text-anchor="middle" x="837" y="-687.851" font-family="Times,serif" font-size="14.00" fill="#000000">(simmanager.py:147)</text>
</g>
<!-- simmanager&#45;&gt;simmanager__start_proc -->
<g id="edge2" class="edge"><title>simmanager&#45;&gt;simmanager__start_proc</title>
<path fill="none" stroke="#838b8b" stroke-dasharray="5,2" d="M712.063,-869.999C752.619,-867.55 803.531,-861.513 818,-846.661 846.039,-817.88 846.89,-769.47 843.319,-736.203"/>
<polygon fill="#838b8b" stroke="#838b8b" points="846.754,-735.463 842.034,-725.978 839.809,-736.337 846.754,-735.463"/>
</g>
<!-- simmanager__start_connect -->
<g id="node5" class="node"><title>simmanager__start_connect</title>
<ellipse fill="#ccfecc" fill-opacity="0.698039" stroke="black" cx="421" cy="-699.051" rx="94.5053" ry="26.7407"/>
<text text-anchor="middle" x="421" y="-702.851" font-family="Times,serif" font-size="14.00" fill="#000000">start_connect</text>
<text text-anchor="middle" x="421" y="-687.851" font-family="Times,serif" font-size="14.00" fill="#000000">(simmanager.py:187)</text>
</g>
<!-- simmanager&#45;&gt;simmanager__start_connect -->
<g id="edge6" class="edge"><title>simmanager&#45;&gt;simmanager__start_connect</title>
<path fill="none" stroke="#838b8b" stroke-dasharray="5,2" d="M625.018,-858.301C617.59,-854.849 609.875,-850.899 603,-846.661 547.608,-812.519 490.193,-763.618 455.027,-731.848"/>
<polygon fill="#838b8b" stroke="#838b8b" points="457.193,-729.087 447.441,-724.948 452.483,-734.265 457.193,-729.087"/>
</g>
<!-- simmanager__validate_api_version -->
<g id="node6" class="node"><title>simmanager__validate_api_version</title>
<ellipse fill="#ccfecc" fill-opacity="0.698039" stroke="black" cx="629" cy="-699.051" rx="94.5053" ry="26.7407"/>
<text text-anchor="middle" x="629" y="-702.851" font-family="Times,serif" font-size="14.00" fill="#000000">validate_api_version</text>
<text text-anchor="middle" x="629" y="-687.851" font-family="Times,serif" font-size="14.00" fill="#000000">(simmanager.py:277)</text>
</g>
<!-- simmanager&#45;&gt;simmanager__validate_api_version -->
<g id="edge7" class="edge"><title>simmanager&#45;&gt;simmanager__validate_api_version</title>
<path fill="none" stroke="#838b8b" stroke-dasharray="5,2" d="M627.361,-857.385C623.615,-854.371 620.303,-850.815 618,-846.661 599.075,-812.516 606.69,-766.839 615.887,-735.597"/>
<polygon fill="#838b8b" stroke="#838b8b" points="619.246,-736.583 618.898,-725.994 612.567,-734.489 619.246,-736.583"/>
</g>
<!-- simmanager__LocalProcess -->
<g id="node7" class="node"><title>simmanager__LocalProcess</title>
<ellipse fill="#ccfecc" fill-opacity="0.698039" stroke="black" cx="951" cy="-426.831" rx="94.5053" ry="26.7407"/>
<text text-anchor="middle" x="951" y="-430.631" font-family="Times,serif" font-size="14.00" fill="#000000">LocalProcess</text>
<text text-anchor="middle" x="951" y="-415.631" font-family="Times,serif" font-size="14.00" fill="#000000">(simmanager.py:373)</text>
</g>
<!-- simmanager&#45;&gt;simmanager__LocalProcess -->
<g id="edge10" class="edge"><title>simmanager&#45;&gt;simmanager__LocalProcess</title>
<path fill="none" stroke="#838b8b" stroke-dasharray="5,2" d="M712.057,-869.988C774.056,-867.409 871.466,-861.145 905,-846.661 996.285,-807.233 1074,-799.487 1074,-700.051 1074,-700.051 1074,-700.051 1074,-608.311 1074,-551.409 1088.1,-527.981 1055,-481.701 1046.3,-469.54 1034.02,-459.92 1020.93,-452.386"/>
<polygon fill="#838b8b" stroke="#838b8b" points="1022.24,-449.119 1011.77,-447.497 1018.95,-455.294 1022.24,-449.119"/>
</g>
<!-- simmanager__make_proxy -->
<g id="node8" class="node"><title>simmanager__make_proxy</title>
<ellipse fill="#ccfecc" fill-opacity="0.698039" stroke="black" cx="421" cy="-609.311" rx="94.5053" ry="26.7407"/>
<text text-anchor="middle" x="421" y="-613.111" font-family="Times,serif" font-size="14.00" fill="#000000">make_proxy</text>
<text text-anchor="middle" x="421" y="-598.111" font-family="Times,serif" font-size="14.00" fill="#000000">(simmanager.py:211)</text>
</g>
<!-- simmanager&#45;&gt;simmanager__make_proxy -->
<g id="edge5" class="edge"><title>simmanager&#45;&gt;simmanager__make_proxy</title>
<path fill="none" stroke="#838b8b" stroke-dasharray="5,2" d="M603.876,-870.124C569.62,-867.611 524.978,-861.448 488,-846.661 401.615,-812.117 359.797,-808.529 317,-725.921 306.013,-704.713 305.193,-692.943 317,-672.181 325.682,-656.914 339.783,-645.021 354.838,-635.926"/>
<polygon fill="#838b8b" stroke="#838b8b" points="356.784,-638.847 363.779,-630.89 353.349,-632.748 356.784,-638.847"/>
</g>
<!-- simmanager__RemoteProcess -->
<g id="node9" class="node"><title>simmanager__RemoteProcess</title>
<ellipse fill="#ccfecc" fill-opacity="0.698039" stroke="black" cx="535" cy="-426.831" rx="94.5053" ry="26.7407"/>
<text text-anchor="middle" x="535" y="-430.631" font-family="Times,serif" font-size="14.00" fill="#000000">RemoteProcess</text>
<text text-anchor="middle" x="535" y="-415.631" font-family="Times,serif" font-size="14.00" fill="#000000">(simmanager.py:407)</text>
</g>
<!-- simmanager&#45;&gt;simmanager__RemoteProcess -->
<g id="edge3" class="edge"><title>simmanager&#45;&gt;simmanager__RemoteProcess</title>
<path fill="none" stroke="#838b8b" stroke-dasharray="5,2" d="M603.332,-872.254C524.032,-872.304 381.586,-869.112 336,-846.661 257.343,-807.922 204,-787.73 204,-700.051 204,-700.051 204,-700.051 204,-608.311 204,-551.592 180.779,-522.673 220,-481.701 248.652,-451.77 351.098,-438.427 431.476,-432.505"/>
<polygon fill="#838b8b" stroke="#838b8b" points="431.933,-435.981 441.661,-431.785 431.439,-428.999 431.933,-435.981"/>
</g>
<!-- simmanager__SimProxy -->
<g id="node10" class="node"><title>simmanager__SimProxy</title>
<ellipse fill="#ccfecc" fill-opacity="0.698039" stroke="black" cx="743" cy="-334.09" rx="94.5053" ry="26.7407"/>
<text text-anchor="middle" x="743" y="-337.89" font-family="Times,serif" font-size="14.00" fill="#000000">SimProxy</text>
<text text-anchor="middle" x="743" y="-322.89" font-family="Times,serif" font-size="14.00" fill="#000000">(simmanager.py:301)</text>
</g>
<!-- simmanager&#45;&gt;simmanager__SimProxy -->
<g id="edge4" class="edge"><title>simmanager&#45;&gt;simmanager__SimProxy</title>
<path fill="none" stroke="#838b8b" stroke-dasharray="5,2" d="M603.35,-871.981C491.45,-872.152 244.185,-869.863 214,-846.661 159.639,-804.877 166,-768.614 166,-700.051 166,-700.051 166,-700.051 166,-515.571 166,-414.055 147.478,-453.021 431,-399.96 477.122,-391.329 596.845,-404.718 642,-391.96 662.448,-386.183 683.212,-375.496 700.551,-364.933"/>
<polygon fill="#838b8b" stroke="#838b8b" points="702.679,-367.729 709.286,-359.447 698.957,-361.801 702.679,-367.729"/>
</g>
<!-- simmanager__MosaikRemote -->
<g id="node11" class="node"><title>simmanager__MosaikRemote</title>
<ellipse fill="#ccfecc" fill-opacity="0.698039" stroke="black" cx="1447" cy="-233.35" rx="94.5053" ry="26.7407"/>
<text text-anchor="middle" x="1447" y="-237.15" font-family="Times,serif" font-size="14.00" fill="#000000">MosaikRemote</text>
<text text-anchor="middle" x="1447" y="-222.15" font-family="Times,serif" font-size="14.00" fill="#000000">(simmanager.py:442)</text>
</g>
<!-- simmanager&#45;&gt;simmanager__MosaikRemote -->
<g id="edge8" class="edge"><title>simmanager&#45;&gt;simmanager__MosaikRemote</title>
<path fill="none" stroke="#838b8b" stroke-dasharray="5,2" d="M712.59,-872.068C897.688,-871.999 1490,-859.335 1490,-700.051 1490,-700.051 1490,-700.051 1490,-425.831 1490,-369.112 1488.58,-354.032 1474,-299.22 1471.34,-289.23 1467.48,-278.744 1463.51,-269.187"/>
<polygon fill="#838b8b" stroke="#838b8b" points="1466.72,-267.785 1459.54,-259.991 1460.29,-270.559 1466.72,-267.785"/>
</g>
<!-- simmanager__start&#45;&gt;simmanager__start_inproc -->
<g id="edge31" class="edge"><title>simmanager__start&#45;&gt;simmanager__start_inproc</title>
<path fill="none" stroke="black" d="M797.456,-775.765C853.93,-765.447 922.85,-748.64 941,-725.921 961.512,-700.245 957.966,-606.251 954.164,-553.716"/>
<polygon fill="black" stroke="black" points="957.634,-553.189 953.382,-543.484 950.654,-553.722 957.634,-553.189"/>
</g>
<!-- simmanager__start&#45;&gt;simmanager__start_proc -->
<g id="edge32" class="edge"><title>simmanager__start&#45;&gt;simmanager__start_proc</title>
<path fill="none" stroke="black" d="M750.832,-763.583C764.634,-753.407 780.85,-741.451 795.469,-730.672"/>
<polygon fill="black" stroke="black" points="797.89,-733.236 803.862,-724.484 793.736,-727.602 797.89,-733.236"/>
</g>
<!-- simmanager__start&#45;&gt;simmanager__start_connect -->
<g id="edge33" class="edge"><title>simmanager__start&#45;&gt;simmanager__start_connect</title>
<path fill="none" stroke="black" d="M655.377,-769.291C608.469,-755.433 544.142,-736.43 494.745,-721.837"/>
<polygon fill="black" stroke="black" points="495.657,-718.457 485.075,-718.98 493.673,-725.17 495.657,-718.457"/>
</g>
<!-- simmanager__start&#45;&gt;simmanager__validate_api_version -->
<g id="edge34" class="edge"><title>simmanager__start&#45;&gt;simmanager__validate_api_version</title>
<path fill="none" stroke="black" d="M692.734,-762.883C683.057,-753.343 671.878,-742.322 661.61,-732.199"/>
<polygon fill="black" stroke="black" points="663.907,-729.549 654.329,-725.021 658.993,-734.534 663.907,-729.549"/>
</g>
<!-- simmanager__start_inproc&#45;&gt;simmanager__LocalProcess -->
<g id="edge35" class="edge"><title>simmanager__start_inproc&#45;&gt;simmanager__LocalProcess</title>
<path fill="none" stroke="black" d="M951,-489.246C951,-481.279 951,-472.388 951,-463.9"/>
<polygon fill="black" stroke="black" points="954.5,-463.834 951,-453.835 947.5,-463.835 954.5,-463.834"/>
</g>
<!-- simmanager__start_proc&#45;&gt;simmanager__make_proxy -->
<g id="edge36" class="edge"><title>simmanager__start_proc&#45;&gt;simmanager__make_proxy</title>
<path fill="none" stroke="black" d="M768.301,-680.467C756.547,-677.601 744.44,-674.736 733,-672.181 657.544,-655.325 571.301,-638.4 508.639,-626.524"/>
<polygon fill="black" stroke="black" points="509.266,-623.08 498.79,-624.662 507.965,-629.959 509.266,-623.08"/>
</g>
<!-- simmanager__start_connect&#45;&gt;simmanager__make_proxy -->
<g id="edge37" class="edge"><title>simmanager__start_connect&#45;&gt;simmanager__make_proxy</title>
<path fill="none" stroke="black" d="M421,-671.726C421,-663.759 421,-654.868 421,-646.38"/>
<polygon fill="black" stroke="black" points="424.5,-646.315 421,-636.315 417.5,-646.315 424.5,-646.315"/>
</g>
<!-- simmanager__LocalProcess&#45;&gt;simmanager__SimProxy -->
<g id="edge43" class="edge"><title>simmanager__LocalProcess&#45;&gt;simmanager__SimProxy</title>
<path fill="none" stroke="black" d="M885.424,-407.431C871.55,-402.886 857.136,-397.665 844,-391.96 825.779,-384.047 806.591,-373.781 789.892,-364.152"/>
<polygon fill="black" stroke="black" points="791.292,-360.916 780.893,-358.887 787.758,-366.958 791.292,-360.916"/>
</g>
<!-- simmanager__LocalProcess____init__ -->
<g id="node12" class="node"><title>simmanager__LocalProcess____init__</title>
<ellipse fill="#99ff99" fill-opacity="0.698039" stroke="black" cx="1367" cy="-334.09" rx="94.5053" ry="26.7407"/>
<text text-anchor="middle" x="1367" y="-337.89" font-family="Times,serif" font-size="14.00" fill="#000000">__init__</text>
<text text-anchor="middle" x="1367" y="-322.89" font-family="Times,serif" font-size="14.00" fill="#000000">(simmanager.py:375)</text>
</g>
<!-- simmanager__LocalProcess&#45;&gt;simmanager__LocalProcess____init__ -->
<g id="edge17" class="edge"><title>simmanager__LocalProcess&#45;&gt;simmanager__LocalProcess____init__</title>
<path fill="none" stroke="#838b8b" stroke-dasharray="5,2" d="M1045.79,-425.115C1108.67,-422.332 1192.3,-414.16 1263,-391.96 1283.56,-385.503 1304.71,-374.809 1322.52,-364.427"/>
<polygon fill="#838b8b" stroke="#838b8b" points="1324.72,-367.187 1331.51,-359.05 1321.13,-361.18 1324.72,-367.187"/>
</g>
<!-- simmanager__LocalProcess___get_proxy -->
<g id="node13" class="node"><title>simmanager__LocalProcess___get_proxy</title>
<ellipse fill="#99ff99" fill-opacity="0.698039" stroke="black" cx="1159" cy="-334.09" rx="94.5053" ry="26.7407"/>
<text text-anchor="middle" x="1159" y="-337.89" font-family="Times,serif" font-size="14.00" fill="#000000">_get_proxy</text>
<text text-anchor="middle" x="1159" y="-322.89" font-family="Times,serif" font-size="14.00" fill="#000000">(simmanager.py:396)</text>
</g>
<!-- simmanager__LocalProcess&#45;&gt;simmanager__LocalProcess___get_proxy -->
<g id="edge19" class="edge"><title>simmanager__LocalProcess&#45;&gt;simmanager__LocalProcess___get_proxy</title>
<path fill="none" stroke="#838b8b" stroke-dasharray="5,2" d="M1015.22,-406.984C1028.54,-402.501 1042.36,-397.418 1055,-391.96 1073.82,-383.832 1093.75,-373.417 1111.06,-363.726"/>
<polygon fill="#838b8b" stroke="#838b8b" points="1112.89,-366.715 1119.86,-358.74 1109.44,-360.625 1112.89,-366.715"/>
</g>
<!-- simmanager__LocalProcess__stop -->
<g id="node14" class="node"><title>simmanager__LocalProcess__stop</title>
<ellipse fill="#99ff99" fill-opacity="0.698039" stroke="black" cx="951" cy="-334.09" rx="94.5053" ry="26.7407"/>
<text text-anchor="middle" x="951" y="-337.89" font-family="Times,serif" font-size="14.00" fill="#000000">stop</text>
<text text-anchor="middle" x="951" y="-322.89" font-family="Times,serif" font-size="14.00" fill="#000000">(simmanager.py:391)</text>
</g>
<!-- simmanager__LocalProcess&#45;&gt;simmanager__LocalProcess__stop -->
<g id="edge18" class="edge"><title>simmanager__LocalProcess&#45;&gt;simmanager__LocalProcess__stop</title>
<path fill="none" stroke="#838b8b" stroke-dasharray="5,2" d="M951,-399.585C951,-390.667 951,-380.543 951,-371.002"/>
<polygon fill="#838b8b" stroke="#838b8b" points="954.5,-370.964 951,-360.964 947.5,-370.964 954.5,-370.964"/>
</g>
<!-- simmanager__make_proxy__greeter -->
<g id="node30" class="node"><title>simmanager__make_proxy__greeter</title>
<ellipse fill="#99ff99" fill-opacity="0.698039" stroke="black" cx="535" cy="-516.571" rx="94.5053" ry="26.7407"/>
<text text-anchor="middle" x="535" y="-520.371" font-family="Times,serif" font-size="14.00" fill="#000000">greeter</text>
<text text-anchor="middle" x="535" y="-505.371" font-family="Times,serif" font-size="14.00" fill="#000000">(simmanager.py:226)</text>
</g>
<!-- simmanager__make_proxy&#45;&gt;simmanager__make_proxy__greeter -->
<g id="edge12" class="edge"><title>simmanager__make_proxy&#45;&gt;simmanager__make_proxy__greeter</title>
<path fill="none" stroke="#838b8b" stroke-dasharray="5,2" d="M446.346,-583.275C459.394,-572.299 475.601,-559.319 490.607,-547.808"/>
<polygon fill="#838b8b" stroke="#838b8b" points="492.95,-550.424 498.793,-541.586 488.714,-544.851 492.95,-550.424"/>
</g>
<!-- simmanager__make_proxy&#45;&gt;simmanager__make_proxy__greeter -->
<g id="edge38" class="edge"><title>simmanager__make_proxy&#45;&gt;simmanager__make_proxy__greeter</title>
<path fill="none" stroke="black" d="M457.291,-584.232C471.515,-573.523 487.685,-560.767 501.615,-549.294"/>
<polygon fill="black" stroke="black" points="504.077,-551.799 509.527,-542.713 499.601,-546.417 504.077,-551.799"/>
</g>
<!-- simmanager__make_proxy__terminate -->
<g id="node31" class="node"><title>simmanager__make_proxy__terminate</title>
<ellipse fill="#99ff99" fill-opacity="0.698039" stroke="black" cx="327" cy="-516.571" rx="94.5053" ry="26.7407"/>
<text text-anchor="middle" x="327" y="-520.371" font-family="Times,serif" font-size="14.00" fill="#000000">terminate</text>
<text text-anchor="middle" x="327" y="-505.371" font-family="Times,serif" font-size="14.00" fill="#000000">(simmanager.py:264)</text>
</g>
<!-- simmanager__make_proxy&#45;&gt;simmanager__make_proxy__terminate -->
<g id="edge11" class="edge"><title>simmanager__make_proxy&#45;&gt;simmanager__make_proxy__terminate</title>
<path fill="none" stroke="#838b8b" stroke-dasharray="5,2" d="M389.488,-583.755C378.172,-573.52 365.552,-561.481 354.59,-550.497"/>
<polygon fill="#838b8b" stroke="#838b8b" points="356.813,-547.766 347.302,-543.096 351.825,-552.677 356.813,-547.766"/>
</g>
<!-- simmanager__make_proxy&#45;&gt;simmanager__make_proxy__terminate -->
<g id="edge39" class="edge"><title>simmanager__make_proxy&#45;&gt;simmanager__make_proxy__terminate</title>
<path fill="none" stroke="black" d="M400.939,-583.035C390.668,-572.438 377.903,-560.01 365.85,-548.845"/>
<polygon fill="black" stroke="black" points="368.206,-546.257 358.467,-542.085 363.479,-551.42 368.206,-546.257"/>
</g>
<!-- simmanager__RemoteProcess&#45;&gt;simmanager__SimProxy -->
<g id="edge47" class="edge"><title>simmanager__RemoteProcess&#45;&gt;simmanager__SimProxy</title>
<path fill="none" stroke="black" d="M600.576,-407.431C614.45,-402.886 628.864,-397.665 642,-391.96 660.221,-384.047 679.409,-373.781 696.108,-364.152"/>
<polygon fill="black" stroke="black" points="698.242,-366.958 705.107,-358.887 694.708,-360.916 698.242,-366.958"/>
</g>
<!-- simmanager__RemoteProcess____init__ -->
<g id="node23" class="node"><title>simmanager__RemoteProcess____init__</title>
<ellipse fill="#99ff99" fill-opacity="0.698039" stroke="black" cx="119" cy="-334.09" rx="94.5053" ry="26.7407"/>
<text text-anchor="middle" x="119" y="-337.89" font-family="Times,serif" font-size="14.00" fill="#000000">__init__</text>
<text text-anchor="middle" x="119" y="-322.89" font-family="Times,serif" font-size="14.00" fill="#000000">(simmanager.py:409)</text>
</g>
<!-- simmanager__RemoteProcess&#45;&gt;simmanager__RemoteProcess____init__ -->
<g id="edge21" class="edge"><title>simmanager__RemoteProcess&#45;&gt;simmanager__RemoteProcess____init__</title>
<path fill="none" stroke="#838b8b" stroke-dasharray="5,2" d="M440.207,-425.115C377.332,-422.332 293.696,-414.16 223,-391.96 202.435,-385.503 181.289,-374.809 163.479,-364.427"/>
<polygon fill="#838b8b" stroke="#838b8b" points="164.869,-361.18 154.491,-359.05 161.276,-367.187 164.869,-361.18"/>
</g>
<!-- simmanager__RemoteProcess___get_proxy -->
<g id="node24" class="node"><title>simmanager__RemoteProcess___get_proxy</title>
<ellipse fill="#99ff99" fill-opacity="0.698039" stroke="black" cx="327" cy="-334.09" rx="94.5053" ry="26.7407"/>
<text text-anchor="middle" x="327" y="-337.89" font-family="Times,serif" font-size="14.00" fill="#000000">_get_proxy</text>
<text text-anchor="middle" x="327" y="-322.89" font-family="Times,serif" font-size="14.00" fill="#000000">(simmanager.py:437)</text>
</g>
<!-- simmanager__RemoteProcess&#45;&gt;simmanager__RemoteProcess___get_proxy -->
<g id="edge20" class="edge"><title>simmanager__RemoteProcess&#45;&gt;simmanager__RemoteProcess___get_proxy</title>
<path fill="none" stroke="#838b8b" stroke-dasharray="5,2" d="M470.781,-406.984C457.46,-402.501 443.639,-397.418 431,-391.96 412.177,-383.832 392.252,-373.417 374.935,-363.726"/>
<polygon fill="#838b8b" stroke="#838b8b" points="376.562,-360.625 366.137,-358.74 373.111,-366.715 376.562,-360.625"/>
</g>
<!-- simmanager__RemoteProcess__stop -->
<g id="node25" class="node"><title>simmanager__RemoteProcess__stop</title>
<ellipse fill="#99ff99" fill-opacity="0.698039" stroke="black" cx="535" cy="-334.09" rx="94.5053" ry="26.7407"/>
<text text-anchor="middle" x="535" y="-337.89" font-family="Times,serif" font-size="14.00" fill="#000000">stop</text>
<text text-anchor="middle" x="535" y="-322.89" font-family="Times,serif" font-size="14.00" fill="#000000">(simmanager.py:417)</text>
</g>
<!-- simmanager__RemoteProcess&#45;&gt;simmanager__RemoteProcess__stop -->
<g id="edge22" class="edge"><title>simmanager__RemoteProcess&#45;&gt;simmanager__RemoteProcess__stop</title>
<path fill="none" stroke="#838b8b" stroke-dasharray="5,2" d="M535,-399.585C535,-390.667 535,-380.543 535,-371.002"/>
<polygon fill="#838b8b" stroke="#838b8b" points="538.5,-370.964 535,-360.964 531.5,-370.964 538.5,-370.964"/>
</g>
<!-- simmanager__SimProxy____init__ -->
<g id="node26" class="node"><title>simmanager__SimProxy____init__</title>
<ellipse fill="#99ff99" fill-opacity="0.698039" stroke="black" cx="609" cy="-233.35" rx="94.5053" ry="26.7407"/>
<text text-anchor="middle" x="609" y="-237.15" font-family="Times,serif" font-size="14.00" fill="#000000">__init__</text>
<text text-anchor="middle" x="609" y="-222.15" font-family="Times,serif" font-size="14.00" fill="#000000">(simmanager.py:308)</text>
</g>
<!-- simmanager__SimProxy&#45;&gt;simmanager__SimProxy____init__ -->
<g id="edge13" class="edge"><title>simmanager__SimProxy&#45;&gt;simmanager__SimProxy____init__</title>
<path fill="none" stroke="#838b8b" stroke-dasharray="5,2" d="M709.876,-308.683C691.918,-295.45 669.554,-278.97 650.449,-264.893"/>
<polygon fill="#838b8b" stroke="#838b8b" points="652.334,-261.934 642.207,-258.819 648.181,-267.569 652.334,-261.934"/>
</g>
<!-- simmanager__SimProxy___check_model_and_meth_names -->
<g id="node27" class="node"><title>simmanager__SimProxy___check_model_and_meth_names</title>
<ellipse fill="#99ff99" fill-opacity="0.698039" stroke="black" cx="356" cy="-140.61" rx="140.929" ry="26.7407"/>
<text text-anchor="middle" x="356" y="-144.41" font-family="Times,serif" font-size="14.00" fill="#000000">_check_model_and_meth_names</text>
<text text-anchor="middle" x="356" y="-129.41" font-family="Times,serif" font-size="14.00" fill="#000000">(simmanager.py:353)</text>
</g>
<!-- simmanager__SimProxy&#45;&gt;simmanager__SimProxy___check_model_and_meth_names -->
<g id="edge14" class="edge"><title>simmanager__SimProxy&#45;&gt;simmanager__SimProxy___check_model_and_meth_names</title>
<path fill="none" stroke="#838b8b" stroke-dasharray="5,2" d="M732.949,-307.173C731.138,-301.942 729.387,-296.444 728,-291.22 718.182,-254.254 741.83,-231.614 713,-206.48 704.283,-198.881 516.33,-200.795 505,-198.48 474.92,-192.335 442.944,-180.844 416.358,-169.791"/>
<polygon fill="#838b8b" stroke="#838b8b" points="417.393,-166.428 406.82,-165.749 414.662,-172.874 417.393,-166.428"/>
</g>
<!-- simmanager__SimProxy___get_proxy -->
<g id="node28" class="node"><title>simmanager__SimProxy___get_proxy</title>
<ellipse fill="#99ff99" fill-opacity="0.698039" stroke="black" cx="609" cy="-140.61" rx="94.5053" ry="26.7407"/>
<text text-anchor="middle" x="609" y="-144.41" font-family="Times,serif" font-size="14.00" fill="#000000">_get_proxy</text>
<text text-anchor="middle" x="609" y="-129.41" font-family="Times,serif" font-size="14.00" fill="#000000">(simmanager.py:350)</text>
</g>
<!-- simmanager__SimProxy&#45;&gt;simmanager__SimProxy___get_proxy -->
<g id="edge16" class="edge"><title>simmanager__SimProxy&#45;&gt;simmanager__SimProxy___get_proxy</title>
<path fill="none" stroke="#838b8b" stroke-dasharray="5,2" d="M746.483,-307.186C748.773,-279.786 748.279,-236.455 728,-206.48 725.772,-203.188 692.726,-185.29 662.025,-169.126"/>
<polygon fill="#838b8b" stroke="#838b8b" points="663.515,-165.955 653.034,-164.406 660.261,-172.153 663.515,-165.955"/>
</g>
<!-- simmanager__SimProxy__stop -->
<g id="node29" class="node"><title>simmanager__SimProxy__stop</title>
<ellipse fill="#99ff99" fill-opacity="0.698039" stroke="black" cx="401" cy="-233.35" rx="94.5053" ry="26.7407"/>
<text text-anchor="middle" x="401" y="-237.15" font-family="Times,serif" font-size="14.00" fill="#000000">stop</text>
<text text-anchor="middle" x="401" y="-222.15" font-family="Times,serif" font-size="14.00" fill="#000000">(simmanager.py:342)</text>
</g>
<!-- simmanager__SimProxy&#45;&gt;simmanager__SimProxy__stop -->
<g id="edge15" class="edge"><title>simmanager__SimProxy&#45;&gt;simmanager__SimProxy__stop</title>
<path fill="none" stroke="#838b8b" stroke-dasharray="5,2" d="M688.67,-311.936C673.754,-306.94 657.435,-302.204 642,-299.22 582.116,-287.645 563.628,-308.039 505,-291.22 484.113,-285.228 462.762,-274.504 444.884,-263.97"/>
<polygon fill="#838b8b" stroke="#838b8b" points="446.238,-260.698 435.873,-258.505 442.608,-266.684 446.238,-260.698"/>
</g>
<!-- simmanager__MosaikRemote____init__ -->
<g id="node15" class="node"><title>simmanager__MosaikRemote____init__</title>
<ellipse fill="#99ff99" fill-opacity="0.698039" stroke="black" cx="1031" cy="-140.61" rx="94.5053" ry="26.7407"/>
<text text-anchor="middle" x="1031" y="-144.41" font-family="Times,serif" font-size="14.00" fill="#000000">__init__</text>
<text text-anchor="middle" x="1031" y="-129.41" font-family="Times,serif" font-size="14.00" fill="#000000">(simmanager.py:452)</text>
</g>
<!-- simmanager__MosaikRemote&#45;&gt;simmanager__MosaikRemote____init__ -->
<g id="edge28" class="edge"><title>simmanager__MosaikRemote&#45;&gt;simmanager__MosaikRemote____init__</title>
<path fill="none" stroke="#838b8b" stroke-dasharray="5,2" d="M1358.4,-223.587C1269.94,-214.707 1145.62,-201.816 1135,-198.48 1114.44,-192.023 1093.29,-181.329 1075.48,-170.947"/>
<polygon fill="#838b8b" stroke="#838b8b" points="1076.87,-167.7 1066.49,-165.57 1073.28,-173.707 1076.87,-167.7"/>
</g>
<!-- simmanager__MosaikRemote__rpc -->
<g id="node16" class="node"><title>simmanager__MosaikRemote__rpc</title>
<ellipse fill="#99ff99" fill-opacity="0.698039" stroke="black" cx="823" cy="-140.61" rx="94.5053" ry="26.7407"/>
<text text-anchor="middle" x="823" y="-144.41" font-family="Times,serif" font-size="14.00" fill="#000000">rpc</text>
<text text-anchor="middle" x="823" y="-129.41" font-family="Times,serif" font-size="14.00" fill="#000000">(simmanager.py:448)</text>
</g>
<!-- simmanager__MosaikRemote&#45;&gt;simmanager__MosaikRemote__rpc -->
<g id="edge25" class="edge"><title>simmanager__MosaikRemote&#45;&gt;simmanager__MosaikRemote__rpc</title>
<path fill="none" stroke="#838b8b" stroke-dasharray="5,2" d="M1352.32,-231.073C1224.58,-228.511 1004.16,-220.895 927,-198.48 906.133,-192.418 884.786,-181.681 866.905,-171.158"/>
<polygon fill="#838b8b" stroke="#838b8b" points="868.259,-167.886 857.892,-165.7 864.633,-173.873 868.259,-167.886"/>
</g>
<!-- simmanager__MosaikRemote__get_progress -->
<g id="node17" class="node"><title>simmanager__MosaikRemote__get_progress</title>
<ellipse fill="#99ff99" fill-opacity="0.698039" stroke="black" cx="1863" cy="-140.61" rx="94.5053" ry="26.7407"/>
<text text-anchor="middle" x="1863" y="-144.41" font-family="Times,serif" font-size="14.00" fill="#000000">get_progress</text>
<text text-anchor="middle" x="1863" y="-129.41" font-family="Times,serif" font-size="14.00" fill="#000000">(simmanager.py:456)</text>
</g>
<!-- simmanager__MosaikRemote&#45;&gt;simmanager__MosaikRemote__get_progress -->
<g id="edge23" class="edge"><title>simmanager__MosaikRemote&#45;&gt;simmanager__MosaikRemote__get_progress</title>
<path fill="none" stroke="#838b8b" stroke-dasharray="5,2" d="M1541.79,-231.635C1604.67,-228.852 1688.3,-220.68 1759,-198.48 1779.56,-192.023 1800.71,-181.329 1818.52,-170.947"/>
<polygon fill="#838b8b" stroke="#838b8b" points="1820.72,-173.707 1827.51,-165.57 1817.13,-167.7 1820.72,-173.707"/>
</g>
<!-- simmanager__MosaikRemote__get_related_entities -->
<g id="node18" class="node"><title>simmanager__MosaikRemote__get_related_entities</title>
<ellipse fill="#99ff99" fill-opacity="0.698039" stroke="black" cx="1655" cy="-140.61" rx="94.5053" ry="26.7407"/>
<text text-anchor="middle" x="1655" y="-144.41" font-family="Times,serif" font-size="14.00" fill="#000000">get_related_entities</text>
<text text-anchor="middle" x="1655" y="-129.41" font-family="Times,serif" font-size="14.00" fill="#000000">(simmanager.py:464)</text>
</g>
<!-- simmanager__MosaikRemote&#45;&gt;simmanager__MosaikRemote__get_related_entities -->
<g id="edge24" class="edge"><title>simmanager__MosaikRemote&#45;&gt;simmanager__MosaikRemote__get_related_entities</title>
<path fill="none" stroke="#838b8b" stroke-dasharray="5,2" d="M1511.22,-213.503C1524.54,-209.021 1538.36,-203.938 1551,-198.48 1569.82,-190.352 1589.75,-179.937 1607.06,-170.246"/>
<polygon fill="#838b8b" stroke="#838b8b" points="1608.89,-173.235 1615.86,-165.26 1605.44,-167.145 1608.89,-173.235"/>
</g>
<!-- simmanager__MosaikRemote__get_data -->
<g id="node19" class="node"><title>simmanager__MosaikRemote__get_data</title>
<ellipse fill="#99ff99" fill-opacity="0.698039" stroke="black" cx="1447" cy="-140.61" rx="94.5053" ry="26.7407"/>
<text text-anchor="middle" x="1447" y="-144.41" font-family="Times,serif" font-size="14.00" fill="#000000">get_data</text>
<text text-anchor="middle" x="1447" y="-129.41" font-family="Times,serif" font-size="14.00" fill="#000000">(simmanager.py:523)</text>
</g>
<!-- simmanager__MosaikRemote&#45;&gt;simmanager__MosaikRemote__get_data -->
<g id="edge27" class="edge"><title>simmanager__MosaikRemote&#45;&gt;simmanager__MosaikRemote__get_data</title>
<path fill="none" stroke="#838b8b" stroke-dasharray="5,2" d="M1447,-206.104C1447,-197.187 1447,-187.062 1447,-177.522"/>
<polygon fill="#838b8b" stroke="#838b8b" points="1450.5,-177.484 1447,-167.484 1443.5,-177.484 1450.5,-177.484"/>
</g>
<!-- simmanager__MosaikRemote___assert_async_requests -->
<g id="node20" class="node"><title>simmanager__MosaikRemote___assert_async_requests</title>
<ellipse fill="#99ff99" fill-opacity="0.698039" stroke="black" cx="1447" cy="-50.8701" rx="101.233" ry="26.7407"/>
<text text-anchor="middle" x="1447" y="-54.6701" font-family="Times,serif" font-size="14.00" fill="#000000">_assert_async_requests</text>
<text text-anchor="middle" x="1447" y="-39.6701" font-family="Times,serif" font-size="14.00" fill="#000000">(simmanager.py:606)</text>
</g>
<!-- simmanager__MosaikRemote&#45;&gt;simmanager__MosaikRemote___assert_async_requests -->
<g id="edge26" class="edge"><title>simmanager__MosaikRemote&#45;&gt;simmanager__MosaikRemote___assert_async_requests</title>
<path fill="none" stroke="#838b8b" stroke-dasharray="5,2" d="M1541.75,-231.374C1733.98,-228.926 2153.49,-221.018 2175,-198.48 2203.46,-168.665 2203.05,-135.942 2175,-105.74 2133.99,-61.579 1751.97,-53.3028 1558.37,-51.9653"/>
<polygon fill="#838b8b" stroke="#838b8b" points="1558.18,-48.4642 1548.16,-51.9001 1558.14,-55.464 1558.18,-48.4642"/>
</g>
<!-- simmanager__MosaikRemote__set_data -->
<g id="node21" class="node"><title>simmanager__MosaikRemote__set_data</title>
<ellipse fill="#99ff99" fill-opacity="0.698039" stroke="black" cx="1239" cy="-140.61" rx="94.5053" ry="26.7407"/>
<text text-anchor="middle" x="1239" y="-144.41" font-family="Times,serif" font-size="14.00" fill="#000000">set_data</text>
<text text-anchor="middle" x="1239" y="-129.41" font-family="Times,serif" font-size="14.00" fill="#000000">(simmanager.py:570)</text>
</g>
<!-- simmanager__MosaikRemote&#45;&gt;simmanager__MosaikRemote__set_data -->
<g id="edge29" class="edge"><title>simmanager__MosaikRemote&#45;&gt;simmanager__MosaikRemote__set_data</title>
<path fill="none" stroke="#838b8b" stroke-dasharray="5,2" d="M1382.78,-213.503C1369.46,-209.021 1355.64,-203.938 1343,-198.48 1324.18,-190.352 1304.25,-179.937 1286.94,-170.246"/>
<polygon fill="#838b8b" stroke="#838b8b" points="1288.56,-167.145 1278.14,-165.26 1285.11,-173.235 1288.56,-167.145"/>
</g>
<!-- simmanager__MosaikRemote__get_blocked_time -->
<g id="node22" class="node"><title>simmanager__MosaikRemote__get_blocked_time</title>
<ellipse fill="#99ff99" fill-opacity="0.698039" stroke="black" cx="2071" cy="-140.61" rx="94.5053" ry="26.7407"/>
<text text-anchor="middle" x="2071" y="-144.41" font-family="Times,serif" font-size="14.00" fill="#000000">get_blocked_time</text>
<text text-anchor="middle" x="2071" y="-129.41" font-family="Times,serif" font-size="14.00" fill="#000000">(simmanager.py:591)</text>
</g>
<!-- simmanager__MosaikRemote&#45;&gt;simmanager__MosaikRemote__get_blocked_time -->
<g id="edge30" class="edge"><title>simmanager__MosaikRemote&#45;&gt;simmanager__MosaikRemote__get_blocked_time</title>
<path fill="none" stroke="#838b8b" stroke-dasharray="5,2" d="M1541.68,-231.073C1669.42,-228.511 1889.84,-220.895 1967,-198.48 1987.87,-192.418 2009.21,-181.681 2027.09,-171.158"/>
<polygon fill="#838b8b" stroke="#838b8b" points="2029.37,-173.873 2036.11,-165.7 2025.74,-167.886 2029.37,-173.873"/>
</g>
<!-- simmanager__LocalProcess____init__&#45;&gt;simmanager__MosaikRemote -->
<g id="edge46" class="edge"><title>simmanager__LocalProcess____init__&#45;&gt;simmanager__MosaikRemote</title>
<path fill="none" stroke="black" d="M1387.6,-307.662C1397.49,-295.454 1409.47,-280.668 1420.08,-267.582"/>
<polygon fill="black" stroke="black" points="1422.89,-269.665 1426.47,-259.692 1417.45,-265.259 1422.89,-269.665"/>
</g>
<!-- simmanager__LocalProcess____init__&#45;&gt;simmanager__MosaikRemote____init__ -->
<g id="edge45" class="edge"><title>simmanager__LocalProcess____init__&#45;&gt;simmanager__MosaikRemote____init__</title>
<path fill="none" stroke="black" d="M1310.64,-312.355C1295.36,-307.389 1278.69,-302.563 1263,-299.22 1246.39,-295.683 1199.08,-303.153 1187,-291.22 1160.02,-264.574 1202.85,-234.228 1177,-206.48 1164.05,-192.577 1152.89,-204.894 1135,-198.48 1115.21,-191.382 1094.64,-180.889 1077.08,-170.843"/>
<polygon fill="black" stroke="black" points="1078.59,-167.671 1068.19,-165.65 1075.06,-173.715 1078.59,-167.671"/>
</g>
<!-- simmanager__LocalProcess____init__&#45;&gt;simmanager__SimProxy____init__ -->
<g id="edge44" class="edge"><title>simmanager__LocalProcess____init__&#45;&gt;simmanager__SimProxy____init__</title>
<path fill="none" stroke="black" d="M1310.94,-312.315C1295.58,-307.318 1278.81,-302.487 1263,-299.22 1225.41,-291.451 1215.21,-294.91 1177,-291.22 1012.06,-275.292 820.275,-255.91 707.073,-244.381"/>
<polygon fill="black" stroke="black" points="707.344,-240.891 697.041,-243.359 706.634,-247.855 707.344,-240.891"/>
</g>
<!-- simmanager__MosaikRemote__get_data&#45;&gt;simmanager__MosaikRemote___assert_async_requests -->
<g id="edge53" class="edge"><title>simmanager__MosaikRemote__get_data&#45;&gt;simmanager__MosaikRemote___assert_async_requests</title>
<path fill="none" stroke="black" d="M1447,-113.285C1447,-105.319 1447,-96.4275 1447,-87.9391"/>
<polygon fill="black" stroke="black" points="1450.5,-87.874 1447,-77.874 1443.5,-87.8741 1450.5,-87.874"/>
</g>
<!-- simmanager__MosaikRemote__set_data&#45;&gt;simmanager__MosaikRemote___assert_async_requests -->
<g id="edge54" class="edge"><title>simmanager__MosaikRemote__set_data&#45;&gt;simmanager__MosaikRemote___assert_async_requests</title>
<path fill="none" stroke="black" d="M1290.42,-117.922C1319.07,-105.833 1354.96,-90.6944 1385.15,-77.9613"/>
<polygon fill="black" stroke="black" points="1386.88,-81.0301 1394.73,-73.9186 1384.16,-74.5804 1386.88,-81.0301"/>
</g>
<!-- simmanager__RemoteProcess____init__&#45;&gt;simmanager__MosaikRemote -->
<g id="edge51" class="edge"><title>simmanager__RemoteProcess____init__&#45;&gt;simmanager__MosaikRemote</title>
<path fill="none" stroke="black" d="M173.287,-312.033C189.079,-306.837 206.518,-301.974 223,-299.22 277.036,-290.193 661.275,-293.791 716,-291.22 942.544,-280.58 1207.83,-257.204 1348.2,-243.974"/>
<polygon fill="black" stroke="black" points="1348.87,-247.426 1358.5,-243 1348.21,-240.457 1348.87,-247.426"/>
</g>
<!-- simmanager__RemoteProcess____init__&#45;&gt;simmanager__MosaikRemote____init__ -->
<g id="edge50" class="edge"><title>simmanager__RemoteProcess____init__&#45;&gt;simmanager__MosaikRemote____init__</title>
<path fill="none" stroke="black" d="M144.457,-307.869C149.221,-302.581 153.965,-296.884 158,-291.22 182.744,-256.49 166.575,-228.654 203,-206.48 220.179,-196.022 907.542,-203.568 927,-198.48 948.387,-192.889 970.138,-181.976 988.181,-171.193"/>
<polygon fill="black" stroke="black" points="990.042,-174.157 996.723,-165.933 986.372,-168.196 990.042,-174.157"/>
</g>
<!-- simmanager__RemoteProcess____init__&#45;&gt;simmanager__MosaikRemote__rpc -->
<g id="edge49" class="edge"><title>simmanager__RemoteProcess____init__&#45;&gt;simmanager__MosaikRemote__rpc</title>
<path fill="none" stroke="black" d="M122.84,-307.148C128.821,-277.086 143.501,-228.827 178,-206.48 203.089,-190.229 687.05,-205.925 716,-198.48 738.162,-192.781 760.808,-181.658 779.526,-170.749"/>
<polygon fill="black" stroke="black" points="781.33,-173.749 788.106,-165.605 777.73,-167.745 781.33,-173.749"/>
</g>
<!-- simmanager__RemoteProcess____init__&#45;&gt;simmanager__SimProxy____init__ -->
<g id="edge48" class="edge"><title>simmanager__RemoteProcess____init__&#45;&gt;simmanager__SimProxy____init__</title>
<path fill="none" stroke="black" d="M173.578,-312.074C189.299,-306.912 206.629,-302.058 223,-299.22 284.771,-288.515 444.486,-307.603 505,-291.22 526.338,-285.444 548.081,-274.501 566.131,-263.746"/>
<polygon fill="black" stroke="black" points="567.983,-266.716 574.678,-258.504 564.323,-260.749 567.983,-266.716"/>
</g>
<!-- simmanager__RemoteProcess__stop&#45;&gt;simmanager__SimProxy__stop -->
<g id="edge52" class="edge"><title>simmanager__RemoteProcess__stop&#45;&gt;simmanager__SimProxy__stop</title>
<path fill="none" stroke="black" d="M501.876,-308.683C483.918,-295.45 461.554,-278.97 442.449,-264.893"/>
<polygon fill="black" stroke="black" points="444.334,-261.934 434.207,-258.819 440.181,-267.569 444.334,-261.934"/>
</g>
<!-- simmanager__SimProxy____init__&#45;&gt;simmanager__SimProxy___check_model_and_meth_names -->
<g id="edge42" class="edge"><title>simmanager__SimProxy____init__&#45;&gt;simmanager__SimProxy___check_model_and_meth_names</title>
<path fill="none" stroke="black" d="M547.512,-212.886C533.494,-208.293 518.696,-203.321 505,-198.48 478.727,-189.194 450.082,-178.42 424.992,-168.763"/>
<polygon fill="black" stroke="black" points="426.152,-165.459 415.563,-165.122 423.631,-171.989 426.152,-165.459"/>
</g>
<!-- simmanager__SimProxy____init__&#45;&gt;simmanager__SimProxy___get_proxy -->
<g id="edge41" class="edge"><title>simmanager__SimProxy____init__&#45;&gt;simmanager__SimProxy___get_proxy</title>
<path fill="none" stroke="black" d="M609,-206.104C609,-197.187 609,-187.062 609,-177.522"/>
<polygon fill="black" stroke="black" points="612.5,-177.484 609,-167.484 605.5,-177.484 612.5,-177.484"/>
</g>
<!-- simmanager__make_proxy__greeter&#45;&gt;simmanager__RemoteProcess -->
<g id="edge40" class="edge"><title>simmanager__make_proxy__greeter&#45;&gt;simmanager__RemoteProcess</title>
<path fill="none" stroke="black" d="M535,-489.246C535,-481.279 535,-472.388 535,-463.9"/>
<polygon fill="black" stroke="black" points="538.5,-463.834 535,-453.835 531.5,-463.835 538.5,-463.834"/>
</g>
</g>
</svg>
