<?xml version="1.0" encoding="UTF-8" standalone="no"?>
<!DOCTYPE svg PUBLIC "-//W3C//DTD SVG 1.1//EN"
 "http://www.w3.org/Graphics/SVG/1.1/DTD/svg11.dtd">
<!-- Generated by graphviz version 2.38.0 (20140413.2041)
 -->
<!-- Title: G Pages: 1 -->
<svg width="667pt" height="217pt"
 viewBox="0.00 0.00 667.00 217.48" xmlns="http://www.w3.org/2000/svg" xmlns:xlink="http://www.w3.org/1999/xlink">
<g id="graph0" class="graph" transform="scale(1 1) rotate(0) translate(4 213.48)">
<title>G</title>
<polygon fill="white" stroke="none" points="-4,4 -4,-213.48 663,-213.48 663,4 -4,4"/>
<g id="clust1" class="cluster"><title>cluster_util</title>
<path fill="#808080" fill-opacity="0.094118" stroke="black" d="M20,-8C20,-8 639,-8 639,-8 645,-8 651,-14 651,-20 651,-20 651,-189.48 651,-189.48 651,-195.48 645,-201.48 639,-201.48 639,-201.48 20,-201.48 20,-201.48 14,-201.48 8,-195.48 8,-189.48 8,-189.48 8,-20 8,-20 8,-14 14,-8 20,-8"/>
<text text-anchor="middle" x="329.5" y="-186.28" font-family="Times,serif" font-size="14.00">util</text>
</g>
<g id="clust2" class="cluster"><title>cluster_util__sync_call</title>
<path fill="#808080" fill-opacity="0.094118" stroke="black" d="M529,-16C529,-16 631,-16 631,-16 637,-16 643,-22 643,-28 643,-28 643,-96.7401 643,-96.7401 643,-102.74 637,-108.74 631,-108.74 631,-108.74 529,-108.74 529,-108.74 523,-108.74 517,-102.74 517,-96.7401 517,-96.7401 517,-28 517,-28 517,-22 523,-16 529,-16"/>
<text text-anchor="middle" x="580" y="-93.5401" font-family="Times,serif" font-size="14.00">util.sync_call</text>
</g>
<!-- util__sync_process -->
<g id="node1" class="node"><title>util__sync_process</title>
<ellipse fill="#ccfecc" fill-opacity="0.698039" stroke="black" cx="444" cy="-50.8701" rx="62.8651" ry="26.7407"/>
<text text-anchor="middle" x="444" y="-54.6701" font-family="Times,serif" font-size="14.00" fill="#000000">sync_process</text>
<text text-anchor="middle" x="444" y="-39.6701" font-family="Times,serif" font-size="14.00" fill="#000000">(util.py:13)</text>
</g>
<!-- util__sync_call -->
<g id="node2" class="node"><title>util__sync_call</title>
<ellipse fill="#ccfecc" fill-opacity="0.698039" stroke="black" cx="566" cy="-143.61" rx="55.3091" ry="26.7407"/>
<text text-anchor="middle" x="566" y="-147.41" font-family="Times,serif" font-size="14.00" fill="#000000">sync_call</text>
<text text-anchor="middle" x="566" y="-132.41" font-family="Times,serif" font-size="14.00" fill="#000000">(util.py:47)</text>
</g>
<!-- util__sync_call&#45;&gt;util__sync_process -->
<g id="edge2" class="edge"><title>util__sync_call&#45;&gt;util__sync_process</title>
<path fill="none" stroke="black" d="M532.51,-122.074C525.945,-117.807 519.181,-113.237 513,-108.74 501.597,-100.443 489.598,-90.8737 478.862,-81.9792"/>
<polygon fill="black" stroke="black" points="480.844,-79.0745 470.929,-75.3414 476.352,-84.443 480.844,-79.0745"/>
</g>
<!-- util__sync_call__proc -->
<g id="node7" class="node"><title>util__sync_call__proc</title>
<ellipse fill="#99ff99" fill-opacity="0.698039" stroke="black" cx="580" cy="-50.8701" rx="55.3091" ry="26.7407"/>
<text text-anchor="middle" x="580" y="-54.6701" font-family="Times,serif" font-size="14.00" fill="#000000">proc</text>
<text text-anchor="middle" x="580" y="-39.6701" font-family="Times,serif" font-size="14.00" fill="#000000">(util.py:58)</text>
</g>
<!-- util__sync_call&#45;&gt;util__sync_call__proc -->
<g id="edge1" class="edge"><title>util__sync_call&#45;&gt;util__sync_call__proc</title>
<path fill="none" stroke="black" d="M570.049,-116.364C571.425,-107.447 572.987,-97.3223 574.459,-87.7819"/>
<polygon fill="black" stroke="black" points="577.942,-88.1603 576.008,-77.7435 571.024,-87.0929 577.942,-88.1603"/>
</g>
<!-- util__connect_many_to_one -->
<g id="node3" class="node"><title>util__connect_many_to_one</title>
<ellipse fill="#ccfecc" fill-opacity="0.698039" stroke="black" cx="380" cy="-143.61" rx="98.9899" ry="26.7407"/>
<text text-anchor="middle" x="380" y="-147.41" font-family="Times,serif" font-size="14.00" fill="#000000">connect_many_to_one</text>
<text text-anchor="middle" x="380" y="-132.41" font-family="Times,serif" font-size="14.00" fill="#000000">(util.py:71)</text>
</g>
<!-- util__connect_randomly -->
<g id="node4" class="node"><title>util__connect_randomly</title>
<ellipse fill="#ccfecc" fill-opacity="0.698039" stroke="black" cx="153" cy="-143.61" rx="83.3772" ry="26.7407"/>
<text text-anchor="middle" x="153" y="-147.41" font-family="Times,serif" font-size="14.00" fill="#000000">connect_randomly</text>
<text text-anchor="middle" x="153" y="-132.41" font-family="Times,serif" font-size="14.00" fill="#000000">(util.py:82)</text>
</g>
<!-- util___connect_evenly -->
<g id="node5" class="node"><title>util___connect_evenly</title>
<ellipse fill="#ccfecc" fill-opacity="0.698039" stroke="black" cx="92" cy="-50.8701" rx="76.2353" ry="26.7407"/>
<text text-anchor="middle" x="92" y="-54.6701" font-family="Times,serif" font-size="14.00" fill="#000000">_connect_evenly</text>
<text text-anchor="middle" x="92" y="-39.6701" font-family="Times,serif" font-size="14.00" fill="#000000">(util.py:128)</text>
</g>
<!-- util__connect_randomly&#45;&gt;util___connect_evenly -->
<g id="edge4" class="edge"><title>util__connect_randomly&#45;&gt;util___connect_evenly</title>
<path fill="none" stroke="black" d="M135.683,-116.85C129.189,-107.19 121.707,-96.0606 114.791,-85.773"/>
<polygon fill="black" stroke="black" points="117.633,-83.7266 109.149,-77.3802 111.824,-87.6319 117.633,-83.7266"/>
</g>
<!-- util___connect_randomly -->
<g id="node6" class="node"><title>util___connect_randomly</title>
<ellipse fill="#ccfecc" fill-opacity="0.698039" stroke="black" cx="275" cy="-50.8701" rx="88.2768" ry="26.7407"/>
<text text-anchor="middle" x="275" y="-54.6701" font-family="Times,serif" font-size="14.00" fill="#000000">_connect_randomly</text>
<text text-anchor="middle" x="275" y="-39.6701" font-family="Times,serif" font-size="14.00" fill="#000000">(util.py:144)</text>
</g>
<!-- util__connect_randomly&#45;&gt;util___connect_randomly -->
<g id="edge3" class="edge"><title>util__connect_randomly&#45;&gt;util___connect_randomly</title>
<path fill="none" stroke="black" d="M185.054,-118.769C200.084,-107.591 218.166,-94.1418 234.163,-82.2435"/>
<polygon fill="black" stroke="black" points="236.376,-84.9594 242.311,-76.183 232.199,-79.3426 236.376,-84.9594"/>
</g>
</g>
</svg>
