<?xml version="1.0" encoding="UTF-8" standalone="no"?>
<!DOCTYPE svg PUBLIC "-//W3C//DTD SVG 1.1//EN"
 "http://www.w3.org/Graphics/SVG/1.1/DTD/svg11.dtd">
<!-- Generated by graphviz version 2.38.0 (20140413.2041)
 -->
<!-- Title: G Pages: 1 -->
<svg width="704pt" height="253pt"
 viewBox="0.00 0.00 704.24 253.48" xmlns="http://www.w3.org/2000/svg" xmlns:xlink="http://www.w3.org/1999/xlink">
<g id="graph0" class="graph" transform="scale(1 1) rotate(0) translate(4 249.48)">
<title>G</title>
<polygon fill="white" stroke="none" points="-4,4 -4,-249.48 700.236,-249.48 700.236,4 -4,4"/>
<g id="clust1" class="cluster"><title>cluster_util</title>
<path fill="#808080" fill-opacity="0.094118" stroke="black" d="M20,-8C20,-8 639,-8 639,-8 645,-8 651,-14 651,-20 651,-20 651,-189.48 651,-189.48 651,-195.48 645,-201.48 639,-201.48 639,-201.48 20,-201.48 20,-201.48 14,-201.48 8,-195.48 8,-189.48 8,-189.48 8,-20 8,-20 8,-14 14,-8 20,-8"/>
<text text-anchor="middle" x="329.5" y="-186.28" font-family="Times,serif" font-size="14.00">util</text>
</g>
<g id="clust2" class="cluster"><title>cluster_util__sync_call</title>
<path fill="#808080" fill-opacity="0.094118" stroke="black" d="M529,-16C529,-16 631,-16 631,-16 637,-16 643,-22 643,-28 643,-28 643,-96.7401 643,-96.7401 643,-102.74 637,-108.74 631,-108.74 631,-108.74 529,-108.74 529,-108.74 523,-108.74 517,-102.74 517,-96.7401 517,-96.7401 517,-28 517,-28 517,-22 523,-16 529,-16"/>
<text text-anchor="middle" x="580" y="-93.5401" font-family="Times,serif" font-size="14.00">util.sync_call</text>
</g>
<!-- util -->
<g id="node1" class="node"><title>util</title>
<ellipse fill="#ffffff" fill-opacity="0.698039" stroke="black" cx="494" cy="-227.48" rx="27" ry="18"/>
<text text-anchor="middle" x="494" y="-223.78" font-family="Times,serif" font-size="14.00" fill="#000000">util</text>
</g>
<!-- util__sync_process -->
<g id="node2" class="node"><title>util__sync_process</title>
<ellipse fill="#ccfecc" fill-opacity="0.698039" stroke="black" cx="444" cy="-50.8701" rx="62.8651" ry="26.7407"/>
<text text-anchor="middle" x="444" y="-54.6701" font-family="Times,serif" font-size="14.00" fill="#000000">sync_process</text>
<text text-anchor="middle" x="444" y="-39.6701" font-family="Times,serif" font-size="14.00" fill="#000000">(util.py:13)</text>
</g>
<!-- util&#45;&gt;util__sync_process -->
<g id="edge4" class="edge"><title>util&#45;&gt;util__sync_process</title>
<path fill="none" stroke="#838b8b" stroke-dasharray="5,2" d="M466.743,-226.772C383.992,-227.374 139.849,-226.958 116,-201.48 90.2625,-173.984 89.788,-143.784 116,-116.74 125.903,-106.523 358.633,-113.618 372,-108.74 387.076,-103.239 401.437,-93.2594 413.311,-83.1786"/>
<polygon fill="#838b8b" stroke="#838b8b" points="415.969,-85.4993 421.113,-76.2372 411.315,-80.2697 415.969,-85.4993"/>
</g>
<!-- util__sync_call -->
<g id="node3" class="node"><title>util__sync_call</title>
<ellipse fill="#ccfecc" fill-opacity="0.698039" stroke="black" cx="580" cy="-143.61" rx="55.3091" ry="26.7407"/>
<text text-anchor="middle" x="580" y="-147.41" font-family="Times,serif" font-size="14.00" fill="#000000">sync_call</text>
<text text-anchor="middle" x="580" y="-132.41" font-family="Times,serif" font-size="14.00" fill="#000000">(util.py:47)</text>
</g>
<!-- util&#45;&gt;util__sync_call -->
<g id="edge6" class="edge"><title>util&#45;&gt;util__sync_call</title>
<path fill="none" stroke="#838b8b" stroke-dasharray="5,2" d="M508.98,-212.22C519.781,-201.937 534.759,-187.678 548.177,-174.905"/>
<polygon fill="#838b8b" stroke="#838b8b" points="550.605,-177.426 555.435,-167.996 545.779,-172.356 550.605,-177.426"/>
</g>
<!-- util__connect_many_to_one -->
<g id="node4" class="node"><title>util__connect_many_to_one</title>
<ellipse fill="#ccfecc" fill-opacity="0.698039" stroke="black" cx="408" cy="-143.61" rx="98.9899" ry="26.7407"/>
<text text-anchor="middle" x="408" y="-147.41" font-family="Times,serif" font-size="14.00" fill="#000000">connect_many_to_one</text>
<text text-anchor="middle" x="408" y="-132.41" font-family="Times,serif" font-size="14.00" fill="#000000">(util.py:71)</text>
</g>
<!-- util&#45;&gt;util__connect_many_to_one -->
<g id="edge1" class="edge"><title>util&#45;&gt;util__connect_many_to_one</title>
<path fill="none" stroke="#838b8b" stroke-dasharray="5,2" d="M479.02,-212.22C468.721,-202.416 454.625,-188.996 441.704,-176.696"/>
<polygon fill="#838b8b" stroke="#838b8b" points="443.926,-173.979 434.27,-169.619 439.1,-179.049 443.926,-173.979"/>
</g>
<!-- util__connect_randomly -->
<g id="node5" class="node"><title>util__connect_randomly</title>
<ellipse fill="#ccfecc" fill-opacity="0.698039" stroke="black" cx="208" cy="-143.61" rx="83.3772" ry="26.7407"/>
<text text-anchor="middle" x="208" y="-147.41" font-family="Times,serif" font-size="14.00" fill="#000000">connect_randomly</text>
<text text-anchor="middle" x="208" y="-132.41" font-family="Times,serif" font-size="14.00" fill="#000000">(util.py:82)</text>
</g>
<!-- util&#45;&gt;util__connect_randomly -->
<g id="edge3" class="edge"><title>util&#45;&gt;util__connect_randomly</title>
<path fill="none" stroke="#838b8b" stroke-dasharray="5,2" d="M466.811,-226.561C428.506,-225.882 356.968,-221.69 300,-201.48 281.783,-195.018 263.342,-184.557 247.801,-174.359"/>
<polygon fill="#838b8b" stroke="#838b8b" points="249.733,-171.44 239.486,-168.747 245.817,-177.243 249.733,-171.44"/>
</g>
<!-- util___connect_evenly -->
<g id="node6" class="node"><title>util___connect_evenly</title>
<ellipse fill="#ccfecc" fill-opacity="0.698039" stroke="black" cx="92" cy="-50.8701" rx="76.2353" ry="26.7407"/>
<text text-anchor="middle" x="92" y="-54.6701" font-family="Times,serif" font-size="14.00" fill="#000000">_connect_evenly</text>
<text text-anchor="middle" x="92" y="-39.6701" font-family="Times,serif" font-size="14.00" fill="#000000">(util.py:128)</text>
</g>
<!-- util&#45;&gt;util___connect_evenly -->
<g id="edge5" class="edge"><title>util&#45;&gt;util___connect_evenly</title>
<path fill="none" stroke="#838b8b" stroke-dasharray="5,2" d="M521.103,-225.994C559.967,-224.66 628.556,-219.711 644,-201.48 668.344,-172.743 670.402,-143.599 644,-116.74 634.924,-107.507 190.365,-112.575 178,-108.74 160.135,-103.2 142.527,-92.7077 127.941,-82.2289"/>
<polygon fill="#838b8b" stroke="#838b8b" points="129.831,-79.2726 119.723,-76.0982 125.646,-84.8833 129.831,-79.2726"/>
</g>
<!-- util___connect_randomly -->
<g id="node7" class="node"><title>util___connect_randomly</title>
<ellipse fill="#ccfecc" fill-opacity="0.698039" stroke="black" cx="275" cy="-50.8701" rx="88.2768" ry="26.7407"/>
<text text-anchor="middle" x="275" y="-54.6701" font-family="Times,serif" font-size="14.00" fill="#000000">_connect_randomly</text>
<text text-anchor="middle" x="275" y="-39.6701" font-family="Times,serif" font-size="14.00" fill="#000000">(util.py:144)</text>
</g>
<!-- util&#45;&gt;util___connect_randomly -->
<g id="edge2" class="edge"><title>util&#45;&gt;util___connect_randomly</title>
<path fill="none" stroke="#838b8b" stroke-dasharray="5,2" d="M521.314,-226.932C567.302,-227.043 657.129,-224.251 677,-201.48 701.763,-173.104 703.28,-143.718 677,-116.74 665.173,-104.598 388.298,-113.396 372,-108.74 352.02,-103.033 331.885,-92.2391 315.178,-81.576"/>
<polygon fill="#838b8b" stroke="#838b8b" points="317.049,-78.6175 306.773,-76.0393 313.199,-84.4632 317.049,-78.6175"/>
</g>
<!-- util__sync_call&#45;&gt;util__sync_process -->
<g id="edge9" class="edge"><title>util__sync_call&#45;&gt;util__sync_process</title>
<path fill="none" stroke="black" d="M540.566,-124.502C531.3,-119.753 521.62,-114.372 513,-108.74 500.869,-100.815 488.411,-91.1083 477.477,-81.9729"/>
<polygon fill="black" stroke="black" points="479.697,-79.2665 469.811,-75.4556 475.163,-84.5995 479.697,-79.2665"/>
</g>
<!-- util__sync_call__proc -->
<g id="node8" class="node"><title>util__sync_call__proc</title>
<ellipse fill="#99ff99" fill-opacity="0.698039" stroke="black" cx="580" cy="-50.8701" rx="55.3091" ry="26.7407"/>
<text text-anchor="middle" x="580" y="-54.6701" font-family="Times,serif" font-size="14.00" fill="#000000">proc</text>
<text text-anchor="middle" x="580" y="-39.6701" font-family="Times,serif" font-size="14.00" fill="#000000">(util.py:58)</text>
</g>
<!-- util__sync_call&#45;&gt;util__sync_call__proc -->
<g id="edge7" class="edge"><title>util__sync_call&#45;&gt;util__sync_call__proc</title>
<path fill="none" stroke="#838b8b" stroke-dasharray="5,2" d="M573.845,-116.85C573.263,-107.846 573.108,-97.5666 573.379,-87.8816"/>
<polygon fill="#838b8b" stroke="#838b8b" points="576.885,-87.8424 573.841,-77.6942 569.892,-87.5256 576.885,-87.8424"/>
</g>
<!-- util__sync_call&#45;&gt;util__sync_call__proc -->
<g id="edge8" class="edge"><title>util__sync_call&#45;&gt;util__sync_call__proc</title>
<path fill="none" stroke="black" d="M586.155,-116.85C586.737,-107.846 586.892,-97.5666 586.621,-87.8816"/>
<polygon fill="black" stroke="black" points="590.108,-87.5256 586.159,-77.6942 583.115,-87.8424 590.108,-87.5256"/>
</g>
<!-- util__connect_randomly&#45;&gt;util___connect_evenly -->
<g id="edge11" class="edge"><title>util__connect_randomly&#45;&gt;util___connect_evenly</title>
<path fill="none" stroke="black" d="M177.219,-118.532C162.947,-107.368 145.832,-93.98 130.697,-82.1404"/>
<polygon fill="black" stroke="black" points="132.556,-79.1507 122.523,-75.7462 128.243,-84.6643 132.556,-79.1507"/>
</g>
<!-- util__connect_randomly&#45;&gt;util___connect_randomly -->
<g id="edge10" class="edge"><title>util__connect_randomly&#45;&gt;util___connect_randomly</title>
<path fill="none" stroke="black" d="M226.663,-117.334C233.935,-107.486 242.375,-96.055 250.148,-85.5273"/>
<polygon fill="black" stroke="black" points="253.08,-87.4491 256.204,-77.3254 247.449,-83.2911 253.08,-87.4491"/>
</g>
</g>
</svg>
