<?xml version="1.0" encoding="UTF-8" standalone="no"?>
<!DOCTYPE svg PUBLIC "-//W3C//DTD SVG 1.1//EN"
 "http://www.w3.org/Graphics/SVG/1.1/DTD/svg11.dtd">
<!-- Generated by graphviz version 2.38.0 (20140413.2041)
 -->
<!-- Title: FlowChart Pages: 1 -->
<svg width="161pt" height="249pt"
 viewBox="2.88 2.88 157.88 245.88" xmlns="http://www.w3.org/2000/svg" xmlns:xlink="http://www.w3.org/1999/xlink">
<g id="graph0" class="graph" transform="scale(1 1) rotate(0) translate(6.88 241.88)">
<title>FlowChart</title>
<polygon fill="white" stroke="none" points="-4,4 -4,-239 151,-239 151,4 -4,4"/>
<!-- 1 -->
<g id="node1" class="node"><title>1</title>
<ellipse fill="black" stroke="black" cx="73.5" cy="-228" rx="7" ry="7"/>
</g>
<!-- 2 -->
<g id="node2" class="node"><title>2</title>
<polygon fill="none" stroke="#698b69" points="140,-210 7,-210 7,-122 140,-122 140,-210"/>
<text text-anchor="start" x="15" y="-198.8" font-family="Arial" font-size="9.00" fill="#698b69"> &quot;&quot;&quot; This module provides</text>
<text text-anchor="start" x="15" y="-188.8" font-family="Arial" font-size="9.00" fill="#698b69"> convenient access to all</text>
<text text-anchor="start" x="15" y="-178.8" font-family="Arial" font-size="9.00" fill="#698b69"> classes and functions</text>
<text text-anchor="start" x="15" y="-168.8" font-family="Arial" font-size="9.00" fill="#698b69"> required to create scenarios</text>
<text text-anchor="start" x="15" y="-158.8" font-family="Arial" font-size="9.00" fill="#698b69"> and run simulations.</text>
<text text-anchor="start" x="15" y="-148.8" font-family="Arial" font-size="9.00" fill="#698b69"> Currently, this is only</text>
<text text-anchor="start" x="15" y="-138.8" font-family="Arial" font-size="9.00" fill="#698b69"> :class:`mosaik.scenario</text>
<text text-anchor="start" x="15" y="-128.8" font-family="Arial" font-size="9.00" fill="#698b69"> .World`. &quot;&quot;&quot;</text>
</g>
<!-- 1&#45;&gt;2 -->
<g id="edge1" class="edge"><title>1&#45;&gt;2</title>
<path fill="none" stroke="black" d="M73.5,-220.579C73.5,-220.49 73.5,-220.401 73.5,-220.31"/>
<polygon fill="black" stroke="black" points="77.0001,-220.142 73.5,-210.142 70.0001,-220.142 77.0001,-220.142"/>
</g>
<!-- 5 -->
<g id="node3" class="node"><title>5</title>
<path fill="none" stroke="black" d="M115.833,-111C115.833,-111 31.1667,-111 31.1667,-111 26.3333,-111 21.5,-106.167 21.5,-101.333 21.5,-101.333 21.5,-91.6667 21.5,-91.6667 21.5,-86.8333 26.3333,-82 31.1667,-82 31.1667,-82 115.833,-82 115.833,-82 120.667,-82 125.5,-86.8333 125.5,-91.6667 125.5,-91.6667 125.5,-101.333 125.5,-101.333 125.5,-106.167 120.667,-111 115.833,-111"/>
<text text-anchor="middle" x="73.5" y="-99.3" font-family="Arial" font-size="9.00">from mosaik.scenario</text>
<text text-anchor="middle" x="73.5" y="-89.3" font-family="Arial" font-size="9.00">import World</text>
</g>
<!-- 2&#45;&gt;5 -->
<g id="edge2" class="edge"><title>2&#45;&gt;5</title>
<path fill="none" stroke="#698b69" stroke-dasharray="5,2" d="M73.5,-121.869C73.5,-121.63 73.5,-121.392 73.5,-121.154"/>
<polygon fill="#698b69" stroke="#698b69" points="77.0001,-121.139 73.5,-111.139 70.0001,-121.139 77.0001,-121.139"/>
</g>
<!-- 7 -->
<g id="node4" class="node"><title>7</title>
<path fill="none" stroke="black" d="M135,-71C135,-71 12,-71 12,-71 6,-71 0,-65 0,-59 0,-59 0,-45 0,-45 0,-39 6,-33 12,-33 12,-33 135,-33 135,-33 141,-33 147,-39 147,-45 147,-45 147,-59 147,-59 147,-65 141,-71 135,-71"/>
<text text-anchor="start" x="8" y="-59.8" font-family="Arial" font-size="9.00"> from mosaik import _version</text>
<text text-anchor="start" x="8" y="-49.8" font-family="Arial" font-size="9.00"> __version__ = _version.version</text>
<text text-anchor="start" x="8" y="-39.8" font-family="Arial" font-size="9.00"> __all__ = [&#39;World&#39;]</text>
</g>
<!-- 5&#45;&gt;7 -->
<g id="edge3" class="edge"><title>5&#45;&gt;7</title>
<path fill="none" stroke="black" d="M73.5,-81.5839C73.5,-81.481 73.5,-81.3779 73.5,-81.2745"/>
<polygon fill="black" stroke="black" points="77.0001,-81.2782 73.5,-71.2782 70.0001,-81.2782 77.0001,-81.2782"/>
</g>
<!-- 3 -->
<g id="node5" class="node"><title>3</title>
<ellipse fill="black" stroke="black" cx="73.5" cy="-11" rx="7" ry="7"/>
<ellipse fill="none" stroke="black" cx="73.5" cy="-11" rx="11" ry="11"/>
</g>
<!-- 7&#45;&gt;3 -->
<g id="edge4" class="edge"><title>7&#45;&gt;3</title>
<path fill="none" stroke="black" d="M73.5,-32.8701C73.5,-32.7557 73.5,-32.6413 73.5,-32.5268"/>
<polygon fill="black" stroke="black" points="77.0001,-32.2149 73.5,-22.2149 70.0001,-32.215 77.0001,-32.2149"/>
</g>
</g>
</svg>
