<?xml version="1.0" encoding="UTF-8" standalone="no"?>
<!DOCTYPE svg PUBLIC "-//W3C//DTD SVG 1.1//EN"
 "http://www.w3.org/Graphics/SVG/1.1/DTD/svg11.dtd">
<!-- Generated by graphviz version 2.38.0 (20140413.2041)
 -->
<!-- Title: FlowChart Pages: 1 -->
<svg width="1054pt" height="943pt"
 viewBox="2.88 2.88 1050.88 939.88" xmlns="http://www.w3.org/2000/svg" xmlns:xlink="http://www.w3.org/1999/xlink">
<g id="graph0" class="graph" transform="scale(1 1) rotate(0) translate(6.88 935.88)">
<title>FlowChart</title>
<polygon fill="white" stroke="none" points="-4,4 -4,-933 1044,-933 1044,4 -4,4"/>
<!-- 1 -->
<g id="node1" class="node"><title>1</title>
<ellipse fill="black" stroke="black" cx="75.5" cy="-922" rx="7" ry="7"/>
</g>
<!-- 2 -->
<g id="node2" class="node"><title>2</title>
<polygon fill="none" stroke="#698b69" points="141,-898 10,-898 10,-830 141,-830 141,-898"/>
<text text-anchor="start" x="18" y="-886.8" font-family="Arial" font-size="9.00" fill="#698b69"> &quot;&quot;&quot; This module allows you</text>
<text text-anchor="start" x="18" y="-876.8" font-family="Arial" font-size="9.00" fill="#698b69"> to activate some debugging</text>
<text text-anchor="start" x="18" y="-866.8" font-family="Arial" font-size="9.00" fill="#698b69"> functionality that makes</text>
<text text-anchor="start" x="18" y="-856.8" font-family="Arial" font-size="9.00" fill="#698b69"> mosaik collect more data</text>
<text text-anchor="start" x="18" y="-846.8" font-family="Arial" font-size="9.00" fill="#698b69"> when the simulation is</text>
<text text-anchor="start" x="18" y="-836.8" font-family="Arial" font-size="9.00" fill="#698b69"> being executed. &quot;&quot;&quot;</text>
</g>
<!-- 1&#45;&gt;2 -->
<g id="edge1" class="edge"><title>1&#45;&gt;2</title>
<path fill="none" stroke="black" d="M75.5,-914.576C75.5,-912.716 75.5,-910.533 75.5,-908.14"/>
<polygon fill="black" stroke="black" points="79.0001,-908.096 75.5,-898.096 72.0001,-908.096 79.0001,-908.096"/>
</g>
<!-- 5 -->
<g id="node3" class="node"><title>5</title>
<path fill="none" stroke="black" d="M106.833,-778.5C106.833,-778.5 44.1667,-778.5 44.1667,-778.5 39.3333,-778.5 34.5,-773.667 34.5,-768.833 34.5,-768.833 34.5,-759.167 34.5,-759.167 34.5,-754.333 39.3333,-749.5 44.1667,-749.5 44.1667,-749.5 106.833,-749.5 106.833,-749.5 111.667,-749.5 116.5,-754.333 116.5,-759.167 116.5,-759.167 116.5,-768.833 116.5,-768.833 116.5,-773.667 111.667,-778.5 106.833,-778.5"/>
<text text-anchor="middle" x="75.5" y="-766.8" font-family="Arial" font-size="9.00">from time import</text>
<text text-anchor="middle" x="75.5" y="-756.8" font-family="Arial" font-size="9.00">perf_counter</text>
</g>
<!-- 2&#45;&gt;5 -->
<g id="edge2" class="edge"><title>2&#45;&gt;5</title>
<path fill="none" stroke="#698b69" stroke-dasharray="5,2" d="M75.5,-829.822C75.5,-816.387 75.5,-801.175 75.5,-788.866"/>
<polygon fill="#698b69" stroke="#698b69" points="79.0001,-788.511 75.5,-778.511 72.0001,-788.511 79.0001,-788.511"/>
</g>
<!-- 7 -->
<g id="node4" class="node"><title>7</title>
<path fill="none" stroke="black" d="M141.333,-668.5C141.333,-668.5 9.66667,-668.5 9.66667,-668.5 4.83333,-668.5 0,-663.667 0,-658.833 0,-658.833 0,-649.167 0,-649.167 0,-644.333 4.83333,-639.5 9.66667,-639.5 9.66667,-639.5 141.333,-639.5 141.333,-639.5 146.167,-639.5 151,-644.333 151,-649.167 151,-649.167 151,-658.833 151,-658.833 151,-663.667 146.167,-668.5 141.333,-668.5"/>
<text text-anchor="start" x="8" y="-656.8" font-family="Arial" font-size="9.00"> from mosaik import scheduler</text>
<text text-anchor="start" x="8" y="-646.8" font-family="Arial" font-size="9.00"> _origs = { &#39;step&#39;: scheduler.step, }</text>
</g>
<!-- 5&#45;&gt;7 -->
<g id="edge3" class="edge"><title>5&#45;&gt;7</title>
<path fill="none" stroke="black" d="M75.5,-749.322C75.5,-731.55 75.5,-700.241 75.5,-678.598"/>
<polygon fill="black" stroke="black" points="79.0001,-678.567 75.5,-668.567 72.0001,-678.567 79.0001,-678.567"/>
</g>
<!-- 3 -->
<g id="node48" class="node"><title>3</title>
<ellipse fill="black" stroke="black" cx="75.5" cy="-569.5" rx="7" ry="7"/>
<ellipse fill="none" stroke="black" cx="75.5" cy="-569.5" rx="11" ry="11"/>
</g>
<!-- 7&#45;&gt;3 -->
<g id="edge4" class="edge"><title>7&#45;&gt;3</title>
<path fill="none" stroke="black" d="M75.5,-639.377C75.5,-626.248 75.5,-606.208 75.5,-591.123"/>
<polygon fill="black" stroke="black" points="79.0001,-590.751 75.5,-580.751 72.0001,-590.751 79.0001,-590.751"/>
</g>
<!-- 12 -->
<g id="node5" class="node"><title>12</title>
<ellipse fill="black" stroke="black" cx="197.5" cy="-922" rx="7" ry="7"/>
</g>
<!-- 13 -->
<g id="node6" class="node"><title>13</title>
<path fill="none" stroke="black" d="M220.833,-878.5C220.833,-878.5 174.167,-878.5 174.167,-878.5 169.333,-878.5 164.5,-873.667 164.5,-868.833 164.5,-868.833 164.5,-859.167 164.5,-859.167 164.5,-854.333 169.333,-849.5 174.167,-849.5 174.167,-849.5 220.833,-849.5 220.833,-849.5 225.667,-849.5 230.5,-854.333 230.5,-859.167 230.5,-859.167 230.5,-868.833 230.5,-868.833 230.5,-873.667 225.667,-878.5 220.833,-878.5"/>
<text text-anchor="middle" x="197.5" y="-861.8" font-family="Arial" font-size="9.00">def enable()</text>
</g>
<!-- 12&#45;&gt;13 -->
<g id="edge5" class="edge"><title>12&#45;&gt;13</title>
<path fill="none" stroke="black" d="M197.5,-914.576C197.5,-908.231 197.5,-898.134 197.5,-888.703"/>
<polygon fill="black" stroke="black" points="201,-888.574 197.5,-878.574 194,-888.574 201,-888.574"/>
</g>
<!-- 16 -->
<g id="node7" class="node"><title>16</title>
<polygon fill="none" stroke="#698b69" points="259.5,-793 135.5,-793 135.5,-735 259.5,-735 259.5,-793"/>
<text text-anchor="start" x="143.5" y="-781.8" font-family="Arial" font-size="9.00" fill="#698b69"> &quot;&quot;&quot;Wrap :func:`</text>
<text text-anchor="start" x="143.5" y="-771.8" font-family="Arial" font-size="9.00" fill="#698b69"> ~mosaik.scheduler.step()`</text>
<text text-anchor="start" x="143.5" y="-761.8" font-family="Arial" font-size="9.00" fill="#698b69"> to collect more data about</text>
<text text-anchor="start" x="143.5" y="-751.8" font-family="Arial" font-size="9.00" fill="#698b69"> the schedulerulation</text>
<text text-anchor="start" x="143.5" y="-741.8" font-family="Arial" font-size="9.00" fill="#698b69"> execution. &quot;&quot;&quot;</text>
</g>
<!-- 13&#45;&gt;16 -->
<g id="edge6" class="edge"><title>13&#45;&gt;16</title>
<path fill="none" stroke="black" d="M197.5,-849.374C197.5,-837.466 197.5,-819.591 197.5,-803.355"/>
<polygon fill="black" stroke="black" points="201,-803.001 197.5,-793.001 194,-803.001 201,-803.001"/>
</g>
<!-- 33 -->
<g id="node12" class="node"><title>33</title>
<path fill="none" stroke="black" d="M230.333,-668.5C230.333,-668.5 164.667,-668.5 164.667,-668.5 159.833,-668.5 155,-663.667 155,-658.833 155,-658.833 155,-649.167 155,-649.167 155,-644.333 159.833,-639.5 164.667,-639.5 164.667,-639.5 230.333,-639.5 230.333,-639.5 235.167,-639.5 240,-644.333 240,-649.167 240,-649.167 240,-658.833 240,-658.833 240,-663.667 235.167,-668.5 230.333,-668.5"/>
<text text-anchor="start" x="163" y="-656.8" font-family="Arial" font-size="9.00"> scheduler.step</text>
<text text-anchor="start" x="163" y="-646.8" font-family="Arial" font-size="9.00"> = wrapped_step</text>
</g>
<!-- 16&#45;&gt;33 -->
<g id="edge7" class="edge"><title>16&#45;&gt;33</title>
<path fill="none" stroke="#698b69" stroke-dasharray="5,2" d="M197.5,-734.906C197.5,-717.539 197.5,-695.487 197.5,-678.95"/>
<polygon fill="#698b69" stroke="#698b69" points="201,-678.508 197.5,-668.508 194,-678.508 201,-678.508"/>
</g>
<!-- 19 -->
<g id="node8" class="node"><title>19</title>
<ellipse fill="black" stroke="black" cx="367.5" cy="-922" rx="7" ry="7"/>
</g>
<!-- 20 -->
<g id="node9" class="node"><title>20</title>
<path fill="none" stroke="black" d="M416.833,-878.5C416.833,-878.5 318.167,-878.5 318.167,-878.5 313.333,-878.5 308.5,-873.667 308.5,-868.833 308.5,-868.833 308.5,-859.167 308.5,-859.167 308.5,-854.333 313.333,-849.5 318.167,-849.5 318.167,-849.5 416.833,-849.5 416.833,-849.5 421.667,-849.5 426.5,-854.333 426.5,-859.167 426.5,-859.167 426.5,-868.833 426.5,-868.833 426.5,-873.667 421.667,-878.5 416.833,-878.5"/>
<text text-anchor="middle" x="367.5" y="-866.8" font-family="Arial" font-size="9.00">def wrapped_step(world,</text>
<text text-anchor="middle" x="367.5" y="-856.8" font-family="Arial" font-size="9.00">sim, inputs)</text>
</g>
<!-- 19&#45;&gt;20 -->
<g id="edge8" class="edge"><title>19&#45;&gt;20</title>
<path fill="none" stroke="black" d="M367.5,-914.576C367.5,-908.231 367.5,-898.134 367.5,-888.703"/>
<polygon fill="black" stroke="black" points="371,-888.574 367.5,-878.574 364,-888.574 371,-888.574"/>
</g>
<!-- 24 -->
<g id="node10" class="node"><title>24</title>
<path fill="none" stroke="black" d="M459.5,-788C459.5,-788 275.5,-788 275.5,-788 269.5,-788 263.5,-782 263.5,-776 263.5,-776 263.5,-752 263.5,-752 263.5,-746 269.5,-740 275.5,-740 275.5,-740 459.5,-740 459.5,-740 465.5,-740 471.5,-746 471.5,-752 471.5,-752 471.5,-776 471.5,-776 471.5,-782 465.5,-788 459.5,-788"/>
<text text-anchor="start" x="271.5" y="-776.8" font-family="Arial" font-size="9.00"> pre_step(world, sim, inputs)</text>
<text text-anchor="start" x="271.5" y="-766.8" font-family="Arial" font-size="9.00"> ret = yield from _origs[&#39;step&#39;](world, sim, inputs)</text>
<text text-anchor="start" x="271.5" y="-756.8" font-family="Arial" font-size="9.00"> post_step(world, sim)</text>
<text text-anchor="start" x="271.5" y="-746.8" font-family="Arial" font-size="9.00"> return ret</text>
</g>
<!-- 20&#45;&gt;24 -->
<g id="edge9" class="edge"><title>20&#45;&gt;24</title>
<path fill="none" stroke="black" d="M367.5,-849.374C367.5,-836.307 367.5,-816.056 367.5,-798.668"/>
<polygon fill="black" stroke="black" points="371,-798.302 367.5,-788.302 364,-798.302 371,-798.302"/>
</g>
<!-- 21 -->
<g id="node11" class="node"><title>21</title>
<ellipse fill="black" stroke="black" cx="367.5" cy="-654" rx="7" ry="7"/>
<ellipse fill="none" stroke="black" cx="367.5" cy="-654" rx="11" ry="11"/>
</g>
<!-- 24&#45;&gt;21 -->
<g id="edge10" class="edge"><title>24&#45;&gt;21</title>
<path fill="none" stroke="black" d="M367.5,-739.831C367.5,-720.635 367.5,-693.621 367.5,-675.272"/>
<polygon fill="black" stroke="black" points="371,-675.114 367.5,-665.114 364,-675.114 371,-675.114"/>
</g>
<!-- 14 -->
<g id="node13" class="node"><title>14</title>
<ellipse fill="black" stroke="black" cx="197.5" cy="-569.5" rx="7" ry="7"/>
<ellipse fill="none" stroke="black" cx="197.5" cy="-569.5" rx="11" ry="11"/>
</g>
<!-- 33&#45;&gt;14 -->
<g id="edge11" class="edge"><title>33&#45;&gt;14</title>
<path fill="none" stroke="black" d="M197.5,-639.377C197.5,-626.248 197.5,-606.208 197.5,-591.123"/>
<polygon fill="black" stroke="black" points="201,-590.751 197.5,-580.751 194,-590.751 201,-590.751"/>
</g>
<!-- 36 -->
<g id="node14" class="node"><title>36</title>
<ellipse fill="black" stroke="black" cx="530.5" cy="-922" rx="7" ry="7"/>
</g>
<!-- 37 -->
<g id="node15" class="node"><title>37</title>
<path fill="none" stroke="black" d="M554.833,-878.5C554.833,-878.5 506.167,-878.5 506.167,-878.5 501.333,-878.5 496.5,-873.667 496.5,-868.833 496.5,-868.833 496.5,-859.167 496.5,-859.167 496.5,-854.333 501.333,-849.5 506.167,-849.5 506.167,-849.5 554.833,-849.5 554.833,-849.5 559.667,-849.5 564.5,-854.333 564.5,-859.167 564.5,-859.167 564.5,-868.833 564.5,-868.833 564.5,-873.667 559.667,-878.5 554.833,-878.5"/>
<text text-anchor="middle" x="530.5" y="-861.8" font-family="Arial" font-size="9.00">def disable()</text>
</g>
<!-- 36&#45;&gt;37 -->
<g id="edge12" class="edge"><title>36&#45;&gt;37</title>
<path fill="none" stroke="black" d="M530.5,-914.576C530.5,-908.231 530.5,-898.134 530.5,-888.703"/>
<polygon fill="black" stroke="black" points="534,-888.574 530.5,-878.574 527,-888.574 534,-888.574"/>
</g>
<!-- 40 -->
<g id="node16" class="node"><title>40</title>
<polygon fill="none" stroke="#698b69" points="585.5,-783 475.5,-783 475.5,-745 585.5,-745 585.5,-783"/>
<text text-anchor="start" x="483.5" y="-771.8" font-family="Arial" font-size="9.00" fill="#698b69"> &quot;&quot;&quot;Restore all wrapped</text>
<text text-anchor="start" x="483.5" y="-761.8" font-family="Arial" font-size="9.00" fill="#698b69"> functions to their</text>
<text text-anchor="start" x="483.5" y="-751.8" font-family="Arial" font-size="9.00" fill="#698b69"> original.&quot;&quot;&quot;</text>
</g>
<!-- 37&#45;&gt;40 -->
<g id="edge13" class="edge"><title>37&#45;&gt;40</title>
<path fill="none" stroke="black" d="M530.5,-849.374C530.5,-834.953 530.5,-811.781 530.5,-793.365"/>
<polygon fill="black" stroke="black" points="534,-793.175 530.5,-783.175 527,-793.175 534,-793.175"/>
</g>
<!-- 42 -->
<g id="node17" class="node"><title>42</title>
<path fill="none" stroke="#bf3eff" d="M556.833,-668.5C556.833,-668.5 504.167,-668.5 504.167,-668.5 499.333,-668.5 494.5,-663.667 494.5,-658.833 494.5,-658.833 494.5,-649.167 494.5,-649.167 494.5,-644.333 499.333,-639.5 504.167,-639.5 504.167,-639.5 556.833,-639.5 556.833,-639.5 561.667,-639.5 566.5,-644.333 566.5,-649.167 566.5,-649.167 566.5,-658.833 566.5,-658.833 566.5,-663.667 561.667,-668.5 556.833,-668.5"/>
<text text-anchor="middle" x="530.5" y="-656.8" font-family="Arial" font-size="9.00">for k, v in</text>
<text text-anchor="middle" x="530.5" y="-646.8" font-family="Arial" font-size="9.00">_origs.items()</text>
</g>
<!-- 40&#45;&gt;42 -->
<g id="edge14" class="edge"><title>40&#45;&gt;42</title>
<path fill="none" stroke="#698b69" stroke-dasharray="5,2" d="M530.5,-744.679C530.5,-726.501 530.5,-698.558 530.5,-678.699"/>
<polygon fill="#698b69" stroke="#698b69" points="534,-678.612 530.5,-668.612 527,-678.612 534,-678.612"/>
</g>
<!-- 48 -->
<g id="node18" class="node"><title>48</title>
<path fill="none" stroke="black" d="M573.333,-584C573.333,-584 487.667,-584 487.667,-584 482.833,-584 478,-579.167 478,-574.333 478,-574.333 478,-564.667 478,-564.667 478,-559.833 482.833,-555 487.667,-555 487.667,-555 573.333,-555 573.333,-555 578.167,-555 583,-559.833 583,-564.667 583,-564.667 583,-574.333 583,-574.333 583,-579.167 578.167,-584 573.333,-584"/>
<text text-anchor="middle" x="530.5" y="-567.3" font-family="Arial" font-size="9.00">setattr(scheduler, k, v)</text>
</g>
<!-- 42&#45;&gt;48 -->
<g id="edge16" class="edge"><title>42&#45;&gt;48</title>
<path fill="none" stroke="#bf3eff" d="M529.352,-639.377C528.978,-627.196 528.902,-609.067 529.124,-594.465"/>
<polygon fill="#bf3eff" stroke="#bf3eff" points="532.63,-594.218 529.351,-584.143 525.632,-594.064 532.63,-594.218"/>
</g>
<!-- 38 -->
<g id="node19" class="node"><title>38</title>
<ellipse fill="black" stroke="black" cx="598.5" cy="-569.5" rx="7" ry="7"/>
<ellipse fill="none" stroke="black" cx="598.5" cy="-569.5" rx="11" ry="11"/>
</g>
<!-- 42&#45;&gt;38 -->
<g id="edge15" class="edge"><title>42&#45;&gt;38</title>
<path fill="none" stroke="brown" d="M541.729,-639.377C553.712,-624.839 572.678,-601.828 585.35,-586.454"/>
<polygon fill="brown" stroke="brown" points="588.324,-588.349 591.984,-578.406 582.923,-583.896 588.324,-588.349"/>
<text text-anchor="middle" x="597.5" y="-594.8" font-family="Arial" font-size="9.00" fill="brown">[End for]</text>
</g>
<!-- 48&#45;&gt;42 -->
<g id="edge17" class="edge"><title>48&#45;&gt;42</title>
<path fill="none" stroke="black" d="M531.649,-584.143C532.022,-596.331 532.098,-614.462 531.876,-629.059"/>
<polygon fill="black" stroke="black" points="528.37,-629.302 531.648,-639.377 535.368,-629.457 528.37,-629.302"/>
</g>
<!-- 52 -->
<g id="node20" class="node"><title>52</title>
<ellipse fill="black" stroke="black" cx="661.5" cy="-922" rx="7" ry="7"/>
</g>
<!-- 53 -->
<g id="node21" class="node"><title>53</title>
<path fill="none" stroke="black" d="M699.333,-878.5C699.333,-878.5 623.667,-878.5 623.667,-878.5 618.833,-878.5 614,-873.667 614,-868.833 614,-868.833 614,-859.167 614,-859.167 614,-854.333 618.833,-849.5 623.667,-849.5 623.667,-849.5 699.333,-849.5 699.333,-849.5 704.167,-849.5 709,-854.333 709,-859.167 709,-859.167 709,-868.833 709,-868.833 709,-873.667 704.167,-878.5 699.333,-878.5"/>
<text text-anchor="middle" x="661.5" y="-866.8" font-family="Arial" font-size="9.00">def pre_step(world,</text>
<text text-anchor="middle" x="661.5" y="-856.8" font-family="Arial" font-size="9.00">sim, inputs)</text>
</g>
<!-- 52&#45;&gt;53 -->
<g id="edge18" class="edge"><title>52&#45;&gt;53</title>
<path fill="none" stroke="black" d="M661.5,-914.576C661.5,-908.231 661.5,-898.134 661.5,-888.703"/>
<polygon fill="black" stroke="black" points="665,-888.574 661.5,-878.574 658,-888.574 665,-888.574"/>
</g>
<!-- 56 -->
<g id="node22" class="node"><title>56</title>
<polygon fill="none" stroke="#698b69" points="723.5,-813 599.5,-813 599.5,-715 723.5,-715 723.5,-813"/>
<text text-anchor="start" x="607.5" y="-801.8" font-family="Arial" font-size="9.00" fill="#698b69"> &quot;&quot;&quot;Add a node for the</text>
<text text-anchor="start" x="607.5" y="-791.8" font-family="Arial" font-size="9.00" fill="#698b69"> current step and edges</text>
<text text-anchor="start" x="607.5" y="-781.8" font-family="Arial" font-size="9.00" fill="#698b69"> from all dependencies to</text>
<text text-anchor="start" x="607.5" y="-771.8" font-family="Arial" font-size="9.00" fill="#698b69"> the :attr:</text>
<text text-anchor="start" x="607.5" y="-761.8" font-family="Arial" font-size="9.00" fill="#698b69"> `mosaik.scenario.World</text>
<text text-anchor="start" x="607.5" y="-751.8" font-family="Arial" font-size="9.00" fill="#698b69"> .execution_graph`. Also</text>
<text text-anchor="start" x="607.5" y="-741.8" font-family="Arial" font-size="9.00" fill="#698b69"> perform some checks and</text>
<text text-anchor="start" x="607.5" y="-731.8" font-family="Arial" font-size="9.00" fill="#698b69"> annotate the graph with</text>
<text text-anchor="start" x="607.5" y="-721.8" font-family="Arial" font-size="9.00" fill="#698b69"> the dataflows. &quot;&quot;&quot;</text>
</g>
<!-- 53&#45;&gt;56 -->
<g id="edge19" class="edge"><title>53&#45;&gt;56</title>
<path fill="none" stroke="black" d="M661.5,-849.374C661.5,-842.269 661.5,-833.041 661.5,-823.304"/>
<polygon fill="black" stroke="black" points="665,-823.04 661.5,-813.04 658,-823.04 665,-823.04"/>
</g>
<!-- 58 -->
<g id="node23" class="node"><title>58</title>
<path fill="none" stroke="black" d="M740.5,-698C740.5,-698 582.5,-698 582.5,-698 576.5,-698 570.5,-692 570.5,-686 570.5,-686 570.5,-622 570.5,-622 570.5,-616 576.5,-610 582.5,-610 582.5,-610 740.5,-610 740.5,-610 746.5,-610 752.5,-616 752.5,-622 752.5,-622 752.5,-686 752.5,-686 752.5,-692 746.5,-698 740.5,-698"/>
<text text-anchor="start" x="578.5" y="-686.8" font-family="Arial" font-size="9.00"> eg = world.execution_graph</text>
<text text-anchor="start" x="578.5" y="-676.8" font-family="Arial" font-size="9.00"> sims = world.sims</text>
<text text-anchor="start" x="578.5" y="-666.8" font-family="Arial" font-size="9.00"> sid = sim.sid</text>
<text text-anchor="start" x="578.5" y="-656.8" font-family="Arial" font-size="9.00"> next_step = sim.next_step</text>
<text text-anchor="start" x="578.5" y="-646.8" font-family="Arial" font-size="9.00"> node = &#39;%s&#45;%s&#39;</text>
<text text-anchor="start" x="578.5" y="-636.8" font-family="Arial" font-size="9.00"> node_id = node % (sid, next_step)</text>
<text text-anchor="start" x="578.5" y="-626.8" font-family="Arial" font-size="9.00"> eg.add_node(node_id, t=perf_counter(),</text>
<text text-anchor="start" x="578.5" y="-616.8" font-family="Arial" font-size="9.00"> inputs=inputs)</text>
</g>
<!-- 56&#45;&gt;58 -->
<g id="edge20" class="edge"><title>56&#45;&gt;58</title>
<path fill="none" stroke="#698b69" stroke-dasharray="5,2" d="M661.5,-714.686C661.5,-712.536 661.5,-710.374 661.5,-708.213"/>
<polygon fill="#698b69" stroke="#698b69" points="665,-708.167 661.5,-698.167 658,-708.167 665,-708.167"/>
</g>
<!-- 72 -->
<g id="node24" class="node"><title>72</title>
<polygon fill="none" stroke="black" points="661.5,-575.5 655.5,-569.5 661.5,-563.5 667.5,-569.5 661.5,-575.5"/>
</g>
<!-- 58&#45;&gt;72 -->
<g id="edge21" class="edge"><title>58&#45;&gt;72</title>
<path fill="none" stroke="black" d="M661.5,-609.817C661.5,-601.133 661.5,-592.563 661.5,-585.652"/>
<polygon fill="black" stroke="black" points="665,-585.598 661.5,-575.598 658,-585.599 665,-585.598"/>
</g>
<!-- 73 -->
<g id="node25" class="node"><title>73</title>
<polygon fill="none" stroke="black" points="643.5,-483 637.5,-477 643.5,-471 649.5,-477 643.5,-483"/>
</g>
<!-- 72&#45;&gt;73 -->
<g id="edge22" class="edge"><title>72&#45;&gt;73</title>
<path fill="none" stroke="#cd0000" d="M658.17,-566.547C650.019,-561.546 629.177,-547.37 621.5,-529 616.53,-517.108 616.568,-511.908 621.5,-500 623.699,-494.692 627.869,-489.996 631.992,-486.321"/>
<polygon fill="#cd0000" stroke="#cd0000" points="634.351,-488.923 640.161,-480.063 630.094,-483.366 634.351,-488.923"/>
<text text-anchor="middle" x="630" y="-512.3" font-family="Arial" font-size="9.00" fill="#cd0000">[No]</text>
</g>
<!-- 77 -->
<g id="node27" class="node"><title>77</title>
<path fill="none" stroke="black" d="M758.833,-529C758.833,-529 650.167,-529 650.167,-529 645.333,-529 640.5,-524.167 640.5,-519.333 640.5,-519.333 640.5,-509.667 640.5,-509.667 640.5,-504.833 645.333,-500 650.167,-500 650.167,-500 758.833,-500 758.833,-500 763.667,-500 768.5,-504.833 768.5,-509.667 768.5,-509.667 768.5,-519.333 768.5,-519.333 768.5,-524.167 763.667,-529 758.833,-529"/>
<text text-anchor="start" x="648.5" y="-517.3" font-family="Arial" font-size="9.00"> eg.add_edge(node % (sid,</text>
<text text-anchor="start" x="648.5" y="-507.3" font-family="Arial" font-size="9.00"> sim.last_step), node_id)</text>
</g>
<!-- 72&#45;&gt;77 -->
<g id="edge23" class="edge"><title>72&#45;&gt;77</title>
<path fill="none" stroke="darkgreen" d="M663.812,-565.65C668.149,-560.305 677.868,-548.325 686.72,-537.415"/>
<polygon fill="darkgreen" stroke="darkgreen" points="689.634,-539.379 693.216,-529.408 684.198,-534.968 689.634,-539.379"/>
<text text-anchor="middle" x="697.5" y="-539.8" font-family="Arial" font-size="9.00" fill="darkgreen">[Yes]</text>
</g>
<!-- 80 -->
<g id="node28" class="node"><title>80</title>
<path fill="none" stroke="#bf3eff" d="M677.5,-454C677.5,-454 609.5,-454 609.5,-454 603.5,-454 597.5,-448 597.5,-442 597.5,-442 597.5,-428 597.5,-428 597.5,-422 603.5,-416 609.5,-416 609.5,-416 677.5,-416 677.5,-416 683.5,-416 689.5,-422 689.5,-428 689.5,-428 689.5,-442 689.5,-442 689.5,-448 683.5,-454 677.5,-454"/>
<text text-anchor="middle" x="643.5" y="-442.8" font-family="Arial" font-size="9.00">for pre in</text>
<text text-anchor="middle" x="643.5" y="-432.8" font-family="Arial" font-size="9.00">world.df_graph</text>
<text text-anchor="middle" x="643.5" y="-422.8" font-family="Arial" font-size="9.00">.predecessors(sid)</text>
</g>
<!-- 73&#45;&gt;80 -->
<g id="edge24" class="edge"><title>73&#45;&gt;80</title>
<path fill="none" stroke="black" d="M643.5,-470.771C643.5,-468.984 643.5,-466.842 643.5,-464.51"/>
<polygon fill="black" stroke="black" points="647,-464.281 643.5,-454.281 640,-464.281 647,-464.281"/>
</g>
<!-- 74 -->
<g id="node26" class="node"><title>74</title>
<polygon fill="none" stroke="darkgreen" points="846.5,-668 756.5,-668 756.5,-640 846.5,-640 846.5,-668"/>
<text text-anchor="middle" x="801.5" y="-656.8" font-family="Arial" font-size="9.00" fill="darkgreen">«DecisionInput»</text>
<text text-anchor="middle" x="801.5" y="-646.8" font-family="Arial" font-size="9.00" fill="darkgreen">sim.last_step &gt;= 0</text>
</g>
<!-- 74&#45;&gt;72 -->
<g id="edge25" class="edge"><title>74&#45;&gt;72</title>
<path fill="none" stroke="#698b69" stroke-dasharray="5,2" d="M788.679,-639.739C779.283,-630.547 765.884,-618.482 752.5,-610 721.369,-590.269 678.695,-575.924 665.531,-571.748"/>
</g>
<!-- 77&#45;&gt;73 -->
<g id="edge26" class="edge"><title>77&#45;&gt;73</title>
<path fill="none" stroke="black" d="M681.09,-499.876C672.422,-494.832 662.945,-489.316 655.675,-485.085"/>
<polygon fill="black" stroke="black" points="657.358,-482.015 646.954,-480.01 653.837,-488.065 657.358,-482.015"/>
</g>
<!-- 86 -->
<g id="node29" class="node"><title>86</title>
<path fill="none" stroke="black" d="M746.5,-390C746.5,-390 540.5,-390 540.5,-390 534.5,-390 528.5,-384 528.5,-378 528.5,-378 528.5,-364 528.5,-364 528.5,-358 534.5,-352 540.5,-352 540.5,-352 746.5,-352 746.5,-352 752.5,-352 758.5,-358 758.5,-364 758.5,-364 758.5,-378 758.5,-378 758.5,-384 752.5,-390 746.5,-390"/>
<text text-anchor="start" x="536.5" y="-378.8" font-family="Arial" font-size="9.00"> pre_node = node % (pre, sims[pre].last_step)</text>
<text text-anchor="start" x="536.5" y="-368.8" font-family="Arial" font-size="9.00"> eg.add_edge(pre_node, node_id)</text>
<text text-anchor="start" x="536.5" y="-358.8" font-family="Arial" font-size="9.00"> assert eg.node[pre_node][&#39;t&#39;] &lt;= eg.node[node_id][&#39;t&#39;]</text>
</g>
<!-- 80&#45;&gt;86 -->
<g id="edge28" class="edge"><title>80&#45;&gt;86</title>
<path fill="none" stroke="#bf3eff" d="M642.119,-415.733C642.025,-410.983 641.987,-405.749 642.004,-400.604"/>
<polygon fill="#bf3eff" stroke="#bf3eff" points="645.506,-400.388 642.117,-390.35 638.507,-400.311 645.506,-400.388"/>
</g>
<!-- 93 -->
<g id="node30" class="node"><title>93</title>
<path fill="none" stroke="black" d="M827.333,-385.5C827.333,-385.5 771.667,-385.5 771.667,-385.5 766.833,-385.5 762,-380.667 762,-375.833 762,-375.833 762,-366.167 762,-366.167 762,-361.333 766.833,-356.5 771.667,-356.5 771.667,-356.5 827.333,-356.5 827.333,-356.5 832.167,-356.5 837,-361.333 837,-366.167 837,-366.167 837,-375.833 837,-375.833 837,-380.667 832.167,-385.5 827.333,-385.5"/>
<text text-anchor="middle" x="799.5" y="-368.8" font-family="Arial" font-size="9.00">next_steps = []</text>
</g>
<!-- 80&#45;&gt;93 -->
<g id="edge27" class="edge"><title>80&#45;&gt;93</title>
<path fill="none" stroke="brown" d="M689.69,-416.612C710.483,-408.671 735.297,-399.039 757.5,-390 757.817,-389.871 758.135,-389.741 758.454,-389.611"/>
<polygon fill="brown" stroke="brown" points="760.01,-392.754 767.904,-385.688 757.326,-386.289 760.01,-392.754"/>
<text text-anchor="middle" x="753.5" y="-400.8" font-family="Arial" font-size="9.00" fill="brown">[End for]</text>
</g>
<!-- 86&#45;&gt;80 -->
<g id="edge29" class="edge"><title>86&#45;&gt;80</title>
<path fill="none" stroke="black" d="M644.883,-390.35C644.976,-395.107 645.014,-400.343 644.996,-405.487"/>
<polygon fill="black" stroke="black" points="641.493,-405.695 644.881,-415.733 648.493,-405.773 641.493,-405.695"/>
</g>
<!-- 95 -->
<g id="node31" class="node"><title>95</title>
<path fill="none" stroke="#bf3eff" d="M829,-335C829,-335 770,-335 770,-335 764,-335 758,-329 758,-323 758,-323 758,-309 758,-309 758,-303 764,-297 770,-297 770,-297 829,-297 829,-297 835,-297 841,-303 841,-309 841,-309 841,-323 841,-323 841,-329 835,-335 829,-335"/>
<text text-anchor="middle" x="799.5" y="-323.8" font-family="Arial" font-size="9.00">for suc in</text>
<text text-anchor="middle" x="799.5" y="-313.8" font-family="Arial" font-size="9.00">world.df_graph</text>
<text text-anchor="middle" x="799.5" y="-303.8" font-family="Arial" font-size="9.00">.successors(sid)</text>
</g>
<!-- 93&#45;&gt;95 -->
<g id="edge30" class="edge"><title>93&#45;&gt;95</title>
<path fill="none" stroke="black" d="M799.5,-356.351C799.5,-352.897 799.5,-349.058 799.5,-345.171"/>
<polygon fill="black" stroke="black" points="803,-345.001 799.5,-335.001 796,-345.001 803,-345.001"/>
</g>
<!-- 97 -->
<g id="node32" class="node"><title>97</title>
<polygon fill="none" stroke="#698b69" points="789,-271 508,-271 508,-233 789,-233 789,-271"/>
<text text-anchor="start" x="516" y="-259.8" font-family="Arial" font-size="9.00" fill="#698b69"> The next step of at least one successor must be &gt;= our next_step</text>
<text text-anchor="start" x="516" y="-249.8" font-family="Arial" font-size="9.00" fill="#698b69"> (that</text>
<text text-anchor="start" x="516" y="-239.8" font-family="Arial" font-size="9.00" fill="#698b69"> we are going to execute).</text>
</g>
<!-- 95&#45;&gt;97 -->
<g id="edge31" class="edge"><title>95&#45;&gt;97</title>
<path fill="none" stroke="brown" d="M757.839,-297.894C740.518,-290.782 720.202,-282.441 701.813,-274.89"/>
<polygon fill="brown" stroke="brown" points="702.978,-271.585 692.398,-271.024 700.319,-278.06 702.978,-271.585"/>
<text text-anchor="middle" x="750.5" y="-281.8" font-family="Arial" font-size="9.00" fill="brown">[End for]</text>
</g>
<!-- 101 -->
<g id="node33" class="node"><title>101</title>
<polygon fill="none" stroke="black" points="799.5,-258 793.5,-252 799.5,-246 805.5,-252 799.5,-258"/>
</g>
<!-- 95&#45;&gt;101 -->
<g id="edge32" class="edge"><title>95&#45;&gt;101</title>
<path fill="none" stroke="#bf3eff" d="M799.5,-296.733C799.5,-287.702 799.5,-276.925 799.5,-268.329"/>
<polygon fill="#bf3eff" stroke="#bf3eff" points="803,-268.041 799.5,-258.041 796,-268.041 803,-268.041"/>
</g>
<!-- 116 -->
<g id="node38" class="node"><title>116</title>
<polygon fill="none" stroke="black" points="648.5,-194 642.5,-188 648.5,-182 654.5,-188 648.5,-194"/>
</g>
<!-- 97&#45;&gt;116 -->
<g id="edge33" class="edge"><title>97&#45;&gt;116</title>
<path fill="none" stroke="#698b69" stroke-dasharray="5,2" d="M648.5,-232.733C648.5,-223.702 648.5,-212.925 648.5,-204.329"/>
<polygon fill="#698b69" stroke="#698b69" points="652,-204.041 648.5,-194.041 645,-204.041 652,-204.041"/>
</g>
<!-- 102 -->
<g id="node34" class="node"><title>102</title>
<polygon fill="none" stroke="black" points="799.5,-120 793.5,-114 799.5,-108 805.5,-114 799.5,-120"/>
</g>
<!-- 101&#45;&gt;102 -->
<g id="edge34" class="edge"><title>101&#45;&gt;102</title>
<path fill="none" stroke="#cd0000" d="M798.366,-247.066C796.967,-242.927 794.178,-236.534 789.5,-233 749.068,-202.462 709.979,-246.704 678.5,-207 668.008,-193.766 669.308,-183.168 678.5,-169 702.387,-132.183 757.872,-120.25 784.593,-116.56"/>
<polygon fill="#cd0000" stroke="#cd0000" points="785.104,-120.024 794.629,-115.385 784.289,-113.072 785.104,-120.024"/>
<text text-anchor="middle" x="687" y="-185.8" font-family="Arial" font-size="9.00" fill="#cd0000">[No]</text>
</g>
<!-- 106 -->
<g id="node36" class="node"><title>106</title>
<path fill="none" stroke="black" d="M889.5,-207C889.5,-207 709.5,-207 709.5,-207 703.5,-207 697.5,-201 697.5,-195 697.5,-195 697.5,-181 697.5,-181 697.5,-175 703.5,-169 709.5,-169 709.5,-169 889.5,-169 889.5,-169 895.5,-169 901.5,-175 901.5,-181 901.5,-181 901.5,-195 901.5,-195 901.5,-201 895.5,-207 889.5,-207"/>
<text text-anchor="start" x="705.5" y="-195.8" font-family="Arial" font-size="9.00"> suc_node = node % (suc, sims[suc].last_step)</text>
<text text-anchor="start" x="705.5" y="-185.8" font-family="Arial" font-size="9.00"> eg.add_edge(suc_node, node_id)</text>
<text text-anchor="start" x="705.5" y="-175.8" font-family="Arial" font-size="9.00"> assert sims[suc].next_step &gt;= next_step</text>
</g>
<!-- 101&#45;&gt;106 -->
<g id="edge35" class="edge"><title>101&#45;&gt;106</title>
<path fill="none" stroke="darkgreen" d="M799.5,-245.714C799.5,-239.323 799.5,-228.075 799.5,-217.272"/>
<polygon fill="darkgreen" stroke="darkgreen" points="803,-217.225 799.5,-207.225 796,-217.225 803,-217.225"/>
<text text-anchor="middle" x="809.5" y="-217.8" font-family="Arial" font-size="9.00" fill="darkgreen">[Yes]</text>
</g>
<!-- 113 -->
<g id="node37" class="node"><title>113</title>
<path fill="none" stroke="black" d="M939.333,-68C939.333,-68 821.667,-68 821.667,-68 816.833,-68 812,-63.1667 812,-58.3333 812,-58.3333 812,-48.6667 812,-48.6667 812,-43.8333 816.833,-39 821.667,-39 821.667,-39 939.333,-39 939.333,-39 944.167,-39 949,-43.8333 949,-48.6667 949,-48.6667 949,-58.3333 949,-58.3333 949,-63.1667 944.167,-68 939.333,-68"/>
<text text-anchor="start" x="820" y="-56.3" font-family="Arial" font-size="9.00"> next_steps.append(sims[suc]</text>
<text text-anchor="start" x="820" y="-46.3" font-family="Arial" font-size="9.00"> .next_step)</text>
</g>
<!-- 102&#45;&gt;113 -->
<g id="edge36" class="edge"><title>102&#45;&gt;113</title>
<path fill="none" stroke="black" d="M802.576,-110.778C810.846,-104.806 834.215,-87.9281 853.221,-74.2017"/>
<polygon fill="black" stroke="black" points="855.519,-76.8595 861.576,-68.1672 851.42,-71.1847 855.519,-76.8595"/>
</g>
<!-- 103 -->
<g id="node35" class="node"><title>103</title>
<polygon fill="none" stroke="darkgreen" points="754,-330 475,-330 475,-302 754,-302 754,-330"/>
<text text-anchor="middle" x="614.5" y="-318.8" font-family="Arial" font-size="9.00" fill="darkgreen">«DecisionInput»</text>
<text text-anchor="middle" x="614.5" y="-308.8" font-family="Arial" font-size="9.00" fill="darkgreen">world.df_graph[sid][suc][&#39;async_requests&#39;] and sim.last_step &gt;= 0</text>
</g>
<!-- 103&#45;&gt;101 -->
<g id="edge37" class="edge"><title>103&#45;&gt;101</title>
<path fill="none" stroke="#698b69" stroke-dasharray="5,2" d="M645.008,-301.861C664.526,-293.999 690.583,-284.497 714.5,-279 730.835,-275.246 775.526,-280.255 789.5,-271 794.388,-267.763 797.117,-261.286 798.448,-257.049"/>
</g>
<!-- 106&#45;&gt;102 -->
<g id="edge38" class="edge"><title>106&#45;&gt;102</title>
<path fill="none" stroke="black" d="M799.5,-168.831C799.5,-156.961 799.5,-141.631 799.5,-130.368"/>
<polygon fill="black" stroke="black" points="803,-130.099 799.5,-120.099 796,-130.099 803,-130.099"/>
</g>
<!-- 113&#45;&gt;95 -->
<g id="edge39" class="edge"><title>113&#45;&gt;95</title>
<path fill="none" stroke="black" d="M891.245,-68.0527C899.142,-79.3871 908.5,-96.3357 908.5,-113 908.5,-253 908.5,-253 908.5,-253 908.5,-281.92 879.151,-297.521 850.912,-305.838"/>
<polygon fill="black" stroke="black" points="849.774,-302.519 841.019,-308.486 851.584,-309.281 849.774,-302.519"/>
</g>
<!-- 117 -->
<g id="node39" class="node"><title>117</title>
<polygon fill="none" stroke="black" points="637.5,-59.5 631.5,-53.5 637.5,-47.5 643.5,-53.5 637.5,-59.5"/>
</g>
<!-- 116&#45;&gt;117 -->
<g id="edge40" class="edge"><title>116&#45;&gt;117</title>
<path fill="none" stroke="#cd0000" d="M649.198,-182.265C651.219,-167.63 656.495,-121.886 649.5,-85 648.342,-78.8923 645.987,-72.4429 643.667,-67.0558"/>
<polygon fill="#cd0000" stroke="#cd0000" points="646.794,-65.48 639.351,-57.9396 640.467,-68.4755 646.794,-65.48"/>
<text text-anchor="middle" x="662" y="-111.8" font-family="Arial" font-size="9.00" fill="#cd0000">[No]</text>
</g>
<!-- 121 -->
<g id="node41" class="node"><title>121</title>
<path fill="none" stroke="black" d="M637.5,-143C637.5,-143 535.5,-143 535.5,-143 529.5,-143 523.5,-137 523.5,-131 523.5,-131 523.5,-97 523.5,-97 523.5,-91 529.5,-85 535.5,-85 535.5,-85 637.5,-85 637.5,-85 643.5,-85 649.5,-91 649.5,-97 649.5,-97 649.5,-131 649.5,-131 649.5,-137 643.5,-143 637.5,-143"/>
<text text-anchor="start" x="531.5" y="-131.8" font-family="Arial" font-size="9.00"> assert max(next_steps) &gt;=</text>
<text text-anchor="start" x="531.5" y="-121.8" font-family="Arial" font-size="9.00"> next_step, ( &#39;&quot;next_step&quot;</text>
<text text-anchor="start" x="531.5" y="-111.8" font-family="Arial" font-size="9.00"> of all successors of &quot;%s&quot;</text>
<text text-anchor="start" x="531.5" y="-101.8" font-family="Arial" font-size="9.00"> is &lt; %s&#39; % (sid,</text>
<text text-anchor="start" x="531.5" y="-91.8" font-family="Arial" font-size="9.00"> next_step))</text>
</g>
<!-- 116&#45;&gt;121 -->
<g id="edge41" class="edge"><title>116&#45;&gt;121</title>
<path fill="none" stroke="darkgreen" d="M646.145,-184.265C641.218,-178.544 629.289,-164.69 617.383,-150.864"/>
<polygon fill="darkgreen" stroke="darkgreen" points="619.992,-148.531 610.815,-143.237 614.688,-153.098 619.992,-148.531"/>
<text text-anchor="middle" x="635.5" y="-153.8" font-family="Arial" font-size="9.00" fill="darkgreen">[Yes]</text>
</g>
<!-- 54 -->
<g id="node42" class="node"><title>54</title>
<ellipse fill="black" stroke="black" cx="637.5" cy="-11" rx="7" ry="7"/>
<ellipse fill="none" stroke="black" cx="637.5" cy="-11" rx="11" ry="11"/>
</g>
<!-- 117&#45;&gt;54 -->
<g id="edge42" class="edge"><title>117&#45;&gt;54</title>
<path fill="none" stroke="black" d="M637.5,-47.2053C637.5,-43.3378 637.5,-37.8259 637.5,-32.3083"/>
<polygon fill="black" stroke="black" points="641,-32.1219 637.5,-22.1219 634,-32.1219 641,-32.1219"/>
</g>
<!-- 118 -->
<g id="node40" class="node"><title>118</title>
<polygon fill="none" stroke="darkgreen" points="504,-266 421,-266 421,-238 504,-238 504,-266"/>
<text text-anchor="middle" x="462.5" y="-254.8" font-family="Arial" font-size="9.00" fill="darkgreen">«DecisionInput»</text>
<text text-anchor="middle" x="462.5" y="-244.8" font-family="Arial" font-size="9.00" fill="darkgreen">next_steps</text>
</g>
<!-- 118&#45;&gt;116 -->
<g id="edge43" class="edge"><title>118&#45;&gt;116</title>
<path fill="none" stroke="#698b69" stroke-dasharray="5,2" d="M494.341,-237.907C498.741,-236.202 503.219,-234.522 507.5,-233 561.141,-213.935 627.782,-194.847 644.538,-190.113"/>
</g>
<!-- 121&#45;&gt;117 -->
<g id="edge44" class="edge"><title>121&#45;&gt;117</title>
<path fill="none" stroke="black" d="M611.104,-84.7781C617.239,-77.7403 623.444,-70.623 628.295,-65.0586"/>
<polygon fill="black" stroke="black" points="630.996,-67.2864 634.929,-57.4487 625.72,-62.6864 630.996,-67.2864"/>
</g>
<!-- 125 -->
<g id="node43" class="node"><title>125</title>
<ellipse fill="black" stroke="black" cx="945.5" cy="-922" rx="7" ry="7"/>
</g>
<!-- 126 -->
<g id="node44" class="node"><title>126</title>
<path fill="none" stroke="black" d="M995.333,-878.5C995.333,-878.5 895.667,-878.5 895.667,-878.5 890.833,-878.5 886,-873.667 886,-868.833 886,-868.833 886,-859.167 886,-859.167 886,-854.333 890.833,-849.5 895.667,-849.5 895.667,-849.5 995.333,-849.5 995.333,-849.5 1000.17,-849.5 1005,-854.333 1005,-859.167 1005,-859.167 1005,-868.833 1005,-868.833 1005,-873.667 1000.17,-878.5 995.333,-878.5"/>
<text text-anchor="middle" x="945.5" y="-861.8" font-family="Arial" font-size="9.00">def post_step(world, sim)</text>
</g>
<!-- 125&#45;&gt;126 -->
<g id="edge45" class="edge"><title>125&#45;&gt;126</title>
<path fill="none" stroke="black" d="M945.5,-914.576C945.5,-908.231 945.5,-898.134 945.5,-888.703"/>
<polygon fill="black" stroke="black" points="949,-888.574 945.5,-878.574 942,-888.574 949,-888.574"/>
</g>
<!-- 129 -->
<g id="node45" class="node"><title>129</title>
<polygon fill="none" stroke="#698b69" points="984,-778 907,-778 907,-750 984,-750 984,-778"/>
<text text-anchor="start" x="915" y="-766.8" font-family="Arial" font-size="9.00" fill="#698b69"> &quot;&quot;&quot;Record time</text>
<text text-anchor="start" x="915" y="-756.8" font-family="Arial" font-size="9.00" fill="#698b69"> after a step.&quot;&quot;&quot;</text>
</g>
<!-- 126&#45;&gt;129 -->
<g id="edge46" class="edge"><title>126&#45;&gt;129</title>
<path fill="none" stroke="black" d="M945.5,-849.374C945.5,-833.634 945.5,-807.469 945.5,-788.442"/>
<polygon fill="black" stroke="black" points="949,-788.198 945.5,-778.198 942,-788.198 949,-788.198"/>
</g>
<!-- 131 -->
<g id="node46" class="node"><title>131</title>
<path fill="none" stroke="black" d="M1028,-688C1028,-688 863,-688 863,-688 857,-688 851,-682 851,-676 851,-676 851,-632 851,-632 851,-626 857,-620 863,-620 863,-620 1028,-620 1028,-620 1034,-620 1040,-626 1040,-632 1040,-632 1040,-676 1040,-676 1040,-682 1034,-688 1028,-688"/>
<text text-anchor="start" x="859" y="-676.8" font-family="Arial" font-size="9.00"> eg = world.execution_graph</text>
<text text-anchor="start" x="859" y="-666.8" font-family="Arial" font-size="9.00"> sid = sim.sid</text>
<text text-anchor="start" x="859" y="-656.8" font-family="Arial" font-size="9.00"> last_step = sim.last_step</text>
<text text-anchor="start" x="859" y="-646.8" font-family="Arial" font-size="9.00"> node = &#39;%s&#45;%s&#39;</text>
<text text-anchor="start" x="859" y="-636.8" font-family="Arial" font-size="9.00"> node_id = node % (sid, last_step)</text>
<text text-anchor="start" x="859" y="-626.8" font-family="Arial" font-size="9.00"> eg.node[node_id][&#39;t_end&#39;] = perf_counter()</text>
</g>
<!-- 129&#45;&gt;131 -->
<g id="edge47" class="edge"><title>129&#45;&gt;131</title>
<path fill="none" stroke="#698b69" stroke-dasharray="5,2" d="M945.5,-749.757C945.5,-736.925 945.5,-716.753 945.5,-698.312"/>
<polygon fill="#698b69" stroke="#698b69" points="949,-698.303 945.5,-688.303 942,-698.303 949,-698.303"/>
</g>
<!-- 127 -->
<g id="node47" class="node"><title>127</title>
<ellipse fill="black" stroke="black" cx="945.5" cy="-569.5" rx="7" ry="7"/>
<ellipse fill="none" stroke="black" cx="945.5" cy="-569.5" rx="11" ry="11"/>
</g>
<!-- 131&#45;&gt;127 -->
<g id="edge48" class="edge"><title>131&#45;&gt;127</title>
<path fill="none" stroke="black" d="M945.5,-619.919C945.5,-610.085 945.5,-599.606 945.5,-590.839"/>
<polygon fill="black" stroke="black" points="949,-590.829 945.5,-580.829 942,-590.829 949,-590.829"/>
</g>
</g>
</svg>
