<?xml version="1.0" encoding="UTF-8" standalone="no"?>
<!DOCTYPE svg PUBLIC "-//W3C//DTD SVG 1.1//EN"
 "http://www.w3.org/Graphics/SVG/1.1/DTD/svg11.dtd">
<!-- Generated by graphviz version 2.38.0 (20140413.2041)
 -->
<!-- Title: FlowChart Pages: 1 -->
<svg width="133pt" height="190pt"
 viewBox="2.88 2.88 129.88 186.88" xmlns="http://www.w3.org/2000/svg" xmlns:xlink="http://www.w3.org/1999/xlink">
<g id="graph0" class="graph" transform="scale(1 1) rotate(0) translate(6.88 182.88)">
<title>FlowChart</title>
<polygon fill="white" stroke="none" points="-4,4 -4,-180 123,-180 123,4 -4,4"/>
<!-- 1 -->
<g id="node1" class="node"><title>1</title>
<ellipse fill="black" stroke="black" cx="59.5" cy="-169" rx="7" ry="7"/>
</g>
<!-- 2 -->
<g id="node2" class="node"><title>2</title>
<polygon fill="none" stroke="#698b69" points="119,-151 0,-151 0,-113 119,-113 119,-151"/>
<text text-anchor="start" x="8" y="-139.8" font-family="Arial" font-size="9.00" fill="#698b69"> &quot;&quot;&quot; This module provides</text>
<text text-anchor="start" x="8" y="-129.8" font-family="Arial" font-size="9.00" fill="#698b69"> convenient access to the</text>
<text text-anchor="start" x="8" y="-119.8" font-family="Arial" font-size="9.00" fill="#698b69"> version. &quot;&quot;&quot;</text>
</g>
<!-- 1&#45;&gt;2 -->
<g id="edge1" class="edge"><title>1&#45;&gt;2</title>
<path fill="none" stroke="black" d="M59.5,-161.903C59.5,-161.713 59.5,-161.518 59.5,-161.321"/>
<polygon fill="black" stroke="black" points="63.0001,-161.057 59.5,-151.057 56.0001,-161.058 63.0001,-161.057"/>
</g>
<!-- 5 -->
<g id="node3" class="node"><title>5</title>
<path fill="none" stroke="black" d="M103.333,-102C103.333,-102 15.6667,-102 15.6667,-102 10.8333,-102 6,-97.1667 6,-92.3333 6,-92.3333 6,-82.6667 6,-82.6667 6,-77.8333 10.8333,-73 15.6667,-73 15.6667,-73 103.333,-73 103.333,-73 108.167,-73 113,-77.8333 113,-82.6667 113,-82.6667 113,-92.3333 113,-92.3333 113,-97.1667 108.167,-102 103.333,-102"/>
<text text-anchor="middle" x="59.5" y="-85.3" font-family="Arial" font-size="9.00">version_info = (2, 4, 0)</text>
</g>
<!-- 2&#45;&gt;5 -->
<g id="edge2" class="edge"><title>2&#45;&gt;5</title>
<path fill="none" stroke="#698b69" stroke-dasharray="5,2" d="M59.5,-112.73C59.5,-112.505 59.5,-112.279 59.5,-112.053"/>
<polygon fill="#698b69" stroke="#698b69" points="63.0001,-112.006 59.5,-102.006 56.0001,-112.006 63.0001,-112.006"/>
</g>
<!-- 7 -->
<g id="node4" class="node"><title>7</title>
<path fill="none" stroke="black" d="M107.833,-62C107.833,-62 11.1667,-62 11.1667,-62 6.33333,-62 1.5,-57.1667 1.5,-52.3333 1.5,-52.3333 1.5,-42.6667 1.5,-42.6667 1.5,-37.8333 6.33333,-33 11.1667,-33 11.1667,-33 107.833,-33 107.833,-33 112.667,-33 117.5,-37.8333 117.5,-42.6667 117.5,-42.6667 117.5,-52.3333 117.5,-52.3333 117.5,-57.1667 112.667,-62 107.833,-62"/>
<text text-anchor="start" x="9.5" y="-50.3" font-family="Arial" font-size="9.00"> version = &#39;.&#39;.join(map(str,</text>
<text text-anchor="start" x="9.5" y="-40.3" font-family="Arial" font-size="9.00"> version_info))</text>
</g>
<!-- 5&#45;&gt;7 -->
<g id="edge3" class="edge"><title>5&#45;&gt;7</title>
<path fill="none" stroke="black" d="M59.5,-72.7811C59.5,-72.5632 59.5,-72.3443 59.5,-72.1245"/>
<polygon fill="black" stroke="black" points="63.0001,-72.0713 59.5,-62.0713 56.0001,-72.0714 63.0001,-72.0713"/>
</g>
<!-- 3 -->
<g id="node5" class="node"><title>3</title>
<ellipse fill="black" stroke="black" cx="59.5" cy="-11" rx="7" ry="7"/>
<ellipse fill="none" stroke="black" cx="59.5" cy="-11" rx="11" ry="11"/>
</g>
<!-- 7&#45;&gt;3 -->
<g id="edge4" class="edge"><title>7&#45;&gt;3</title>
<path fill="none" stroke="black" d="M59.5,-32.8647C59.5,-32.6387 59.5,-32.4118 59.5,-32.1842"/>
<polygon fill="black" stroke="black" points="63.0001,-32.0251 59.5,-22.0252 56.0001,-32.0252 63.0001,-32.0251"/>
</g>
</g>
</svg>
