<?xml version="1.0" encoding="UTF-8" standalone="no"?>
<!DOCTYPE svg PUBLIC "-//W3C//DTD SVG 1.1//EN"
 "http://www.w3.org/Graphics/SVG/1.1/DTD/svg11.dtd">
<!-- Generated by graphviz version 2.38.0 (20140413.2041)
 -->
<!-- Title: FlowChart Pages: 1 -->
<svg width="564pt" height="525pt"
 viewBox="2.88 2.88 560.88 521.88" xmlns="http://www.w3.org/2000/svg" xmlns:xlink="http://www.w3.org/1999/xlink">
<g id="graph0" class="graph" transform="scale(1 1) rotate(0) translate(6.88 517.88)">
<title>FlowChart</title>
<polygon fill="white" stroke="none" points="-4,4 -4,-515 554,-515 554,4 -4,4"/>
<!-- 1 -->
<g id="node1" class="node"><title>1</title>
<ellipse fill="black" stroke="black" cx="61.5" cy="-504" rx="7" ry="7"/>
</g>
<!-- 2 -->
<g id="node2" class="node"><title>2</title>
<polygon fill="none" stroke="#698b69" points="123,-480 0,-480 0,-442 123,-442 123,-480"/>
<text text-anchor="start" x="8" y="-468.8" font-family="Arial" font-size="9.00" fill="#698b69"> &quot;&quot;&quot; This module provides</text>
<text text-anchor="start" x="8" y="-458.8" font-family="Arial" font-size="9.00" fill="#698b69"> mosaik specific exception</text>
<text text-anchor="start" x="8" y="-448.8" font-family="Arial" font-size="9.00" fill="#698b69"> types. &quot;&quot;&quot;</text>
</g>
<!-- 1&#45;&gt;2 -->
<g id="edge1" class="edge"><title>1&#45;&gt;2</title>
<path fill="none" stroke="black" d="M61.5,-496.95C61.5,-495.001 61.5,-492.698 61.5,-490.217"/>
<polygon fill="black" stroke="black" points="65.0001,-490.155 61.5,-480.155 58.0001,-490.155 65.0001,-490.155"/>
</g>
<!-- 3 -->
<g id="node25" class="node"><title>3</title>
<ellipse fill="black" stroke="black" cx="61.5" cy="-396" rx="7" ry="7"/>
<ellipse fill="none" stroke="black" cx="61.5" cy="-396" rx="11" ry="11"/>
</g>
<!-- 2&#45;&gt;3 -->
<g id="edge2" class="edge"><title>2&#45;&gt;3</title>
<path fill="none" stroke="#698b69" stroke-dasharray="5,2" d="M61.5,-441.778C61.5,-434.17 61.5,-425.298 61.5,-417.467"/>
<polygon fill="#698b69" stroke="#698b69" points="65.0001,-417.33 61.5,-407.33 58.0001,-417.33 65.0001,-417.33"/>
</g>
<!-- 6 -->
<g id="node3" class="node"><title>6</title>
<ellipse fill="black" stroke="black" cx="175.5" cy="-504" rx="7" ry="7"/>
</g>
<!-- 7 -->
<g id="node4" class="node"><title>7</title>
<path fill="none" stroke="black" d="M214.333,-475.5C214.333,-475.5 136.667,-475.5 136.667,-475.5 131.833,-475.5 127,-470.667 127,-465.833 127,-465.833 127,-456.167 127,-456.167 127,-451.333 131.833,-446.5 136.667,-446.5 136.667,-446.5 214.333,-446.5 214.333,-446.5 219.167,-446.5 224,-451.333 224,-456.167 224,-456.167 224,-465.833 224,-465.833 224,-470.667 219.167,-475.5 214.333,-475.5"/>
<text text-anchor="middle" x="175.5" y="-463.8" font-family="Arial" font-size="9.00">class ScenarioError</text>
<text text-anchor="middle" x="175.5" y="-453.8" font-family="Arial" font-size="9.00">(Exception)</text>
</g>
<!-- 6&#45;&gt;7 -->
<g id="edge3" class="edge"><title>6&#45;&gt;7</title>
<path fill="none" stroke="black" d="M175.5,-496.95C175.5,-493.881 175.5,-489.931 175.5,-485.798"/>
<polygon fill="black" stroke="black" points="179,-485.542 175.5,-475.542 172,-485.542 179,-485.542"/>
</g>
<!-- 10 -->
<g id="node5" class="node"><title>10</title>
<polygon fill="none" stroke="#698b69" points="237.5,-420 113.5,-420 113.5,-372 237.5,-372 237.5,-420"/>
<text text-anchor="start" x="121.5" y="-408.8" font-family="Arial" font-size="9.00" fill="#698b69"> &quot;&quot;&quot;This exception is raised</text>
<text text-anchor="start" x="121.5" y="-398.8" font-family="Arial" font-size="9.00" fill="#698b69"> if something fails during</text>
<text text-anchor="start" x="121.5" y="-388.8" font-family="Arial" font-size="9.00" fill="#698b69"> the creationg of a</text>
<text text-anchor="start" x="121.5" y="-378.8" font-family="Arial" font-size="9.00" fill="#698b69"> scenario. &quot;&quot;&quot;</text>
</g>
<!-- 7&#45;&gt;10 -->
<g id="edge4" class="edge"><title>7&#45;&gt;10</title>
<path fill="none" stroke="black" d="M175.5,-446.33C175.5,-441.535 175.5,-435.918 175.5,-430.226"/>
<polygon fill="black" stroke="black" points="179,-430.059 175.5,-420.059 172,-430.059 179,-430.059"/>
</g>
<!-- 8 -->
<g id="node6" class="node"><title>8</title>
<ellipse fill="black" stroke="black" cx="175.5" cy="-339" rx="7" ry="7"/>
<ellipse fill="none" stroke="black" cx="175.5" cy="-339" rx="11" ry="11"/>
</g>
<!-- 10&#45;&gt;8 -->
<g id="edge5" class="edge"><title>10&#45;&gt;8</title>
<path fill="none" stroke="#698b69" stroke-dasharray="5,2" d="M175.5,-371.994C175.5,-368.047 175.5,-363.974 175.5,-360.111"/>
<polygon fill="#698b69" stroke="#698b69" points="179,-360.06 175.5,-350.06 172,-360.06 179,-360.06"/>
</g>
<!-- 13 -->
<g id="node7" class="node"><title>13</title>
<ellipse fill="black" stroke="black" cx="306.5" cy="-504" rx="7" ry="7"/>
</g>
<!-- 14 -->
<g id="node8" class="node"><title>14</title>
<path fill="none" stroke="black" d="M348.833,-475.5C348.833,-475.5 264.167,-475.5 264.167,-475.5 259.333,-475.5 254.5,-470.667 254.5,-465.833 254.5,-465.833 254.5,-456.167 254.5,-456.167 254.5,-451.333 259.333,-446.5 264.167,-446.5 264.167,-446.5 348.833,-446.5 348.833,-446.5 353.667,-446.5 358.5,-451.333 358.5,-456.167 358.5,-456.167 358.5,-465.833 358.5,-465.833 358.5,-470.667 353.667,-475.5 348.833,-475.5"/>
<text text-anchor="middle" x="306.5" y="-463.8" font-family="Arial" font-size="9.00">class SimulationError</text>
<text text-anchor="middle" x="306.5" y="-453.8" font-family="Arial" font-size="9.00">(Exception)</text>
</g>
<!-- 13&#45;&gt;14 -->
<g id="edge6" class="edge"><title>13&#45;&gt;14</title>
<path fill="none" stroke="black" d="M306.5,-496.95C306.5,-493.881 306.5,-489.931 306.5,-485.798"/>
<polygon fill="black" stroke="black" points="310,-485.542 306.5,-475.542 303,-485.542 310,-485.542"/>
</g>
<!-- 17 -->
<g id="node9" class="node"><title>17</title>
<polygon fill="none" stroke="#698b69" points="371,-425 242,-425 242,-367 371,-367 371,-425"/>
<text text-anchor="start" x="250" y="-413.8" font-family="Arial" font-size="9.00" fill="#698b69"> &quot;&quot;&quot;This exception is raised</text>
<text text-anchor="start" x="250" y="-403.8" font-family="Arial" font-size="9.00" fill="#698b69"> if a simulator cannot be</text>
<text text-anchor="start" x="250" y="-393.8" font-family="Arial" font-size="9.00" fill="#698b69"> started or if a problem</text>
<text text-anchor="start" x="250" y="-383.8" font-family="Arial" font-size="9.00" fill="#698b69"> arises during the execution</text>
<text text-anchor="start" x="250" y="-373.8" font-family="Arial" font-size="9.00" fill="#698b69"> of a simulation. &quot;&quot;&quot;</text>
</g>
<!-- 14&#45;&gt;17 -->
<g id="edge7" class="edge"><title>14&#45;&gt;17</title>
<path fill="none" stroke="black" d="M306.5,-446.33C306.5,-442.926 306.5,-439.108 306.5,-435.142"/>
<polygon fill="black" stroke="black" points="310,-435.134 306.5,-425.134 303,-435.134 310,-435.134"/>
</g>
<!-- 15 -->
<g id="node24" class="node"><title>15</title>
<ellipse fill="black" stroke="black" cx="306.5" cy="-339" rx="7" ry="7"/>
<ellipse fill="none" stroke="black" cx="306.5" cy="-339" rx="11" ry="11"/>
</g>
<!-- 17&#45;&gt;15 -->
<g id="edge8" class="edge"><title>17&#45;&gt;15</title>
<path fill="none" stroke="#698b69" stroke-dasharray="5,2" d="M306.5,-366.856C306.5,-364.728 306.5,-362.606 306.5,-360.539"/>
<polygon fill="#698b69" stroke="#698b69" points="310,-360.313 306.5,-350.313 303,-360.313 310,-360.313"/>
</g>
<!-- 20 -->
<g id="node10" class="node"><title>20</title>
<ellipse fill="black" stroke="black" cx="404.5" cy="-504" rx="7" ry="7"/>
</g>
<!-- 21 -->
<g id="node11" class="node"><title>21</title>
<path fill="none" stroke="black" d="M436.833,-475.5C436.833,-475.5 372.167,-475.5 372.167,-475.5 367.333,-475.5 362.5,-470.667 362.5,-465.833 362.5,-465.833 362.5,-456.167 362.5,-456.167 362.5,-451.333 367.333,-446.5 372.167,-446.5 372.167,-446.5 436.833,-446.5 436.833,-446.5 441.667,-446.5 446.5,-451.333 446.5,-456.167 446.5,-456.167 446.5,-465.833 446.5,-465.833 446.5,-470.667 441.667,-475.5 436.833,-475.5"/>
<text text-anchor="middle" x="404.5" y="-463.8" font-family="Arial" font-size="9.00">def __init__(self,</text>
<text text-anchor="middle" x="404.5" y="-453.8" font-family="Arial" font-size="9.00">msg, exc=None)</text>
</g>
<!-- 20&#45;&gt;21 -->
<g id="edge9" class="edge"><title>20&#45;&gt;21</title>
<path fill="none" stroke="black" d="M404.5,-496.95C404.5,-493.881 404.5,-489.931 404.5,-485.798"/>
<polygon fill="black" stroke="black" points="408,-485.542 404.5,-475.542 401,-485.542 408,-485.542"/>
</g>
<!-- 25 -->
<g id="node12" class="node"><title>25</title>
<path fill="none" stroke="black" d="M416.333,-410.5C416.333,-410.5 392.667,-410.5 392.667,-410.5 387.833,-410.5 383,-405.667 383,-400.833 383,-400.833 383,-391.167 383,-391.167 383,-386.333 387.833,-381.5 392.667,-381.5 392.667,-381.5 416.333,-381.5 416.333,-381.5 421.167,-381.5 426,-386.333 426,-391.167 426,-391.167 426,-400.833 426,-400.833 426,-405.667 421.167,-410.5 416.333,-410.5"/>
<text text-anchor="middle" x="404.5" y="-393.8" font-family="Arial" font-size="9.00">arg = &#39;&#39;</text>
</g>
<!-- 21&#45;&gt;25 -->
<g id="edge10" class="edge"><title>21&#45;&gt;25</title>
<path fill="none" stroke="black" d="M404.5,-446.33C404.5,-438.9 404.5,-429.496 404.5,-420.897"/>
<polygon fill="black" stroke="black" points="408,-420.643 404.5,-410.643 401,-420.643 408,-420.643"/>
</g>
<!-- 27 -->
<g id="node13" class="node"><title>27</title>
<polygon fill="none" stroke="black" points="404.5,-345 398.5,-339 404.5,-333 410.5,-339 404.5,-345"/>
</g>
<!-- 25&#45;&gt;27 -->
<g id="edge11" class="edge"><title>25&#45;&gt;27</title>
<path fill="none" stroke="black" d="M404.5,-381.404C404.5,-373.539 404.5,-363.615 404.5,-355.454"/>
<polygon fill="black" stroke="black" points="408,-355.205 404.5,-345.205 401,-355.205 408,-355.205"/>
</g>
<!-- 28 -->
<g id="node14" class="node"><title>28</title>
<polygon fill="none" stroke="black" points="399.5,-97 393.5,-91 399.5,-85 405.5,-91 399.5,-97"/>
</g>
<!-- 27&#45;&gt;28 -->
<g id="edge12" class="edge"><title>27&#45;&gt;28</title>
<path fill="none" stroke="#cd0000" d="M402.253,-335.06C396.835,-327.669 383.5,-307.544 383.5,-288.5 383.5,-288.5 383.5,-288.5 383.5,-127.5 383.5,-118.982 387.376,-110.249 391.313,-103.576"/>
<polygon fill="#cd0000" stroke="#cd0000" points="394.327,-105.365 397,-95.1132 388.517,-101.461 394.327,-105.365"/>
<text text-anchor="middle" x="392" y="-201.3" font-family="Arial" font-size="9.00" fill="#cd0000">[No]</text>
</g>
<!-- 32 -->
<g id="node16" class="node"><title>32</title>
<path fill="none" stroke="black" d="M452.833,-302C452.833,-302 400.167,-302 400.167,-302 395.333,-302 390.5,-297.167 390.5,-292.333 390.5,-292.333 390.5,-282.667 390.5,-282.667 390.5,-277.833 395.333,-273 400.167,-273 400.167,-273 452.833,-273 452.833,-273 457.667,-273 462.5,-277.833 462.5,-282.667 462.5,-282.667 462.5,-292.333 462.5,-292.333 462.5,-297.167 457.667,-302 452.833,-302"/>
<text text-anchor="middle" x="426.5" y="-285.3" font-family="Arial" font-size="9.00">orig = str(exc)</text>
</g>
<!-- 27&#45;&gt;32 -->
<g id="edge13" class="edge"><title>27&#45;&gt;32</title>
<path fill="none" stroke="darkgreen" d="M406.082,-334.44C408.253,-329.556 412.336,-320.369 416.284,-311.487"/>
<polygon fill="darkgreen" stroke="darkgreen" points="419.554,-312.745 420.417,-302.186 413.158,-309.902 419.554,-312.745"/>
<text text-anchor="middle" x="426.5" y="-312.8" font-family="Arial" font-size="9.00" fill="darkgreen">[Yes]</text>
</g>
<!-- 45 -->
<g id="node22" class="node"><title>45</title>
<path fill="none" stroke="black" d="M441.333,-68C441.333,-68 357.667,-68 357.667,-68 352.833,-68 348,-63.1667 348,-58.3333 348,-58.3333 348,-48.6667 348,-48.6667 348,-43.8333 352.833,-39 357.667,-39 357.667,-39 441.333,-39 441.333,-39 446.167,-39 451,-43.8333 451,-48.6667 451,-48.6667 451,-58.3333 451,-58.3333 451,-63.1667 446.167,-68 441.333,-68"/>
<text text-anchor="start" x="356" y="-56.3" font-family="Arial" font-size="9.00"> arg += msg</text>
<text text-anchor="start" x="356" y="-46.3" font-family="Arial" font-size="9.00"> super().__init__(arg)</text>
</g>
<!-- 28&#45;&gt;45 -->
<g id="edge14" class="edge"><title>28&#45;&gt;45</title>
<path fill="none" stroke="black" d="M399.5,-84.7619C399.5,-82.9067 399.5,-80.6805 399.5,-78.2882"/>
<polygon fill="black" stroke="black" points="403,-78.0444 399.5,-68.0445 396,-78.0445 403,-78.0444"/>
</g>
<!-- 29 -->
<g id="node15" class="node"><title>29</title>
<polygon fill="none" stroke="darkgreen" points="513,-410 430,-410 430,-382 513,-382 513,-410"/>
<text text-anchor="middle" x="471.5" y="-398.8" font-family="Arial" font-size="9.00" fill="darkgreen">«DecisionInput»</text>
<text text-anchor="middle" x="471.5" y="-388.8" font-family="Arial" font-size="9.00" fill="darkgreen">exc</text>
</g>
<!-- 29&#45;&gt;27 -->
<g id="edge15" class="edge"><title>29&#45;&gt;27</title>
<path fill="none" stroke="#698b69" stroke-dasharray="5,2" d="M455.622,-381.966C439.524,-368.751 415.837,-349.306 407.52,-342.479"/>
</g>
<!-- 34 -->
<g id="node17" class="node"><title>34</title>
<polygon fill="none" stroke="black" points="426.5,-256 420.5,-250 426.5,-244 432.5,-250 426.5,-256"/>
</g>
<!-- 32&#45;&gt;34 -->
<g id="edge16" class="edge"><title>32&#45;&gt;34</title>
<path fill="none" stroke="black" d="M426.5,-272.876C426.5,-270.796 426.5,-268.636 426.5,-266.519"/>
<polygon fill="black" stroke="black" points="430,-266.305 426.5,-256.305 423,-266.305 430,-266.305"/>
</g>
<!-- 35 -->
<g id="node18" class="node"><title>35</title>
<polygon fill="none" stroke="black" points="437.5,-172 431.5,-166 437.5,-160 443.5,-166 437.5,-172"/>
</g>
<!-- 34&#45;&gt;35 -->
<g id="edge17" class="edge"><title>34&#45;&gt;35</title>
<path fill="none" stroke="#cd0000" d="M426.25,-243.959C425.844,-233.563 425.451,-209.037 429.5,-189 430.092,-186.072 431.003,-183.012 432.002,-180.137"/>
<polygon fill="#cd0000" stroke="#cd0000" points="435.336,-181.224 435.793,-170.639 428.835,-178.629 435.336,-181.224"/>
<text text-anchor="middle" x="438" y="-201.3" font-family="Arial" font-size="9.00" fill="#cd0000">[No]</text>
</g>
<!-- 39 -->
<g id="node20" class="node"><title>39</title>
<path fill="none" stroke="black" d="M511.333,-218C511.333,-218 457.667,-218 457.667,-218 452.833,-218 448,-213.167 448,-208.333 448,-208.333 448,-198.667 448,-198.667 448,-193.833 452.833,-189 457.667,-189 457.667,-189 511.333,-189 511.333,-189 516.167,-189 521,-193.833 521,-198.667 521,-198.667 521,-208.333 521,-208.333 521,-213.167 516.167,-218 511.333,-218"/>
<text text-anchor="middle" x="484.5" y="-201.3" font-family="Arial" font-size="9.00">orig = orig[:&#45;1]</text>
</g>
<!-- 34&#45;&gt;39 -->
<g id="edge18" class="edge"><title>34&#45;&gt;39</title>
<path fill="none" stroke="darkgreen" d="M429.618,-246.607C435.185,-242.337 447.325,-233.022 458.775,-224.237"/>
<polygon fill="darkgreen" stroke="darkgreen" points="461.083,-226.878 466.887,-218.014 456.822,-221.324 461.083,-226.878"/>
<text text-anchor="middle" x="465.5" y="-228.8" font-family="Arial" font-size="9.00" fill="darkgreen">[Yes]</text>
</g>
<!-- 42 -->
<g id="node21" class="node"><title>42</title>
<path fill="none" stroke="black" d="M474.833,-143C474.833,-143 400.167,-143 400.167,-143 395.333,-143 390.5,-138.167 390.5,-133.333 390.5,-133.333 390.5,-123.667 390.5,-123.667 390.5,-118.833 395.333,-114 400.167,-114 400.167,-114 474.833,-114 474.833,-114 479.667,-114 484.5,-118.833 484.5,-123.667 484.5,-123.667 484.5,-133.333 484.5,-133.333 484.5,-138.167 479.667,-143 474.833,-143"/>
<text text-anchor="middle" x="437.5" y="-126.3" font-family="Arial" font-size="9.00">arg += &#39;%s: &#39; % orig</text>
</g>
<!-- 35&#45;&gt;42 -->
<g id="edge19" class="edge"><title>35&#45;&gt;42</title>
<path fill="none" stroke="black" d="M437.5,-159.762C437.5,-157.907 437.5,-155.681 437.5,-153.288"/>
<polygon fill="black" stroke="black" points="441,-153.044 437.5,-143.044 434,-153.045 441,-153.044"/>
</g>
<!-- 36 -->
<g id="node19" class="node"><title>36</title>
<polygon fill="none" stroke="darkgreen" points="550,-301.5 467,-301.5 467,-273.5 550,-273.5 550,-301.5"/>
<text text-anchor="middle" x="508.5" y="-290.3" font-family="Arial" font-size="9.00" fill="darkgreen">«DecisionInput»</text>
<text text-anchor="middle" x="508.5" y="-280.3" font-family="Arial" font-size="9.00" fill="darkgreen">orig.endswith(&#39;.&#39;)</text>
</g>
<!-- 36&#45;&gt;34 -->
<g id="edge20" class="edge"><title>36&#45;&gt;34</title>
<path fill="none" stroke="#698b69" stroke-dasharray="5,2" d="M478.432,-273.483C460.148,-265.567 438.736,-256.297 430.243,-252.621"/>
</g>
<!-- 39&#45;&gt;35 -->
<g id="edge21" class="edge"><title>39&#45;&gt;35</title>
<path fill="none" stroke="black" d="M466.463,-188.876C460.532,-184.396 454.109,-179.545 448.822,-175.552"/>
<polygon fill="black" stroke="black" points="450.574,-172.489 440.485,-169.254 446.355,-178.074 450.574,-172.489"/>
</g>
<!-- 42&#45;&gt;28 -->
<g id="edge22" class="edge"><title>42&#45;&gt;28</title>
<path fill="none" stroke="black" d="M422.917,-113.876C418.464,-109.716 413.668,-105.236 409.584,-101.421"/>
<polygon fill="black" stroke="black" points="411.884,-98.7795 402.187,-94.5104 407.105,-103.895 411.884,-98.7795"/>
</g>
<!-- 22 -->
<g id="node23" class="node"><title>22</title>
<ellipse fill="black" stroke="black" cx="399.5" cy="-11" rx="7" ry="7"/>
<ellipse fill="none" stroke="black" cx="399.5" cy="-11" rx="11" ry="11"/>
</g>
<!-- 45&#45;&gt;22 -->
<g id="edge23" class="edge"><title>45&#45;&gt;22</title>
<path fill="none" stroke="black" d="M399.5,-38.7885C399.5,-36.7577 399.5,-34.6285 399.5,-32.4956"/>
<polygon fill="black" stroke="black" points="403,-32.2395 399.5,-22.2395 396,-32.2395 403,-32.2395"/>
</g>
</g>
</svg>
