<?xml version="1.0" encoding="UTF-8" standalone="no"?>
<!DOCTYPE svg PUBLIC "-//W3C//DTD SVG 1.1//EN"
 "http://www.w3.org/Graphics/SVG/1.1/DTD/svg11.dtd">
<!-- Generated by graphviz version 2.38.0 (20140413.2041)
 -->
<!-- Title: packages_simpy Pages: 1 -->
<svg width="2031pt" height="404pt"
 viewBox="0.00 0.00 2030.97 404.00" xmlns="http://www.w3.org/2000/svg" xmlns:xlink="http://www.w3.org/1999/xlink">
<g id="graph0" class="graph" transform="scale(1 1) rotate(0) translate(4 400)">
<title>packages_simpy</title>
<polygon fill="white" stroke="none" points="-4,4 -4,-400 2026.97,-400 2026.97,4 -4,4"/>
<!-- 0 -->
<g id="node1" class="node"><title>0</title>
<polygon fill="none" stroke="black" points="1208.47,-108 1154.47,-108 1154.47,-72 1208.47,-72 1208.47,-108"/>
<text text-anchor="middle" x="1181.47" y="-86.3" font-family="Times,serif" font-size="14.00">simpy</text>
</g>
<!-- 2 -->
<g id="node3" class="node"><title>2</title>
<polygon fill="none" stroke="black" points="1107.97,-252 1030.97,-252 1030.97,-216 1107.97,-216 1107.97,-252"/>
<text text-anchor="middle" x="1069.47" y="-230.3" font-family="Times,serif" font-size="14.00">simpy.core</text>
</g>
<!-- 0&#45;&gt;2 -->
<g id="edge1" class="edge"><title>0&#45;&gt;2</title>
<path fill="none" stroke="black" d="M1167.96,-108.129C1148.37,-132.969 1111.94,-179.154 1089.3,-207.858"/>
<polygon fill="black" stroke="black" points="1083.03,-215.811 1085.69,-205.172 1086.12,-211.885 1089.22,-207.959 1089.22,-207.959 1089.22,-207.959 1086.12,-211.885 1092.75,-210.746 1083.03,-215.811 1083.03,-215.811"/>
</g>
<!-- 3 -->
<g id="node4" class="node"><title>3</title>
<polygon fill="none" stroke="black" points="818.968,-324 729.968,-324 729.968,-288 818.968,-288 818.968,-324"/>
<text text-anchor="middle" x="774.468" y="-302.3" font-family="Times,serif" font-size="14.00">simpy.events</text>
</g>
<!-- 0&#45;&gt;3 -->
<g id="edge2" class="edge"><title>0&#45;&gt;3</title>
<path fill="none" stroke="black" d="M1154.28,-91.8968C1056.56,-95.3959 727.251,-109.67 696.468,-144 685.786,-155.912 692.062,-164.618 696.468,-180 707.43,-218.276 733.896,-256.216 752.961,-280.08"/>
<polygon fill="black" stroke="black" points="759.358,-287.911 749.547,-283.014 756.195,-284.039 753.032,-280.167 753.032,-280.167 753.032,-280.167 756.195,-284.039 756.517,-277.32 759.358,-287.911 759.358,-287.911"/>
</g>
<!-- 24 -->
<g id="node25" class="node"><title>24</title>
<polygon fill="none" stroke="black" points="1488.97,-180 1329.97,-180 1329.97,-144 1488.97,-144 1488.97,-180"/>
<text text-anchor="middle" x="1409.47" y="-158.3" font-family="Times,serif" font-size="14.00">simpy.resources.container</text>
</g>
<!-- 0&#45;&gt;24 -->
<g id="edge3" class="edge"><title>0&#45;&gt;24</title>
<path fill="none" stroke="black" d="M1208.52,-99.3048C1241.71,-109.494 1299.1,-127.115 1344.08,-140.924"/>
<polygon fill="black" stroke="black" points="1353.76,-143.897 1342.88,-145.264 1348.98,-142.43 1344.2,-140.962 1344.2,-140.962 1344.2,-140.962 1348.98,-142.43 1345.52,-136.66 1353.76,-143.897 1353.76,-143.897"/>
</g>
<!-- 25 -->
<g id="node26" class="node"><title>25</title>
<polygon fill="none" stroke="black" points="1311.97,-180 1156.97,-180 1156.97,-144 1311.97,-144 1311.97,-180"/>
<text text-anchor="middle" x="1234.47" y="-158.3" font-family="Times,serif" font-size="14.00">simpy.resources.resource</text>
</g>
<!-- 0&#45;&gt;25 -->
<g id="edge4" class="edge"><title>0&#45;&gt;25</title>
<path fill="none" stroke="black" d="M1194.57,-108.303C1200.86,-116.611 1208.52,-126.723 1215.43,-135.859"/>
<polygon fill="black" stroke="black" points="1221.52,-143.896 1211.89,-138.639 1218.5,-139.909 1215.48,-135.923 1215.48,-135.923 1215.48,-135.923 1218.5,-139.909 1219.07,-133.207 1221.52,-143.896 1221.52,-143.896"/>
</g>
<!-- 26 -->
<g id="node27" class="node"><title>26</title>
<polygon fill="none" stroke="black" points="1641.97,-180 1506.97,-180 1506.97,-144 1641.97,-144 1641.97,-180"/>
<text text-anchor="middle" x="1574.47" y="-158.3" font-family="Times,serif" font-size="14.00">simpy.resources.store</text>
</g>
<!-- 0&#45;&gt;26 -->
<g id="edge5" class="edge"><title>0&#45;&gt;26</title>
<path fill="none" stroke="black" d="M1208.6,-95.0727C1261.82,-103.162 1383.81,-122.21 1497.03,-143.969"/>
<polygon fill="black" stroke="black" points="1506.9,-145.878 1496.23,-148.398 1501.99,-144.929 1497.08,-143.98 1497.08,-143.98 1497.08,-143.98 1501.99,-144.929 1497.94,-139.562 1506.9,-145.878 1506.9,-145.878"/>
</g>
<!-- 27 -->
<g id="node28" class="node"><title>27</title>
<polygon fill="none" stroke="black" points="1100.47,-180 1038.47,-180 1038.47,-144 1100.47,-144 1100.47,-180"/>
<text text-anchor="middle" x="1069.47" y="-158.3" font-family="Times,serif" font-size="14.00">simpy.rt</text>
</g>
<!-- 0&#45;&gt;27 -->
<g id="edge6" class="edge"><title>0&#45;&gt;27</title>
<path fill="none" stroke="black" d="M1154.36,-107.945C1139.61,-117.163 1121.18,-128.681 1105.26,-138.629"/>
<polygon fill="black" stroke="black" points="1096.72,-143.968 1102.81,-134.852 1100.96,-141.318 1105.2,-138.668 1105.2,-138.668 1105.2,-138.668 1100.96,-141.318 1107.58,-142.484 1096.72,-143.968 1096.72,-143.968"/>
</g>
<!-- 1 -->
<g id="node2" class="node"><title>1</title>
<polygon fill="none" stroke="black" points="1360.97,-396 1259.97,-396 1259.97,-360 1360.97,-360 1360.97,-396"/>
<text text-anchor="middle" x="1310.47" y="-374.3" font-family="Times,serif" font-size="14.00">simpy._compat</text>
</g>
<!-- 2&#45;&gt;3 -->
<g id="edge7" class="edge"><title>2&#45;&gt;3</title>
<path fill="none" stroke="black" d="M1030.9,-244.151C979.376,-256.378 887.781,-278.112 829.148,-292.025"/>
<polygon fill="black" stroke="black" points="819.317,-294.358 828.008,-287.671 824.182,-293.203 829.047,-292.049 829.047,-292.049 829.047,-292.049 824.182,-293.203 830.086,-296.427 819.317,-294.358 819.317,-294.358"/>
</g>
<!-- 3&#45;&gt;1 -->
<g id="edge8" class="edge"><title>3&#45;&gt;1</title>
<path fill="none" stroke="black" d="M819.026,-314.516C837.947,-317.611 860.261,-321.135 880.468,-324 1011.83,-342.623 1166.32,-360.745 1249.69,-370.215"/>
<polygon fill="black" stroke="black" points="1259.75,-371.354 1249.31,-374.7 1254.78,-370.791 1249.81,-370.228 1249.81,-370.228 1249.81,-370.228 1254.78,-370.791 1250.32,-365.757 1259.75,-371.354 1259.75,-371.354"/>
</g>
<!-- 4 -->
<g id="node5" class="node"><title>4</title>
<polygon fill="none" stroke="black" points="610.968,-180 545.968,-180 545.968,-144 610.968,-144 610.968,-180"/>
<text text-anchor="middle" x="578.468" y="-158.3" font-family="Times,serif" font-size="14.00">simpy.io</text>
</g>
<!-- 5 -->
<g id="node6" class="node"><title>5</title>
<polygon fill="none" stroke="black" points="1907.47,-324 1791.47,-324 1791.47,-288 1907.47,-288 1907.47,-324"/>
<text text-anchor="middle" x="1849.47" y="-302.3" font-family="Times,serif" font-size="14.00">simpy.io._compat</text>
</g>
<!-- 5&#45;&gt;1 -->
<g id="edge9" class="edge"><title>5&#45;&gt;1</title>
<path fill="none" stroke="black" d="M1791.25,-316.433C1774.85,-318.996 1756.97,-321.697 1740.47,-324 1609.06,-342.341 1454.59,-360.569 1371.23,-370.133"/>
<polygon fill="black" stroke="black" points="1361.18,-371.284 1370.6,-365.675 1366.14,-370.715 1371.11,-370.146 1371.11,-370.146 1371.11,-370.146 1366.14,-370.715 1371.62,-374.617 1361.18,-371.284 1361.18,-371.284"/>
</g>
<!-- 6 -->
<g id="node7" class="node"><title>6</title>
<polygon fill="none" stroke="black" points="145.968,-252 42.9678,-252 42.9678,-216 145.968,-216 145.968,-252"/>
<text text-anchor="middle" x="94.4678" y="-230.3" font-family="Times,serif" font-size="14.00">simpy.io.access</text>
</g>
<!-- 7 -->
<g id="node8" class="node"><title>7</title>
<polygon fill="none" stroke="black" points="1905.97,-108 1806.97,-108 1806.97,-72 1905.97,-72 1905.97,-108"/>
<text text-anchor="middle" x="1856.47" y="-86.3" font-family="Times,serif" font-size="14.00">simpy.io.async</text>
</g>
<!-- 7&#45;&gt;5 -->
<g id="edge10" class="edge"><title>7&#45;&gt;5</title>
<path fill="none" stroke="black" d="M1869.6,-108.365C1890.58,-138.368 1927.18,-201.547 1905.47,-252 1900.68,-263.126 1892.28,-273.009 1883.42,-281.137"/>
<polygon fill="black" stroke="black" points="1875.59,-287.816 1880.28,-277.901 1879.4,-284.57 1883.2,-281.324 1883.2,-281.324 1883.2,-281.324 1879.4,-284.57 1886.12,-284.747 1875.59,-287.816 1875.59,-287.816"/>
</g>
<!-- 8 -->
<g id="node9" class="node"><title>8</title>
<polygon fill="none" stroke="black" points="1790.47,-180 1698.47,-180 1698.47,-144 1790.47,-144 1790.47,-180"/>
<text text-anchor="middle" x="1744.47" y="-158.3" font-family="Times,serif" font-size="14.00">simpy.io.base</text>
</g>
<!-- 7&#45;&gt;8 -->
<g id="edge11" class="edge"><title>7&#45;&gt;8</title>
<path fill="none" stroke="black" d="M1829.07,-108.124C1814.56,-117.192 1796.55,-128.448 1780.88,-138.241"/>
<polygon fill="black" stroke="black" points="1771.97,-143.81 1778.07,-134.694 1776.21,-141.16 1780.45,-138.51 1780.45,-138.51 1780.45,-138.51 1776.21,-141.16 1782.84,-142.326 1771.97,-143.81 1771.97,-143.81"/>
</g>
<!-- 17 -->
<g id="node18" class="node"><title>17</title>
<polygon fill="none" stroke="black" points="1896.47,-252 1780.47,-252 1780.47,-216 1896.47,-216 1896.47,-252"/>
<text text-anchor="middle" x="1838.47" y="-230.3" font-family="Times,serif" font-size="14.00">simpy.io.platform</text>
</g>
<!-- 7&#45;&gt;17 -->
<g id="edge12" class="edge"><title>7&#45;&gt;17</title>
<path fill="none" stroke="black" d="M1854.3,-108.129C1851.23,-132.33 1845.59,-176.789 1841.94,-205.607"/>
<polygon fill="black" stroke="black" points="1840.65,-215.811 1837.44,-205.324 1841.28,-210.85 1841.9,-205.89 1841.9,-205.89 1841.9,-205.89 1841.28,-210.85 1846.37,-206.456 1840.65,-215.811 1840.65,-215.811"/>
</g>
<!-- 8&#45;&gt;1 -->
<g id="edge13" class="edge"><title>8&#45;&gt;1</title>
<path fill="none" stroke="black" d="M1737.07,-180.246C1727.66,-200.258 1709.54,-232.939 1684.47,-252 1589.41,-324.273 1450.27,-356.089 1371.25,-369.027"/>
<polygon fill="black" stroke="black" points="1360.97,-370.657 1370.14,-364.645 1365.91,-369.873 1370.85,-369.09 1370.85,-369.09 1370.85,-369.09 1365.91,-369.873 1371.56,-373.534 1360.97,-370.657 1360.97,-370.657"/>
</g>
<!-- 8&#45;&gt;2 -->
<g id="edge14" class="edge"><title>8&#45;&gt;2</title>
<path fill="none" stroke="black" d="M1698.24,-172.298C1683.35,-175.064 1666.75,-177.911 1651.47,-180 1454.62,-206.899 1218.39,-223.657 1118.2,-230.05"/>
<polygon fill="black" stroke="black" points="1108.08,-230.69 1117.78,-225.567 1113.07,-230.374 1118.06,-230.059 1118.06,-230.059 1118.06,-230.059 1113.07,-230.374 1118.34,-234.55 1108.08,-230.69 1108.08,-230.69"/>
</g>
<!-- 15 -->
<g id="node16" class="node"><title>15</title>
<polygon fill="none" stroke="black" points="697.968,-252 584.968,-252 584.968,-216 697.968,-216 697.968,-252"/>
<text text-anchor="middle" x="641.468" y="-230.3" font-family="Times,serif" font-size="14.00">simpy.io.network</text>
</g>
<!-- 8&#45;&gt;15 -->
<g id="edge15" class="edge"><title>8&#45;&gt;15</title>
<path fill="none" stroke="black" d="M1698.29,-172.651C1683.4,-175.436 1666.79,-178.205 1651.47,-180 1558.43,-190.899 918.691,-220.455 708.342,-229.991"/>
<polygon fill="black" stroke="black" points="698.061,-230.456 707.847,-225.508 703.055,-230.23 708.05,-230.004 708.05,-230.004 708.05,-230.004 703.055,-230.23 708.254,-234.499 698.061,-230.456 698.061,-230.456"/>
</g>
<!-- 8&#45;&gt;17 -->
<g id="edge16" class="edge"><title>8&#45;&gt;17</title>
<path fill="none" stroke="black" d="M1767.7,-180.303C1779.66,-189.204 1794.39,-200.177 1807.32,-209.801"/>
<polygon fill="black" stroke="black" points="1815.5,-215.896 1804.79,-213.532 1811.49,-212.909 1807.48,-209.923 1807.48,-209.923 1807.48,-209.923 1811.49,-212.909 1810.17,-206.314 1815.5,-215.896 1815.5,-215.896"/>
</g>
<!-- 9 -->
<g id="node10" class="node"><title>9</title>
<polygon fill="none" stroke="black" points="278.468,-180 174.468,-180 174.468,-144 278.468,-144 278.468,-180"/>
<text text-anchor="middle" x="226.468" y="-158.3" font-family="Times,serif" font-size="14.00">simpy.io.broker</text>
</g>
<!-- 9&#45;&gt;2 -->
<g id="edge17" class="edge"><title>9&#45;&gt;2</title>
<path fill="none" stroke="black" d="M278.488,-172.829C293.89,-175.472 310.82,-178.116 326.468,-180 586.949,-211.356 901.206,-226.3 1020.41,-231.151"/>
<polygon fill="black" stroke="black" points="1030.67,-231.563 1020.49,-235.658 1025.67,-231.362 1020.67,-231.162 1020.67,-231.162 1020.67,-231.162 1025.67,-231.362 1020.86,-226.665 1030.67,-231.563 1030.67,-231.563"/>
</g>
<!-- 9&#45;&gt;6 -->
<g id="edge18" class="edge"><title>9&#45;&gt;6</title>
<path fill="none" stroke="black" d="M194.177,-180.124C176.598,-189.446 154.659,-201.081 135.838,-211.061"/>
<polygon fill="black" stroke="black" points="126.883,-215.81 133.609,-207.15 131.3,-213.468 135.717,-211.125 135.717,-211.125 135.717,-211.125 131.3,-213.468 137.826,-215.101 126.883,-215.81 126.883,-215.81"/>
</g>
<!-- 11 -->
<g id="node12" class="node"><title>11</title>
<polygon fill="none" stroke="black" points="288.468,-252 164.468,-252 164.468,-216 288.468,-216 288.468,-252"/>
<text text-anchor="middle" x="226.468" y="-230.3" font-family="Times,serif" font-size="14.00">simpy.io.dispatcher</text>
</g>
<!-- 9&#45;&gt;11 -->
<g id="edge19" class="edge"><title>9&#45;&gt;11</title>
<path fill="none" stroke="black" d="M226.468,-180.303C226.468,-188.017 226.468,-197.288 226.468,-205.888"/>
<polygon fill="black" stroke="black" points="226.468,-215.896 221.968,-205.896 226.468,-210.896 226.468,-205.896 226.468,-205.896 226.468,-205.896 226.468,-210.896 230.968,-205.896 226.468,-215.896 226.468,-215.896"/>
</g>
<!-- 10 -->
<g id="node11" class="node"><title>10</title>
<polygon fill="none" stroke="black" points="406.468,-252 306.468,-252 306.468,-216 406.468,-216 406.468,-252"/>
<text text-anchor="middle" x="356.468" y="-230.3" font-family="Times,serif" font-size="14.00">simpy.io.codec</text>
</g>
<!-- 13 -->
<g id="node14" class="node"><title>13</title>
<polygon fill="none" stroke="black" points="438.968,-108 347.968,-108 347.968,-72 438.968,-72 438.968,-108"/>
<text text-anchor="middle" x="393.468" y="-86.3" font-family="Times,serif" font-size="14.00">simpy.io.json</text>
</g>
<!-- 10&#45;&gt;13 -->
<g id="edge20" class="edge"><title>10&#45;&gt;13</title>
<path fill="none" stroke="black" d="M342.882,-215.769C330.217,-197.463 314.889,-167.923 326.468,-144 332.229,-132.097 342.105,-122.056 352.53,-114.024"/>
<polygon fill="black" stroke="black" points="360.941,-108.016 355.419,-117.49 356.872,-110.922 352.804,-113.828 352.804,-113.828 352.804,-113.828 356.872,-110.922 350.188,-110.167 360.941,-108.016 360.941,-108.016"/>
</g>
<!-- 12 -->
<g id="node13" class="node"><title>12</title>
<polygon fill="none" stroke="black" points="164.968,-108 75.9678,-108 75.9678,-72 164.968,-72 164.968,-108"/>
<text text-anchor="middle" x="120.468" y="-86.3" font-family="Times,serif" font-size="14.00">simpy.io.http</text>
</g>
<!-- 12&#45;&gt;1 -->
<g id="edge21" class="edge"><title>12&#45;&gt;1</title>
<path fill="none" stroke="black" d="M75.7664,-107.785C59.1034,-116.211 41.5606,-128.081 30.4678,-144 2.82682,-183.666 -14.93,-216.115 17.4678,-252 100.995,-344.518 1004.52,-370.464 1249.5,-375.821"/>
<polygon fill="black" stroke="black" points="1259.64,-376.039 1249.55,-380.323 1254.65,-375.932 1249.65,-375.824 1249.65,-375.824 1249.65,-375.824 1254.65,-375.932 1249.74,-371.325 1259.64,-376.039 1259.64,-376.039"/>
</g>
<!-- 12&#45;&gt;3 -->
<g id="edge22" class="edge"><title>12&#45;&gt;3</title>
<path fill="none" stroke="black" d="M98.7869,-108.031C61.2594,-139.47 -7.99099,-207.47 33.4678,-252 79.96,-301.936 555.868,-305.531 719.535,-305.276"/>
<polygon fill="black" stroke="black" points="729.856,-305.255 719.866,-309.776 724.856,-305.265 719.856,-305.276 719.856,-305.276 719.856,-305.276 724.856,-305.265 719.847,-300.776 729.856,-305.255 729.856,-305.255"/>
</g>
<!-- 12&#45;&gt;9 -->
<g id="edge23" class="edge"><title>12&#45;&gt;9</title>
<path fill="none" stroke="black" d="M146.398,-108.124C160.129,-117.192 177.174,-128.448 192.004,-138.241"/>
<polygon fill="black" stroke="black" points="200.438,-143.81 189.613,-142.055 196.265,-141.055 192.093,-138.3 192.093,-138.3 192.093,-138.3 196.265,-141.055 194.573,-134.544 200.438,-143.81 200.438,-143.81"/>
</g>
<!-- 12&#45;&gt;15 -->
<g id="edge24" class="edge"><title>12&#45;&gt;15</title>
<path fill="none" stroke="black" d="M165.045,-93.7071C230.794,-98.6461 357.049,-111.761 459.468,-144 473.769,-148.502 549.761,-186.49 598.919,-211.36"/>
<polygon fill="black" stroke="black" points="608.066,-215.992 597.112,-215.488 603.605,-213.733 599.145,-211.474 599.145,-211.474 599.145,-211.474 603.605,-213.733 601.178,-207.459 608.066,-215.992 608.066,-215.992"/>
</g>
<!-- 13&#45;&gt;4 -->
<g id="edge25" class="edge"><title>13&#45;&gt;4</title>
<path fill="none" stroke="black" d="M438.724,-108.124C468.517,-119.397 507.248,-134.052 536.377,-145.074"/>
<polygon fill="black" stroke="black" points="545.861,-148.662 534.915,-149.332 541.184,-146.893 536.508,-145.123 536.508,-145.123 536.508,-145.123 541.184,-146.893 538.101,-140.914 545.861,-148.662 545.861,-148.662"/>
</g>
<!-- 13&#45;&gt;9 -->
<g id="edge26" class="edge"><title>13&#45;&gt;9</title>
<path fill="none" stroke="black" d="M352.615,-108.124C329.684,-117.736 300.886,-129.807 276.598,-139.987"/>
<polygon fill="black" stroke="black" points="267.188,-143.932 274.671,-135.916 271.799,-141.999 276.411,-140.066 276.411,-140.066 276.411,-140.066 271.799,-141.999 278.15,-144.216 267.188,-143.932 267.188,-143.932"/>
</g>
<!-- 14 -->
<g id="node15" class="node"><title>14</title>
<polygon fill="none" stroke="black" points="450.968,-180 335.968,-180 335.968,-144 450.968,-144 450.968,-180"/>
<text text-anchor="middle" x="393.468" y="-158.3" font-family="Times,serif" font-size="14.00">simpy.io.message</text>
</g>
<!-- 13&#45;&gt;14 -->
<g id="edge27" class="edge"><title>13&#45;&gt;14</title>
<path fill="none" stroke="black" d="M393.468,-108.303C393.468,-116.017 393.468,-125.288 393.468,-133.888"/>
<polygon fill="black" stroke="black" points="393.468,-143.896 388.968,-133.896 393.468,-138.896 393.468,-133.896 393.468,-133.896 393.468,-133.896 393.468,-138.896 397.968,-133.896 393.468,-143.896 393.468,-143.896"/>
</g>
<!-- 16 -->
<g id="node17" class="node"><title>16</title>
<polygon fill="none" stroke="black" points="566.468,-252 462.468,-252 462.468,-216 566.468,-216 566.468,-252"/>
<text text-anchor="middle" x="514.468" y="-230.3" font-family="Times,serif" font-size="14.00">simpy.io.packet</text>
</g>
<!-- 13&#45;&gt;16 -->
<g id="edge28" class="edge"><title>13&#45;&gt;16</title>
<path fill="none" stroke="black" d="M418.707,-108.086C431.793,-117.693 447.497,-130.457 459.468,-144 476.37,-163.122 491.287,-188.064 501.306,-206.677"/>
<polygon fill="black" stroke="black" points="506.084,-215.77 497.449,-209.01 503.758,-211.343 501.432,-206.917 501.432,-206.917 501.432,-206.917 503.758,-211.343 505.416,-204.824 506.084,-215.77 506.084,-215.77"/>
</g>
<!-- 14&#45;&gt;3 -->
<g id="edge29" class="edge"><title>14&#45;&gt;3</title>
<path fill="none" stroke="black" d="M400.05,-180.227C408.889,-200.86 426.651,-234.788 453.468,-252 496.571,-279.666 639.704,-294.733 719.506,-301.166"/>
<polygon fill="black" stroke="black" points="729.857,-301.981 719.535,-305.682 724.872,-301.589 719.888,-301.196 719.888,-301.196 719.888,-301.196 724.872,-301.589 720.241,-296.71 729.857,-301.981 729.857,-301.981"/>
</g>
<!-- 14&#45;&gt;10 -->
<g id="edge30" class="edge"><title>14&#45;&gt;10</title>
<path fill="none" stroke="black" d="M384.322,-180.303C380.065,-188.356 374.912,-198.106 370.201,-207.018"/>
<polygon fill="black" stroke="black" points="365.509,-215.896 366.203,-204.952 367.845,-211.475 370.182,-207.055 370.182,-207.055 370.182,-207.055 367.845,-211.475 374.16,-209.158 365.509,-215.896 365.509,-215.896"/>
</g>
<!-- 14&#45;&gt;15 -->
<g id="edge31" class="edge"><title>14&#45;&gt;15</title>
<path fill="none" stroke="black" d="M450.987,-179.235C487.897,-189.653 535.964,-203.221 574.578,-214.12"/>
<polygon fill="black" stroke="black" points="584.688,-216.974 573.842,-218.588 579.876,-215.615 575.064,-214.257 575.064,-214.257 575.064,-214.257 579.876,-215.615 576.287,-209.926 584.688,-216.974 584.688,-216.974"/>
</g>
<!-- 14&#45;&gt;16 -->
<g id="edge32" class="edge"><title>14&#45;&gt;16</title>
<path fill="none" stroke="black" d="M423.068,-180.124C439.035,-189.361 458.927,-200.869 476.073,-210.788"/>
<polygon fill="black" stroke="black" points="484.754,-215.81 473.845,-214.698 480.426,-213.306 476.098,-210.803 476.098,-210.803 476.098,-210.803 480.426,-213.306 478.352,-206.907 484.754,-215.81 484.754,-215.81"/>
</g>
<!-- 16&#45;&gt;3 -->
<g id="edge33" class="edge"><title>16&#45;&gt;3</title>
<path fill="none" stroke="black" d="M566.7,-249.599C569.666,-250.415 572.604,-251.22 575.468,-252 624.281,-265.302 679.934,-280.092 719.95,-290.661"/>
<polygon fill="black" stroke="black" points="729.774,-293.254 718.956,-295.053 724.939,-291.978 720.105,-290.702 720.105,-290.702 720.105,-290.702 724.939,-291.978 721.253,-286.351 729.774,-293.254 729.774,-293.254"/>
</g>
<!-- 18 -->
<g id="node19" class="node"><title>18</title>
<polygon fill="none" stroke="black" points="1788.97,-108 1699.97,-108 1699.97,-72 1788.97,-72 1788.97,-108"/>
<text text-anchor="middle" x="1744.47" y="-86.3" font-family="Times,serif" font-size="14.00">simpy.io.poll</text>
</g>
<!-- 18&#45;&gt;8 -->
<g id="edge34" class="edge"><title>18&#45;&gt;8</title>
<path fill="none" stroke="black" d="M1744.47,-108.303C1744.47,-116.017 1744.47,-125.288 1744.47,-133.888"/>
<polygon fill="black" stroke="black" points="1744.47,-143.896 1739.97,-133.896 1744.47,-138.896 1744.47,-133.896 1744.47,-133.896 1744.47,-133.896 1744.47,-138.896 1748.97,-133.896 1744.47,-143.896 1744.47,-143.896"/>
</g>
<!-- 18&#45;&gt;17 -->
<g id="edge35" class="edge"><title>18&#45;&gt;17</title>
<path fill="none" stroke="black" d="M1766.03,-108.215C1777.08,-117.859 1790.14,-130.617 1799.47,-144 1812.89,-163.271 1823.25,-187.903 1829.91,-206.366"/>
<polygon fill="black" stroke="black" points="1833.22,-215.915 1825.69,-207.943 1831.58,-211.192 1829.94,-206.468 1829.94,-206.468 1829.94,-206.468 1831.58,-211.192 1834.19,-204.993 1833.22,-215.915 1833.22,-215.915"/>
</g>
<!-- 19 -->
<g id="node20" class="node"><title>19</title>
<polygon fill="none" stroke="black" points="2022.97,-108 1923.97,-108 1923.97,-72 2022.97,-72 2022.97,-108"/>
<text text-anchor="middle" x="1973.47" y="-86.3" font-family="Times,serif" font-size="14.00">simpy.io.select</text>
</g>
<!-- 19&#45;&gt;1 -->
<g id="edge36" class="edge"><title>19&#45;&gt;1</title>
<path fill="none" stroke="black" d="M1975.27,-108.118C1978.82,-151.875 1981.42,-268.278 1916.47,-324 1875.67,-359.003 1516.41,-371.854 1371.09,-375.647"/>
<polygon fill="black" stroke="black" points="1361,-375.905 1370.88,-371.151 1366,-375.777 1371,-375.65 1371,-375.65 1371,-375.65 1366,-375.777 1371.11,-380.148 1361,-375.905 1361,-375.905"/>
</g>
<!-- 19&#45;&gt;8 -->
<g id="edge37" class="edge"><title>19&#45;&gt;8</title>
<path fill="none" stroke="black" d="M1923.78,-106.189C1887.43,-117.299 1838.09,-132.381 1800.37,-143.912"/>
<polygon fill="black" stroke="black" points="1790.55,-146.913 1798.8,-139.686 1795.33,-145.451 1800.12,-143.989 1800.12,-143.989 1800.12,-143.989 1795.33,-145.451 1801.43,-148.293 1790.55,-146.913 1790.55,-146.913"/>
</g>
<!-- 19&#45;&gt;17 -->
<g id="edge38" class="edge"><title>19&#45;&gt;17</title>
<path fill="none" stroke="black" d="M1957.18,-108.129C1933.47,-133.076 1889.28,-179.55 1862.02,-208.227"/>
<polygon fill="black" stroke="black" points="1854.81,-215.811 1858.44,-205.463 1858.25,-212.187 1861.7,-208.563 1861.7,-208.563 1861.7,-208.563 1858.25,-212.187 1864.96,-211.664 1854.81,-215.811 1854.81,-215.811"/>
</g>
<!-- 20 -->
<g id="node21" class="node"><title>20</title>
<polygon fill="none" stroke="black" points="1233.47,-36 1129.47,-36 1129.47,-0 1233.47,-0 1233.47,-36"/>
<text text-anchor="middle" x="1181.47" y="-14.3" font-family="Times,serif" font-size="14.00">simpy.io.virtual</text>
</g>
<!-- 20&#45;&gt;0 -->
<g id="edge39" class="edge"><title>20&#45;&gt;0</title>
<path fill="none" stroke="black" d="M1181.47,-36.3034C1181.47,-44.0173 1181.47,-53.2875 1181.47,-61.8876"/>
<polygon fill="black" stroke="black" points="1181.47,-71.8957 1176.97,-61.8956 1181.47,-66.8957 1181.47,-61.8957 1181.47,-61.8957 1181.47,-61.8957 1181.47,-66.8957 1185.97,-61.8957 1181.47,-71.8957 1181.47,-71.8957"/>
</g>
<!-- 20&#45;&gt;2 -->
<g id="edge40" class="edge"><title>20&#45;&gt;2</title>
<path fill="none" stroke="black" d="M1146.29,-36.0147C1109.39,-56.0588 1053.47,-93.1807 1029.47,-144 1022.63,-158.467 1024.39,-164.829 1029.47,-180 1032.82,-190.002 1038.88,-199.624 1045.3,-207.862"/>
<polygon fill="black" stroke="black" points="1051.73,-215.599 1041.88,-210.791 1048.54,-211.756 1045.34,-207.913 1045.34,-207.913 1045.34,-207.913 1048.54,-211.756 1048.8,-205.034 1051.73,-215.599 1051.73,-215.599"/>
</g>
<!-- 20&#45;&gt;3 -->
<g id="edge41" class="edge"><title>20&#45;&gt;3</title>
<path fill="none" stroke="black" d="M1233.68,-33.6843C1236.65,-34.4782 1239.59,-35.2551 1242.47,-36 1424.46,-83.182 1537.71,5.69033 1651.47,-144 1661.15,-156.739 1660.45,-166.759 1651.47,-180 1602.86,-251.644 1554.82,-232.49 1470.47,-252 1348.81,-280.14 971.951,-297.322 829.639,-302.951"/>
<polygon fill="black" stroke="black" points="819.403,-303.352 829.219,-298.464 824.399,-303.156 829.395,-302.96 829.395,-302.96 829.395,-302.96 824.399,-303.156 829.571,-307.457 819.403,-303.352 819.403,-303.352"/>
</g>
<!-- 20&#45;&gt;4 -->
<g id="edge42" class="edge"><title>20&#45;&gt;4</title>
<path fill="none" stroke="black" d="M1129.45,-21.1592C999.266,-26.9556 666.812,-44.3188 625.468,-72 604.103,-86.3041 591.771,-113.567 585.146,-134.167"/>
<polygon fill="black" stroke="black" points="582.261,-143.942 580.776,-133.077 583.677,-139.147 585.092,-134.351 585.092,-134.351 585.092,-134.351 583.677,-139.147 589.408,-135.625 582.261,-143.942 582.261,-143.942"/>
</g>
<!-- 20&#45;&gt;8 -->
<g id="edge43" class="edge"><title>20&#45;&gt;8</title>
<path fill="none" stroke="black" d="M1233.57,-34.1953C1236.56,-34.859 1239.55,-35.4679 1242.47,-36 1420.25,-68.3922 1482.14,0.948781 1647.47,-72 1656.08,-75.7997 1693.78,-111.564 1719.56,-136.581"/>
<polygon fill="black" stroke="black" points="1726.81,-143.634 1716.5,-139.885 1723.22,-140.147 1719.64,-136.66 1719.64,-136.66 1719.64,-136.66 1723.22,-140.147 1722.78,-133.435 1726.81,-143.634 1726.81,-143.634"/>
</g>
<!-- 20&#45;&gt;15 -->
<g id="edge44" class="edge"><title>20&#45;&gt;15</title>
<path fill="none" stroke="black" d="M1129.23,-18.7342C1031.87,-20.8953 820.521,-38.4156 687.468,-144 667.744,-159.652 655.618,-186.062 648.803,-206.058"/>
<polygon fill="black" stroke="black" points="645.712,-215.839 644.435,-204.948 647.219,-211.072 648.726,-206.304 648.726,-206.304 648.726,-206.304 647.219,-211.072 653.017,-207.66 645.712,-215.839 645.712,-215.839"/>
</g>
<!-- 20&#45;&gt;26 -->
<g id="edge45" class="edge"><title>20&#45;&gt;26</title>
<path fill="none" stroke="black" d="M1228.87,-36.1285C1301.41,-62.3375 1439.7,-112.305 1517.55,-140.435"/>
<polygon fill="black" stroke="black" points="1527.2,-143.921 1516.27,-144.755 1522.5,-142.222 1517.8,-140.523 1517.8,-140.523 1517.8,-140.523 1522.5,-142.222 1519.33,-136.291 1527.2,-143.921 1527.2,-143.921"/>
</g>
<!-- 21 -->
<g id="node22" class="node"><title>21</title>
<polygon fill="none" stroke="black" points="830.968,-180 705.968,-180 705.968,-144 830.968,-144 830.968,-180"/>
<text text-anchor="middle" x="768.468" y="-158.3" font-family="Times,serif" font-size="14.00">simpy.io.websocket</text>
</g>
<!-- 21&#45;&gt;1 -->
<g id="edge46" class="edge"><title>21&#45;&gt;1</title>
<path fill="none" stroke="black" d="M811.906,-180.151C910.44,-219.056 1150.62,-313.888 1257.58,-356.118"/>
<polygon fill="black" stroke="black" points="1267.2,-359.916 1256.25,-360.429 1262.55,-358.08 1257.9,-356.244 1257.9,-356.244 1257.9,-356.244 1262.55,-358.08 1259.55,-352.058 1267.2,-359.916 1267.2,-359.916"/>
</g>
<!-- 21&#45;&gt;2 -->
<g id="edge47" class="edge"><title>21&#45;&gt;2</title>
<path fill="none" stroke="black" d="M831.181,-178.046C833.981,-178.709 836.753,-179.362 839.468,-180 902.089,-194.712 974.396,-211.31 1020.96,-221.949"/>
<polygon fill="black" stroke="black" points="1030.78,-224.192 1020.03,-226.353 1025.91,-223.079 1021.04,-221.966 1021.04,-221.966 1021.04,-221.966 1025.91,-223.079 1022.04,-217.578 1030.78,-224.192 1030.78,-224.192"/>
</g>
<!-- 21&#45;&gt;15 -->
<g id="edge48" class="edge"><title>21&#45;&gt;15</title>
<path fill="none" stroke="black" d="M737.4,-180.124C720.641,-189.361 699.762,-200.869 681.766,-210.788"/>
<polygon fill="black" stroke="black" points="672.655,-215.81 679.24,-207.042 677.034,-213.397 681.413,-210.983 681.413,-210.983 681.413,-210.983 677.034,-213.397 683.585,-214.924 672.655,-215.81 672.655,-215.81"/>
</g>
<!-- 22 -->
<g id="node23" class="node"><title>22</title>
<polygon fill="none" stroke="black" points="1461.97,-252 1356.97,-252 1356.97,-216 1461.97,-216 1461.97,-252"/>
<text text-anchor="middle" x="1409.47" y="-230.3" font-family="Times,serif" font-size="14.00">simpy.resources</text>
</g>
<!-- 23 -->
<g id="node24" class="node"><title>23</title>
<polygon fill="none" stroke="black" points="981.968,-180 848.968,-180 848.968,-144 981.968,-144 981.968,-180"/>
<text text-anchor="middle" x="915.468" y="-158.3" font-family="Times,serif" font-size="14.00">simpy.resources.base</text>
</g>
<!-- 23&#45;&gt;2 -->
<g id="edge49" class="edge"><title>23&#45;&gt;2</title>
<path fill="none" stroke="black" d="M953.14,-180.124C974.1,-189.651 1000.37,-201.593 1022.64,-211.717"/>
<polygon fill="black" stroke="black" points="1031.92,-215.932 1020.95,-215.89 1027.37,-213.863 1022.81,-211.794 1022.81,-211.794 1022.81,-211.794 1027.37,-213.863 1024.68,-207.697 1031.92,-215.932 1031.92,-215.932"/>
</g>
<!-- 23&#45;&gt;3 -->
<g id="edge50" class="edge"><title>23&#45;&gt;3</title>
<path fill="none" stroke="black" d="M898.46,-180.129C873.582,-205.183 827.146,-251.948 798.702,-280.594"/>
<polygon fill="black" stroke="black" points="791.536,-287.811 795.389,-277.544 795.059,-284.263 798.582,-280.715 798.582,-280.715 798.582,-280.715 795.059,-284.263 801.775,-283.885 791.536,-287.811 791.536,-287.811"/>
</g>
<!-- 24&#45;&gt;2 -->
<g id="edge51" class="edge"><title>24&#45;&gt;2</title>
<path fill="none" stroke="black" d="M1329.75,-179.412C1264.16,-192.917 1173.3,-211.623 1118.1,-222.987"/>
<polygon fill="black" stroke="black" points="1108.23,-225.02 1117.11,-218.596 1113.12,-224.012 1118.02,-223.004 1118.02,-223.004 1118.02,-223.004 1113.12,-224.012 1118.93,-227.411 1108.23,-225.02 1108.23,-225.02"/>
</g>
<!-- 24&#45;&gt;22 -->
<g id="edge52" class="edge"><title>24&#45;&gt;22</title>
<path fill="none" stroke="black" d="M1409.47,-180.303C1409.47,-188.017 1409.47,-197.288 1409.47,-205.888"/>
<polygon fill="black" stroke="black" points="1409.47,-215.896 1404.97,-205.896 1409.47,-210.896 1409.47,-205.896 1409.47,-205.896 1409.47,-205.896 1409.47,-210.896 1413.97,-205.896 1409.47,-215.896 1409.47,-215.896"/>
</g>
<!-- 25&#45;&gt;2 -->
<g id="edge53" class="edge"><title>25&#45;&gt;2</title>
<path fill="none" stroke="black" d="M1194.1,-180.124C1170.94,-189.95 1141.72,-202.346 1117.4,-212.666"/>
<polygon fill="black" stroke="black" points="1108,-216.655 1115.44,-208.607 1112.6,-214.702 1117.2,-212.749 1117.2,-212.749 1117.2,-212.749 1112.6,-214.702 1118.96,-216.892 1108,-216.655 1108,-216.655"/>
</g>
<!-- 25&#45;&gt;22 -->
<g id="edge54" class="edge"><title>25&#45;&gt;22</title>
<path fill="none" stroke="black" d="M1277.28,-180.124C1301.41,-189.778 1331.75,-201.913 1357.27,-212.122"/>
<polygon fill="black" stroke="black" points="1366.8,-215.932 1355.84,-216.396 1362.15,-214.075 1357.51,-212.218 1357.51,-212.218 1357.51,-212.218 1362.15,-214.075 1359.18,-208.04 1366.8,-215.932 1366.8,-215.932"/>
</g>
<!-- 26&#45;&gt;2 -->
<g id="edge55" class="edge"><title>26&#45;&gt;2</title>
<path fill="none" stroke="black" d="M1506.93,-178.287C1503.74,-178.892 1500.57,-179.467 1497.47,-180 1360.82,-203.492 1197.9,-220.73 1118.23,-228.47"/>
<polygon fill="black" stroke="black" points="1108.01,-229.455 1117.53,-224.016 1112.99,-228.975 1117.97,-228.495 1117.97,-228.495 1117.97,-228.495 1112.99,-228.975 1118.4,-232.975 1108.01,-229.455 1108.01,-229.455"/>
</g>
<!-- 26&#45;&gt;22 -->
<g id="edge56" class="edge"><title>26&#45;&gt;22</title>
<path fill="none" stroke="black" d="M1534.1,-180.124C1511.45,-189.736 1483,-201.807 1459,-211.987"/>
<polygon fill="black" stroke="black" points="1449.7,-215.932 1457.15,-207.884 1454.3,-213.979 1458.91,-212.026 1458.91,-212.026 1458.91,-212.026 1454.3,-213.979 1460.66,-216.169 1449.7,-215.932 1449.7,-215.932"/>
</g>
<!-- 27&#45;&gt;2 -->
<g id="edge57" class="edge"><title>27&#45;&gt;2</title>
<path fill="none" stroke="black" d="M1069.47,-180.303C1069.47,-188.017 1069.47,-197.288 1069.47,-205.888"/>
<polygon fill="black" stroke="black" points="1069.47,-215.896 1064.97,-205.896 1069.47,-210.896 1069.47,-205.896 1069.47,-205.896 1069.47,-205.896 1069.47,-210.896 1073.97,-205.896 1069.47,-215.896 1069.47,-215.896"/>
</g>
<!-- 28 -->
<g id="node29" class="node"><title>28</title>
<polygon fill="none" stroke="black" points="1323.47,-36 1251.47,-36 1251.47,-0 1323.47,-0 1323.47,-36"/>
<text text-anchor="middle" x="1287.47" y="-14.3" font-family="Times,serif" font-size="14.00">simpy.util</text>
</g>
</g>
</svg>
