<?xml version="1.0" encoding="UTF-8" standalone="no"?>
<!DOCTYPE svg PUBLIC "-//W3C//DTD SVG 1.1//EN"
 "http://www.w3.org/Graphics/SVG/1.1/DTD/svg11.dtd">
<!-- Generated by graphviz version 2.38.0 (20140413.2041)
 -->
<!-- Title: packages_mosaik_simpy Pages: 1 -->
<svg width="2302pt" height="476pt"
 viewBox="0.00 0.00 2302.00 476.00" xmlns="http://www.w3.org/2000/svg" xmlns:xlink="http://www.w3.org/1999/xlink">
<g id="graph0" class="graph" transform="scale(1 1) rotate(0) translate(4 472)">
<title>packages_mosaik_simpy</title>
<polygon fill="white" stroke="none" points="-4,4 -4,-472 2298,-472 2298,4 -4,4"/>
<!-- 0 -->
<g id="node1" class="node"><title>0</title>
<polygon fill="none" stroke="black" points="80.5,-180 24.5,-180 24.5,-144 80.5,-144 80.5,-180"/>
<text text-anchor="middle" x="52.5" y="-158.3" font-family="Times,serif" font-size="14.00">mosaik</text>
</g>
<!-- 0&#45;&gt;0 -->
<g id="edge1" class="edge"><title>0&#45;&gt;0</title>
<path fill="none" stroke="black" d="M80.7994,-148.503C90.5919,-148.36 98.5,-152.859 98.5,-162 98.5,-167.713 95.4109,-171.613 90.7033,-173.699"/>
<polygon fill="black" stroke="black" points="80.7994,-175.497 89.835,-169.283 85.719,-174.604 90.6387,-173.711 90.6387,-173.711 90.6387,-173.711 85.719,-174.604 91.4423,-178.138 80.7994,-175.497 80.7994,-175.497"/>
</g>
<!-- 4 -->
<g id="node5" class="node"><title>4</title>
<polygon fill="none" stroke="black" points="105,-252 0,-252 0,-216 105,-216 105,-252"/>
<text text-anchor="middle" x="52.5" y="-230.3" font-family="Times,serif" font-size="14.00">mosaik.scenario</text>
</g>
<!-- 0&#45;&gt;4 -->
<g id="edge2" class="edge"><title>0&#45;&gt;4</title>
<path fill="none" stroke="black" d="M46.5843,-180.303C45.7886,-188.017 45.5621,-197.288 45.9047,-205.888"/>
<polygon fill="black" stroke="black" points="46.605,-215.896 41.4179,-206.234 46.2559,-210.908 45.9069,-205.92 45.9069,-205.92 45.9069,-205.92 46.2559,-210.908 50.3959,-205.606 46.605,-215.896 46.605,-215.896"/>
</g>
<!-- 1 -->
<g id="node2" class="node"><title>1</title>
<polygon fill="none" stroke="black" points="102.5,-108 2.5,-108 2.5,-72 102.5,-72 102.5,-108"/>
<text text-anchor="middle" x="52.5" y="-86.3" font-family="Times,serif" font-size="14.00">mosaik._debug</text>
</g>
<!-- 1&#45;&gt;0 -->
<g id="edge3" class="edge"><title>1&#45;&gt;0</title>
<path fill="none" stroke="black" d="M52.5,-108.303C52.5,-116.017 52.5,-125.288 52.5,-133.888"/>
<polygon fill="black" stroke="black" points="52.5,-143.896 48.0001,-133.896 52.5,-138.896 52.5001,-133.896 52.5001,-133.896 52.5001,-133.896 52.5,-138.896 57.0001,-133.896 52.5,-143.896 52.5,-143.896"/>
</g>
<!-- 2 -->
<g id="node3" class="node"><title>2</title>
<polygon fill="none" stroke="black" points="367,-36 260,-36 260,-0 367,-0 367,-36"/>
<text text-anchor="middle" x="313.5" y="-14.3" font-family="Times,serif" font-size="14.00">mosaik._version</text>
</g>
<!-- 3 -->
<g id="node4" class="node"><title>3</title>
<polygon fill="none" stroke="black" points="211.5,-324 93.5,-324 93.5,-288 211.5,-288 211.5,-324"/>
<text text-anchor="middle" x="152.5" y="-302.3" font-family="Times,serif" font-size="14.00">mosaik.exceptions</text>
</g>
<!-- 4&#45;&gt;0 -->
<g id="edge4" class="edge"><title>4&#45;&gt;0</title>
<path fill="none" stroke="black" d="M58.395,-215.896C59.2005,-208.209 59.4369,-198.946 59.104,-190.335"/>
<polygon fill="black" stroke="black" points="58.4157,-180.303 63.5898,-189.972 58.758,-185.292 59.1003,-190.28 59.1003,-190.28 59.1003,-190.28 58.758,-185.292 54.6109,-190.588 58.4157,-180.303 58.4157,-180.303"/>
</g>
<!-- 4&#45;&gt;3 -->
<g id="edge5" class="edge"><title>4&#45;&gt;3</title>
<path fill="none" stroke="black" d="M76.9628,-252.124C89.7956,-261.107 105.696,-272.237 119.594,-281.966"/>
<polygon fill="black" stroke="black" points="127.943,-287.81 117.17,-285.762 123.847,-284.943 119.751,-282.076 119.751,-282.076 119.751,-282.076 123.847,-284.943 122.331,-278.389 127.943,-287.81 127.943,-287.81"/>
</g>
<!-- 5 -->
<g id="node6" class="node"><title>5</title>
<polygon fill="none" stroke="black" points="241.5,-36 129.5,-36 129.5,-0 241.5,-0 241.5,-36"/>
<text text-anchor="middle" x="185.5" y="-14.3" font-family="Times,serif" font-size="14.00">mosaik.scheduler</text>
</g>
<!-- 5&#45;&gt;3 -->
<g id="edge6" class="edge"><title>5&#45;&gt;3</title>
<path fill="none" stroke="black" d="M177.452,-36.2627C173.103,-46.4336 168.103,-59.6836 165.5,-72 150.054,-145.084 150.113,-233.755 151.356,-277.652"/>
<polygon fill="black" stroke="black" points="151.689,-287.81 146.864,-277.963 151.525,-282.813 151.361,-277.816 151.361,-277.816 151.361,-277.816 151.525,-282.813 155.859,-277.668 151.689,-287.81 151.689,-287.81"/>
</g>
<!-- 6 -->
<g id="node7" class="node"><title>6</title>
<polygon fill="none" stroke="black" points="302.5,-108 174.5,-108 174.5,-72 302.5,-72 302.5,-108"/>
<text text-anchor="middle" x="238.5" y="-86.3" font-family="Times,serif" font-size="14.00">mosaik.simmanager</text>
</g>
<!-- 5&#45;&gt;6 -->
<g id="edge7" class="edge"><title>5&#45;&gt;6</title>
<path fill="none" stroke="black" d="M198.601,-36.3034C204.891,-44.6107 212.547,-54.7229 219.465,-63.8593"/>
<polygon fill="black" stroke="black" points="225.55,-71.8957 215.925,-66.6395 222.531,-67.9094 219.513,-63.9231 219.513,-63.9231 219.513,-63.9231 222.531,-67.9094 223.101,-61.2067 225.55,-71.8957 225.55,-71.8957"/>
</g>
<!-- 6&#45;&gt;0 -->
<g id="edge8" class="edge"><title>6&#45;&gt;0</title>
<path fill="none" stroke="black" d="M192.999,-108.124C161.499,-119.979 120.061,-135.574 90.3632,-146.75"/>
<polygon fill="black" stroke="black" points="80.7731,-150.36 88.5472,-142.626 85.4527,-148.598 90.1323,-146.837 90.1323,-146.837 90.1323,-146.837 85.4527,-148.598 91.7173,-151.049 80.7731,-150.36 80.7731,-150.36"/>
</g>
<!-- 6&#45;&gt;3 -->
<g id="edge9" class="edge"><title>6&#45;&gt;3</title>
<path fill="none" stroke="black" d="M231.608,-108.151C216.637,-145.403 181.06,-233.933 163.165,-278.461"/>
<polygon fill="black" stroke="black" points="159.425,-287.768 158.979,-276.811 161.29,-283.128 163.154,-278.489 163.154,-278.489 163.154,-278.489 161.29,-283.128 167.33,-280.167 159.425,-287.768 159.425,-287.768"/>
</g>
<!-- 7 -->
<g id="node8" class="node"><title>7</title>
<polygon fill="none" stroke="black" points="277.5,-252 199.5,-252 199.5,-216 277.5,-216 277.5,-252"/>
<text text-anchor="middle" x="238.5" y="-230.3" font-family="Times,serif" font-size="14.00">mosaik.util</text>
</g>
<!-- 6&#45;&gt;7 -->
<g id="edge10" class="edge"><title>6&#45;&gt;7</title>
<path fill="none" stroke="black" d="M238.5,-108.129C238.5,-132.33 238.5,-176.789 238.5,-205.607"/>
<polygon fill="black" stroke="black" points="238.5,-215.811 234,-205.811 238.5,-210.811 238.5,-205.811 238.5,-205.811 238.5,-205.811 238.5,-210.811 243,-205.811 238.5,-215.811 238.5,-215.811"/>
</g>
<!-- 12 -->
<g id="node13" class="node"><title>12</title>
<polygon fill="none" stroke="black" points="845,-252 780,-252 780,-216 845,-216 845,-252"/>
<text text-anchor="middle" x="812.5" y="-230.3" font-family="Times,serif" font-size="14.00">simpy.io</text>
</g>
<!-- 6&#45;&gt;12 -->
<g id="edge11" class="edge"><title>6&#45;&gt;12</title>
<path fill="none" stroke="black" d="M302.634,-92.8054C382.858,-96.5706 523.641,-108.185 638.5,-144 689.496,-159.902 743.574,-189.904 777.658,-210.65"/>
<polygon fill="black" stroke="black" points="786.3,-215.973 775.426,-214.56 782.043,-213.351 777.786,-210.728 777.786,-210.728 777.786,-210.728 782.043,-213.351 780.146,-206.897 786.3,-215.973 786.3,-215.973"/>
</g>
<!-- 21 -->
<g id="node22" class="node"><title>21</title>
<polygon fill="none" stroke="black" points="630,-180 539,-180 539,-144 630,-144 630,-180"/>
<text text-anchor="middle" x="584.5" y="-158.3" font-family="Times,serif" font-size="14.00">simpy.io.json</text>
</g>
<!-- 6&#45;&gt;21 -->
<g id="edge12" class="edge"><title>6&#45;&gt;21</title>
<path fill="none" stroke="black" d="M302.769,-104.002C367.748,-117.148 467.143,-137.257 528.852,-149.742"/>
<polygon fill="black" stroke="black" points="538.795,-151.753 528.101,-154.181 533.894,-150.762 528.994,-149.77 528.994,-149.77 528.994,-149.77 533.894,-150.762 529.886,-145.36 538.795,-151.753 538.795,-151.753"/>
</g>
<!-- 24 -->
<g id="node25" class="node"><title>24</title>
<polygon fill="none" stroke="black" points="895.5,-324 791.5,-324 791.5,-288 895.5,-288 895.5,-324"/>
<text text-anchor="middle" x="843.5" y="-302.3" font-family="Times,serif" font-size="14.00">simpy.io.packet</text>
</g>
<!-- 6&#45;&gt;24 -->
<g id="edge13" class="edge"><title>6&#45;&gt;24</title>
<path fill="none" stroke="black" d="M302.758,-92.2457C392.143,-95.3715 558.368,-106.257 694.5,-144 769.254,-164.726 811.456,-150.807 853.5,-216 865.358,-234.387 861.159,-259.449 854.972,-278.294"/>
<polygon fill="black" stroke="black" points="851.526,-287.777 850.712,-276.841 853.234,-283.078 854.942,-278.379 854.942,-278.379 854.942,-278.379 853.234,-283.078 859.171,-279.916 851.526,-287.777 851.526,-287.777"/>
</g>
<!-- 7&#45;&gt;3 -->
<g id="edge14" class="edge"><title>7&#45;&gt;3</title>
<path fill="none" stroke="black" d="M217.242,-252.303C206.411,-261.119 193.082,-271.968 181.34,-281.526"/>
<polygon fill="black" stroke="black" points="173.514,-287.896 178.429,-278.093 177.392,-284.739 181.27,-281.583 181.27,-281.583 181.27,-281.583 177.392,-284.739 184.11,-285.073 173.514,-287.896 173.514,-287.896"/>
</g>
<!-- 23 -->
<g id="node24" class="node"><title>23</title>
<polygon fill="none" stroke="black" points="1027,-324 914,-324 914,-288 1027,-288 1027,-324"/>
<text text-anchor="middle" x="970.5" y="-302.3" font-family="Times,serif" font-size="14.00">simpy.io.network</text>
</g>
<!-- 7&#45;&gt;23 -->
<g id="edge15" class="edge"><title>7&#45;&gt;23</title>
<path fill="none" stroke="black" d="M277.747,-239.488C310.534,-243.148 358.526,-248.3 400.5,-252 620.926,-271.433 681.105,-252.418 903.72,-288.064"/>
<polygon fill="black" stroke="black" points="913.757,-289.69 903.166,-292.532 908.821,-288.89 903.885,-288.09 903.885,-288.09 903.885,-288.09 908.821,-288.89 904.605,-283.648 913.757,-289.69 913.757,-289.69"/>
</g>
<!-- 8 -->
<g id="node9" class="node"><title>8</title>
<polygon fill="none" stroke="black" points="1417.5,-180 1363.5,-180 1363.5,-144 1417.5,-144 1417.5,-180"/>
<text text-anchor="middle" x="1390.5" y="-158.3" font-family="Times,serif" font-size="14.00">simpy</text>
</g>
<!-- 10 -->
<g id="node11" class="node"><title>10</title>
<polygon fill="none" stroke="black" points="1604,-324 1527,-324 1527,-288 1604,-288 1604,-324"/>
<text text-anchor="middle" x="1565.5" y="-302.3" font-family="Times,serif" font-size="14.00">simpy.core</text>
</g>
<!-- 8&#45;&gt;10 -->
<g id="edge16" class="edge"><title>8&#45;&gt;10</title>
<path fill="none" stroke="black" d="M1417.59,-162.872C1491.29,-163.159 1692.66,-168.368 1733.5,-216 1771.56,-260.387 1676.51,-285.96 1614.34,-297.503"/>
<polygon fill="black" stroke="black" points="1604.29,-299.301 1613.34,-293.11 1609.21,-298.42 1614.13,-297.539 1614.13,-297.539 1614.13,-297.539 1609.21,-298.42 1614.93,-301.969 1604.29,-299.301 1604.29,-299.301"/>
</g>
<!-- 11 -->
<g id="node12" class="node"><title>11</title>
<polygon fill="none" stroke="black" points="1174,-396 1085,-396 1085,-360 1174,-360 1174,-396"/>
<text text-anchor="middle" x="1129.5" y="-374.3" font-family="Times,serif" font-size="14.00">simpy.events</text>
</g>
<!-- 8&#45;&gt;11 -->
<g id="edge17" class="edge"><title>8&#45;&gt;11</title>
<path fill="none" stroke="black" d="M1363.09,-165.17C1306.35,-170.254 1178.96,-184.928 1150.5,-216 1117.2,-252.356 1119.6,-314.188 1124.46,-349.713"/>
<polygon fill="black" stroke="black" points="1126.01,-359.836 1120.05,-350.633 1125.26,-354.894 1124.5,-349.952 1124.5,-349.952 1124.5,-349.952 1125.26,-354.894 1128.95,-349.27 1126.01,-359.836 1126.01,-359.836"/>
</g>
<!-- 32 -->
<g id="node33" class="node"><title>32</title>
<polygon fill="none" stroke="black" points="1645,-252 1486,-252 1486,-216 1645,-216 1645,-252"/>
<text text-anchor="middle" x="1565.5" y="-230.3" font-family="Times,serif" font-size="14.00">simpy.resources.container</text>
</g>
<!-- 8&#45;&gt;32 -->
<g id="edge18" class="edge"><title>8&#45;&gt;32</title>
<path fill="none" stroke="black" d="M1417.84,-173.938C1443.28,-184.113 1481.87,-199.547 1513.22,-212.087"/>
<polygon fill="black" stroke="black" points="1522.69,-215.876 1511.73,-216.34 1518.05,-214.019 1513.41,-212.162 1513.41,-212.162 1513.41,-212.162 1518.05,-214.019 1515.08,-207.984 1522.69,-215.876 1522.69,-215.876"/>
</g>
<!-- 33 -->
<g id="node34" class="node"><title>33</title>
<polygon fill="none" stroke="black" points="1468,-252 1313,-252 1313,-216 1468,-216 1468,-252"/>
<text text-anchor="middle" x="1390.5" y="-230.3" font-family="Times,serif" font-size="14.00">simpy.resources.resource</text>
</g>
<!-- 8&#45;&gt;33 -->
<g id="edge19" class="edge"><title>8&#45;&gt;33</title>
<path fill="none" stroke="black" d="M1390.5,-180.303C1390.5,-188.017 1390.5,-197.288 1390.5,-205.888"/>
<polygon fill="black" stroke="black" points="1390.5,-215.896 1386,-205.896 1390.5,-210.896 1390.5,-205.896 1390.5,-205.896 1390.5,-205.896 1390.5,-210.896 1395,-205.896 1390.5,-215.896 1390.5,-215.896"/>
</g>
<!-- 34 -->
<g id="node35" class="node"><title>34</title>
<polygon fill="none" stroke="black" points="1295,-252 1160,-252 1160,-216 1295,-216 1295,-252"/>
<text text-anchor="middle" x="1227.5" y="-230.3" font-family="Times,serif" font-size="14.00">simpy.resources.store</text>
</g>
<!-- 8&#45;&gt;34 -->
<g id="edge20" class="edge"><title>8&#45;&gt;34</title>
<path fill="none" stroke="black" d="M1363.22,-174.716C1339.6,-184.857 1304.88,-199.77 1276.46,-211.972"/>
<polygon fill="black" stroke="black" points="1267.1,-215.996 1274.51,-207.915 1271.69,-214.023 1276.28,-212.05 1276.28,-212.05 1276.28,-212.05 1271.69,-214.023 1278.06,-216.184 1267.1,-215.996 1267.1,-215.996"/>
</g>
<!-- 35 -->
<g id="node36" class="node"><title>35</title>
<polygon fill="none" stroke="black" points="1724.5,-252 1662.5,-252 1662.5,-216 1724.5,-216 1724.5,-252"/>
<text text-anchor="middle" x="1693.5" y="-230.3" font-family="Times,serif" font-size="14.00">simpy.rt</text>
</g>
<!-- 8&#45;&gt;35 -->
<g id="edge21" class="edge"><title>8&#45;&gt;35</title>
<path fill="none" stroke="black" d="M1417.58,-166.493C1464.24,-172.922 1562.74,-188.3 1652.45,-215.644"/>
<polygon fill="black" stroke="black" points="1662.22,-218.681 1651.33,-220.009 1657.44,-217.196 1652.67,-215.712 1652.67,-215.712 1652.67,-215.712 1657.44,-217.196 1654,-211.415 1662.22,-218.681 1662.22,-218.681"/>
</g>
<!-- 9 -->
<g id="node10" class="node"><title>9</title>
<polygon fill="none" stroke="black" points="1565,-468 1464,-468 1464,-432 1565,-432 1565,-468"/>
<text text-anchor="middle" x="1514.5" y="-446.3" font-family="Times,serif" font-size="14.00">simpy._compat</text>
</g>
<!-- 10&#45;&gt;11 -->
<g id="edge22" class="edge"><title>10&#45;&gt;11</title>
<path fill="none" stroke="black" d="M1526.81,-313.212C1449.05,-325.697 1273.62,-353.861 1184.17,-368.222"/>
<polygon fill="black" stroke="black" points="1174.23,-369.819 1183.39,-363.791 1179.16,-369.026 1184.1,-368.234 1184.1,-368.234 1184.1,-368.234 1179.16,-369.026 1184.81,-372.677 1174.23,-369.819 1174.23,-369.819"/>
</g>
<!-- 11&#45;&gt;9 -->
<g id="edge23" class="edge"><title>11&#45;&gt;9</title>
<path fill="none" stroke="black" d="M1174.04,-387.098C1243.09,-399.652 1376.09,-423.835 1453.85,-437.972"/>
<polygon fill="black" stroke="black" points="1463.98,-439.814 1453.33,-442.452 1459.06,-438.919 1454.14,-438.025 1454.14,-438.025 1454.14,-438.025 1459.06,-438.919 1454.94,-433.597 1463.98,-439.814 1463.98,-439.814"/>
</g>
<!-- 13 -->
<g id="node14" class="node"><title>13</title>
<polygon fill="none" stroke="black" points="2130.5,-396 2014.5,-396 2014.5,-360 2130.5,-360 2130.5,-396"/>
<text text-anchor="middle" x="2072.5" y="-374.3" font-family="Times,serif" font-size="14.00">simpy.io._compat</text>
</g>
<!-- 13&#45;&gt;9 -->
<g id="edge24" class="edge"><title>13&#45;&gt;9</title>
<path fill="none" stroke="black" d="M2014.36,-386.293C1908.09,-399.625 1683.48,-427.802 1575.28,-441.376"/>
<polygon fill="black" stroke="black" points="1565.18,-442.643 1574.54,-436.933 1570.14,-442.02 1575.1,-441.398 1575.1,-441.398 1575.1,-441.398 1570.14,-442.02 1575.66,-445.863 1565.18,-442.643 1565.18,-442.643"/>
</g>
<!-- 14 -->
<g id="node15" class="node"><title>14</title>
<polygon fill="none" stroke="black" points="617,-324 514,-324 514,-288 617,-288 617,-324"/>
<text text-anchor="middle" x="565.5" y="-302.3" font-family="Times,serif" font-size="14.00">simpy.io.access</text>
</g>
<!-- 15 -->
<g id="node16" class="node"><title>15</title>
<polygon fill="none" stroke="black" points="2177,-180 2078,-180 2078,-144 2177,-144 2177,-180"/>
<text text-anchor="middle" x="2127.5" y="-158.3" font-family="Times,serif" font-size="14.00">simpy.io.async</text>
</g>
<!-- 15&#45;&gt;13 -->
<g id="edge25" class="edge"><title>15&#45;&gt;13</title>
<path fill="none" stroke="black" d="M2140.41,-180.168C2161.85,-210.961 2199.79,-276.768 2171.5,-324 2163.49,-337.377 2150.82,-347.568 2137.19,-355.259"/>
<polygon fill="black" stroke="black" points="2128.13,-359.961 2134.93,-351.36 2132.56,-357.658 2137,-355.355 2137,-355.355 2137,-355.355 2132.56,-357.658 2139.07,-359.349 2128.13,-359.961 2128.13,-359.961"/>
</g>
<!-- 16 -->
<g id="node17" class="node"><title>16</title>
<polygon fill="none" stroke="black" points="2062.5,-252 1970.5,-252 1970.5,-216 2062.5,-216 2062.5,-252"/>
<text text-anchor="middle" x="2016.5" y="-230.3" font-family="Times,serif" font-size="14.00">simpy.io.base</text>
</g>
<!-- 15&#45;&gt;16 -->
<g id="edge26" class="edge"><title>15&#45;&gt;16</title>
<path fill="none" stroke="black" d="M2100.35,-180.124C2085.97,-189.192 2068.12,-200.448 2052.59,-210.241"/>
<polygon fill="black" stroke="black" points="2043.76,-215.81 2049.82,-206.67 2047.99,-213.143 2052.22,-210.476 2052.22,-210.476 2052.22,-210.476 2047.99,-213.143 2054.62,-214.282 2043.76,-215.81 2043.76,-215.81"/>
</g>
<!-- 25 -->
<g id="node26" class="node"><title>25</title>
<polygon fill="none" stroke="black" points="2162.5,-324 2046.5,-324 2046.5,-288 2162.5,-288 2162.5,-324"/>
<text text-anchor="middle" x="2104.5" y="-302.3" font-family="Times,serif" font-size="14.00">simpy.io.platform</text>
</g>
<!-- 15&#45;&gt;25 -->
<g id="edge27" class="edge"><title>15&#45;&gt;25</title>
<path fill="none" stroke="black" d="M2124.73,-180.129C2120.81,-204.33 2113.6,-248.789 2108.94,-277.607"/>
<polygon fill="black" stroke="black" points="2107.28,-287.811 2104.44,-277.22 2108.08,-282.875 2108.88,-277.939 2108.88,-277.939 2108.88,-277.939 2108.08,-282.875 2113.33,-278.659 2107.28,-287.811 2107.28,-287.811"/>
</g>
<!-- 16&#45;&gt;9 -->
<g id="edge28" class="edge"><title>16&#45;&gt;9</title>
<path fill="none" stroke="black" d="M1976.27,-252.151C1885.1,-291.016 1663,-385.697 1563.78,-427.991"/>
<polygon fill="black" stroke="black" points="1554.57,-431.916 1562.01,-423.855 1559.17,-429.956 1563.77,-427.995 1563.77,-427.995 1563.77,-427.995 1559.17,-429.956 1565.54,-432.134 1554.57,-431.916 1554.57,-431.916"/>
</g>
<!-- 16&#45;&gt;10 -->
<g id="edge29" class="edge"><title>16&#45;&gt;10</title>
<path fill="none" stroke="black" d="M1970.44,-249.849C1967.43,-250.63 1964.43,-251.356 1961.5,-252 1837.92,-279.17 1689.38,-294.53 1614.21,-301.115"/>
<polygon fill="black" stroke="black" points="1604.1,-301.987 1613.68,-296.645 1609.08,-301.557 1614.06,-301.128 1614.06,-301.128 1614.06,-301.128 1609.08,-301.557 1614.45,-305.611 1604.1,-301.987 1604.1,-301.987"/>
</g>
<!-- 16&#45;&gt;23 -->
<g id="edge30" class="edge"><title>16&#45;&gt;23</title>
<path fill="none" stroke="black" d="M1970.49,-250.123C1967.47,-250.836 1964.45,-251.473 1961.5,-252 1916.08,-260.106 1252.62,-291.764 1037.38,-301.876"/>
<polygon fill="black" stroke="black" points="1027.17,-302.356 1036.95,-297.392 1032.16,-302.121 1037.16,-301.887 1037.16,-301.887 1037.16,-301.887 1032.16,-302.121 1037.37,-306.382 1027.17,-302.356 1027.17,-302.356"/>
</g>
<!-- 16&#45;&gt;25 -->
<g id="edge31" class="edge"><title>16&#45;&gt;25</title>
<path fill="none" stroke="black" d="M2038.25,-252.303C2049.34,-261.119 2062.97,-271.968 2074.99,-281.526"/>
<polygon fill="black" stroke="black" points="2083,-287.896 2072.37,-285.192 2079.08,-284.783 2075.17,-281.67 2075.17,-281.67 2075.17,-281.67 2079.08,-284.783 2077.97,-278.149 2083,-287.896 2083,-287.896"/>
</g>
<!-- 17 -->
<g id="node18" class="node"><title>17</title>
<polygon fill="none" stroke="black" points="513.5,-252 409.5,-252 409.5,-216 513.5,-216 513.5,-252"/>
<text text-anchor="middle" x="461.5" y="-230.3" font-family="Times,serif" font-size="14.00">simpy.io.broker</text>
</g>
<!-- 17&#45;&gt;10 -->
<g id="edge32" class="edge"><title>17&#45;&gt;10</title>
<path fill="none" stroke="black" d="M513.73,-245.272C528.771,-247.876 545.239,-250.388 560.5,-252 954.631,-293.624 1056.93,-250.719 1451.5,-288 1473.06,-290.037 1496.76,-293.39 1516.94,-296.582"/>
<polygon fill="black" stroke="black" points="1526.84,-298.179 1516.26,-301.029 1521.91,-297.382 1516.97,-296.586 1516.97,-296.586 1516.97,-296.586 1521.91,-297.382 1517.69,-292.143 1526.84,-298.179 1526.84,-298.179"/>
</g>
<!-- 17&#45;&gt;14 -->
<g id="edge33" class="edge"><title>17&#45;&gt;14</title>
<path fill="none" stroke="black" d="M486.941,-252.124C500.287,-261.107 516.824,-272.237 531.278,-281.966"/>
<polygon fill="black" stroke="black" points="539.961,-287.81 529.152,-285.96 535.813,-285.018 531.665,-282.226 531.665,-282.226 531.665,-282.226 535.813,-285.018 534.178,-278.493 539.961,-287.81 539.961,-287.81"/>
</g>
<!-- 19 -->
<g id="node20" class="node"><title>19</title>
<polygon fill="none" stroke="black" points="495.5,-324 371.5,-324 371.5,-288 495.5,-288 495.5,-324"/>
<text text-anchor="middle" x="433.5" y="-302.3" font-family="Times,serif" font-size="14.00">simpy.io.dispatcher</text>
</g>
<!-- 17&#45;&gt;19 -->
<g id="edge34" class="edge"><title>17&#45;&gt;19</title>
<path fill="none" stroke="black" d="M454.579,-252.303C451.425,-260.187 447.622,-269.696 444.119,-278.454"/>
<polygon fill="black" stroke="black" points="440.342,-287.896 439.878,-276.94 442.199,-283.253 444.056,-278.611 444.056,-278.611 444.056,-278.611 442.199,-283.253 448.234,-280.282 440.342,-287.896 440.342,-287.896"/>
</g>
<!-- 18 -->
<g id="node19" class="node"><title>18</title>
<polygon fill="none" stroke="black" points="735.5,-324 635.5,-324 635.5,-288 735.5,-288 735.5,-324"/>
<text text-anchor="middle" x="685.5" y="-302.3" font-family="Times,serif" font-size="14.00">simpy.io.codec</text>
</g>
<!-- 18&#45;&gt;21 -->
<g id="edge35" class="edge"><title>18&#45;&gt;21</title>
<path fill="none" stroke="black" d="M635.36,-290.017C604.587,-279.695 569.415,-265.463 560.5,-252 547.896,-232.965 556.792,-207.508 567.14,-188.696"/>
<polygon fill="black" stroke="black" points="572.248,-180.053 571.034,-190.951 569.704,-184.357 567.16,-188.662 567.16,-188.662 567.16,-188.662 569.704,-184.357 563.286,-186.372 572.248,-180.053 572.248,-180.053"/>
</g>
<!-- 20 -->
<g id="node21" class="node"><title>20</title>
<polygon fill="none" stroke="black" points="447,-180 358,-180 358,-144 447,-144 447,-180"/>
<text text-anchor="middle" x="402.5" y="-158.3" font-family="Times,serif" font-size="14.00">simpy.io.http</text>
</g>
<!-- 20&#45;&gt;9 -->
<g id="edge36" class="edge"><title>20&#45;&gt;9</title>
<path fill="none" stroke="black" d="M378.724,-180.182C367.822,-189.464 355.918,-201.908 349.5,-216 329.584,-259.73 312.378,-288.263 344.5,-324 419.354,-407.277 1224.22,-439.598 1453.73,-447.161"/>
<polygon fill="black" stroke="black" points="1463.9,-447.492 1453.76,-451.664 1458.91,-447.329 1453.91,-447.166 1453.91,-447.166 1453.91,-447.166 1458.91,-447.329 1454.05,-442.669 1463.9,-447.492 1463.9,-447.492"/>
</g>
<!-- 20&#45;&gt;11 -->
<g id="edge37" class="edge"><title>20&#45;&gt;11</title>
<path fill="none" stroke="black" d="M389.534,-180.069C366.568,-212.49 324.574,-283.362 362.5,-324 410.893,-375.852 907.661,-378.137 1074.9,-377.419"/>
<polygon fill="black" stroke="black" points="1084.96,-377.37 1074.98,-381.919 1079.96,-377.395 1074.96,-377.419 1074.96,-377.419 1074.96,-377.419 1079.96,-377.395 1074.94,-372.919 1084.96,-377.37 1084.96,-377.37"/>
</g>
<!-- 20&#45;&gt;17 -->
<g id="edge38" class="edge"><title>20&#45;&gt;17</title>
<path fill="none" stroke="black" d="M417.084,-180.303C424.158,-188.695 432.783,-198.93 440.545,-208.139"/>
<polygon fill="black" stroke="black" points="447.083,-215.896 437.198,-211.15 443.861,-212.073 440.639,-208.249 440.639,-208.249 440.639,-208.249 443.861,-212.073 444.08,-205.349 447.083,-215.896 447.083,-215.896"/>
</g>
<!-- 20&#45;&gt;23 -->
<g id="edge39" class="edge"><title>20&#45;&gt;23</title>
<path fill="none" stroke="black" d="M447.075,-169.682C516.784,-180.373 648.307,-201.586 693.5,-216 729.491,-227.479 734.989,-239.11 770.5,-252 777.02,-254.367 848.494,-273.175 904.159,-287.721"/>
<polygon fill="black" stroke="black" points="913.998,-290.291 903.185,-292.118 909.16,-289.027 904.322,-287.764 904.322,-287.764 904.322,-287.764 909.16,-289.027 905.459,-283.41 913.998,-290.291 913.998,-290.291"/>
</g>
<!-- 21&#45;&gt;12 -->
<g id="edge40" class="edge"><title>21&#45;&gt;12</title>
<path fill="none" stroke="black" d="M630.116,-175.509C666.861,-185.788 719.75,-201.044 765.5,-216 767.116,-216.528 768.76,-217.075 770.418,-217.635"/>
<polygon fill="black" stroke="black" points="779.975,-220.939 769.053,-221.924 775.249,-219.305 770.524,-217.671 770.524,-217.671 770.524,-217.671 775.249,-219.305 771.994,-213.418 779.975,-220.939 779.975,-220.939"/>
</g>
<!-- 21&#45;&gt;17 -->
<g id="edge41" class="edge"><title>21&#45;&gt;17</title>
<path fill="none" stroke="black" d="M554.411,-180.124C538.18,-189.361 517.958,-200.869 500.529,-210.788"/>
<polygon fill="black" stroke="black" points="491.705,-215.81 498.17,-206.953 496.05,-213.337 500.396,-210.864 500.396,-210.864 500.396,-210.864 496.05,-213.337 502.622,-214.775 491.705,-215.81 491.705,-215.81"/>
</g>
<!-- 22 -->
<g id="node23" class="node"><title>22</title>
<polygon fill="none" stroke="black" points="685,-252 570,-252 570,-216 685,-216 685,-252"/>
<text text-anchor="middle" x="627.5" y="-230.3" font-family="Times,serif" font-size="14.00">simpy.io.message</text>
</g>
<!-- 21&#45;&gt;22 -->
<g id="edge42" class="edge"><title>21&#45;&gt;22</title>
<path fill="none" stroke="black" d="M595.129,-180.303C600.128,-188.441 606.191,-198.311 611.712,-207.299"/>
<polygon fill="black" stroke="black" points="616.993,-215.896 607.924,-209.73 614.376,-211.635 611.759,-207.375 611.759,-207.375 611.759,-207.375 614.376,-211.635 615.593,-205.019 616.993,-215.896 616.993,-215.896"/>
</g>
<!-- 21&#45;&gt;24 -->
<g id="edge43" class="edge"><title>21&#45;&gt;24</title>
<path fill="none" stroke="black" d="M621.465,-180.039C642.75,-190.082 669.879,-203.278 693.5,-216 733.123,-237.341 777.297,-263.9 807.383,-282.426"/>
<polygon fill="black" stroke="black" points="816.246,-287.902 805.374,-286.474 811.993,-285.274 807.739,-282.646 807.739,-282.646 807.739,-282.646 811.993,-285.274 810.105,-278.818 816.246,-287.902 816.246,-287.902"/>
</g>
<!-- 22&#45;&gt;11 -->
<g id="edge44" class="edge"><title>22&#45;&gt;11</title>
<path fill="none" stroke="black" d="M674.372,-252.034C696.548,-261.123 722.848,-273.444 744.5,-288 763.807,-300.979 761.602,-313.777 782.5,-324 832.883,-348.647 990.214,-365.252 1074.65,-372.636"/>
<polygon fill="black" stroke="black" points="1084.82,-373.512 1074.47,-377.138 1079.84,-373.083 1074.85,-372.654 1074.85,-372.654 1074.85,-372.654 1079.84,-373.083 1075.24,-368.171 1084.82,-373.512 1084.82,-373.512"/>
</g>
<!-- 22&#45;&gt;18 -->
<g id="edge45" class="edge"><title>22&#45;&gt;18</title>
<path fill="none" stroke="black" d="M641.837,-252.303C648.791,-260.695 657.27,-270.93 664.901,-280.139"/>
<polygon fill="black" stroke="black" points="671.328,-287.896 661.483,-283.067 668.138,-284.046 664.948,-280.195 664.948,-280.195 664.948,-280.195 668.138,-284.046 668.413,-277.324 671.328,-287.896 671.328,-287.896"/>
</g>
<!-- 22&#45;&gt;23 -->
<g id="edge46" class="edge"><title>22&#45;&gt;23</title>
<path fill="none" stroke="black" d="M685.203,-248.935C690.032,-250.007 694.845,-251.043 699.5,-252 787.012,-269.999 812.368,-268.573 903.732,-287.93"/>
<polygon fill="black" stroke="black" points="913.686,-290.065 902.964,-292.368 908.797,-289.016 903.908,-287.968 903.908,-287.968 903.908,-287.968 908.797,-289.016 904.852,-283.568 913.686,-290.065 913.686,-290.065"/>
</g>
<!-- 22&#45;&gt;24 -->
<g id="edge47" class="edge"><title>22&#45;&gt;24</title>
<path fill="none" stroke="black" d="M680.063,-252.034C710.732,-261.973 749.584,-274.564 781.711,-284.976"/>
<polygon fill="black" stroke="black" points="791.45,-288.132 780.549,-289.33 786.693,-286.59 781.937,-285.049 781.937,-285.049 781.937,-285.049 786.693,-286.59 783.324,-280.768 791.45,-288.132 791.45,-288.132"/>
</g>
<!-- 24&#45;&gt;11 -->
<g id="edge48" class="edge"><title>24&#45;&gt;11</title>
<path fill="none" stroke="black" d="M895.706,-321.699C898.678,-322.489 901.625,-323.261 904.5,-324 962.497,-338.906 1029.33,-354.442 1074.99,-364.809"/>
<polygon fill="black" stroke="black" points="1084.97,-367.07 1074.22,-369.25 1080.09,-365.965 1075.22,-364.861 1075.22,-364.861 1075.22,-364.861 1080.09,-365.965 1076.21,-360.472 1084.97,-367.07 1084.97,-367.07"/>
</g>
<!-- 26 -->
<g id="node27" class="node"><title>26</title>
<polygon fill="none" stroke="black" points="2060,-180 1971,-180 1971,-144 2060,-144 2060,-180"/>
<text text-anchor="middle" x="2015.5" y="-158.3" font-family="Times,serif" font-size="14.00">simpy.io.poll</text>
</g>
<!-- 26&#45;&gt;16 -->
<g id="edge49" class="edge"><title>26&#45;&gt;16</title>
<path fill="none" stroke="black" d="M2015.75,-180.303C2015.86,-188.017 2015.99,-197.288 2016.11,-205.888"/>
<polygon fill="black" stroke="black" points="2016.26,-215.896 2011.61,-205.961 2016.18,-210.896 2016.11,-205.897 2016.11,-205.897 2016.11,-205.897 2016.18,-210.896 2020.61,-205.832 2016.26,-215.896 2016.26,-215.896"/>
</g>
<!-- 26&#45;&gt;25 -->
<g id="edge50" class="edge"><title>26&#45;&gt;25</title>
<path fill="none" stroke="black" d="M2038.07,-180.163C2049.36,-189.7 2062.5,-202.376 2071.5,-216 2084.09,-235.051 2092.72,-259.556 2097.99,-278.027"/>
<polygon fill="black" stroke="black" points="2100.64,-287.857 2093.69,-279.373 2099.34,-283.029 2098.03,-278.202 2098.03,-278.202 2098.03,-278.202 2099.34,-283.029 2102.38,-277.03 2100.64,-287.857 2100.64,-287.857"/>
</g>
<!-- 27 -->
<g id="node28" class="node"><title>27</title>
<polygon fill="none" stroke="black" points="2294,-180 2195,-180 2195,-144 2294,-144 2294,-180"/>
<text text-anchor="middle" x="2244.5" y="-158.3" font-family="Times,serif" font-size="14.00">simpy.io.select</text>
</g>
<!-- 27&#45;&gt;9 -->
<g id="edge51" class="edge"><title>27&#45;&gt;9</title>
<path fill="none" stroke="black" d="M2243.19,-180.329C2238.67,-226.203 2219.22,-350.401 2139.5,-396 2091.3,-423.571 1723.11,-440.854 1575.46,-446.739"/>
<polygon fill="black" stroke="black" points="1565.22,-447.143 1575.04,-442.253 1570.22,-446.946 1575.21,-446.749 1575.21,-446.749 1575.21,-446.749 1570.22,-446.946 1575.39,-451.246 1565.22,-447.143 1565.22,-447.143"/>
</g>
<!-- 27&#45;&gt;16 -->
<g id="edge52" class="edge"><title>27&#45;&gt;16</title>
<path fill="none" stroke="black" d="M2194.75,-178.275C2158.66,-189.354 2109.83,-204.347 2072.4,-215.838"/>
<polygon fill="black" stroke="black" points="2062.65,-218.83 2070.89,-211.593 2067.43,-217.362 2072.21,-215.895 2072.21,-215.895 2072.21,-215.895 2067.43,-217.362 2073.53,-220.197 2062.65,-218.83 2062.65,-218.83"/>
</g>
<!-- 27&#45;&gt;25 -->
<g id="edge53" class="edge"><title>27&#45;&gt;25</title>
<path fill="none" stroke="black" d="M2227.61,-180.129C2202.91,-205.183 2156.8,-251.948 2128.56,-280.594"/>
<polygon fill="black" stroke="black" points="2121.45,-287.811 2125.26,-277.53 2124.96,-284.25 2128.47,-280.69 2128.47,-280.69 2128.47,-280.69 2124.96,-284.25 2131.67,-283.849 2121.45,-287.811 2121.45,-287.811"/>
</g>
<!-- 28 -->
<g id="node29" class="node"><title>28</title>
<polygon fill="none" stroke="black" points="1279.5,-108 1175.5,-108 1175.5,-72 1279.5,-72 1279.5,-108"/>
<text text-anchor="middle" x="1227.5" y="-86.3" font-family="Times,serif" font-size="14.00">simpy.io.virtual</text>
</g>
<!-- 28&#45;&gt;8 -->
<g id="edge54" class="edge"><title>28&#45;&gt;8</title>
<path fill="none" stroke="black" d="M1267.37,-108.124C1293.78,-119.465 1328.16,-134.23 1353.88,-145.274"/>
<polygon fill="black" stroke="black" points="1363.28,-149.309 1352.31,-149.498 1358.68,-147.336 1354.09,-145.363 1354.09,-145.363 1354.09,-145.363 1358.68,-147.336 1355.86,-141.229 1363.28,-149.309 1363.28,-149.309"/>
</g>
<!-- 28&#45;&gt;10 -->
<g id="edge55" class="edge"><title>28&#45;&gt;10</title>
<path fill="none" stroke="black" d="M1279.8,-95.4428C1400.55,-106.895 1692.97,-141.861 1751.5,-216 1761.41,-228.558 1761.33,-239.372 1751.5,-252 1713.47,-300.875 1675.44,-271.458 1613.94,-286.966"/>
<polygon fill="black" stroke="black" points="1604.28,-289.726 1612.66,-282.652 1609.09,-288.353 1613.89,-286.979 1613.89,-286.979 1613.89,-286.979 1609.09,-288.353 1615.13,-291.306 1604.28,-289.726 1604.28,-289.726"/>
</g>
<!-- 28&#45;&gt;11 -->
<g id="edge56" class="edge"><title>28&#45;&gt;11</title>
<path fill="none" stroke="black" d="M1208.27,-108.319C1184.84,-130.674 1146.09,-171.964 1127.5,-216 1108.96,-259.918 1116.01,-316.773 1122.78,-349.837"/>
<polygon fill="black" stroke="black" points="1124.94,-359.69 1118.4,-350.884 1123.87,-354.806 1122.8,-349.921 1122.8,-349.921 1122.8,-349.921 1123.87,-354.806 1127.19,-348.959 1124.94,-359.69 1124.94,-359.69"/>
</g>
<!-- 28&#45;&gt;12 -->
<g id="edge57" class="edge"><title>28&#45;&gt;12</title>
<path fill="none" stroke="black" d="M1175.41,-95.2964C1094.97,-102.607 944.821,-119.134 897.5,-144 869.2,-158.871 844.945,-186.762 829.673,-207.373"/>
<polygon fill="black" stroke="black" points="823.693,-215.701 825.87,-204.954 826.609,-211.64 829.525,-207.578 829.525,-207.578 829.525,-207.578 826.609,-211.64 833.181,-210.203 823.693,-215.701 823.693,-215.701"/>
</g>
<!-- 28&#45;&gt;16 -->
<g id="edge58" class="edge"><title>28&#45;&gt;16</title>
<path fill="none" stroke="black" d="M1279.72,-90.5071C1382.03,-90.6934 1615.39,-96.8133 1804.5,-144 1866.43,-159.453 1933.71,-190.326 1975.49,-211.326"/>
<polygon fill="black" stroke="black" points="1984.52,-215.91 1973.57,-215.396 1980.06,-213.647 1975.6,-211.383 1975.6,-211.383 1975.6,-211.383 1980.06,-213.647 1977.64,-207.371 1984.52,-215.91 1984.52,-215.91"/>
</g>
<!-- 28&#45;&gt;23 -->
<g id="edge59" class="edge"><title>28&#45;&gt;23</title>
<path fill="none" stroke="black" d="M1175.44,-95.3631C1105.3,-104.399 983.2,-132.004 930.5,-216 917.696,-236.408 931.463,-261.609 946.231,-279.979"/>
<polygon fill="black" stroke="black" points="952.994,-287.897 943.078,-283.216 949.747,-284.095 946.499,-280.293 946.499,-280.293 946.499,-280.293 949.747,-284.095 949.921,-277.37 952.994,-287.897 952.994,-287.897"/>
</g>
<!-- 28&#45;&gt;34 -->
<g id="edge60" class="edge"><title>28&#45;&gt;34</title>
<path fill="none" stroke="black" d="M1227.5,-108.129C1227.5,-132.33 1227.5,-176.789 1227.5,-205.607"/>
<polygon fill="black" stroke="black" points="1227.5,-215.811 1223,-205.811 1227.5,-210.811 1227.5,-205.811 1227.5,-205.811 1227.5,-205.811 1227.5,-210.811 1232,-205.811 1227.5,-215.811 1227.5,-215.811"/>
</g>
<!-- 29 -->
<g id="node30" class="node"><title>29</title>
<polygon fill="none" stroke="black" points="1065,-252 940,-252 940,-216 1065,-216 1065,-252"/>
<text text-anchor="middle" x="1002.5" y="-230.3" font-family="Times,serif" font-size="14.00">simpy.io.websocket</text>
</g>
<!-- 29&#45;&gt;9 -->
<g id="edge61" class="edge"><title>29&#45;&gt;9</title>
<path fill="none" stroke="black" d="M1014.42,-252.157C1021.14,-262.292 1029.39,-275.542 1035.5,-288 1058.03,-333.961 1035.32,-364.289 1075.5,-396 1132.8,-441.221 1347.22,-448.504 1453.71,-449.259"/>
<polygon fill="black" stroke="black" points="1463.97,-449.314 1453.95,-453.761 1458.97,-449.287 1453.97,-449.261 1453.97,-449.261 1453.97,-449.261 1458.97,-449.287 1454,-444.761 1463.97,-449.314 1463.97,-449.314"/>
</g>
<!-- 29&#45;&gt;10 -->
<g id="edge62" class="edge"><title>29&#45;&gt;10</title>
<path fill="none" stroke="black" d="M1065.21,-242.294C1179.66,-255.623 1414.11,-283.006 1451.5,-288 1472.96,-290.867 1496.65,-294.347 1516.85,-297.411"/>
<polygon fill="black" stroke="black" points="1526.76,-298.923 1516.2,-301.863 1521.82,-298.169 1516.87,-297.415 1516.87,-297.415 1516.87,-297.415 1521.82,-298.169 1517.55,-292.966 1526.76,-298.923 1526.76,-298.923"/>
</g>
<!-- 29&#45;&gt;23 -->
<g id="edge63" class="edge"><title>29&#45;&gt;23</title>
<path fill="none" stroke="black" d="M994.59,-252.303C990.947,-260.272 986.546,-269.9 982.506,-278.736"/>
<polygon fill="black" stroke="black" points="978.319,-287.896 978.384,-276.93 980.398,-283.348 982.477,-278.801 982.477,-278.801 982.477,-278.801 980.398,-283.348 986.569,-280.672 978.319,-287.896 978.319,-287.896"/>
</g>
<!-- 30 -->
<g id="node31" class="node"><title>30</title>
<polygon fill="none" stroke="black" points="1443,-324 1338,-324 1338,-288 1443,-288 1443,-324"/>
<text text-anchor="middle" x="1390.5" y="-302.3" font-family="Times,serif" font-size="14.00">simpy.resources</text>
</g>
<!-- 31 -->
<g id="node32" class="node"><title>31</title>
<polygon fill="none" stroke="black" points="1952,-252 1819,-252 1819,-216 1952,-216 1952,-252"/>
<text text-anchor="middle" x="1885.5" y="-230.3" font-family="Times,serif" font-size="14.00">simpy.resources.base</text>
</g>
<!-- 31&#45;&gt;10 -->
<g id="edge64" class="edge"><title>31&#45;&gt;10</title>
<path fill="none" stroke="black" d="M1818.81,-249.589C1757.59,-262.98 1668.37,-282.498 1613.78,-294.439"/>
<polygon fill="black" stroke="black" points="1604,-296.577 1612.81,-290.044 1608.89,-295.509 1613.77,-294.44 1613.77,-294.44 1613.77,-294.44 1608.89,-295.509 1614.74,-298.836 1604,-296.577 1604,-296.577"/>
</g>
<!-- 31&#45;&gt;11 -->
<g id="edge65" class="edge"><title>31&#45;&gt;11</title>
<path fill="none" stroke="black" d="M1842.46,-252.168C1789.46,-272.579 1696.31,-306.121 1613.5,-324 1459.95,-357.153 1274.28,-370.102 1184.04,-374.71"/>
<polygon fill="black" stroke="black" points="1174.04,-375.206 1183.8,-370.216 1179.03,-374.958 1184.02,-374.71 1184.02,-374.71 1184.02,-374.71 1179.03,-374.958 1184.25,-379.205 1174.04,-375.206 1174.04,-375.206"/>
</g>
<!-- 32&#45;&gt;10 -->
<g id="edge66" class="edge"><title>32&#45;&gt;10</title>
<path fill="none" stroke="black" d="M1565.5,-252.303C1565.5,-260.017 1565.5,-269.288 1565.5,-277.888"/>
<polygon fill="black" stroke="black" points="1565.5,-287.896 1561,-277.896 1565.5,-282.896 1565.5,-277.896 1565.5,-277.896 1565.5,-277.896 1565.5,-282.896 1570,-277.896 1565.5,-287.896 1565.5,-287.896"/>
</g>
<!-- 32&#45;&gt;30 -->
<g id="edge67" class="edge"><title>32&#45;&gt;30</title>
<path fill="none" stroke="black" d="M1522.69,-252.124C1498.55,-261.778 1468.22,-273.913 1442.69,-284.122"/>
<polygon fill="black" stroke="black" points="1433.17,-287.932 1440.78,-280.04 1437.81,-286.075 1442.46,-284.218 1442.46,-284.218 1442.46,-284.218 1437.81,-286.075 1444.13,-288.396 1433.17,-287.932 1433.17,-287.932"/>
</g>
<!-- 33&#45;&gt;10 -->
<g id="edge68" class="edge"><title>33&#45;&gt;10</title>
<path fill="none" stroke="black" d="M1433.31,-252.124C1458.72,-262.29 1491.01,-275.205 1517.32,-285.727"/>
<polygon fill="black" stroke="black" points="1526.71,-289.486 1515.76,-289.95 1522.07,-287.629 1517.43,-285.772 1517.43,-285.772 1517.43,-285.772 1522.07,-287.629 1519.1,-281.594 1526.71,-289.486 1526.71,-289.486"/>
</g>
<!-- 33&#45;&gt;30 -->
<g id="edge69" class="edge"><title>33&#45;&gt;30</title>
<path fill="none" stroke="black" d="M1390.5,-252.303C1390.5,-260.017 1390.5,-269.288 1390.5,-277.888"/>
<polygon fill="black" stroke="black" points="1390.5,-287.896 1386,-277.896 1390.5,-282.896 1390.5,-277.896 1390.5,-277.896 1390.5,-277.896 1390.5,-282.896 1395,-277.896 1390.5,-287.896 1390.5,-287.896"/>
</g>
<!-- 34&#45;&gt;10 -->
<g id="edge70" class="edge"><title>34&#45;&gt;10</title>
<path fill="none" stroke="black" d="M1295.03,-250.181C1297.89,-250.8 1300.72,-251.409 1303.5,-252 1377.75,-267.814 1464.1,-285.06 1516.76,-295.45"/>
<polygon fill="black" stroke="black" points="1526.83,-297.434 1516.15,-299.916 1521.92,-296.467 1517.02,-295.501 1517.02,-295.501 1517.02,-295.501 1521.92,-296.467 1517.89,-291.085 1526.83,-297.434 1526.83,-297.434"/>
</g>
<!-- 34&#45;&gt;30 -->
<g id="edge71" class="edge"><title>34&#45;&gt;30</title>
<path fill="none" stroke="black" d="M1267.37,-252.124C1289.66,-261.693 1317.62,-273.7 1341.26,-283.852"/>
<polygon fill="black" stroke="black" points="1350.76,-287.932 1339.79,-288.12 1346.16,-285.959 1341.57,-283.986 1341.57,-283.986 1341.57,-283.986 1346.16,-285.959 1343.34,-279.851 1350.76,-287.932 1350.76,-287.932"/>
</g>
<!-- 35&#45;&gt;10 -->
<g id="edge72" class="edge"><title>35&#45;&gt;10</title>
<path fill="none" stroke="black" d="M1662.19,-252.124C1645.3,-261.361 1624.25,-272.869 1606.12,-282.788"/>
<polygon fill="black" stroke="black" points="1596.93,-287.81 1603.55,-279.064 1601.32,-285.411 1605.71,-283.012 1605.71,-283.012 1605.71,-283.012 1601.32,-285.411 1607.87,-286.96 1596.93,-287.81 1596.93,-287.81"/>
</g>
<!-- 36 -->
<g id="node37" class="node"><title>36</title>
<polygon fill="none" stroke="black" points="457.5,-36 385.5,-36 385.5,-0 457.5,-0 457.5,-36"/>
<text text-anchor="middle" x="421.5" y="-14.3" font-family="Times,serif" font-size="14.00">simpy.util</text>
</g>
</g>
</svg>
