<?xml version="1.0" encoding="UTF-8" standalone="no"?>
<!DOCTYPE svg PUBLIC "-//W3C//DTD SVG 1.1//EN"
 "http://www.w3.org/Graphics/SVG/1.1/DTD/svg11.dtd">
<!-- Generated by graphviz version 2.38.0 (20140413.2041)
 -->
<!-- Title: packages_mosaik Pages: 1 -->
<svg width="306pt" height="332pt"
 viewBox="0.00 0.00 305.78 332.00" xmlns="http://www.w3.org/2000/svg" xmlns:xlink="http://www.w3.org/1999/xlink">
<g id="graph0" class="graph" transform="scale(1 1) rotate(0) translate(4 328)">
<title>packages_mosaik</title>
<polygon fill="white" stroke="none" points="-4,4 -4,-328 301.777,-328 301.777,4 -4,4"/>
<!-- 0 -->
<g id="node1" class="node"><title>0</title>
<polygon fill="none" stroke="black" points="120.277,-180 64.2774,-180 64.2774,-144 120.277,-144 120.277,-180"/>
<text text-anchor="middle" x="92.2774" y="-158.3" font-family="Times,serif" font-size="14.00">mosaik</text>
</g>
<!-- 0&#45;&gt;0 -->
<g id="edge1" class="edge"><title>0&#45;&gt;0</title>
<path fill="none" stroke="black" d="M120.577,-148.503C130.369,-148.36 138.277,-152.859 138.277,-162 138.277,-167.713 135.188,-171.613 130.481,-173.699"/>
<polygon fill="black" stroke="black" points="120.577,-175.497 129.612,-169.283 125.496,-174.604 130.416,-173.711 130.416,-173.711 130.416,-173.711 125.496,-174.604 131.22,-178.138 120.577,-175.497 120.577,-175.497"/>
</g>
<!-- 4 -->
<g id="node5" class="node"><title>4</title>
<polygon fill="none" stroke="black" points="144.777,-252 39.7774,-252 39.7774,-216 144.777,-216 144.777,-252"/>
<text text-anchor="middle" x="92.2774" y="-230.3" font-family="Times,serif" font-size="14.00">mosaik.scenario</text>
</g>
<!-- 0&#45;&gt;4 -->
<g id="edge2" class="edge"><title>0&#45;&gt;4</title>
<path fill="none" stroke="black" d="M86.3617,-180.303C85.566,-188.017 85.3395,-197.288 85.6821,-205.888"/>
<polygon fill="black" stroke="black" points="86.3824,-215.896 81.1953,-206.234 86.0333,-210.908 85.6843,-205.92 85.6843,-205.92 85.6843,-205.92 86.0333,-210.908 90.1733,-205.606 86.3824,-215.896 86.3824,-215.896"/>
</g>
<!-- 1 -->
<g id="node2" class="node"><title>1</title>
<polygon fill="none" stroke="black" points="139.277,-108 39.2774,-108 39.2774,-72 139.277,-72 139.277,-108"/>
<text text-anchor="middle" x="89.2774" y="-86.3" font-family="Times,serif" font-size="14.00">mosaik._debug</text>
</g>
<!-- 1&#45;&gt;0 -->
<g id="edge3" class="edge"><title>1&#45;&gt;0</title>
<path fill="none" stroke="black" d="M90.019,-108.303C90.3496,-116.017 90.7469,-125.288 91.1154,-133.888"/>
<polygon fill="black" stroke="black" points="91.5444,-143.896 86.6202,-134.098 91.3302,-138.9 91.1161,-133.905 91.1161,-133.905 91.1161,-133.905 91.3302,-138.9 95.612,-133.712 91.5444,-143.896 91.5444,-143.896"/>
</g>
<!-- 2 -->
<g id="node3" class="node"><title>2</title>
<polygon fill="none" stroke="black" points="297.777,-36 190.777,-36 190.777,-0 297.777,-0 297.777,-36"/>
<text text-anchor="middle" x="244.277" y="-14.3" font-family="Times,serif" font-size="14.00">mosaik._version</text>
</g>
<!-- 3 -->
<g id="node4" class="node"><title>3</title>
<polygon fill="none" stroke="black" points="191.277,-324 73.2774,-324 73.2774,-288 191.277,-288 191.277,-324"/>
<text text-anchor="middle" x="132.277" y="-302.3" font-family="Times,serif" font-size="14.00">mosaik.exceptions</text>
</g>
<!-- 4&#45;&gt;0 -->
<g id="edge4" class="edge"><title>4&#45;&gt;0</title>
<path fill="none" stroke="black" d="M98.1724,-215.896C98.9779,-208.209 99.2143,-198.946 98.8814,-190.335"/>
<polygon fill="black" stroke="black" points="98.1931,-180.303 103.367,-189.972 98.5354,-185.292 98.8777,-190.28 98.8777,-190.28 98.8777,-190.28 98.5354,-185.292 94.3883,-190.588 98.1931,-180.303 98.1931,-180.303"/>
</g>
<!-- 4&#45;&gt;3 -->
<g id="edge5" class="edge"><title>4&#45;&gt;3</title>
<path fill="none" stroke="black" d="M102.165,-252.303C106.767,-260.356 112.338,-270.106 117.43,-279.018"/>
<polygon fill="black" stroke="black" points="122.503,-287.896 113.635,-281.446 120.023,-283.554 117.542,-279.213 117.542,-279.213 117.542,-279.213 120.023,-283.554 121.449,-276.981 122.503,-287.896 122.503,-287.896"/>
</g>
<!-- 5 -->
<g id="node6" class="node"><title>5</title>
<polygon fill="none" stroke="black" points="172.277,-36 60.2774,-36 60.2774,-0 172.277,-0 172.277,-36"/>
<text text-anchor="middle" x="116.277" y="-14.3" font-family="Times,serif" font-size="14.00">mosaik.scheduler</text>
</g>
<!-- 5&#45;&gt;3 -->
<g id="edge6" class="edge"><title>5&#45;&gt;3</title>
<path fill="none" stroke="black" d="M70.7299,-36.0229C55.0303,-44.3416 39.1696,-56.0747 30.2774,-72 -8.72415,-141.849 -11.2503,-183.623 30.2774,-252 38.4353,-265.432 51.2262,-275.616 65.0279,-283.278"/>
<polygon fill="black" stroke="black" points="74.2049,-287.959 63.2521,-287.424 69.7507,-285.687 65.2965,-283.415 65.2965,-283.415 65.2965,-283.415 69.7507,-285.687 67.3409,-279.407 74.2049,-287.959 74.2049,-287.959"/>
</g>
<!-- 6 -->
<g id="node7" class="node"><title>6</title>
<polygon fill="none" stroke="black" points="285.277,-108 157.277,-108 157.277,-72 285.277,-72 285.277,-108"/>
<text text-anchor="middle" x="221.277" y="-86.3" font-family="Times,serif" font-size="14.00">mosaik.simmanager</text>
</g>
<!-- 5&#45;&gt;6 -->
<g id="edge7" class="edge"><title>5&#45;&gt;6</title>
<path fill="none" stroke="black" d="M141.963,-36.1239C155.565,-45.1917 172.449,-56.4477 187.139,-66.2408"/>
<polygon fill="black" stroke="black" points="195.493,-71.8102 184.676,-70.0074 191.333,-69.0367 187.172,-66.2632 187.172,-66.2632 187.172,-66.2632 191.333,-69.0367 189.668,-62.519 195.493,-71.8102 195.493,-71.8102"/>
</g>
<!-- 6&#45;&gt;0 -->
<g id="edge8" class="edge"><title>6&#45;&gt;0</title>
<path fill="none" stroke="black" d="M189.72,-108.124C171.516,-118.002 148.525,-130.478 129.448,-140.83"/>
<polygon fill="black" stroke="black" points="120.435,-145.721 127.078,-136.996 124.83,-143.336 129.224,-140.951 129.224,-140.951 129.224,-140.951 124.83,-143.336 131.371,-144.906 120.435,-145.721 120.435,-145.721"/>
</g>
<!-- 6&#45;&gt;3 -->
<g id="edge9" class="edge"><title>6&#45;&gt;3</title>
<path fill="none" stroke="black" d="M214.145,-108.151C198.652,-145.403 161.833,-233.933 143.315,-278.461"/>
<polygon fill="black" stroke="black" points="139.444,-287.768 139.129,-276.806 141.364,-283.151 143.284,-278.534 143.284,-278.534 143.284,-278.534 141.364,-283.151 147.439,-280.262 139.444,-287.768 139.444,-287.768"/>
</g>
<!-- 7 -->
<g id="node8" class="node"><title>7</title>
<polygon fill="none" stroke="black" points="279.277,-252 201.277,-252 201.277,-216 279.277,-216 279.277,-252"/>
<text text-anchor="middle" x="240.277" y="-230.3" font-family="Times,serif" font-size="14.00">mosaik.util</text>
</g>
<!-- 6&#45;&gt;7 -->
<g id="edge10" class="edge"><title>6&#45;&gt;7</title>
<path fill="none" stroke="black" d="M223.569,-108.129C226.807,-132.33 232.756,-176.789 236.612,-205.607"/>
<polygon fill="black" stroke="black" points="237.977,-215.811 232.191,-206.496 237.314,-210.855 236.651,-205.899 236.651,-205.899 236.651,-205.899 237.314,-210.855 241.111,-205.302 237.977,-215.811 237.977,-215.811"/>
</g>
<!-- 7&#45;&gt;3 -->
<g id="edge11" class="edge"><title>7&#45;&gt;3</title>
<path fill="none" stroke="black" d="M213.858,-252.124C199.867,-261.192 182.501,-272.448 167.392,-282.241"/>
<polygon fill="black" stroke="black" points="158.799,-287.81 164.743,-278.595 162.995,-285.091 167.19,-282.371 167.19,-282.371 167.19,-282.371 162.995,-285.091 169.638,-286.147 158.799,-287.81 158.799,-287.81"/>
</g>
</g>
</svg>
