<?xml version="1.0" encoding="UTF-8" standalone="no"?>
<svg
   xmlns:dc="http://purl.org/dc/elements/1.1/"
   xmlns:cc="http://creativecommons.org/ns#"
   xmlns:rdf="http://www.w3.org/1999/02/22-rdf-syntax-ns#"
   xmlns:svg="http://www.w3.org/2000/svg"
   xmlns="http://www.w3.org/2000/svg"
   viewBox="0 0 1280 720"
   height="720"
   width="1280"
   xml:space="preserve"
   id="svg2"
   version="1.1"><metadata
     id="metadata8"><rdf:RDF><cc:Work
         rdf:about=""><dc:format>image/svg+xml</dc:format><dc:type
           rdf:resource="http://purl.org/dc/dcmitype/StillImage" /></cc:Work></rdf:RDF></metadata><defs
     id="defs6"><clipPath
       id="clipPath18"
       clipPathUnits="userSpaceOnUse"><path
         style="clip-rule:evenodd"
         id="path16"
         d="M 0,1.2207e-4 H 960 V 540.00012 H 0 Z" /></clipPath><linearGradient
       id="linearGradient28"
       spreadMethod="pad"
       gradientUnits="userSpaceOnUse"
       y2="409.32001"
       x2="770.64001"
       y1="290.51999"
       x1="770.64001"><stop
         id="stop24"
         offset="0"
         style="stop-opacity:1;stop-color:#276580" /><stop
         id="stop26"
         offset="1"
         style="stop-opacity:1;stop-color:#276580" /></linearGradient><linearGradient
       id="linearGradient38"
       spreadMethod="pad"
       gradientUnits="userSpaceOnUse"
       y2="409.32001"
       x2="585.23999"
       y1="290.51999"
       x1="585.23999"><stop
         id="stop34"
         offset="0"
         style="stop-opacity:1;stop-color:#276580" /><stop
         id="stop36"
         offset="1"
         style="stop-opacity:1;stop-color:#276580" /></linearGradient><linearGradient
       id="linearGradient48"
       spreadMethod="pad"
       gradientUnits="userSpaceOnUse"
       y2="409.32001"
       x2="198.42"
       y1="290.51999"
       x1="198.42"><stop
         id="stop44"
         offset="0"
         style="stop-opacity:1;stop-color:#5e8227" /><stop
         id="stop46"
         offset="1"
         style="stop-opacity:1;stop-color:#5e8227" /></linearGradient><linearGradient
       id="linearGradient58"
       spreadMethod="pad"
       gradientUnits="userSpaceOnUse"
       y2="409.32001"
       x2="380.51999"
       y1="290.51999"
       x1="380.51999"><stop
         id="stop54"
         offset="0"
         style="stop-opacity:1;stop-color:#5e8227" /><stop
         id="stop56"
         offset="1"
         style="stop-opacity:1;stop-color:#5e8227" /></linearGradient><clipPath
       id="clipPath70"
       clipPathUnits="userSpaceOnUse"><path
         style="clip-rule:evenodd"
         id="path68"
         d="M 1.4305e-5,0 H 960.00001 V 540 H 1.4305e-5 Z" /></clipPath><clipPath
       id="clipPath88"
       clipPathUnits="userSpaceOnUse"><path
         style="clip-rule:evenodd"
         id="path86"
         d="M 1.4305e-5,0 H 960.00001 V 540 H 1.4305e-5 Z" /></clipPath><clipPath
       id="clipPath100"
       clipPathUnits="userSpaceOnUse"><path
         style="clip-rule:evenodd"
         id="path98"
         d="M 1.4305e-5,0 H 960.00001 V 540 H 1.4305e-5 Z" /></clipPath><clipPath
       id="clipPath112"
       clipPathUnits="userSpaceOnUse"><path
         style="clip-rule:evenodd"
         id="path110"
         d="M 1.4305e-5,0 H 960.00001 V 540 H 1.4305e-5 Z" /></clipPath><clipPath
       id="clipPath124"
       clipPathUnits="userSpaceOnUse"><path
         style="clip-rule:evenodd"
         id="path122"
         d="M 1.4305e-5,0 H 960.00001 V 540 H 1.4305e-5 Z" /></clipPath><clipPath
       id="clipPath136"
       clipPathUnits="userSpaceOnUse"><path
         style="clip-rule:evenodd"
         id="path134"
         d="M 1.4305e-5,0 H 960.00001 V 540 H 1.4305e-5 Z" /></clipPath><clipPath
       id="clipPath148"
       clipPathUnits="userSpaceOnUse"><path
         style="clip-rule:evenodd"
         id="path146"
         d="M 1.4305e-5,0 H 960.00001 V 540 H 1.4305e-5 Z" /></clipPath><clipPath
       id="clipPath160"
       clipPathUnits="userSpaceOnUse"><path
         style="clip-rule:evenodd"
         id="path158"
         d="M 1.4305e-5,0 H 960.00001 V 540 H 1.4305e-5 Z" /></clipPath><clipPath
       id="clipPath178"
       clipPathUnits="userSpaceOnUse"><path
         style="clip-rule:evenodd"
         id="path176"
         d="M 1.4305e-5,0 H 960.00001 V 540 H 1.4305e-5 Z" /></clipPath><clipPath
       id="clipPath192"
       clipPathUnits="userSpaceOnUse"><path
         style="clip-rule:evenodd"
         id="path190"
         d="M 1.4305e-5,0 H 960.00001 V 540 H 1.4305e-5 Z" /></clipPath><clipPath
       id="clipPath206"
       clipPathUnits="userSpaceOnUse"><path
         style="clip-rule:evenodd"
         id="path204"
         d="M 1.4305e-5,0 H 960.00001 V 540 H 1.4305e-5 Z" /></clipPath><clipPath
       id="clipPath218"
       clipPathUnits="userSpaceOnUse"><path
         style="clip-rule:evenodd"
         id="path216"
         d="M 1.4305e-5,0 H 960.00001 V 540 H 1.4305e-5 Z" /></clipPath><clipPath
       id="clipPath230"
       clipPathUnits="userSpaceOnUse"><path
         style="clip-rule:evenodd"
         id="path228"
         d="M 1.4305e-5,0 H 960.00001 V 540 H 1.4305e-5 Z" /></clipPath><clipPath
       id="clipPath246"
       clipPathUnits="userSpaceOnUse"><path
         style="clip-rule:evenodd"
         id="path244"
         d="M 1.4305e-5,0 H 960.00001 V 540 H 1.4305e-5 Z" /></clipPath><clipPath
       id="clipPath258"
       clipPathUnits="userSpaceOnUse"><path
         style="clip-rule:evenodd"
         id="path256"
         d="M 1.4305e-5,0 H 960.00001 V 540 H 1.4305e-5 Z" /></clipPath><clipPath
       id="clipPath270"
       clipPathUnits="userSpaceOnUse"><path
         style="clip-rule:evenodd"
         id="path268"
         d="M 1.4305e-5,0 H 960.00001 V 540 H 1.4305e-5 Z" /></clipPath><clipPath
       id="clipPath282"
       clipPathUnits="userSpaceOnUse"><path
         style="clip-rule:evenodd"
         id="path280"
         d="M 1.4305e-5,0 H 960.00001 V 540 H 1.4305e-5 Z" /></clipPath><clipPath
       id="clipPath300"
       clipPathUnits="userSpaceOnUse"><path
         style="clip-rule:evenodd"
         id="path298"
         d="M 1.4305e-5,0 H 960.00001 V 540 H 1.4305e-5 Z" /></clipPath><clipPath
       id="clipPath312"
       clipPathUnits="userSpaceOnUse"><path
         style="clip-rule:evenodd"
         id="path310"
         d="M 1.4305e-5,0 H 960.00001 V 540 H 1.4305e-5 Z" /></clipPath><clipPath
       id="clipPath324"
       clipPathUnits="userSpaceOnUse"><path
         style="clip-rule:evenodd"
         id="path322"
         d="M 1.4305e-5,0 H 960.00001 V 540 H 1.4305e-5 Z" /></clipPath><clipPath
       id="clipPath336"
       clipPathUnits="userSpaceOnUse"><path
         style="clip-rule:evenodd"
         id="path334"
         d="M 1.4305e-5,0 H 960.00001 V 540 H 1.4305e-5 Z" /></clipPath><clipPath
       id="clipPath348"
       clipPathUnits="userSpaceOnUse"><path
         style="clip-rule:evenodd"
         id="path346"
         d="M 1.4305e-5,0 H 960.00001 V 540 H 1.4305e-5 Z" /></clipPath><clipPath
       id="clipPath360"
       clipPathUnits="userSpaceOnUse"><path
         style="clip-rule:evenodd"
         id="path358"
         d="M 1.4305e-5,0 H 960.00001 V 540 H 1.4305e-5 Z" /></clipPath><clipPath
       id="clipPath372"
       clipPathUnits="userSpaceOnUse"><path
         style="clip-rule:evenodd"
         id="path370"
         d="M 1.4305e-5,0 H 960.00001 V 540 H 1.4305e-5 Z" /></clipPath><clipPath
       id="clipPath384"
       clipPathUnits="userSpaceOnUse"><path
         style="clip-rule:evenodd"
         id="path382"
         d="M 1.4305e-5,0 H 960.00001 V 540 H 1.4305e-5 Z" /></clipPath><clipPath
       id="clipPath396"
       clipPathUnits="userSpaceOnUse"><path
         style="clip-rule:evenodd"
         id="path394"
         d="M 1.4305e-5,0 H 960.00001 V 540 H 1.4305e-5 Z" /></clipPath><clipPath
       id="clipPath410"
       clipPathUnits="userSpaceOnUse"><path
         style="clip-rule:evenodd"
         id="path408"
         d="M 1.4305e-5,0 H 960.00001 V 540 H 1.4305e-5 Z" /></clipPath><clipPath
       id="clipPath422"
       clipPathUnits="userSpaceOnUse"><path
         style="clip-rule:evenodd"
         id="path420"
         d="M 1.4305e-5,0 H 960.00001 V 540 H 1.4305e-5 Z" /></clipPath><clipPath
       id="clipPath436"
       clipPathUnits="userSpaceOnUse"><path
         style="clip-rule:evenodd"
         id="path434"
         d="M 1.4305e-5,0 H 960.00001 V 540 H 1.4305e-5 Z" /></clipPath><clipPath
       id="clipPath448"
       clipPathUnits="userSpaceOnUse"><path
         style="clip-rule:evenodd"
         id="path446"
         d="M 1.4305e-5,0 H 960.00001 V 540 H 1.4305e-5 Z" /></clipPath></defs><g
     transform="matrix(1.3333333,0,0,-1.3333333,0,720)"
     id="g10"><g
       id="g12"><g
         clip-path="url(#clipPath18)"
         id="g14"><path
           id="path20"
           style="fill:#ffffff;fill-opacity:1;fill-rule:evenodd;stroke:none"
           d="M 0,6.1035e-5 H 960 V 540.00006 H 0 Z" /></g></g><g
       id="g22"><path
         id="path30"
         style="fill:url(#linearGradient28);fill-opacity:1;fill-rule:evenodd;stroke:none"
         d="m 740.88,399.42 c 0,5.47 4.43,9.9 9.9,9.9 h 39.72 c 5.47,0 9.9,-4.43 9.9,-9.9 v -39.6 c 0,-5.47 -4.43,-9.9 -9.9,-9.9 h -39.72 c -5.47,0 -9.9,4.43 -9.9,9.9 z" /></g><g
       id="g32"><path
         id="path40"
         style="fill:url(#linearGradient38);fill-opacity:1;fill-rule:evenodd;stroke:none"
         d="m 555.48,399.42 c 0,5.47 4.43,9.9 9.9,9.9 h 39.72 c 5.47,0 9.9,-4.43 9.9,-9.9 v -39.6 c 0,-5.47 -4.43,-9.9 -9.9,-9.9 h -39.72 c -5.47,0 -9.9,4.43 -9.9,9.9 z" /></g><g
       id="g42"><path
         id="path50"
         style="fill:url(#linearGradient48);fill-opacity:1;fill-rule:evenodd;stroke:none"
         d="m 168.6,399.42 c 0,5.47 4.43,9.9 9.9,9.9 h 39.84 c 5.47,0 9.9,-4.43 9.9,-9.9 v -39.6 c 0,-5.47 -4.43,-9.9 -9.9,-9.9 H 178.5 c -5.47,0 -9.9,4.43 -9.9,9.9 z" /></g><g
       id="g52"><path
         id="path60"
         style="fill:url(#linearGradient58);fill-opacity:1;fill-rule:evenodd;stroke:none"
         d="m 350.76,399.42 c 0,5.47 4.43,9.9 9.9,9.9 h 39.72 c 5.47,0 9.9,-4.43 9.9,-9.9 v -39.6 c 0,-5.47 -4.43,-9.9 -9.9,-9.9 h -39.72 c -5.47,0 -9.9,4.43 -9.9,9.9 z" /></g><path
       id="path62"
       style="fill:#7f7f7f;fill-opacity:1;fill-rule:nonzero;stroke:none"
       d="m 228.84,379.56 h 49.81 v -2.04 h -49.81 z m 49.81,-1.02 -2.04,3.06 6.12,-3.06 -6.12,-3.06 z" /><g
       id="g64"><g
         clip-path="url(#clipPath70)"
         id="g66"><text
           id="text74"
           style="font-variant:normal;font-weight:normal;font-size:12px;font-family:Calibri;-inkscape-font-specification:Calibri;writing-mode:lr-tb;fill:#000000;fill-opacity:1;fill-rule:nonzero;stroke:none"
           transform="matrix(1,0,0,-1,231.98,388.3)"><tspan
             id="tspan72"
             y="0"
             x="0 6.348 12.324 16.308001 21 23.76 28.308001 32.268002 38.243999 44.507999">persistent</tspan></text>
</g></g><path
       id="path76"
       style="fill:#7f7f7f;fill-opacity:1;fill-rule:nonzero;stroke:none"
       d="m 298.08,380.04 h 49.69 V 378 h -49.69 z m 49.69,-1.02 -2.04,3.06 6.12,-3.06 -6.12,-3.06 z" /><path
       id="path78"
       style="fill:#7f7f7f;fill-opacity:1;fill-rule:nonzero;stroke:none"
       d="m 410.76,378.96 h 49.69 v -2.04 h -49.69 z m 49.69,-1.02 -2.04,3.06 6.12,-3.06 -6.12,-3.06 z" /><path
       id="path80"
       style="fill:#7f7f7f;fill-opacity:1;fill-rule:nonzero;stroke:none"
       d="m 114.96,379.32 h 49.69 v -2.04 h -49.69 z m 49.69,-1.02 -2.04,3.06 6.12,-3.06 -6.12,-3.06 z" /><g
       id="g82"><g
         clip-path="url(#clipPath88)"
         id="g84"><text
           id="text92"
           style="font-variant:normal;font-weight:normal;font-size:12px;font-family:Calibri;-inkscape-font-specification:Calibri;writing-mode:lr-tb;fill:#000000;fill-opacity:1;fill-rule:nonzero;stroke:none"
           transform="matrix(1,0,0,-1,311.02,386.28)"><tspan
             id="tspan90"
             y="0"
             x="0 6.348 12.672">non</tspan></text>
</g></g><g
       id="g94"><g
         clip-path="url(#clipPath100)"
         id="g96"><text
           id="text104"
           style="font-variant:normal;font-weight:normal;font-size:12px;font-family:Calibri;-inkscape-font-specification:Calibri;writing-mode:lr-tb;fill:#000000;fill-opacity:1;fill-rule:nonzero;stroke:none"
           transform="matrix(1,0,0,-1,330.1,386.28)"><tspan
             id="tspan102"
             y="0"
             x="0">-</tspan></text>
</g></g><g
       id="g106"><g
         clip-path="url(#clipPath112)"
         id="g108"><text
           id="text116"
           style="font-variant:normal;font-weight:normal;font-size:12px;font-family:Calibri;-inkscape-font-specification:Calibri;writing-mode:lr-tb;fill:#000000;fill-opacity:1;fill-rule:nonzero;stroke:none"
           transform="matrix(1,0,0,-1,311.02,364.68)"><tspan
             id="tspan114"
             y="0"
             x="0 4.0679998 8.2559996 11.016 16.775999 22.296 28.271999">trigger</tspan></text>
</g></g><g
       id="g118"><g
         clip-path="url(#clipPath124)"
         id="g120"><text
           id="text128"
           style="font-variant:normal;font-weight:normal;font-size:12px;font-family:Calibri;-inkscape-font-specification:Calibri;writing-mode:lr-tb;fill:#7f7f7f;fill-opacity:1;fill-rule:nonzero;stroke:none"
           transform="matrix(1,0,0,-1,414,388.08)"><tspan
             id="tspan126"
             y="0"
             x="0 6.348 12.324 16.308001 21 23.76 28.308001 32.268002 38.243999 44.507999">persistent</tspan></text>
</g></g><g
       id="g130"><g
         clip-path="url(#clipPath136)"
         id="g132"><text
           id="text140"
           style="font-variant:normal;font-weight:normal;font-size:12px;font-family:Calibri;-inkscape-font-specification:Calibri;writing-mode:lr-tb;fill:#7f7f7f;fill-opacity:1;fill-rule:nonzero;stroke:none"
           transform="matrix(1,0,0,-1,131.35,386.66)"><tspan
             id="tspan138"
             y="0"
             x="0 6.348 12.672">non</tspan></text>
</g></g><g
       id="g142"><g
         clip-path="url(#clipPath148)"
         id="g144"><text
           id="text152"
           style="font-variant:normal;font-weight:normal;font-size:12px;font-family:Calibri;-inkscape-font-specification:Calibri;writing-mode:lr-tb;fill:#7f7f7f;fill-opacity:1;fill-rule:nonzero;stroke:none"
           transform="matrix(1,0,0,-1,150.43,386.66)"><tspan
             id="tspan150"
             y="0"
             x="0">-</tspan></text>
</g></g><g
       id="g154"><g
         clip-path="url(#clipPath160)"
         id="g156"><text
           id="text164"
           style="font-variant:normal;font-weight:normal;font-size:12px;font-family:Calibri;-inkscape-font-specification:Calibri;writing-mode:lr-tb;fill:#7f7f7f;fill-opacity:1;fill-rule:nonzero;stroke:none"
           transform="matrix(1,0,0,-1,131.35,365.06)"><tspan
             id="tspan162"
             y="0"
             x="0 4.0679998 8.2559996 11.016 16.775999 22.296 28.271999">trigger</tspan></text>
</g></g><g
       id="g166"><path
         id="path168"
         style="fill:none;stroke:#7f7f7f;stroke-width:2.03999996;stroke-linecap:butt;stroke-linejoin:miter;stroke-miterlimit:10;stroke-dasharray:6.12, 2.04;stroke-dashoffset:0;stroke-opacity:1"
         d="m 450.33,375.9 h -0.14 V 310.02 H 125.58" /></g><path
       id="path170"
       style="fill:#7f7f7f;fill-opacity:1;fill-rule:nonzero;stroke:none"
       d="m 124.94,310.75 -0.04,6.12 2.04,0.02 0.04,-6.12 z m -0.05,8.16 -0.04,6.12 2.04,0.02 0.04,-6.12 z m -0.05,8.16 -0.03,6.12 2.04,0.02 0.03,-6.12 z m -0.05,8.16 -0.03,6.12 2.04,0.02 0.03,-6.12 z m -0.04,8.16 -0.04,6.12 2.04,0.02 0.04,-6.12 z m -0.05,8.16 -0.03,6.12 2.04,0.02 0.03,-6.12 z m -0.05,8.16 -0.03,6.12 2.04,0.01 0.03,-6.11 z m -0.04,8.16 -0.03,4.3 2.04,0.02 0.03,-4.31 z m 0.99,4.31 -3.04,-2.06 3.02,6.14 3.09,-6.1 z" /><g
       id="g172"><g
         clip-path="url(#clipPath178)"
         id="g174"><text
           id="text182"
           style="font-variant:normal;font-weight:normal;font-size:24px;font-family:Calibri;-inkscape-font-specification:Calibri;writing-mode:lr-tb;fill:#ffffff;fill-opacity:1;fill-rule:nonzero;stroke:none"
           transform="matrix(1,0,0,-1,374.93,373.49)"><tspan
             id="tspan180"
             y="0"
             x="0">A</tspan></text>
</g></g><path
       id="path184"
       style="fill:#7f7f7f;fill-opacity:1;fill-rule:nonzero;stroke:none"
       d="m 502.2,378.84 h 49.69 V 376.8 H 502.2 Z m 49.69,-1.02 -2.04,3.06 6.12,-3.06 -6.12,-3.06 z" /><g
       id="g186"><g
         clip-path="url(#clipPath192)"
         id="g188"><text
           id="text196"
           style="font-variant:normal;font-weight:normal;font-size:12px;font-family:Calibri;-inkscape-font-specification:Calibri;writing-mode:lr-tb;fill:#7f7f7f;fill-opacity:1;fill-rule:nonzero;stroke:none"
           transform="matrix(1,0,0,-1,509.88,388.7)"><tspan
             id="tspan194"
             y="0"
             x="0 4.0679998 8.2559996 11.016 16.775999 22.296 28.271999">trigger</tspan></text>
</g></g><path
       id="path198"
       style="fill:#7f7f7f;fill-opacity:1;fill-rule:nonzero;stroke:none"
       d="m 615.72,379.8 h 49.69 v -2.04 h -49.69 z m 49.69,-1.02 -2.04,3.06 6.12,-3.06 -6.12,-3.06 z" /><g
       id="g200"><g
         clip-path="url(#clipPath206)"
         id="g202"><text
           id="text210"
           style="font-variant:normal;font-weight:normal;font-size:12px;font-family:Calibri;-inkscape-font-specification:Calibri;writing-mode:lr-tb;fill:#000000;fill-opacity:1;fill-rule:nonzero;stroke:none"
           transform="matrix(1,0,0,-1,619.8,386.66)"><tspan
             id="tspan208"
             y="0"
             x="0 6.348 12.672">non</tspan></text>
</g></g><g
       id="g212"><g
         clip-path="url(#clipPath218)"
         id="g214"><text
           id="text222"
           style="font-variant:normal;font-weight:normal;font-size:12px;font-family:Calibri;-inkscape-font-specification:Calibri;writing-mode:lr-tb;fill:#000000;fill-opacity:1;fill-rule:nonzero;stroke:none"
           transform="matrix(1,0,0,-1,638.88,386.66)"><tspan
             id="tspan220"
             y="0"
             x="0">-</tspan></text>
</g></g><g
       id="g224"><g
         clip-path="url(#clipPath230)"
         id="g226"><text
           id="text234"
           style="font-variant:normal;font-weight:normal;font-size:12px;font-family:Calibri;-inkscape-font-specification:Calibri;writing-mode:lr-tb;fill:#000000;fill-opacity:1;fill-rule:nonzero;stroke:none"
           transform="matrix(1,0,0,-1,619.8,365.04)"><tspan
             id="tspan232"
             y="0"
             x="0 6.348 12.324 16.308001 21 23.76 28.308001 32.268002 38.243999 44.507999">persistent</tspan></text>
</g></g><path
       id="path236"
       style="fill:#7f7f7f;fill-opacity:1;fill-rule:nonzero;stroke:none"
       d="m 685.32,379.56 h 49.69 v -2.04 h -49.69 z m 49.69,-1.02 -2.04,3.06 6.12,-3.06 -6.12,-3.06 z" /><path
       id="path238"
       style="fill:#7f7f7f;fill-opacity:1;fill-rule:nonzero;stroke:none"
       d="m 801,378.24 h 49.69 V 376.2 H 801 Z m 49.69,-1.02 -2.04,3.06 6.12,-3.06 -6.12,-3.06 z" /><g
       id="g240"><g
         clip-path="url(#clipPath246)"
         id="g242"><text
           id="text250"
           style="font-variant:normal;font-weight:normal;font-size:12px;font-family:Calibri;-inkscape-font-specification:Calibri;writing-mode:lr-tb;fill:#000000;fill-opacity:1;fill-rule:nonzero;stroke:none"
           transform="matrix(1,0,0,-1,693.5,388.3)"><tspan
             id="tspan248"
             y="0"
             x="0 4.0679998 8.2559996 11.016 16.775999 22.296 28.271999">trigger</tspan></text>
</g></g><g
       id="g252"><g
         clip-path="url(#clipPath258)"
         id="g254"><text
           id="text262"
           style="font-variant:normal;font-weight:normal;font-size:12px;font-family:Calibri;-inkscape-font-specification:Calibri;writing-mode:lr-tb;fill:#7f7f7f;fill-opacity:1;fill-rule:nonzero;stroke:none"
           transform="matrix(1,0,0,-1,806.06,384.17)"><tspan
             id="tspan260"
             y="0"
             x="0 6.348 12.672">non</tspan></text>
</g></g><g
       id="g264"><g
         clip-path="url(#clipPath270)"
         id="g266"><text
           id="text274"
           style="font-variant:normal;font-weight:normal;font-size:12px;font-family:Calibri;-inkscape-font-specification:Calibri;writing-mode:lr-tb;fill:#7f7f7f;fill-opacity:1;fill-rule:nonzero;stroke:none"
           transform="matrix(1,0,0,-1,825.14,384.17)"><tspan
             id="tspan272"
             y="0"
             x="0">-</tspan></text>
</g></g><g
       id="g276"><g
         clip-path="url(#clipPath282)"
         id="g278"><text
           id="text286"
           style="font-variant:normal;font-weight:normal;font-size:12px;font-family:Calibri;-inkscape-font-specification:Calibri;writing-mode:lr-tb;fill:#7f7f7f;fill-opacity:1;fill-rule:nonzero;stroke:none"
           transform="matrix(1,0,0,-1,806.06,362.57)"><tspan
             id="tspan284"
             y="0"
             x="0 6.348 12.324 16.308001 21 23.76 28.308001 32.268002 38.243999 44.507999">persistent</tspan></text>
</g></g><g
       id="g288"><path
         id="path290"
         style="fill:none;stroke:#7f7f7f;stroke-width:2.03999996;stroke-linecap:butt;stroke-linejoin:miter;stroke-miterlimit:10;stroke-dasharray:6.12, 2.04;stroke-dashoffset:0;stroke-opacity:1"
         d="M 848.61,355.86 H 847.7 V 310.11 H 514.74" /></g><path
       id="path292"
       style="fill:#7f7f7f;fill-opacity:1;fill-rule:nonzero;stroke:none"
       d="m 514.09,310.27 -0.03,6.12 2.04,0.02 0.03,-6.12 z m -0.04,8.16 -0.04,6.12 2.04,0.02 0.04,-6.12 z m -0.05,8.16 -0.03,6.12 2.04,0.02 0.03,-6.12 z m -0.05,8.16 -0.03,6.12 2.04,0.02 0.03,-6.12 z m -0.04,8.16 -0.04,6.12 2.04,0.02 0.04,-6.12 z m -0.05,8.16 -0.03,6.12 2.04,0.02 0.03,-6.12 z m -0.05,8.16 -0.03,6.12 2.04,0.01 0.03,-6.11 z m -0.04,8.16 -0.03,4.3 2.04,0.02 0.03,-4.31 z m 0.99,4.31 -3.04,-2.06 3.02,6.14 3.09,-6.1 z" /><g
       id="g294"><g
         clip-path="url(#clipPath300)"
         id="g296"><text
           id="text304"
           style="font-variant:normal;font-weight:normal;font-size:24px;font-family:Calibri;-inkscape-font-specification:Calibri;writing-mode:lr-tb;fill:#ffffff;fill-opacity:1;fill-rule:nonzero;stroke:none"
           transform="matrix(1,0,0,-1,580.1,371.28)"><tspan
             id="tspan302"
             y="0"
             x="0">T</tspan></text>
</g></g><g
       id="g306"><g
         clip-path="url(#clipPath312)"
         id="g308"><text
           id="text316"
           style="font-variant:normal;font-weight:normal;font-size:14.03999996px;font-family:Calibri;-inkscape-font-specification:Calibri;writing-mode:lr-tb;fill:#000000;fill-opacity:1;fill-rule:nonzero;stroke:none"
           transform="matrix(1,0,0,-1,234.89,422.18)"><tspan
             id="tspan314"
             y="0"
             x="0 4.7034001 7.9326 19.08036">time</tspan></text>
</g></g><g
       id="g318"><g
         clip-path="url(#clipPath324)"
         id="g320"><text
           id="text328"
           style="font-variant:normal;font-weight:normal;font-size:14.03999996px;font-family:Calibri;-inkscape-font-specification:Calibri;writing-mode:lr-tb;fill:#000000;fill-opacity:1;fill-rule:nonzero;stroke:none"
           transform="matrix(1,0,0,-1,260.93,422.18)"><tspan
             id="tspan326"
             y="0"
             x="0">-</tspan></text>
</g></g><g
       id="g330"><g
         clip-path="url(#clipPath336)"
         id="g332"><text
           id="text340"
           style="font-variant:normal;font-weight:normal;font-size:14.03999996px;font-family:Calibri;-inkscape-font-specification:Calibri;writing-mode:lr-tb;fill:#000000;fill-opacity:1;fill-rule:nonzero;stroke:none"
           transform="matrix(1,0,0,-1,265.25,422.18)"><tspan
             id="tspan338"
             y="0"
             x="0 7.3148398 14.04 19.52964 26.521561 33.836399 37.065601 42.555241 45.784439 57.002399 64.3032 67.532402 74.145241 78.708237 86.107323 91.0494">based simulator </tspan></text>
</g></g><g
       id="g342"><g
         clip-path="url(#clipPath348)"
         id="g344"><text
           id="text352"
           style="font-variant:normal;font-weight:normal;font-size:14.03999996px;font-family:Calibri;-inkscape-font-specification:Calibri;writing-mode:lr-tb;fill:#000000;fill-opacity:1;fill-rule:nonzero;stroke:none"
           transform="matrix(1,0,0,-1,614.38,422.54)"><tspan
             id="tspan350"
             y="0"
             x="0 6.8374801 13.07124 20.06316 27.2376">event</tspan></text>
</g></g><g
       id="g354"><g
         clip-path="url(#clipPath360)"
         id="g356"><text
           id="text364"
           style="font-variant:normal;font-weight:normal;font-size:14.03999996px;font-family:Calibri;-inkscape-font-specification:Calibri;writing-mode:lr-tb;fill:#000000;fill-opacity:1;fill-rule:nonzero;stroke:none"
           transform="matrix(1,0,0,-1,646.3,422.54)"><tspan
             id="tspan362"
             y="0"
             x="0">-</tspan></text>
</g></g><g
       id="g366"><g
         clip-path="url(#clipPath372)"
         id="g368"><text
           id="text376"
           style="font-variant:normal;font-weight:normal;font-size:14.03999996px;font-family:Calibri;-inkscape-font-specification:Calibri;writing-mode:lr-tb;fill:#000000;fill-opacity:1;fill-rule:nonzero;stroke:none"
           transform="matrix(1,0,0,-1,650.62,422.54)"><tspan
             id="tspan374"
             y="0"
             x="0 7.3148398 14.04 19.52964 26.521561 33.836399 37.304279 42.793919 46.023121 57.241081 64.541878 67.77108 74.383919 78.946922 86.346001 91.288078">based simulator </tspan></text>
</g></g><g
       id="g378"><g
         clip-path="url(#clipPath384)"
         id="g380"><text
           id="text388"
           style="font-style:italic;font-variant:normal;font-weight:normal;font-size:12px;font-family:Calibri;-inkscape-font-specification:Calibri-Italic;writing-mode:lr-tb;fill:#7f7f7f;fill-opacity:1;fill-rule:nonzero;stroke:none"
           transform="matrix(1,0,0,-1,410.64,340.46)"><tspan
             id="tspan386"
             y="0"
             x="0 5.0279999 10.416 15.444 18.204 20.964001 25.992001 31.548">cyclic? </tspan></text>
</g></g><g
       id="g390"><g
         clip-path="url(#clipPath396)"
         id="g392"><text
           id="text400"
           style="font-style:italic;font-variant:normal;font-weight:normal;font-size:12.02400017px;font-family:Calibri;-inkscape-font-specification:Calibri-Italic;writing-mode:lr-tb;fill:#7f7f7f;fill-opacity:1;fill-rule:nonzero;stroke:none"
           transform="matrix(1,0,0,-1,410.64,326.06)"><tspan
             id="tspan398"
             y="0"
             x="0 5.3747282 11.146248 15.823584">yes </tspan></text>
</g></g><path
       id="path402"
       style="fill:#7f7f7f;fill-opacity:1;fill-rule:nonzero;stroke:none"
       d="m 433.2,336.74 -0.38,-12.38 1,-0.03 0.38,12.37 z m 0.12,-12.4 -2.94,2.09 2.82,-6.08 3.18,5.9 z" /><g
       id="g404"><g
         clip-path="url(#clipPath410)"
         id="g406"><text
           id="text414"
           style="font-style:italic;font-variant:normal;font-weight:normal;font-size:12px;font-family:Calibri;-inkscape-font-specification:Calibri-Italic;writing-mode:lr-tb;fill:#7f7f7f;fill-opacity:1;fill-rule:nonzero;stroke:none"
           transform="matrix(1,0,0,-1,805.06,340.46)"><tspan
             id="tspan412"
             y="0"
             x="0 5.0279999 10.416 15.444 18.204 20.964001 25.992001 31.548">cyclic? </tspan></text>
</g></g><g
       id="g416"><g
         clip-path="url(#clipPath422)"
         id="g418"><text
           id="text426"
           style="font-style:italic;font-variant:normal;font-weight:normal;font-size:12.02400017px;font-family:Calibri;-inkscape-font-specification:Calibri-Italic;writing-mode:lr-tb;fill:#7f7f7f;fill-opacity:1;fill-rule:nonzero;stroke:none"
           transform="matrix(1,0,0,-1,805.06,326.06)"><tspan
             id="tspan424"
             y="0"
             x="0 5.3747282 11.146248 15.823584">yes </tspan></text>
</g></g><path
       id="path428"
       style="fill:#7f7f7f;fill-opacity:1;fill-rule:nonzero;stroke:none"
       d="m 827.88,337.1 -0.38,-12.38 1,-0.03 0.38,12.37 z m 0.12,-12.4 -2.94,2.09 2.82,-6.08 3.18,5.9 z" /><g
       id="g430"><g
         clip-path="url(#clipPath436)"
         id="g432"><text
           id="text440"
           style="font-variant:normal;font-weight:normal;font-size:24.02400017px;font-family:Calibri;-inkscape-font-specification:Calibri;writing-mode:lr-tb;fill:#ffffff;fill-opacity:1;fill-rule:nonzero;stroke:none"
           transform="matrix(1,0,0,-1,191.74,371.98)"><tspan
             id="tspan438"
             y="0"
             x="0">C</tspan></text>
</g></g><g
       id="g442"><g
         clip-path="url(#clipPath448)"
         id="g444"><text
           id="text452"
           style="font-variant:normal;font-weight:normal;font-size:24px;font-family:Calibri;-inkscape-font-specification:Calibri;writing-mode:lr-tb;fill:#ffffff;fill-opacity:1;fill-rule:nonzero;stroke:none"
           transform="matrix(1,0,0,-1,766.66,370.97)"><tspan
             id="tspan450"
             y="0"
             x="0">S</tspan></text>
</g></g></g></svg>