<?xml version="1.0" encoding="UTF-8" standalone="no"?>
<!-- Created with Inkscape (http://www.inkscape.org/) -->

<svg
   xmlns:dc="http://purl.org/dc/elements/1.1/"
   xmlns:cc="http://creativecommons.org/ns#"
   xmlns:rdf="http://www.w3.org/1999/02/22-rdf-syntax-ns#"
   xmlns:svg="http://www.w3.org/2000/svg"
   xmlns="http://www.w3.org/2000/svg"
   xmlns:sodipodi="http://sodipodi.sourceforge.net/DTD/sodipodi-0.dtd"
   xmlns:inkscape="http://www.inkscape.org/namespaces/inkscape"
   version="1.1"
   width="986.41333"
   height="164.11955"
   id="svg2"
   sodipodi:docname="connect_attr_simulator.svg"
   inkscape:version="0.92.3 (2405546, 2018-03-11)">
  <sodipodi:namedview
     pagecolor="#ffffff"
     bordercolor="#666666"
     borderopacity="1"
     objecttolerance="10"
     gridtolerance="10"
     guidetolerance="10"
     inkscape:pageopacity="0"
     inkscape:pageshadow="2"
     inkscape:window-width="1152"
     inkscape:window-height="1995"
     id="namedview1410"
     showgrid="true"
     inkscape:zoom="0.77781746"
     inkscape:cx="232.51666"
     inkscape:cy="-125.3692"
     inkscape:window-x="3832"
     inkscape:window-y="218"
     inkscape:window-maximized="1"
     inkscape:current-layer="svg2" />
  <defs
     id="defs4">
    <marker
       refX="0"
       refY="0"
       orient="auto"
       id="Arrow2Mstart"
       style="overflow:visible">
      <path
         d="M 8.7185878,4.0337352 -2.2072895,0.01601326 8.7185884,-4.0017078 c -1.7454984,2.3720609 -1.7354408,5.6174519 -6e-7,8.035443 z"
         transform="scale(0.6)"
         id="path4557"
         style="fill-rule:evenodd;stroke-width:0.625;stroke-linejoin:round"
         inkscape:connector-curvature="0" />
    </marker>
    <marker
       refX="0"
       refY="0"
       orient="auto"
       id="Arrow2Mend"
       style="overflow:visible">
      <path
         d="M 8.7185878,4.0337352 -2.2072895,0.01601326 8.7185884,-4.0017078 c -1.7454984,2.3720609 -1.7354408,5.6174519 -6e-7,8.035443 z"
         transform="scale(-0.6)"
         id="path4560"
         style="fill-rule:evenodd;stroke-width:0.625;stroke-linejoin:round"
         inkscape:connector-curvature="0" />
    </marker>
    <clipPath
       id="clipPath448"
       clipPathUnits="userSpaceOnUse">
      <path
         inkscape:connector-curvature="0"
         style="clip-rule:evenodd"
         id="path446"
         d="M 1.4305e-5,0 H 960.00001 V 540 H 1.4305e-5 Z" />
    </clipPath>
    <clipPath
       id="clipPath436"
       clipPathUnits="userSpaceOnUse">
      <path
         inkscape:connector-curvature="0"
         style="clip-rule:evenodd"
         id="path434"
         d="M 1.4305e-5,0 H 960.00001 V 540 H 1.4305e-5 Z" />
    </clipPath>
    <clipPath
       id="clipPath422"
       clipPathUnits="userSpaceOnUse">
      <path
         inkscape:connector-curvature="0"
         style="clip-rule:evenodd"
         id="path420"
         d="M 1.4305e-5,0 H 960.00001 V 540 H 1.4305e-5 Z" />
    </clipPath>
    <clipPath
       id="clipPath410"
       clipPathUnits="userSpaceOnUse">
      <path
         inkscape:connector-curvature="0"
         style="clip-rule:evenodd"
         id="path408"
         d="M 1.4305e-5,0 H 960.00001 V 540 H 1.4305e-5 Z" />
    </clipPath>
    <clipPath
       id="clipPath396"
       clipPathUnits="userSpaceOnUse">
      <path
         inkscape:connector-curvature="0"
         style="clip-rule:evenodd"
         id="path394"
         d="M 1.4305e-5,0 H 960.00001 V 540 H 1.4305e-5 Z" />
    </clipPath>
    <clipPath
       id="clipPath384"
       clipPathUnits="userSpaceOnUse">
      <path
         inkscape:connector-curvature="0"
         style="clip-rule:evenodd"
         id="path382"
         d="M 1.4305e-5,0 H 960.00001 V 540 H 1.4305e-5 Z" />
    </clipPath>
    <clipPath
       id="clipPath372"
       clipPathUnits="userSpaceOnUse">
      <path
         inkscape:connector-curvature="0"
         style="clip-rule:evenodd"
         id="path370"
         d="M 1.4305e-5,0 H 960.00001 V 540 H 1.4305e-5 Z" />
    </clipPath>
    <clipPath
       id="clipPath360"
       clipPathUnits="userSpaceOnUse">
      <path
         inkscape:connector-curvature="0"
         style="clip-rule:evenodd"
         id="path358"
         d="M 1.4305e-5,0 H 960.00001 V 540 H 1.4305e-5 Z" />
    </clipPath>
    <clipPath
       id="clipPath348"
       clipPathUnits="userSpaceOnUse">
      <path
         inkscape:connector-curvature="0"
         style="clip-rule:evenodd"
         id="path346"
         d="M 1.4305e-5,0 H 960.00001 V 540 H 1.4305e-5 Z" />
    </clipPath>
    <clipPath
       id="clipPath336"
       clipPathUnits="userSpaceOnUse">
      <path
         inkscape:connector-curvature="0"
         style="clip-rule:evenodd"
         id="path334"
         d="M 1.4305e-5,0 H 960.00001 V 540 H 1.4305e-5 Z" />
    </clipPath>
    <clipPath
       id="clipPath324"
       clipPathUnits="userSpaceOnUse">
      <path
         inkscape:connector-curvature="0"
         style="clip-rule:evenodd"
         id="path322"
         d="M 1.4305e-5,0 H 960.00001 V 540 H 1.4305e-5 Z" />
    </clipPath>
    <clipPath
       id="clipPath312"
       clipPathUnits="userSpaceOnUse">
      <path
         inkscape:connector-curvature="0"
         style="clip-rule:evenodd"
         id="path310"
         d="M 1.4305e-5,0 H 960.00001 V 540 H 1.4305e-5 Z" />
    </clipPath>
    <clipPath
       id="clipPath300"
       clipPathUnits="userSpaceOnUse">
      <path
         inkscape:connector-curvature="0"
         style="clip-rule:evenodd"
         id="path298"
         d="M 1.4305e-5,0 H 960.00001 V 540 H 1.4305e-5 Z" />
    </clipPath>
    <clipPath
       id="clipPath282"
       clipPathUnits="userSpaceOnUse">
      <path
         inkscape:connector-curvature="0"
         style="clip-rule:evenodd"
         id="path280"
         d="M 1.4305e-5,0 H 960.00001 V 540 H 1.4305e-5 Z" />
    </clipPath>
    <clipPath
       id="clipPath270"
       clipPathUnits="userSpaceOnUse">
      <path
         inkscape:connector-curvature="0"
         style="clip-rule:evenodd"
         id="path268"
         d="M 1.4305e-5,0 H 960.00001 V 540 H 1.4305e-5 Z" />
    </clipPath>
    <clipPath
       id="clipPath258"
       clipPathUnits="userSpaceOnUse">
      <path
         inkscape:connector-curvature="0"
         style="clip-rule:evenodd"
         id="path256"
         d="M 1.4305e-5,0 H 960.00001 V 540 H 1.4305e-5 Z" />
    </clipPath>
    <clipPath
       id="clipPath246"
       clipPathUnits="userSpaceOnUse">
      <path
         inkscape:connector-curvature="0"
         style="clip-rule:evenodd"
         id="path244"
         d="M 1.4305e-5,0 H 960.00001 V 540 H 1.4305e-5 Z" />
    </clipPath>
    <clipPath
       id="clipPath230"
       clipPathUnits="userSpaceOnUse">
      <path
         inkscape:connector-curvature="0"
         style="clip-rule:evenodd"
         id="path228"
         d="M 1.4305e-5,0 H 960.00001 V 540 H 1.4305e-5 Z" />
    </clipPath>
    <clipPath
       id="clipPath218"
       clipPathUnits="userSpaceOnUse">
      <path
         inkscape:connector-curvature="0"
         style="clip-rule:evenodd"
         id="path216"
         d="M 1.4305e-5,0 H 960.00001 V 540 H 1.4305e-5 Z" />
    </clipPath>
    <clipPath
       id="clipPath206"
       clipPathUnits="userSpaceOnUse">
      <path
         inkscape:connector-curvature="0"
         style="clip-rule:evenodd"
         id="path204"
         d="M 1.4305e-5,0 H 960.00001 V 540 H 1.4305e-5 Z" />
    </clipPath>
    <clipPath
       id="clipPath192"
       clipPathUnits="userSpaceOnUse">
      <path
         inkscape:connector-curvature="0"
         style="clip-rule:evenodd"
         id="path190"
         d="M 1.4305e-5,0 H 960.00001 V 540 H 1.4305e-5 Z" />
    </clipPath>
    <clipPath
       id="clipPath178"
       clipPathUnits="userSpaceOnUse">
      <path
         inkscape:connector-curvature="0"
         style="clip-rule:evenodd"
         id="path176"
         d="M 1.4305e-5,0 H 960.00001 V 540 H 1.4305e-5 Z" />
    </clipPath>
    <clipPath
       id="clipPath160"
       clipPathUnits="userSpaceOnUse">
      <path
         inkscape:connector-curvature="0"
         style="clip-rule:evenodd"
         id="path158"
         d="M 1.4305e-5,0 H 960.00001 V 540 H 1.4305e-5 Z" />
    </clipPath>
    <clipPath
       id="clipPath148"
       clipPathUnits="userSpaceOnUse">
      <path
         inkscape:connector-curvature="0"
         style="clip-rule:evenodd"
         id="path146"
         d="M 1.4305e-5,0 H 960.00001 V 540 H 1.4305e-5 Z" />
    </clipPath>
    <clipPath
       id="clipPath136"
       clipPathUnits="userSpaceOnUse">
      <path
         inkscape:connector-curvature="0"
         style="clip-rule:evenodd"
         id="path134"
         d="M 1.4305e-5,0 H 960.00001 V 540 H 1.4305e-5 Z" />
    </clipPath>
    <clipPath
       id="clipPath124"
       clipPathUnits="userSpaceOnUse">
      <path
         inkscape:connector-curvature="0"
         style="clip-rule:evenodd"
         id="path122"
         d="M 1.4305e-5,0 H 960.00001 V 540 H 1.4305e-5 Z" />
    </clipPath>
    <clipPath
       id="clipPath112"
       clipPathUnits="userSpaceOnUse">
      <path
         inkscape:connector-curvature="0"
         style="clip-rule:evenodd"
         id="path110"
         d="M 1.4305e-5,0 H 960.00001 V 540 H 1.4305e-5 Z" />
    </clipPath>
    <clipPath
       id="clipPath100"
       clipPathUnits="userSpaceOnUse">
      <path
         inkscape:connector-curvature="0"
         style="clip-rule:evenodd"
         id="path98"
         d="M 1.4305e-5,0 H 960.00001 V 540 H 1.4305e-5 Z" />
    </clipPath>
    <clipPath
       id="clipPath88"
       clipPathUnits="userSpaceOnUse">
      <path
         inkscape:connector-curvature="0"
         style="clip-rule:evenodd"
         id="path86"
         d="M 1.4305e-5,0 H 960.00001 V 540 H 1.4305e-5 Z" />
    </clipPath>
    <clipPath
       id="clipPath70"
       clipPathUnits="userSpaceOnUse">
      <path
         inkscape:connector-curvature="0"
         style="clip-rule:evenodd"
         id="path68"
         d="M 1.4305e-5,0 H 960.00001 V 540 H 1.4305e-5 Z" />
    </clipPath>
    <linearGradient
       id="linearGradient58"
       spreadMethod="pad"
       gradientUnits="userSpaceOnUse"
       y2="409.32001"
       x2="380.51999"
       y1="290.51999"
       x1="380.51999">
      <stop
         id="stop54"
         offset="0"
         style="stop-opacity:1;stop-color:#5e8227" />
      <stop
         id="stop56"
         offset="1"
         style="stop-opacity:1;stop-color:#5e8227" />
    </linearGradient>
    <linearGradient
       id="linearGradient48"
       spreadMethod="pad"
       gradientUnits="userSpaceOnUse"
       y2="409.32001"
       x2="198.42"
       y1="290.51999"
       x1="198.42">
      <stop
         id="stop44"
         offset="0"
         style="stop-opacity:1;stop-color:#5e8227" />
      <stop
         id="stop46"
         offset="1"
         style="stop-opacity:1;stop-color:#5e8227" />
    </linearGradient>
    <linearGradient
       id="linearGradient38"
       spreadMethod="pad"
       gradientUnits="userSpaceOnUse"
       y2="409.32001"
       x2="585.23999"
       y1="290.51999"
       x1="585.23999">
      <stop
         id="stop34"
         offset="0"
         style="stop-opacity:1;stop-color:#276580" />
      <stop
         id="stop36"
         offset="1"
         style="stop-opacity:1;stop-color:#276580" />
    </linearGradient>
    <linearGradient
       id="linearGradient28"
       spreadMethod="pad"
       gradientUnits="userSpaceOnUse"
       y2="409.32001"
       x2="770.64001"
       y1="290.51999"
       x1="770.64001">
      <stop
         id="stop24"
         offset="0"
         style="stop-opacity:1;stop-color:#276580" />
      <stop
         id="stop26"
         offset="1"
         style="stop-opacity:1;stop-color:#276580" />
    </linearGradient>
    <clipPath
       id="clipPath70-0"
       clipPathUnits="userSpaceOnUse">
      <path
         inkscape:connector-curvature="0"
         style="clip-rule:evenodd"
         id="path68-8"
         d="M 1.4305e-5,0 H 960.00001 V 540 H 1.4305e-5 Z" />
    </clipPath>
  </defs>
  <metadata
     id="metadata7">
    <rdf:RDF>
      <cc:Work
         rdf:about="">
        <dc:format>image/svg+xml</dc:format>
        <dc:type
           rdf:resource="http://purl.org/dc/dcmitype/StillImage" />
        <dc:title></dc:title>
      </cc:Work>
    </rdf:RDF>
  </metadata>
  <g
     transform="matrix(1.3333333,0,0,-1.3333333,-153.27999,576.11954)"
     id="g22">
    <path
       inkscape:connector-curvature="0"
       id="path30"
       style="fill:url(#linearGradient28);fill-opacity:1;fill-rule:evenodd;stroke:none"
       d="m 740.88,399.42 c 0,5.47 4.43,9.9 9.9,9.9 h 39.72 c 5.47,0 9.9,-4.43 9.9,-9.9 v -39.6 c 0,-5.47 -4.43,-9.9 -9.9,-9.9 h -39.72 c -5.47,0 -9.9,4.43 -9.9,9.9 z" />
  </g>
  <g
     transform="matrix(1.3333333,0,0,-1.3333333,-153.27999,576.11954)"
     id="g32">
    <path
       inkscape:connector-curvature="0"
       id="path40"
       style="fill:url(#linearGradient38);fill-opacity:1;fill-rule:evenodd;stroke:none"
       d="m 555.48,399.42 c 0,5.47 4.43,9.9 9.9,9.9 h 39.72 c 5.47,0 9.9,-4.43 9.9,-9.9 v -39.6 c 0,-5.47 -4.43,-9.9 -9.9,-9.9 h -39.72 c -5.47,0 -9.9,4.43 -9.9,9.9 z" />
  </g>
  <g
     transform="matrix(1.3333333,0,0,-1.3333333,-153.27999,576.11954)"
     id="g42">
    <path
       inkscape:connector-curvature="0"
       id="path50"
       style="fill:url(#linearGradient48);fill-opacity:1;fill-rule:evenodd;stroke:none"
       d="m 168.6,399.42 c 0,5.47 4.43,9.9 9.9,9.9 h 39.84 c 5.47,0 9.9,-4.43 9.9,-9.9 v -39.6 c 0,-5.47 -4.43,-9.9 -9.9,-9.9 H 178.5 c -5.47,0 -9.9,4.43 -9.9,9.9 z" />
  </g>
  <g
     transform="matrix(1.3333333,0,0,-1.3333333,-153.27999,576.11954)"
     id="g52">
    <path
       inkscape:connector-curvature="0"
       id="path60"
       style="fill:url(#linearGradient58);fill-opacity:1;fill-rule:evenodd;stroke:none"
       d="m 350.76,399.42 c 0,5.47 4.43,9.9 9.9,9.9 h 39.72 c 5.47,0 9.9,-4.43 9.9,-9.9 v -39.6 c 0,-5.47 -4.43,-9.9 -9.9,-9.9 h -39.72 c -5.47,0 -9.9,4.43 -9.9,9.9 z" />
  </g>
  <path
     inkscape:connector-curvature="0"
     id="path62"
     style="fill:#7f7f7f;fill-opacity:1;fill-rule:nonzero;stroke:none;stroke-width:1.33333325"
     d="m 151.84,70.039583 h 66.41334 v 2.72002 H 151.84 Z m 66.41334,1.35999 -2.72,-4.07996 8.16,4.07996 -8.16,4.08 z" />
  <g
     transform="matrix(1.3333333,0,0,-1.3333333,-153.27999,576.11954)"
     id="g64">
    <g
       clip-path="url(#clipPath70)"
       id="g66">
      <text
         id="text74"
         style="font-variant:normal;font-weight:normal;font-size:12px;font-family:Calibri;-inkscape-font-specification:Calibri;writing-mode:lr-tb;fill:#000000;fill-opacity:1;fill-rule:nonzero;stroke:none"
         transform="matrix(1,0,0,-1,231.98,388.3)">
        <tspan
           id="tspan72"
           y="0"
           x="0 6.348 12.324 16.308001 21 23.76 28.308001 32.268002 38.243999 44.507999">persistent</tspan>
      </text>
    </g>
  </g>
  <path
     inkscape:connector-curvature="0"
     id="path76"
     style="fill:#7f7f7f;fill-opacity:1;fill-rule:nonzero;stroke:none;stroke-width:1.33333325"
     d="m 244.15999,69.399603 h 66.25335 v 2.71997 h -66.25335 z m 66.25335,1.35998 -2.72001,-4.08 8.16,4.08 -8.16,4.08 z" />
  <path
     inkscape:connector-curvature="0"
     id="path78"
     style="fill:#7f7f7f;fill-opacity:1;fill-rule:nonzero;stroke:none;stroke-width:1.33333325"
     d="m 394.39998,70.839603 h 66.25333 v 2.71997 h -66.25333 z m 66.25333,1.35998 -2.72,-4.08 8.15999,4.08 -8.15999,4.08 z" />
  <path
     inkscape:connector-curvature="0"
     id="path80"
     style="fill:#7f7f7f;fill-opacity:1;fill-rule:nonzero;stroke:none;stroke-width:1.33333325"
     d="m 0,70.359603 h 66.25333 v 2.71997 H 0 Z m 66.25333,1.35998 -2.71999,-4.08 8.16,4.08 -8.16,4.08 z" />
  <g
     transform="matrix(1.3333333,0,0,-1.3333333,-153.27999,576.11954)"
     id="g82">
    <g
       clip-path="url(#clipPath88)"
       id="g84">
      <text
         id="text92"
         style="font-variant:normal;font-weight:normal;font-size:12px;font-family:Calibri;-inkscape-font-specification:Calibri;writing-mode:lr-tb;fill:#000000;fill-opacity:1;fill-rule:nonzero;stroke:none"
         transform="matrix(1,0,0,-1,311.02,386.28)">
        <tspan
           id="tspan90"
           y="0"
           x="0 6.348 12.672">non</tspan>
      </text>
    </g>
  </g>
  <g
     transform="matrix(1.3333333,0,0,-1.3333333,-153.27999,576.11954)"
     id="g94">
    <g
       clip-path="url(#clipPath100)"
       id="g96">
      <text
         id="text104"
         style="font-variant:normal;font-weight:normal;font-size:12px;font-family:Calibri;-inkscape-font-specification:Calibri;writing-mode:lr-tb;fill:#000000;fill-opacity:1;fill-rule:nonzero;stroke:none"
         transform="matrix(1,0,0,-1,330.1,386.28)">
        <tspan
           id="tspan102"
           y="0"
           x="0">-</tspan>
      </text>
    </g>
  </g>
  <g
     transform="matrix(1.3333333,0,0,-1.3333333,-153.27999,576.11954)"
     id="g106">
    <g
       clip-path="url(#clipPath112)"
       id="g108">
      <text
         id="text116"
         style="font-variant:normal;font-weight:normal;font-size:12px;font-family:Calibri;-inkscape-font-specification:Calibri;writing-mode:lr-tb;fill:#000000;fill-opacity:1;fill-rule:nonzero;stroke:none"
         transform="matrix(1,0,0,-1,311.02,364.68)">
        <tspan
           id="tspan114"
           y="0"
           x="0 4.0679998 8.2559996 11.016 16.775999 22.296 28.271999">trigger</tspan>
      </text>
    </g>
  </g>
  <g
     transform="matrix(1.3333333,0,0,-1.3333333,-153.27999,576.11954)"
     id="g118">
    <g
       clip-path="url(#clipPath124)"
       id="g120">
      <text
         id="text128"
         style="font-variant:normal;font-weight:normal;font-size:12px;font-family:Calibri;-inkscape-font-specification:Calibri;writing-mode:lr-tb;fill:#7f7f7f;fill-opacity:1;fill-rule:nonzero;stroke:none"
         transform="matrix(1,0,0,-1,414,388.08)">
        <tspan
           id="tspan126"
           y="0"
           x="0 6.348 12.324 16.308001 21 23.76 28.308001 32.268002 38.243999 44.507999">persistent</tspan>
      </text>
    </g>
  </g>
  <g
     transform="matrix(1.3333333,0,0,-1.3333333,-153.27999,576.11954)"
     id="g130">
    <g
       clip-path="url(#clipPath136)"
       id="g132">
      <text
         id="text140"
         style="font-variant:normal;font-weight:normal;font-size:12px;font-family:Calibri;-inkscape-font-specification:Calibri;writing-mode:lr-tb;fill:#7f7f7f;fill-opacity:1;fill-rule:nonzero;stroke:none"
         transform="matrix(1,0,0,-1,131.35,386.66)">
        <tspan
           id="tspan138"
           y="0"
           x="0 6.348 12.672">non</tspan>
      </text>
    </g>
  </g>
  <g
     transform="matrix(1.3333333,0,0,-1.3333333,-153.27999,576.11954)"
     id="g142">
    <g
       clip-path="url(#clipPath148)"
       id="g144">
      <text
         id="text152"
         style="font-variant:normal;font-weight:normal;font-size:12px;font-family:Calibri;-inkscape-font-specification:Calibri;writing-mode:lr-tb;fill:#7f7f7f;fill-opacity:1;fill-rule:nonzero;stroke:none"
         transform="matrix(1,0,0,-1,150.43,386.66)">
        <tspan
           id="tspan150"
           y="0"
           x="0">-</tspan>
      </text>
    </g>
  </g>
  <g
     transform="matrix(1.3333333,0,0,-1.3333333,-153.27999,576.11954)"
     id="g154">
    <g
       clip-path="url(#clipPath160)"
       id="g156">
      <text
         id="text164"
         style="font-variant:normal;font-weight:normal;font-size:12px;font-family:Calibri;-inkscape-font-specification:Calibri;writing-mode:lr-tb;fill:#7f7f7f;fill-opacity:1;fill-rule:nonzero;stroke:none"
         transform="matrix(1,0,0,-1,131.35,365.06)">
        <tspan
           id="tspan162"
           y="0"
           x="0 4.0679998 8.2559996 11.016 16.775999 22.296 28.271999">trigger</tspan>
      </text>
    </g>
  </g>
  <g
     transform="matrix(1.3333333,0,0,-1.3333333,-153.27999,576.11954)"
     id="g166">
    <path
       inkscape:connector-curvature="0"
       id="path168"
       style="fill:none;stroke:#7f7f7f;stroke-width:2.03999996;stroke-linecap:butt;stroke-linejoin:miter;stroke-miterlimit:10;stroke-dasharray:6.12, 2.04;stroke-dashoffset:0;stroke-opacity:1"
       d="m 450.33,375.9 h -0.14 V 310.02 H 125.58" />
  </g>
  <path
     inkscape:connector-curvature="0"
     id="path170"
     style="fill:#7f7f7f;fill-opacity:1;fill-rule:nonzero;stroke:none;stroke-width:1.33333325"
     d="m 13.30667,161.78625 -0.0533,-8.16 2.72,-0.0265 0.0533,8.16 z m -0.0667,-10.88001 -0.0533,-8.16 2.72,-0.0265 0.0533,8.16 z m -0.0667,-10.87998 -0.04,-8.16 2.72,-0.0265 0.04,8.16 z m -0.0667,-10.88001 -0.04,-8.16 2.72,-0.0265 0.04,8.16 z m -0.0533,-10.88001 -0.0533,-8.15999 2.72,-0.0265 0.0533,8.15999 z m -0.0667,-10.87997 -0.04,-8.159997 2.72,-0.0265 0.04,8.159997 z m -0.0667,-10.880007 -0.04,-8.16 2.72,-0.0151 0.04,8.14665 z m -0.0533,-10.88002 -0.04,-5.73331 2.72,-0.0265 0.04,5.74666 z m 1.32,-5.74666 -4.05333,2.74666 4.02666,-8.18664 4.12,8.13331 z" />
  <g
     transform="matrix(1.3333333,0,0,-1.3333333,-153.27999,576.11954)"
     id="g172">
    <g
       clip-path="url(#clipPath178)"
       id="g174">
      <text
         id="text182"
         style="font-variant:normal;font-weight:normal;font-size:24px;font-family:Calibri;-inkscape-font-specification:Calibri;writing-mode:lr-tb;fill:#ffffff;fill-opacity:1;fill-rule:nonzero;stroke:none"
         transform="matrix(1,0,0,-1,374.93,373.49)">
        <tspan
           id="tspan180"
           y="0"
           x="0">A</tspan>
      </text>
    </g>
  </g>
  <path
     inkscape:connector-curvature="0"
     id="path184"
     style="fill:#7f7f7f;fill-opacity:1;fill-rule:nonzero;stroke:none;stroke-width:1.33333325"
     d="m 516.31997,70.999583 h 66.25335 v 2.72002 h -66.25335 z m 66.25335,1.35999 -2.72002,-4.07996 8.16,4.07996 -8.16,4.08 z" />
  <g
     transform="matrix(1.3333333,0,0,-1.3333333,-153.27999,576.11954)"
     id="g186">
    <g
       clip-path="url(#clipPath192)"
       id="g188">
      <text
         id="text196"
         style="font-variant:normal;font-weight:normal;font-size:12px;font-family:Calibri;-inkscape-font-specification:Calibri;writing-mode:lr-tb;fill:#7f7f7f;fill-opacity:1;fill-rule:nonzero;stroke:none"
         transform="matrix(1,0,0,-1,509.88,388.7)">
        <tspan
           id="tspan194"
           y="0"
           x="0 4.0679998 8.2559996 11.016 16.775999 22.296 28.271999">trigger</tspan>
      </text>
    </g>
  </g>
  <path
     inkscape:connector-curvature="0"
     id="path198"
     style="fill:#7f7f7f;fill-opacity:1;fill-rule:nonzero;stroke:none;stroke-width:1.33333325"
     d="m 667.67996,69.719613 h 66.25334 v 2.71997 h -66.25334 z m 66.25334,1.35999 -2.71997,-4.08 8.15996,4.08 -8.15996,4.08 z" />
  <g
     transform="matrix(1.3333333,0,0,-1.3333333,-153.27999,576.11954)"
     id="g200">
    <g
       clip-path="url(#clipPath206)"
       id="g202">
      <text
         id="text210"
         style="font-variant:normal;font-weight:normal;font-size:12px;font-family:Calibri;-inkscape-font-specification:Calibri;writing-mode:lr-tb;fill:#000000;fill-opacity:1;fill-rule:nonzero;stroke:none"
         transform="matrix(1,0,0,-1,619.8,386.66)">
        <tspan
           id="tspan208"
           y="0"
           x="0 6.348 12.672">non</tspan>
      </text>
    </g>
  </g>
  <g
     transform="matrix(1.3333333,0,0,-1.3333333,-153.27999,576.11954)"
     id="g212">
    <g
       clip-path="url(#clipPath218)"
       id="g214">
      <text
         id="text222"
         style="font-variant:normal;font-weight:normal;font-size:12px;font-family:Calibri;-inkscape-font-specification:Calibri;writing-mode:lr-tb;fill:#000000;fill-opacity:1;fill-rule:nonzero;stroke:none"
         transform="matrix(1,0,0,-1,638.88,386.66)">
        <tspan
           id="tspan220"
           y="0"
           x="0">-</tspan>
      </text>
    </g>
  </g>
  <g
     transform="matrix(1.3333333,0,0,-1.3333333,-153.27999,576.11954)"
     id="g224">
    <g
       clip-path="url(#clipPath230)"
       id="g226">
      <text
         id="text234"
         style="font-variant:normal;font-weight:normal;font-size:12px;font-family:Calibri;-inkscape-font-specification:Calibri;writing-mode:lr-tb;fill:#000000;fill-opacity:1;fill-rule:nonzero;stroke:none"
         transform="matrix(1,0,0,-1,619.8,365.04)">
        <tspan
           id="tspan232"
           y="0"
           x="0 6.348 12.324 16.308001 21 23.76 28.308001 32.268002 38.243999 44.507999">persistent</tspan>
      </text>
    </g>
  </g>
  <path
     inkscape:connector-curvature="0"
     id="path236"
     style="fill:#7f7f7f;fill-opacity:1;fill-rule:nonzero;stroke:none;stroke-width:1.33333325"
     d="m 760.47999,70.039583 h 66.25334 v 2.72002 h -66.25334 z m 66.25334,1.35999 -2.72,-4.07996 8.16,4.07996 -8.16,4.08 z" />
  <path
     inkscape:connector-curvature="0"
     id="path238"
     style="fill:#7f7f7f;fill-opacity:1;fill-rule:nonzero;stroke:none;stroke-width:1.33333325"
     d="m 914.72003,71.799603 h 66.2533 v 2.71997 h -66.2533 z m 66.2533,1.35998 -2.72,-4.08 8.16,4.08 -8.16,4.08 z" />
  <g
     transform="matrix(1.3333333,0,0,-1.3333333,-153.27999,576.11954)"
     id="g240">
    <g
       clip-path="url(#clipPath246)"
       id="g242">
      <text
         id="text250"
         style="font-variant:normal;font-weight:normal;font-size:12px;font-family:Calibri;-inkscape-font-specification:Calibri;writing-mode:lr-tb;fill:#000000;fill-opacity:1;fill-rule:nonzero;stroke:none"
         transform="matrix(1,0,0,-1,693.5,388.3)">
        <tspan
           id="tspan248"
           y="0"
           x="0 4.0679998 8.2559996 11.016 16.775999 22.296 28.271999">trigger</tspan>
      </text>
    </g>
  </g>
  <g
     transform="matrix(1.3333333,0,0,-1.3333333,-153.27999,576.11954)"
     id="g252">
    <g
       clip-path="url(#clipPath258)"
       id="g254">
      <text
         id="text262"
         style="font-variant:normal;font-weight:normal;font-size:12px;font-family:Calibri;-inkscape-font-specification:Calibri;writing-mode:lr-tb;fill:#7f7f7f;fill-opacity:1;fill-rule:nonzero;stroke:none"
         transform="matrix(1,0,0,-1,806.06,384.17)">
        <tspan
           id="tspan260"
           y="0"
           x="0 6.348 12.672">non</tspan>
      </text>
    </g>
  </g>
  <g
     transform="matrix(1.3333333,0,0,-1.3333333,-153.27999,576.11954)"
     id="g264">
    <g
       clip-path="url(#clipPath270)"
       id="g266">
      <text
         id="text274"
         style="font-variant:normal;font-weight:normal;font-size:12px;font-family:Calibri;-inkscape-font-specification:Calibri;writing-mode:lr-tb;fill:#7f7f7f;fill-opacity:1;fill-rule:nonzero;stroke:none"
         transform="matrix(1,0,0,-1,825.14,384.17)">
        <tspan
           id="tspan272"
           y="0"
           x="0">-</tspan>
      </text>
    </g>
  </g>
  <g
     transform="matrix(1.3333333,0,0,-1.3333333,-153.27999,576.11954)"
     id="g276">
    <g
       clip-path="url(#clipPath282)"
       id="g278">
      <text
         id="text286"
         style="font-variant:normal;font-weight:normal;font-size:12px;font-family:Calibri;-inkscape-font-specification:Calibri;writing-mode:lr-tb;fill:#7f7f7f;fill-opacity:1;fill-rule:nonzero;stroke:none"
         transform="matrix(1,0,0,-1,806.06,362.57)">
        <tspan
           id="tspan284"
           y="0"
           x="0 6.348 12.324 16.308001 21 23.76 28.308001 32.268002 38.243999 44.507999">persistent</tspan>
      </text>
    </g>
  </g>
  <g
     transform="matrix(1.3333333,0,0,-1.3333333,-153.27999,576.11954)"
     id="g288">
    <path
       inkscape:connector-curvature="0"
       id="path290"
       style="fill:none;stroke:#7f7f7f;stroke-width:2.03999996;stroke-linecap:butt;stroke-linejoin:miter;stroke-miterlimit:10;stroke-dasharray:6.12, 2.04;stroke-dashoffset:0;stroke-opacity:1"
       d="M 848.61,355.86 H 847.7 V 310.11 H 514.74" />
  </g>
  <path
     inkscape:connector-curvature="0"
     id="path292"
     style="fill:#7f7f7f;fill-opacity:1;fill-rule:nonzero;stroke:none;stroke-width:1.33333325"
     d="m 532.17331,162.42624 -0.0401,-8.16 2.71998,-0.0265 0.0401,8.16 z m -0.0533,-10.87998 -0.0533,-8.16 2.71998,-0.0264 0.0533,8.16 z m -0.0669,-10.88001 -0.0401,-8.16 2.71998,-0.0265 0.0401,8.16 z m -0.0665,-10.88001 -0.0401,-8.16 2.72002,-0.0265 0.0401,8.16 z m -0.0533,-10.87998 -0.0533,-8.15999 2.72002,-0.0265 0.0533,8.16 z m -0.0669,-10.88 -0.0401,-8.159997 2.72002,-0.0265 0.0401,8.159997 z m -0.0665,-10.880017 -0.0401,-8.16 2.72002,-0.0151 0.0401,8.1467 z m -0.0533,-10.87997 -0.0401,-5.73336 2.72002,-0.0265 0.0401,5.74666 z m 1.32,-5.7467 -4.05332,2.7467 4.02667,-8.18669 4.11999,8.13336 z" />
  <g
     transform="matrix(1.3333333,0,0,-1.3333333,-153.27999,576.11954)"
     id="g294">
    <g
       clip-path="url(#clipPath300)"
       id="g296">
      <text
         id="text304"
         style="font-variant:normal;font-weight:normal;font-size:24px;font-family:Calibri;-inkscape-font-specification:Calibri;writing-mode:lr-tb;fill:#ffffff;fill-opacity:1;fill-rule:nonzero;stroke:none"
         transform="matrix(1,0,0,-1,580.1,371.28)">
        <tspan
           id="tspan302"
           y="0"
           x="0">T</tspan>
      </text>
    </g>
  </g>
  <g
     transform="matrix(1.3333333,0,0,-1.3333333,-153.27999,576.11954)"
     id="g306">
    <g
       clip-path="url(#clipPath312)"
       id="g308">
      <text
         id="text316"
         style="font-variant:normal;font-weight:normal;font-size:14.03999996px;font-family:Calibri;-inkscape-font-specification:Calibri;writing-mode:lr-tb;fill:#000000;fill-opacity:1;fill-rule:nonzero;stroke:none"
         transform="matrix(1,0,0,-1,234.89,422.18)">
        <tspan
           id="tspan314"
           y="0"
           x="0 4.7034001 7.9326 19.08036">time</tspan>
      </text>
    </g>
  </g>
  <g
     transform="matrix(1.3333333,0,0,-1.3333333,-153.27999,576.11954)"
     id="g318">
    <g
       clip-path="url(#clipPath324)"
       id="g320">
      <text
         id="text328"
         style="font-variant:normal;font-weight:normal;font-size:14.03999996px;font-family:Calibri;-inkscape-font-specification:Calibri;writing-mode:lr-tb;fill:#000000;fill-opacity:1;fill-rule:nonzero;stroke:none"
         transform="matrix(1,0,0,-1,260.93,422.18)">
        <tspan
           id="tspan326"
           y="0"
           x="0">-</tspan>
      </text>
    </g>
  </g>
  <g
     transform="matrix(1.3333333,0,0,-1.3333333,-153.27999,576.11954)"
     id="g330">
    <g
       clip-path="url(#clipPath336)"
       id="g332">
      <text
         id="text340"
         style="font-variant:normal;font-weight:normal;font-size:14.03999996px;font-family:Calibri;-inkscape-font-specification:Calibri;writing-mode:lr-tb;fill:#000000;fill-opacity:1;fill-rule:nonzero;stroke:none"
         transform="matrix(1,0,0,-1,265.25,422.18)">
        <tspan
           id="tspan338"
           y="0"
           x="0 7.3148398 14.04 19.52964 26.521561 33.836399 37.065601 42.555241 45.784439 57.002399 64.3032 67.532402 74.145241 78.708237 86.107323 91.0494">based simulator</tspan>
      </text>
    </g>
  </g>
  <g
     transform="matrix(1.3333333,0,0,-1.3333333,-153.27999,576.11954)"
     id="g342">
    <g
       clip-path="url(#clipPath348)"
       id="g344">
      <text
         id="text352"
         style="font-variant:normal;font-weight:normal;font-size:14.03999996px;font-family:Calibri;-inkscape-font-specification:Calibri;writing-mode:lr-tb;fill:#000000;fill-opacity:1;fill-rule:nonzero;stroke:none"
         transform="matrix(1,0,0,-1,614.38,422.54)">
        <tspan
           id="tspan350"
           y="0"
           x="0 6.8374801 13.07124 20.06316 27.2376">event</tspan>
      </text>
    </g>
  </g>
  <g
     transform="matrix(1.3333333,0,0,-1.3333333,-153.27999,576.11954)"
     id="g354">
    <g
       clip-path="url(#clipPath360)"
       id="g356">
      <text
         id="text364"
         style="font-variant:normal;font-weight:normal;font-size:14.03999996px;font-family:Calibri;-inkscape-font-specification:Calibri;writing-mode:lr-tb;fill:#000000;fill-opacity:1;fill-rule:nonzero;stroke:none"
         transform="matrix(1,0,0,-1,646.3,422.54)">
        <tspan
           id="tspan362"
           y="0"
           x="0">-</tspan>
      </text>
    </g>
  </g>
  <g
     transform="matrix(1.3333333,0,0,-1.3333333,-153.27999,576.11954)"
     id="g366">
    <g
       clip-path="url(#clipPath372)"
       id="g368">
      <text
         id="text376"
         style="font-variant:normal;font-weight:normal;font-size:14.03999996px;font-family:Calibri;-inkscape-font-specification:Calibri;writing-mode:lr-tb;fill:#000000;fill-opacity:1;fill-rule:nonzero;stroke:none"
         transform="matrix(1,0,0,-1,650.62,422.54)">
        <tspan
           id="tspan374"
           y="0"
           x="0 7.3148398 14.04 19.52964 26.521561 33.836399 37.304279 42.793919 46.023121 57.241081 64.541878 67.77108 74.383919 78.946922 86.346001 91.288078">based simulator</tspan>
      </text>
    </g>
  </g>
  <g
     transform="matrix(1.3333333,0,0,-1.3333333,-153.27999,576.11954)"
     id="g378">
    <g
       clip-path="url(#clipPath384)"
       id="g380">
      <text
         id="text388"
         style="font-style:italic;font-variant:normal;font-weight:normal;font-size:12px;font-family:Calibri;-inkscape-font-specification:Calibri-Italic;writing-mode:lr-tb;fill:#7f7f7f;fill-opacity:1;fill-rule:nonzero;stroke:none"
         transform="matrix(1,0,0,-1,410.64,340.46)">
        <tspan
           id="tspan386"
           y="0"
           x="0 5.0279999 10.416 15.444 18.204 20.964001 25.992001 31.548">cyclic?</tspan>
      </text>
    </g>
  </g>
  <g
     transform="matrix(1.3333333,0,0,-1.3333333,-153.27999,576.11954)"
     id="g390">
    <g
       clip-path="url(#clipPath396)"
       id="g392">
      <text
         id="text400"
         style="font-style:italic;font-variant:normal;font-weight:normal;font-size:12.02400017px;font-family:Calibri;-inkscape-font-specification:Calibri-Italic;writing-mode:lr-tb;fill:#7f7f7f;fill-opacity:1;fill-rule:nonzero;stroke:none"
         transform="matrix(1,0,0,-1,410.64,326.06)">
        <tspan
           id="tspan398"
           y="0"
           x="0 5.3747282 11.146248 15.823584">yes</tspan>
      </text>
    </g>
  </g>
  <path
     inkscape:connector-curvature="0"
     id="path402"
     style="fill:#7f7f7f;fill-opacity:1;fill-rule:nonzero;stroke:none;stroke-width:1.33333325"
     d="m 424.32,127.13293 -0.50668,16.50664 1.33334,0.0401 0.50665,-16.49333 z m 0.15988,16.53332 -3.92001,-2.78668 3.76002,8.10667 4.23999,-7.86667 z" />
  <g
     transform="matrix(1.3333333,0,0,-1.3333333,-153.27999,576.11954)"
     id="g404">
    <g
       clip-path="url(#clipPath410)"
       id="g406">
      <text
         id="text414"
         style="font-style:italic;font-variant:normal;font-weight:normal;font-size:12px;font-family:Calibri;-inkscape-font-specification:Calibri-Italic;writing-mode:lr-tb;fill:#7f7f7f;fill-opacity:1;fill-rule:nonzero;stroke:none"
         transform="matrix(1,0,0,-1,805.06,340.46)">
        <tspan
           id="tspan412"
           y="0"
           x="0 5.0279999 10.416 15.444 18.204 20.964001 25.992001 31.548">cyclic?</tspan>
      </text>
    </g>
  </g>
  <g
     transform="matrix(1.3333333,0,0,-1.3333333,-153.27999,576.11954)"
     id="g416">
    <g
       clip-path="url(#clipPath422)"
       id="g418">
      <text
         id="text426"
         style="font-style:italic;font-variant:normal;font-weight:normal;font-size:12.02400017px;font-family:Calibri;-inkscape-font-specification:Calibri-Italic;writing-mode:lr-tb;fill:#7f7f7f;fill-opacity:1;fill-rule:nonzero;stroke:none"
         transform="matrix(1,0,0,-1,805.06,326.06)">
        <tspan
           id="tspan424"
           y="0"
           x="0 5.3747282 11.146248 15.823584">yes</tspan>
      </text>
    </g>
  </g>
  <path
     inkscape:connector-curvature="0"
     id="path428"
     style="fill:#7f7f7f;fill-opacity:1;fill-rule:nonzero;stroke:none;stroke-width:1.33333325"
     d="m 950.56003,126.65293 -0.5067,16.50664 1.3334,0.0401 0.5066,-16.49333 z m 0.1599,16.53332 -3.92,-2.78668 3.76,8.10667 4.24,-7.86667 z" />
  <g
     transform="matrix(1.3333333,0,0,-1.3333333,-153.27999,576.11954)"
     id="g430">
    <g
       clip-path="url(#clipPath436)"
       id="g432">
      <text
         id="text440"
         style="font-variant:normal;font-weight:normal;font-size:24.02400017px;font-family:Calibri;-inkscape-font-specification:Calibri;writing-mode:lr-tb;fill:#ffffff;fill-opacity:1;fill-rule:nonzero;stroke:none"
         transform="matrix(1,0,0,-1,191.74,371.98)">
        <tspan
           id="tspan438"
           y="0"
           x="0">C</tspan>
      </text>
    </g>
  </g>
  <g
     transform="matrix(1.3333333,0,0,-1.3333333,-153.27999,576.11954)"
     id="g442">
    <g
       clip-path="url(#clipPath448)"
       id="g444">
      <text
         id="text452"
         style="font-variant:normal;font-weight:normal;font-size:24px;font-family:Calibri;-inkscape-font-specification:Calibri;writing-mode:lr-tb;fill:#ffffff;fill-opacity:1;fill-rule:nonzero;stroke:none"
         transform="matrix(1,0,0,-1,766.66,370.97)">
        <tspan
           id="tspan450"
           y="0"
           x="0">S</tspan>
      </text>
    </g>
  </g>
</svg>
