<?xml version="1.0" encoding="UTF-8" standalone="no"?>
<!-- Created with Inkscape (http://www.inkscape.org/) -->

<svg
   xmlns:dc="http://purl.org/dc/elements/1.1/"
   xmlns:cc="http://creativecommons.org/ns#"
   xmlns:rdf="http://www.w3.org/1999/02/22-rdf-syntax-ns#"
   xmlns:svg="http://www.w3.org/2000/svg"
   xmlns="http://www.w3.org/2000/svg"
   version="1.1"
   width="593.37439"
   height="325"
   id="svg3175">
  <defs
     id="defs3177" />
  <metadata
     id="metadata3180">
    <rdf:RDF>
      <cc:Work
         rdf:about="">
        <dc:format>image/svg+xml</dc:format>
        <dc:type
           rdf:resource="http://purl.org/dc/dcmitype/StillImage" />
        <dc:title></dc:title>
      </cc:Work>
    </rdf:RDF>
  </metadata>
  <g
     transform="translate(-150,-552.36218)"
     id="layer1">
    <g
       id="text3183"
       style="font-size:120px;font-style:normal;font-variant:normal;font-weight:normal;font-stretch:normal;text-align:start;line-height:125%;letter-spacing:0px;word-spacing:0px;writing-mode:lr-tb;text-anchor:start;fill:#202020;fill-opacity:1;stroke:none;font-family:Aller;-inkscape-font-specification:Aller">
      <path
         d="m 369.99999,639.36218 c 0.87999,-0.15994 1.71999,-0.27994 2.52,-0.36 0.87999,-0.0799 1.75999,-0.11994 2.64,-0.12 0.87999,6e-5 1.67999,0.0401 2.4,0.12 0.79999,0.0801 1.63999,0.20006 2.52,0.36 0.23998,1.20006 0.47998,2.80006 0.72,4.8 0.23998,1.92006 0.35998,3.56005 0.36,4.92 0.71998,-1.43995 1.59998,-2.79995 2.64,-4.08 1.11998,-1.35994 2.39998,-2.55994 3.84,-3.6 1.51998,-1.03994 3.23997,-1.87994 5.16,-2.52 1.91997,-0.63994 4.03997,-0.95994 6.36,-0.96 4.79996,6e-5 8.47996,1.00006 11.04,3 2.63995,1.92006 4.63995,4.64006 6,8.16 0.79995,-1.35995 1.75995,-2.71995 2.88,-4.08 1.19994,-1.35994 2.51994,-2.55994 3.96,-3.6 1.43994,-1.03994 3.07994,-1.87994 4.92,-2.52 1.83993,-0.63994 3.91993,-0.95994 6.24,-0.96 7.11992,6e-5 12.27992,2.00006 15.48,6 3.27991,4.00005 4.91991,9.92005 4.92,17.76 l 0,39.24 c -0.88009,0.16 -1.88009,0.28 -3,0.36 -1.12009,0.08 -2.12009,0.12 -3,0.12 -0.88008,0 -1.88008,-0.04 -3,-0.12 -1.04008,-0.08 -2.00008,-0.2 -2.88,-0.36 l 0,-35.76 c -8e-5,-5.51996 -0.84008,-9.63995 -2.52,-12.36 -1.68007,-2.79995 -4.44007,-4.19995 -8.28,-4.2 -4.08006,5e-5 -7.40006,1.48005 -9.96,4.44 -2.48006,2.96005 -3.72005,7.32004 -3.72,13.08 l 0,34.8 c -0.88005,0.16 -1.88005,0.28 -3,0.36 -1.04005,0.08 -2.00005,0.12 -2.88,0.12 -0.88005,0 -1.88005,-0.04 -3,-0.12 -1.04004,-0.08 -2.00004,-0.2 -2.88,-0.36 l 0,-36.6 c -4e-5,-5.35996 -0.80004,-9.35995 -2.4,-12 -1.60004,-2.71995 -4.16004,-4.07995 -7.68,-4.08 -2.00003,5e-5 -3.88003,0.44005 -5.64,1.32 -1.76002,0.88005 -3.32002,2.20005 -4.68,3.96 -1.28002,1.76005 -2.32002,4.00004 -3.12,6.72 -0.72002,2.64004 -1.08002,5.72004 -1.08,9.24 l 0,31.44 c -0.88002,0.16 -1.88002,0.28 -3,0.36 -1.04001,0.08 -2.00001,0.12 -2.88,0.12 -0.88001,0 -1.88001,-0.04 -3,-0.12 -1.12001,-0.08 -2.12001,-0.2 -3,-0.36 l 0,-61.56"
         id="path3025"
         style="line-height:125%;fill:#202020;font-family:Aller;-inkscape-font-specification:Aller" />
      <path
         d="m 497.38187,702.36218 c -4.80003,0 -9.00003,-0.8 -12.6,-2.4 -3.60002,-1.68 -6.60002,-3.95999 -9,-6.84 -2.40001,-2.87999 -4.20001,-6.27999 -5.4,-10.2 -1.12001,-3.91998 -1.68001,-8.15997 -1.68,-12.72 -10e-6,-4.55996 0.55999,-8.79996 1.68,-12.72 1.19999,-3.91995 2.99999,-7.31995 5.4,-10.2 2.39998,-2.87994 5.39998,-5.15994 9,-6.84 3.59997,-1.67994 7.79997,-2.51994 12.6,-2.52 4.79996,6e-5 8.99996,0.84006 12.6,2.52 3.59995,1.68006 6.59995,3.96006 9,6.84 2.39994,2.88005 4.15994,6.28005 5.28,10.2 1.19994,3.92004 1.79994,8.16004 1.8,12.72 -6e-5,4.56003 -0.60006,8.80002 -1.8,12.72 -1.12006,3.92001 -2.88006,7.32001 -5.28,10.2 -2.40005,2.88001 -5.40005,5.16 -9,6.84 -3.60004,1.6 -7.80004,2.4 -12.6,2.4 m 0,-9.48 c 5.51996,1e-5 9.59995,-1.99999 12.24,-6 2.63995,-3.99998 3.95995,-9.55998 3.96,-16.68 -5e-5,-7.11996 -1.32005,-12.63996 -3.96,-16.56 -2.64005,-3.99995 -6.72004,-5.99995 -12.24,-6 -5.52003,5e-5 -9.60003,2.00005 -12.24,6 -2.56002,3.92004 -3.84002,9.44004 -3.84,16.56 -2e-5,7.12002 1.27998,12.68002 3.84,16.68 2.63997,4.00001 6.71997,6.00001 12.24,6"
         id="path3027"
         style="line-height:125%;fill:#202020;font-family:Aller;-inkscape-font-specification:Aller" />
      <path
         d="m 540.48249,689.76218 c 2.15999,0.88001 4.51999,1.60001 7.08,2.16 2.63999,0.48001 5.23998,0.72001 7.8,0.72 1.83998,10e-6 3.59998,-0.19999 5.28,-0.6 1.67997,-0.39999 3.11997,-0.99999 4.32,-1.8 1.27997,-0.79999 2.27997,-1.75999 3,-2.88 0.79997,-1.19999 1.19997,-2.51998 1.2,-3.96 -3e-5,-1.59998 -0.32003,-2.91998 -0.96,-3.96 -0.56003,-1.03998 -1.36003,-1.91998 -2.4,-2.64 -0.96003,-0.71997 -2.12003,-1.31997 -3.48,-1.8 -1.28003,-0.55997 -2.68002,-1.07997 -4.2,-1.56 l -4.2,-1.56 c -5.12001,-1.91997 -8.84001,-4.07997 -11.16,-6.48 -2.32,-2.39996 -3.48,-5.63996 -3.48,-9.72 0,-5.43995 1.91999,-9.75994 5.76,-12.96 3.91999,-3.19994 9.63998,-4.79994 17.16,-4.8 3.11997,6e-5 6.15997,0.32006 9.12,0.96 3.03996,0.56006 5.67996,1.24006 7.92,2.04 -0.16004,1.60006 -0.48004,3.20006 -0.96,4.8 -0.40004,1.60005 -0.92004,3.08005 -1.56,4.44 -1.76004,-0.63995 -3.88004,-1.23995 -6.36,-1.8 -2.40003,-0.63995 -5.00003,-0.95995 -7.8,-0.96 -2.96002,5e-5 -5.60002,0.52005 -7.92,1.56 -2.24002,1.04005 -3.36002,2.88005 -3.36,5.52 -2e-5,1.36005 0.27998,2.52004 0.84,3.48 0.55998,0.96004 1.31998,1.80004 2.28,2.52 0.95998,0.64004 2.03998,1.20004 3.24,1.68 1.27998,0.48004 2.63998,0.96004 4.08,1.44 l 5.28,1.8 c 1.91997,0.64004 3.71997,1.40003 5.4,2.28 1.75996,0.88003 3.23996,2.00003 4.44,3.36 1.27996,1.28003 2.27996,2.88003 3,4.8 0.79996,1.84002 1.19995,4.08002 1.2,6.72 -5e-5,2.96002 -0.60004,5.68001 -1.8,8.16 -1.20004,2.40001 -2.92004,4.48001 -5.16,6.24 -2.16004,1.68 -4.80003,3 -7.92,3.96 -3.12003,0.96 -6.56002,1.44 -10.32,1.44 -3.84002,0 -7.20001,-0.28 -10.08,-0.84 -2.88001,-0.48 -5.56,-1.16 -8.04,-2.04 0.16,-1.6 0.48,-3.2 0.96,-4.8 0.56,-1.67999 1.16,-3.31999 1.8,-4.92"
         id="path3029"
         style="line-height:125%;fill:#202020;font-family:Aller;-inkscape-font-specification:Aller" />
      <path
         d="m 628.69187,672.00218 c -1.20004,-0.15997 -2.72004,-0.31997 -4.56,-0.48 -1.84004,-0.15997 -3.40004,-0.23997 -4.68,-0.24 -4.96003,3e-5 -8.76003,0.92003 -11.4,2.76 -2.56002,1.84003 -3.84002,4.64002 -3.84,8.4 -2e-5,2.40002 0.43998,4.28001 1.32,5.64 0.87998,1.36001 1.95998,2.40001 3.24,3.12 1.35998,0.72001 2.83997,1.16001 4.44,1.32 1.59997,0.16001 3.11997,0.24001 4.56,0.24 1.83997,1e-5 3.71996,-0.08 5.64,-0.24 1.99996,-0.23999 3.75996,-0.55999 5.28,-0.96 l 0,-19.56 m 0,-11.64 c -4e-5,-4.71995 -1.20004,-7.99995 -3.6,-9.84 -2.40004,-1.83995 -5.88003,-2.75995 -10.44,-2.76 -2.80003,5e-5 -5.44002,0.24005 -7.92,0.72 -2.40002,0.40005 -4.76002,0.96005 -7.08,1.68 -1.52001,-2.63995 -2.28001,-5.79994 -2.28,-9.48 2.71999,-0.87994 5.71998,-1.55994 9,-2.04 3.27998,-0.47994 6.43997,-0.71994 9.48,-0.72 7.99996,6e-5 14.07996,1.84006 18.24,5.52 4.15995,3.60005 6.23995,9.40005 6.24,17.4 l 0,38.52 c -2.80005,0.64 -6.20005,1.28 -10.2,1.92 -4.00004,0.72 -8.08004,1.08 -12.24,1.08 -3.92003,0 -7.48002,-0.36 -10.68,-1.08 -3.12002,-0.72 -5.80002,-1.88 -8.04,-3.48 -2.16001,-1.6 -3.84001,-3.63999 -5.04,-6.12 -1.20001,-2.47999 -1.80001,-5.47999 -1.8,-9 -10e-6,-3.43998 0.67999,-6.43998 2.04,-9 1.43999,-2.63997 3.35999,-4.79997 5.76,-6.48 2.39998,-1.75996 5.15998,-3.03996 8.28,-3.84 3.11997,-0.87996 6.39997,-1.31996 9.84,-1.32 2.55996,4e-5 4.63996,0.08 6.24,0.24 1.67996,0.08 3.07996,0.20004 4.2,0.36 l 0,-2.28"
         id="path3031"
         style="line-height:125%;fill:#202020;font-family:Aller;-inkscape-font-specification:Aller" />
      <path
         d="m 661.88124,648.72218 -7.8,0 c -0.16,-0.63995 -0.28,-1.35995 -0.36,-2.16 -0.08,-0.87994 -0.12,-1.71994 -0.12,-2.52 0,-0.79994 0.04,-1.59994 0.12,-2.4 0.08,-0.87994 0.2,-1.63994 0.36,-2.28 l 19.44,0 0,61.56 c -0.88002,0.16 -1.88002,0.28 -3,0.36 -1.04002,0.08 -2.00002,0.12 -2.88,0.12 -0.80001,0 -1.76001,-0.04 -2.88,-0.12 -1.04001,-0.08 -2.00001,-0.2 -2.88,-0.36 l 0,-52.2 m -2.64,-22.92 c -0.16001,-0.95992 -0.28001,-1.99992 -0.36,-3.12 -1e-5,-1.11992 -1e-5,-2.11992 0,-3 -1e-5,-0.87992 -1e-5,-1.87992 0,-3 0.08,-1.11991 0.19999,-2.11991 0.36,-3 1.03999,-0.15991 2.15999,-0.27991 3.36,-0.36 1.19999,-0.0799 2.23999,-0.11991 3.12,-0.12 0.87999,9e-5 1.91998,0.0401 3.12,0.12 1.19998,0.0801 2.27998,0.20009 3.24,0.36 0.15998,0.88009 0.23998,1.88009 0.24,3 0.08,1.12008 0.11998,2.12008 0.12,3 -2e-5,0.88008 -0.04,1.88008 -0.12,3 -2e-5,1.12008 -0.08,2.16008 -0.24,3.12 -0.96002,0.16008 -2.04002,0.28008 -3.24,0.36 -1.12002,0.0801 -2.12001,0.12007 -3,0.12 -0.96001,7e-5 -2.04001,-0.0399 -3.24,-0.12 -1.20001,-0.0799 -2.32001,-0.19992 -3.36,-0.36"
         id="path3033"
         style="line-height:125%;fill:#202020;font-family:Aller;-inkscape-font-specification:Aller" />
      <path
         d="m 692.25437,612.96218 c 0.87999,-0.15991 1.83999,-0.27991 2.88,-0.36 1.11999,-0.0799 2.11998,-0.11991 3,-0.12 0.87998,9e-5 1.87998,0.0401 3,0.12 1.11998,0.0801 2.11998,0.20009 3,0.36 l 0,87.96 c -0.88002,0.16 -1.88002,0.28 -3,0.36 -1.12002,0.08 -2.12002,0.12 -3,0.12 -0.88002,0 -1.88001,-0.04 -3,-0.12 -1.04001,-0.08 -2.00001,-0.2 -2.88,-0.36 l 0,-87.96 m 15.12,56.04 19.56,-29.64 c 1.03995,-0.15994 2.07995,-0.27994 3.12,-0.36 1.03995,-0.0799 2.11995,-0.11994 3.24,-0.12 1.19995,6e-5 2.31995,0.0401 3.36,0.12 1.11994,0.0801 2.23994,0.20006 3.36,0.36 l -19.56,28.8 22.92,32.76 c -1.12006,0.16 -2.20006,0.28 -3.24,0.36 -1.04006,0.08 -2.12006,0.12 -3.24,0.12 -1.12005,0 -2.24005,-0.04 -3.36,-0.12 -1.12005,-0.08 -2.24005,-0.2 -3.36,-0.36 l -22.8,-31.92"
         id="path3035"
         style="line-height:125%;fill:#202020;font-family:Aller;-inkscape-font-specification:Aller" />
    </g>
    <path
       d="m 369,717.36218 -30,52.5 30,52.5 60,0 30,-52.5 -30,-52.5 z"
       id="path4005-8"
       style="fill:#b81c1c;fill-opacity:1;stroke:none" />
    <path
       d="m 274.5,662.36218 -30,52.5 30,52.5 60,0 30,-52.5 -30,-52.5 z"
       id="path4005-84"
       style="fill:#484848;fill-opacity:1;stroke:none" />
    <path
       d="m 274.5,552.36218 -30,52.5 30,52.5 60,0 30,-52.5 -30,-52.5 z"
       id="path4005-3"
       style="fill:#5e8227;fill-opacity:1;stroke:none" />
    <path
       d="m 180,607.36218 -30,52.5 30,52.5 60,0 30,-52.5 -30,-52.5 z"
       id="path4005-4"
       style="fill:#3b9ac4;fill-opacity:1;stroke:none" />
    <path
       d="m 274.5,772.36218 -30,52.5 30,52.5 60,0 30,-52.5 -30,-52.5 z"
       id="path4005-8-0"
       style="fill:#d98d36;fill-opacity:1;stroke:none" />
    <path
       d="m 180,717.36218 -30,52.5 30,52.5 60,0 30,-52.5 -30,-52.5 z"
       id="path4005-8-1"
       style="fill:#913a91;fill-opacity:1;stroke:none" />
  </g>
</svg>
