<?xml version="1.0" encoding="UTF-8" standalone="no"?>
<!-- Created with Inkscape (http://www.inkscape.org/) -->

<svg
   xmlns:dc="http://purl.org/dc/elements/1.1/"
   xmlns:cc="http://creativecommons.org/ns#"
   xmlns:rdf="http://www.w3.org/1999/02/22-rdf-syntax-ns#"
   xmlns:svg="http://www.w3.org/2000/svg"
   xmlns="http://www.w3.org/2000/svg"
   version="1.1"
   width="885.83234"
   height="240.94487"
   id="svg2">
  <defs
     id="defs4">
    <marker
       refX="0"
       refY="0"
       orient="auto"
       id="EmptyTriangleOutL"
       style="overflow:visible">
      <path
         d="m 5.77,0 -8.65,5 0,-10 8.65,5 z"
         transform="matrix(0.8,0,0,0.8,-4.8,0)"
         id="path4750"
         style="fill:#ffffff;fill-rule:evenodd;stroke:#000000;stroke-width:1pt" />
    </marker>
    <marker
       refX="0"
       refY="0"
       orient="auto"
       id="Arrow2Mstart"
       style="overflow:visible">
      <path
         d="M 8.7185878,4.0337352 -2.2072895,0.01601326 8.7185884,-4.0017078 c -1.7454984,2.3720609 -1.7354408,5.6174519 -6e-7,8.035443 z"
         transform="scale(0.6,0.6)"
         id="path4557"
         style="fill-rule:evenodd;stroke-width:0.625;stroke-linejoin:round" />
    </marker>
    <marker
       refX="0"
       refY="0"
       orient="auto"
       id="Arrow2Mend"
       style="overflow:visible">
      <path
         d="M 8.7185878,4.0337352 -2.2072895,0.01601326 8.7185884,-4.0017078 c -1.7454984,2.3720609 -1.7354408,5.6174519 -6e-7,8.035443 z"
         transform="scale(-0.6,-0.6)"
         id="path4560"
         style="fill-rule:evenodd;stroke-width:0.625;stroke-linejoin:round" />
    </marker>
    <marker
       refX="0"
       refY="0"
       orient="auto"
       id="Arrow2Lend"
       style="overflow:visible">
      <path
         d="M 8.7185878,4.0337352 -2.2072895,0.01601326 8.7185884,-4.0017078 c -1.7454984,2.3720609 -1.7354408,5.6174519 -6e-7,8.035443 z"
         transform="matrix(-1.1,0,0,-1.1,-1.1,0)"
         id="path4554"
         style="fill-rule:evenodd;stroke-width:0.625;stroke-linejoin:round" />
    </marker>
    <marker
       refX="0"
       refY="0"
       orient="auto"
       id="Arrow2Lend-4"
       style="overflow:visible">
      <path
         d="M 8.7185878,4.0337352 -2.2072895,0.01601326 8.7185884,-4.0017078 c -1.7454984,2.3720609 -1.7354408,5.6174519 -6e-7,8.035443 z"
         transform="matrix(-1.1,0,0,-1.1,-1.1,0)"
         id="path4554-8"
         style="fill-rule:evenodd;stroke-width:0.625;stroke-linejoin:round" />
    </marker>
    <marker
       refX="0"
       refY="0"
       orient="auto"
       id="Arrow2Mstart-7"
       style="overflow:visible">
      <path
         d="M 8.7185878,4.0337352 -2.2072895,0.01601326 8.7185884,-4.0017078 c -1.7454984,2.3720609 -1.7354408,5.6174519 -6e-7,8.035443 z"
         transform="scale(0.6,0.6)"
         id="path4557-6"
         style="fill-rule:evenodd;stroke-width:0.625;stroke-linejoin:round" />
    </marker>
    <marker
       refX="0"
       refY="0"
       orient="auto"
       id="Arrow2Mend-7"
       style="overflow:visible">
      <path
         d="M 8.7185878,4.0337352 -2.2072895,0.01601326 8.7185884,-4.0017078 c -1.7454984,2.3720609 -1.7354408,5.6174519 -6e-7,8.035443 z"
         transform="scale(-0.6,-0.6)"
         id="path4560-1"
         style="fill-rule:evenodd;stroke-width:0.625;stroke-linejoin:round" />
    </marker>
    <marker
       refX="0"
       refY="0"
       orient="auto"
       id="marker5825"
       style="overflow:visible">
      <path
         d="M 8.7185878,4.0337352 -2.2072895,0.01601326 8.7185884,-4.0017078 c -1.7454984,2.3720609 -1.7354408,5.6174519 -6e-7,8.035443 z"
         transform="scale(0.6,0.6)"
         id="path5827"
         style="fill-rule:evenodd;stroke-width:0.625;stroke-linejoin:round" />
    </marker>
    <marker
       refX="0"
       refY="0"
       orient="auto"
       id="marker5829"
       style="overflow:visible">
      <path
         d="M 8.7185878,4.0337352 -2.2072895,0.01601326 8.7185884,-4.0017078 c -1.7454984,2.3720609 -1.7354408,5.6174519 -6e-7,8.035443 z"
         transform="scale(-0.6,-0.6)"
         id="path5831"
         style="fill-rule:evenodd;stroke-width:0.625;stroke-linejoin:round" />
    </marker>
    <marker
       refX="0"
       refY="0"
       orient="auto"
       id="Arrow2Mstart-9"
       style="overflow:visible">
      <path
         d="M 8.7185878,4.0337352 -2.2072895,0.01601326 8.7185884,-4.0017078 c -1.7454984,2.3720609 -1.7354408,5.6174519 -6e-7,8.035443 z"
         transform="scale(0.6,0.6)"
         id="path4557-4"
         style="fill-rule:evenodd;stroke-width:0.625;stroke-linejoin:round" />
    </marker>
    <marker
       refX="0"
       refY="0"
       orient="auto"
       id="Arrow2Mend-76"
       style="overflow:visible">
      <path
         d="M 8.7185878,4.0337352 -2.2072895,0.01601326 8.7185884,-4.0017078 c -1.7454984,2.3720609 -1.7354408,5.6174519 -6e-7,8.035443 z"
         transform="scale(-0.6,-0.6)"
         id="path4560-7"
         style="fill-rule:evenodd;stroke-width:0.625;stroke-linejoin:round" />
    </marker>
    <marker
       refX="0"
       refY="0"
       orient="auto"
       id="marker5876"
       style="overflow:visible">
      <path
         d="M 8.7185878,4.0337352 -2.2072895,0.01601326 8.7185884,-4.0017078 c -1.7454984,2.3720609 -1.7354408,5.6174519 -6e-7,8.035443 z"
         transform="scale(0.6,0.6)"
         id="path5878"
         style="fill-rule:evenodd;stroke-width:0.625;stroke-linejoin:round" />
    </marker>
    <marker
       refX="0"
       refY="0"
       orient="auto"
       id="marker5880"
       style="overflow:visible">
      <path
         d="M 8.7185878,4.0337352 -2.2072895,0.01601326 8.7185884,-4.0017078 c -1.7454984,2.3720609 -1.7354408,5.6174519 -6e-7,8.035443 z"
         transform="scale(-0.6,-0.6)"
         id="path5882"
         style="fill-rule:evenodd;stroke-width:0.625;stroke-linejoin:round" />
    </marker>
    <marker
       refX="0"
       refY="0"
       orient="auto"
       id="Arrow2Mstart-5"
       style="overflow:visible">
      <path
         d="M 8.7185878,4.0337352 -2.2072895,0.01601326 8.7185884,-4.0017078 c -1.7454984,2.3720609 -1.7354408,5.6174519 -6e-7,8.035443 z"
         transform="scale(0.6,0.6)"
         id="path4557-8"
         style="fill-rule:evenodd;stroke-width:0.625;stroke-linejoin:round" />
    </marker>
    <marker
       refX="0"
       refY="0"
       orient="auto"
       id="Arrow2Mend-70"
       style="overflow:visible">
      <path
         d="M 8.7185878,4.0337352 -2.2072895,0.01601326 8.7185884,-4.0017078 c -1.7454984,2.3720609 -1.7354408,5.6174519 -6e-7,8.035443 z"
         transform="scale(-0.6,-0.6)"
         id="path4560-3"
         style="fill-rule:evenodd;stroke-width:0.625;stroke-linejoin:round" />
    </marker>
    <marker
       refX="0"
       refY="0"
       orient="auto"
       id="marker5876-7"
       style="overflow:visible">
      <path
         d="M 8.7185878,4.0337352 -2.2072895,0.01601326 8.7185884,-4.0017078 c -1.7454984,2.3720609 -1.7354408,5.6174519 -6e-7,8.035443 z"
         transform="scale(0.6,0.6)"
         id="path5878-6"
         style="fill-rule:evenodd;stroke-width:0.625;stroke-linejoin:round" />
    </marker>
    <marker
       refX="0"
       refY="0"
       orient="auto"
       id="marker5880-7"
       style="overflow:visible">
      <path
         d="M 8.7185878,4.0337352 -2.2072895,0.01601326 8.7185884,-4.0017078 c -1.7454984,2.3720609 -1.7354408,5.6174519 -6e-7,8.035443 z"
         transform="scale(-0.6,-0.6)"
         id="path5882-6"
         style="fill-rule:evenodd;stroke-width:0.625;stroke-linejoin:round" />
    </marker>
    <marker
       refX="0"
       refY="0"
       orient="auto"
       id="Arrow2Mstart-72"
       style="overflow:visible">
      <path
         d="M 8.7185878,4.0337352 -2.2072895,0.01601326 8.7185884,-4.0017078 c -1.7454984,2.3720609 -1.7354408,5.6174519 -6e-7,8.035443 z"
         transform="scale(0.6,0.6)"
         id="path4557-7"
         style="fill-rule:evenodd;stroke-width:0.625;stroke-linejoin:round" />
    </marker>
    <marker
       refX="0"
       refY="0"
       orient="auto"
       id="Arrow2Mend-4"
       style="overflow:visible">
      <path
         d="M 8.7185878,4.0337352 -2.2072895,0.01601326 8.7185884,-4.0017078 c -1.7454984,2.3720609 -1.7354408,5.6174519 -6e-7,8.035443 z"
         transform="scale(-0.6,-0.6)"
         id="path4560-77"
         style="fill-rule:evenodd;stroke-width:0.625;stroke-linejoin:round" />
    </marker>
    <marker
       refX="0"
       refY="0"
       orient="auto"
       id="Arrow2Mstart-4"
       style="overflow:visible">
      <path
         d="M 8.7185878,4.0337352 -2.2072895,0.01601326 8.7185884,-4.0017078 c -1.7454984,2.3720609 -1.7354408,5.6174519 -6e-7,8.035443 z"
         transform="scale(0.6,0.6)"
         id="path4557-0"
         style="fill-rule:evenodd;stroke-width:0.625;stroke-linejoin:round" />
    </marker>
    <marker
       refX="0"
       refY="0"
       orient="auto"
       id="Arrow2Mend-1"
       style="overflow:visible">
      <path
         d="M 8.7185878,4.0337352 -2.2072895,0.01601326 8.7185884,-4.0017078 c -1.7454984,2.3720609 -1.7354408,5.6174519 -6e-7,8.035443 z"
         transform="scale(-0.6,-0.6)"
         id="path4560-2"
         style="fill-rule:evenodd;stroke-width:0.625;stroke-linejoin:round" />
    </marker>
    <marker
       refX="0"
       refY="0"
       orient="auto"
       id="Arrow2Mstart-1"
       style="overflow:visible">
      <path
         d="M 8.7185878,4.0337352 -2.2072895,0.01601326 8.7185884,-4.0017078 c -1.7454984,2.3720609 -1.7354408,5.6174519 -6e-7,8.035443 z"
         transform="scale(0.6,0.6)"
         id="path4557-1"
         style="fill-rule:evenodd;stroke-width:0.625;stroke-linejoin:round" />
    </marker>
    <marker
       refX="0"
       refY="0"
       orient="auto"
       id="Arrow2Mend-0"
       style="overflow:visible">
      <path
         d="M 8.7185878,4.0337352 -2.2072895,0.01601326 8.7185884,-4.0017078 c -1.7454984,2.3720609 -1.7354408,5.6174519 -6e-7,8.035443 z"
         transform="scale(-0.6,-0.6)"
         id="path4560-24"
         style="fill-rule:evenodd;stroke-width:0.625;stroke-linejoin:round" />
    </marker>
    <marker
       refX="0"
       refY="0"
       orient="auto"
       id="EmptyTriangleOutM"
       style="overflow:visible">
      <path
         d="m 5.77,0 -8.65,5 0,-10 8.65,5 z"
         transform="matrix(0.4,0,0,0.4,-1.8,0)"
         id="path4711"
         style="fill:#ffffff;fill-rule:evenodd;stroke:#000000;stroke-width:1pt" />
    </marker>
    <marker
       refX="0"
       refY="0"
       orient="auto"
       id="Arrow2Mstart-3"
       style="overflow:visible">
      <path
         d="M 8.7185878,4.0337352 -2.2072895,0.01601326 8.7185884,-4.0017078 c -1.7454984,2.3720609 -1.7354408,5.6174519 -6e-7,8.035443 z"
         transform="scale(0.6,0.6)"
         id="path4557-9"
         style="fill-rule:evenodd;stroke-width:0.625;stroke-linejoin:round" />
    </marker>
    <marker
       refX="0"
       refY="0"
       orient="auto"
       id="Arrow2Mend-18"
       style="overflow:visible">
      <path
         d="M 8.7185878,4.0337352 -2.2072895,0.01601326 8.7185884,-4.0017078 c -1.7454984,2.3720609 -1.7354408,5.6174519 -6e-7,8.035443 z"
         transform="scale(-0.6,-0.6)"
         id="path4560-33"
         style="fill-rule:evenodd;stroke-width:0.625;stroke-linejoin:round" />
    </marker>
  </defs>
  <metadata
     id="metadata7">
    <rdf:RDF>
      <cc:Work
         rdf:about="">
        <dc:format>image/svg+xml</dc:format>
        <dc:type
           rdf:resource="http://purl.org/dc/dcmitype/StillImage" />
        <dc:title></dc:title>
      </cc:Work>
    </rdf:RDF>
  </metadata>
  <g
     transform="translate(21.759843,-661.15065)"
     id="layer1">
    <g
       id="text3096"
       style="font-size:40px;font-style:normal;font-weight:normal;line-height:125%;letter-spacing:0px;word-spacing:0px;fill:#4f7f21;fill-opacity:1;stroke:none;font-family:Sans">
      <path
         d="m 15.332346,784.66168 -2.917969,0 -12.05859378,-28.61719 2.91796878,0 12.058594,28.61719"
         id="path3158"
         style="font-size:36px;font-variant:normal;font-stretch:normal;text-align:start;line-height:125%;writing-mode:lr-tb;text-anchor:start;fill:#4f7f21;font-family:Consolas;-inkscape-font-specification:Consolas" />
      <path
         d="m 36.092111,780.88239 -4.060547,0 -4.763671,-6.73243 -4.710938,6.73243 -3.955078,0 6.837891,-8.85938 -6.521485,-8.78906 3.919922,0 4.640625,6.78515 4.552734,-6.78515 3.779297,0 -6.626953,8.85937 6.908203,8.78907"
         id="path3160"
         style="font-size:36px;font-variant:normal;font-stretch:normal;text-align:start;line-height:125%;writing-mode:lr-tb;text-anchor:start;fill:#4f7f21;font-family:Consolas;-inkscape-font-specification:Consolas" />
      <path
         d="m 55.445627,769.40387 c -1.8e-5,1.75782 -0.175799,3.36329 -0.527344,4.81641 -0.35158,1.44141 -0.884782,2.68359 -1.599609,3.72656 -0.714859,1.03125 -1.605483,1.83398 -2.671875,2.4082 -1.0547,0.5625 -2.296886,0.84375 -3.726563,0.84375 -1.230477,0 -2.349616,-0.22851 -3.357422,-0.68555 -1.007817,-0.46874 -1.869145,-1.18359 -2.583984,-2.14453 -0.714847,-0.96093 -1.265627,-2.18554 -1.652344,-3.67382 -0.38672,-1.48828 -0.580079,-3.25195 -0.580078,-5.29102 -1e-6,-1.7578 0.17578,-3.36327 0.527344,-4.81641 0.363279,-1.4531 0.896481,-2.69529 1.599609,-3.72656 0.71484,-1.04295 1.605464,-1.84568 2.671875,-2.4082 1.066399,-0.5742 2.308585,-0.86131 3.726563,-0.86133 1.230457,2e-5 2.349597,0.2344 3.357422,0.70312 1.007798,0.45706 1.869125,1.1719 2.583984,2.14454 0.714827,0.96095 1.265608,2.18556 1.652344,3.67382 0.386701,1.4883 0.58006,3.25197 0.580078,5.29102 m -3.09375,0.10547 c -1.5e-5,-0.39843 -0.01759,-0.79101 -0.05273,-1.17774 -0.02345,-0.39842 -0.05275,-0.78514 -0.08789,-1.16015 l -9.720703,7.22461 c 0.175776,0.60938 0.398432,1.17188 0.667969,1.6875 0.269525,0.51563 0.59179,0.96094 0.966796,1.33593 0.386712,0.36329 0.820305,0.6504 1.300782,0.86133 0.492179,0.19922 1.048819,0.29883 1.669922,0.29883 0.796864,0 1.517566,-0.19336 2.162109,-0.58008 0.656237,-0.38671 1.212877,-0.96093 1.669922,-1.72265 0.457017,-0.76172 0.808579,-1.70508 1.054687,-2.83008 0.246079,-1.13671 0.369126,-2.44921 0.369141,-3.9375 M 41.840158,769.2984 c -4e-6,0.36329 -4e-6,0.72657 0,1.08984 0.01171,0.3633 0.03515,0.71486 0.07031,1.05469 l 9.720703,-7.18945 c -0.175796,-0.59764 -0.398452,-1.14256 -0.667969,-1.63477 -0.269545,-0.49217 -0.59181,-0.91404 -0.966797,-1.26562 -0.375012,-0.36326 -0.802746,-0.64451 -1.283203,-0.84375 -0.48048,-0.1992 -1.019542,-0.29881 -1.617187,-0.29883 -0.796885,2e-5 -1.523446,0.19338 -2.179688,0.58008 -0.644538,0.38674 -1.195319,0.96681 -1.652344,1.74023 -0.457037,0.76174 -0.808599,1.71096 -1.054687,2.84766 -0.246099,1.12501 -0.369145,2.43165 -0.369141,3.91992"
         id="path3162"
         style="font-size:36px;font-variant:normal;font-stretch:normal;text-align:start;line-height:125%;writing-mode:lr-tb;text-anchor:start;fill:#4f7f21;font-family:Consolas;-inkscape-font-specification:Consolas" />
      <path
         d="m 75.273752,769.40387 c -1.8e-5,1.75782 -0.175799,3.36329 -0.527344,4.81641 -0.35158,1.44141 -0.884782,2.68359 -1.599609,3.72656 -0.714859,1.03125 -1.605483,1.83398 -2.671875,2.4082 -1.0547,0.5625 -2.296886,0.84375 -3.726563,0.84375 -1.230477,0 -2.349616,-0.22851 -3.357422,-0.68555 -1.007817,-0.46874 -1.869145,-1.18359 -2.583984,-2.14453 -0.714847,-0.96093 -1.265627,-2.18554 -1.652344,-3.67382 -0.38672,-1.48828 -0.580079,-3.25195 -0.580078,-5.29102 -1e-6,-1.7578 0.17578,-3.36327 0.527344,-4.81641 0.363279,-1.4531 0.896481,-2.69529 1.599609,-3.72656 0.71484,-1.04295 1.605464,-1.84568 2.671875,-2.4082 1.066399,-0.5742 2.308585,-0.86131 3.726563,-0.86133 1.230457,2e-5 2.349597,0.2344 3.357422,0.70312 1.007798,0.45706 1.869125,1.1719 2.583984,2.14454 0.714827,0.96095 1.265608,2.18556 1.652344,3.67382 0.386701,1.4883 0.58006,3.25197 0.580078,5.29102 m -3.09375,0.10547 c -1.5e-5,-0.39843 -0.01759,-0.79101 -0.05273,-1.17774 -0.02345,-0.39842 -0.05275,-0.78514 -0.08789,-1.16015 l -9.720703,7.22461 c 0.175776,0.60938 0.398432,1.17188 0.667969,1.6875 0.269525,0.51563 0.59179,0.96094 0.966796,1.33593 0.386712,0.36329 0.820305,0.6504 1.300782,0.86133 0.492179,0.19922 1.048819,0.29883 1.669922,0.29883 0.796864,0 1.517566,-0.19336 2.162109,-0.58008 0.656237,-0.38671 1.212877,-0.96093 1.669922,-1.72265 0.457017,-0.76172 0.808579,-1.70508 1.054687,-2.83008 0.246079,-1.13671 0.369126,-2.44921 0.369141,-3.9375 M 61.668283,769.2984 c -4e-6,0.36329 -4e-6,0.72657 0,1.08984 0.01171,0.3633 0.03515,0.71486 0.07031,1.05469 l 9.720703,-7.18945 c -0.175796,-0.59764 -0.398452,-1.14256 -0.667969,-1.63477 -0.269545,-0.49217 -0.59181,-0.91404 -0.966797,-1.26562 -0.375012,-0.36326 -0.802746,-0.64451 -1.283203,-0.84375 -0.48048,-0.1992 -1.019542,-0.29881 -1.617187,-0.29883 -0.796885,2e-5 -1.523446,0.19338 -2.179688,0.58008 -0.644538,0.38674 -1.195319,0.96681 -1.652344,1.74023 -0.457037,0.76174 -0.808599,1.71096 -1.054687,2.84766 -0.246099,1.12501 -0.369145,2.43165 -0.369141,3.91992"
         id="path3164"
         style="font-size:36px;font-variant:normal;font-stretch:normal;text-align:start;line-height:125%;writing-mode:lr-tb;text-anchor:start;fill:#4f7f21;font-family:Consolas;-inkscape-font-specification:Consolas" />
      <path
         d="m 94.644846,784.66168 -2.917969,0 -12.058594,-28.61719 2.917969,0 12.058594,28.61719"
         id="path3166"
         style="font-size:36px;font-variant:normal;font-stretch:normal;text-align:start;line-height:125%;writing-mode:lr-tb;text-anchor:start;fill:#4f7f21;font-family:Consolas;-inkscape-font-specification:Consolas" />
      <path
         d="m 115.40461,780.88239 -4.06055,0 -4.76367,-6.73243 -4.71093,6.73243 -3.955083,0 6.837893,-8.85938 -6.521487,-8.78906 3.919927,0 4.64062,6.78515 4.55273,-6.78515 3.7793,0 -6.62695,8.85937 6.9082,8.78907"
         id="path3168"
         style="font-size:36px;font-variant:normal;font-stretch:normal;text-align:start;line-height:125%;writing-mode:lr-tb;text-anchor:start;fill:#4f7f21;font-family:Consolas;-inkscape-font-specification:Consolas" />
      <path
         d="m 134.75813,769.40387 c -2e-5,1.75782 -0.1758,3.36329 -0.52735,4.81641 -0.35158,1.44141 -0.88478,2.68359 -1.59961,3.72656 -0.71486,1.03125 -1.60548,1.83398 -2.67187,2.4082 -1.0547,0.5625 -2.29689,0.84375 -3.72656,0.84375 -1.23048,0 -2.34962,-0.22851 -3.35743,-0.68555 -1.00781,-0.46874 -1.86914,-1.18359 -2.58398,-2.14453 -0.71485,-0.96093 -1.26563,-2.18554 -1.65234,-3.67382 -0.38672,-1.48828 -0.58008,-3.25195 -0.58008,-5.29102 0,-1.7578 0.17578,-3.36327 0.52734,-4.81641 0.36328,-1.4531 0.89648,-2.69529 1.59961,-3.72656 0.71484,-1.04295 1.60546,-1.84568 2.67188,-2.4082 1.0664,-0.5742 2.30858,-0.86131 3.72656,-0.86133 1.23046,2e-5 2.3496,0.2344 3.35742,0.70312 1.0078,0.45706 1.86913,1.1719 2.58399,2.14454 0.71482,0.96095 1.2656,2.18556 1.65234,3.67382 0.3867,1.4883 0.58006,3.25197 0.58008,5.29102 m -3.09375,0.10547 c -2e-5,-0.39843 -0.0176,-0.79101 -0.0527,-1.17774 -0.0234,-0.39842 -0.0528,-0.78514 -0.0879,-1.16015 l -9.7207,7.22461 c 0.17577,0.60938 0.39843,1.17188 0.66797,1.6875 0.26952,0.51563 0.59179,0.96094 0.96679,1.33593 0.38672,0.36329 0.82031,0.6504 1.30079,0.86133 0.49217,0.19922 1.04881,0.29883 1.66992,0.29883 0.79686,0 1.51756,-0.19336 2.16211,-0.58008 0.65623,-0.38671 1.21287,-0.96093 1.66992,-1.72265 0.45702,-0.76172 0.80858,-1.70508 1.05469,-2.83008 0.24608,-1.13671 0.36912,-2.44921 0.36914,-3.9375 m -10.51172,-0.21094 c -1e-5,0.36329 -1e-5,0.72657 0,1.08984 0.0117,0.3633 0.0352,0.71486 0.0703,1.05469 l 9.7207,-7.18945 c -0.17579,-0.59764 -0.39845,-1.14256 -0.66796,-1.63477 -0.26955,-0.49217 -0.59181,-0.91404 -0.9668,-1.26562 -0.37501,-0.36326 -0.80275,-0.64451 -1.2832,-0.84375 -0.48048,-0.1992 -1.01955,-0.29881 -1.61719,-0.29883 -0.79689,2e-5 -1.52345,0.19338 -2.17969,0.58008 -0.64454,0.38674 -1.19532,0.96681 -1.65234,1.74023 -0.45704,0.76174 -0.8086,1.71096 -1.05469,2.84766 -0.2461,1.12501 -0.36915,2.43165 -0.36914,3.91992"
         id="path3170"
         style="font-size:36px;font-variant:normal;font-stretch:normal;text-align:start;line-height:125%;writing-mode:lr-tb;text-anchor:start;fill:#4f7f21;font-family:Consolas;-inkscape-font-specification:Consolas" />
      <path
         d="m 154.58625,769.40387 c -2e-5,1.75782 -0.1758,3.36329 -0.52734,4.81641 -0.35158,1.44141 -0.88478,2.68359 -1.59961,3.72656 -0.71486,1.03125 -1.60548,1.83398 -2.67188,2.4082 -1.0547,0.5625 -2.29688,0.84375 -3.72656,0.84375 -1.23048,0 -2.34962,-0.22851 -3.35742,-0.68555 -1.00782,-0.46874 -1.86915,-1.18359 -2.58398,-2.14453 -0.71485,-0.96093 -1.26563,-2.18554 -1.65235,-3.67382 -0.38672,-1.48828 -0.58008,-3.25195 -0.58008,-5.29102 0,-1.7578 0.17578,-3.36327 0.52735,-4.81641 0.36328,-1.4531 0.89648,-2.69529 1.59961,-3.72656 0.71484,-1.04295 1.60546,-1.84568 2.67187,-2.4082 1.0664,-0.5742 2.30859,-0.86131 3.72656,-0.86133 1.23046,2e-5 2.3496,0.2344 3.35743,0.70312 1.00779,0.45706 1.86912,1.1719 2.58398,2.14454 0.71483,0.96095 1.26561,2.18556 1.65234,3.67382 0.3867,1.4883 0.58006,3.25197 0.58008,5.29102 m -3.09375,0.10547 c -1e-5,-0.39843 -0.0176,-0.79101 -0.0527,-1.17774 -0.0234,-0.39842 -0.0528,-0.78514 -0.0879,-1.16015 l -9.72071,7.22461 c 0.17578,0.60938 0.39844,1.17188 0.66797,1.6875 0.26953,0.51563 0.59179,0.96094 0.9668,1.33593 0.38671,0.36329 0.8203,0.6504 1.30078,0.86133 0.49218,0.19922 1.04882,0.29883 1.66992,0.29883 0.79687,0 1.51757,-0.19336 2.16211,-0.58008 0.65624,-0.38671 1.21288,-0.96093 1.66992,-1.72265 0.45702,-0.76172 0.80858,-1.70508 1.05469,-2.83008 0.24608,-1.13671 0.36913,-2.44921 0.36914,-3.9375 M 140.9808,769.2984 c 0,0.36329 0,0.72657 0,1.08984 0.0117,0.3633 0.0351,0.71486 0.0703,1.05469 l 9.7207,-7.18945 c -0.1758,-0.59764 -0.39845,-1.14256 -0.66797,-1.63477 -0.26954,-0.49217 -0.59181,-0.91404 -0.9668,-1.26562 -0.37501,-0.36326 -0.80274,-0.64451 -1.2832,-0.84375 -0.48048,-0.1992 -1.01954,-0.29881 -1.61719,-0.29883 -0.79688,2e-5 -1.52344,0.19338 -2.17968,0.58008 -0.64454,0.38674 -1.19532,0.96681 -1.65235,1.74023 -0.45704,0.76174 -0.8086,1.71096 -1.05469,2.84766 -0.24609,1.12501 -0.36914,2.43165 -0.36914,3.91992"
         id="path3172"
         style="font-size:36px;font-variant:normal;font-stretch:normal;text-align:start;line-height:125%;writing-mode:lr-tb;text-anchor:start;fill:#4f7f21;font-family:Consolas;-inkscape-font-specification:Consolas" />
      <path
         d="m 173.95735,784.66168 -2.91797,0 -12.0586,-28.61719 2.91797,0 12.0586,28.61719"
         id="path3174"
         style="font-size:36px;font-variant:normal;font-stretch:normal;text-align:start;line-height:125%;writing-mode:lr-tb;text-anchor:start;fill:#4f7f21;font-family:Consolas;-inkscape-font-specification:Consolas" />
      <path
         d="m 194.71711,780.88239 -4.06055,0 -4.76367,-6.73243 -4.71093,6.73243 -3.95508,0 6.83789,-8.85938 -6.52149,-8.78906 3.91993,0 4.64062,6.78515 4.55273,-6.78515 3.7793,0 -6.62695,8.85937 6.9082,8.78907"
         id="path3176"
         style="font-size:36px;font-variant:normal;font-stretch:normal;text-align:start;line-height:125%;writing-mode:lr-tb;text-anchor:start;fill:#4f7f21;font-family:Consolas;-inkscape-font-specification:Consolas" />
      <path
         d="m 214.07063,769.40387 c -2e-5,1.75782 -0.1758,3.36329 -0.52735,4.81641 -0.35158,1.44141 -0.88478,2.68359 -1.59961,3.72656 -0.71486,1.03125 -1.60548,1.83398 -2.67187,2.4082 -1.0547,0.5625 -2.29689,0.84375 -3.72656,0.84375 -1.23048,0 -2.34962,-0.22851 -3.35743,-0.68555 -1.00781,-0.46874 -1.86914,-1.18359 -2.58398,-2.14453 -0.71485,-0.96093 -1.26563,-2.18554 -1.65234,-3.67382 -0.38672,-1.48828 -0.58008,-3.25195 -0.58008,-5.29102 0,-1.7578 0.17578,-3.36327 0.52734,-4.81641 0.36328,-1.4531 0.89648,-2.69529 1.59961,-3.72656 0.71484,-1.04295 1.60546,-1.84568 2.67188,-2.4082 1.0664,-0.5742 2.30858,-0.86131 3.72656,-0.86133 1.23046,2e-5 2.3496,0.2344 3.35742,0.70312 1.0078,0.45706 1.86913,1.1719 2.58399,2.14454 0.71482,0.96095 1.2656,2.18556 1.65234,3.67382 0.3867,1.4883 0.58006,3.25197 0.58008,5.29102 m -3.09375,0.10547 c -2e-5,-0.39843 -0.0176,-0.79101 -0.0527,-1.17774 -0.0234,-0.39842 -0.0528,-0.78514 -0.0879,-1.16015 l -9.7207,7.22461 c 0.17577,0.60938 0.39843,1.17188 0.66797,1.6875 0.26952,0.51563 0.59179,0.96094 0.96679,1.33593 0.38672,0.36329 0.82031,0.6504 1.30079,0.86133 0.49217,0.19922 1.04881,0.29883 1.66992,0.29883 0.79686,0 1.51756,-0.19336 2.16211,-0.58008 0.65623,-0.38671 1.21287,-0.96093 1.66992,-1.72265 0.45702,-0.76172 0.80858,-1.70508 1.05469,-2.83008 0.24608,-1.13671 0.36912,-2.44921 0.36914,-3.9375 m -10.51172,-0.21094 c -1e-5,0.36329 -1e-5,0.72657 0,1.08984 0.0117,0.3633 0.0352,0.71486 0.0703,1.05469 l 9.7207,-7.18945 c -0.17579,-0.59764 -0.39845,-1.14256 -0.66796,-1.63477 -0.26955,-0.49217 -0.59181,-0.91404 -0.9668,-1.26562 -0.37501,-0.36326 -0.80275,-0.64451 -1.2832,-0.84375 -0.48048,-0.1992 -1.01955,-0.29881 -1.61719,-0.29883 -0.79689,2e-5 -1.52345,0.19338 -2.17969,0.58008 -0.64454,0.38674 -1.19532,0.96681 -1.65234,1.74023 -0.45704,0.76174 -0.8086,1.71096 -1.05469,2.84766 -0.2461,1.12501 -0.36915,2.43165 -0.36914,3.91992"
         id="path3178"
         style="font-size:36px;font-variant:normal;font-stretch:normal;text-align:start;line-height:125%;writing-mode:lr-tb;text-anchor:start;fill:#4f7f21;font-family:Consolas;-inkscape-font-specification:Consolas" />
      <path
         d="m 233.89875,769.40387 c -2e-5,1.75782 -0.1758,3.36329 -0.52734,4.81641 -0.35158,1.44141 -0.88478,2.68359 -1.59961,3.72656 -0.71486,1.03125 -1.60548,1.83398 -2.67188,2.4082 -1.0547,0.5625 -2.29688,0.84375 -3.72656,0.84375 -1.23048,0 -2.34962,-0.22851 -3.35742,-0.68555 -1.00782,-0.46874 -1.86915,-1.18359 -2.58398,-2.14453 -0.71485,-0.96093 -1.26563,-2.18554 -1.65235,-3.67382 -0.38672,-1.48828 -0.58008,-3.25195 -0.58008,-5.29102 0,-1.7578 0.17578,-3.36327 0.52735,-4.81641 0.36328,-1.4531 0.89648,-2.69529 1.59961,-3.72656 0.71484,-1.04295 1.60546,-1.84568 2.67187,-2.4082 1.0664,-0.5742 2.30859,-0.86131 3.72656,-0.86133 1.23046,2e-5 2.3496,0.2344 3.35743,0.70312 1.00779,0.45706 1.86912,1.1719 2.58398,2.14454 0.71483,0.96095 1.26561,2.18556 1.65234,3.67382 0.3867,1.4883 0.58006,3.25197 0.58008,5.29102 m -3.09375,0.10547 c -1e-5,-0.39843 -0.0176,-0.79101 -0.0527,-1.17774 -0.0234,-0.39842 -0.0528,-0.78514 -0.0879,-1.16015 l -9.72071,7.22461 c 0.17578,0.60938 0.39844,1.17188 0.66797,1.6875 0.26953,0.51563 0.59179,0.96094 0.9668,1.33593 0.38671,0.36329 0.8203,0.6504 1.30078,0.86133 0.49218,0.19922 1.04882,0.29883 1.66992,0.29883 0.79687,0 1.51757,-0.19336 2.16211,-0.58008 0.65624,-0.38671 1.21288,-0.96093 1.66992,-1.72265 0.45702,-0.76172 0.80858,-1.70508 1.05469,-2.83008 0.24608,-1.13671 0.36913,-2.44921 0.36914,-3.9375 M 220.2933,769.2984 c 0,0.36329 0,0.72657 0,1.08984 0.0117,0.3633 0.0351,0.71486 0.0703,1.05469 l 9.7207,-7.18945 c -0.1758,-0.59764 -0.39845,-1.14256 -0.66797,-1.63477 -0.26954,-0.49217 -0.59181,-0.91404 -0.9668,-1.26562 -0.37501,-0.36326 -0.80274,-0.64451 -1.2832,-0.84375 -0.48048,-0.1992 -1.01954,-0.29881 -1.61719,-0.29883 -0.79688,2e-5 -1.52344,0.19338 -2.17968,0.58008 -0.64454,0.38674 -1.19532,0.96681 -1.65235,1.74023 -0.45704,0.76174 -0.8086,1.71096 -1.05469,2.84766 -0.24609,1.12501 -0.36914,2.43165 -0.36914,3.91992"
         id="path3180"
         style="font-size:36px;font-variant:normal;font-stretch:normal;text-align:start;line-height:125%;writing-mode:lr-tb;text-anchor:start;fill:#4f7f21;font-family:Consolas;-inkscape-font-specification:Consolas" />
      <path
         d="m 253.26985,784.66168 -2.91797,0 -12.0586,-28.61719 2.91797,0 12.0586,28.61719"
         id="path3182"
         style="font-size:36px;font-variant:normal;font-stretch:normal;text-align:start;line-height:125%;writing-mode:lr-tb;text-anchor:start;fill:#4f7f21;font-family:Consolas;-inkscape-font-specification:Consolas" />
      <path
         d="m 274.02961,780.88239 -4.06055,0 -4.76367,-6.73243 -4.71093,6.73243 -3.95508,0 6.83789,-8.85938 -6.52149,-8.78906 3.91993,0 4.64062,6.78515 4.55273,-6.78515 3.7793,0 -6.62695,8.85937 6.9082,8.78907"
         id="path3184"
         style="font-size:36px;font-variant:normal;font-stretch:normal;text-align:start;line-height:125%;writing-mode:lr-tb;text-anchor:start;fill:#4f7f21;font-family:Consolas;-inkscape-font-specification:Consolas" />
      <path
         d="m 292.66242,780.88239 -14.43164,0 0,-2.84766 5.90625,0 0,-16.76953 -5.50195,2.98828 -1.125,-2.60156 7.3125,-3.84961 2.70703,0 0,20.23242 5.13281,0 0,2.84766"
         id="path3186"
         style="font-size:36px;font-variant:normal;font-stretch:normal;text-align:start;line-height:125%;writing-mode:lr-tb;text-anchor:start;fill:#4f7f21;font-family:Consolas;-inkscape-font-specification:Consolas" />
      <path
         d="m 312.68391,775.11676 c -2e-5,0.97266 -0.19924,1.83985 -0.59766,2.60156 -0.39845,0.75001 -0.95509,1.38282 -1.66992,1.89844 -0.71486,0.51563 -1.55861,0.9082 -2.53125,1.17773 -0.97267,0.26954 -2.02735,0.4043 -3.16406,0.4043 -1.25392,0 -2.36134,-0.14062 -3.32227,-0.42187 -0.94922,-0.28125 -1.7461,-0.67383 -2.39062,-1.17774 -0.64454,-0.5039 -1.13087,-1.10156 -1.45899,-1.79297 -0.32812,-0.6914 -0.49219,-1.45312 -0.49218,-2.28515 -1e-5,-1.40625 0.39257,-2.61914 1.17773,-3.63867 0.78515,-1.01953 1.99804,-1.94531 3.63867,-2.77735 -1.5,-0.7617 -2.59571,-1.60545 -3.28711,-2.53125 -0.69141,-0.93748 -1.03711,-2.00975 -1.03711,-3.2168 0,-0.73826 0.15234,-1.4531 0.45703,-2.14453 0.30469,-0.69138 0.76172,-1.30662 1.3711,-1.8457 0.62109,-0.53904 1.39452,-0.96677 2.32031,-1.2832 0.92577,-0.3281 2.01562,-0.49217 3.26953,-0.49219 1.18358,2e-5 2.22069,0.12893 3.11133,0.38672 0.90233,0.24611 1.65819,0.60354 2.26758,1.07226 0.60936,0.46878 1.06639,1.03713 1.37109,1.70508 0.30467,0.66799 0.45702,1.41213 0.45703,2.23242 -1e-5,1.33596 -0.37501,2.47268 -1.125,3.41016 -0.73829,0.93751 -1.79298,1.75783 -3.16406,2.46094 0.67967,0.33985 1.31249,0.71485 1.89844,1.125 0.58592,0.41016 1.09568,0.8672 1.52929,1.37109 0.43358,0.50392 0.76757,1.06642 1.00196,1.6875 0.24607,0.6211 0.36912,1.31251 0.36914,2.07422 m -3.63867,-11.88281 c -2e-5,-1.04295 -0.36916,-1.81639 -1.10743,-2.32031 -0.72657,-0.51561 -1.75196,-0.77342 -3.07617,-0.77344 -1.31251,2e-5 -2.3379,0.25197 -3.07617,0.75586 -0.72657,0.50392 -1.08985,1.25978 -1.08984,2.26758 -10e-6,0.45704 0.0879,0.87892 0.26367,1.26562 0.17577,0.38674 0.4453,0.75002 0.80859,1.08984 0.375,0.33986 0.83789,0.67385 1.38867,1.00196 0.55078,0.32814 1.20703,0.66212 1.96875,1.00195 1.32421,-0.62108 2.30859,-1.26561 2.95313,-1.93359 0.64452,-0.67968 0.96678,-1.46483 0.9668,-2.35547 m 0.3164,12.11133 c -1e-5,-0.43359 -0.0703,-0.85547 -0.21093,-1.26563 -0.14064,-0.41015 -0.3926,-0.81444 -0.75586,-1.21289 -0.3633,-0.39843 -0.84963,-0.79687 -1.45899,-1.19531 -0.60939,-0.39843 -1.38282,-0.80859 -2.32031,-1.23047 -0.79689,0.38673 -1.47071,0.77345 -2.02149,1.16016 -0.53907,0.375 -0.97852,0.76172 -1.31835,1.16015 -0.32814,0.38673 -0.56251,0.79102 -0.70313,1.21289 -0.14063,0.42188 -0.21094,0.8672 -0.21094,1.33594 0,0.52735 0.11133,0.9961 0.33399,1.40625 0.23437,0.39844 0.55077,0.73828 0.94922,1.01953 0.39843,0.28125 0.87304,0.49219 1.42382,0.63281 0.55078,0.14063 1.14843,0.21094 1.79297,0.21094 0.62109,0 1.20702,-0.0644 1.75782,-0.19336 0.55076,-0.1289 1.02537,-0.32226 1.42382,-0.58008 0.41015,-0.26952 0.73241,-0.60351 0.9668,-1.00195 0.23436,-0.41015 0.35155,-0.89648 0.35156,-1.45898"
         id="path3188"
         style="font-size:36px;font-variant:normal;font-stretch:normal;text-align:start;line-height:125%;writing-mode:lr-tb;text-anchor:start;fill:#4f7f21;font-family:Consolas;-inkscape-font-specification:Consolas" />
    </g>
    <path
       d="m 0.75000007,803.24601 c 0,32.93307 158.26410993,0 158.26410993,32.93307 0,-32.93307 158.26411,0 158.13345,-32.8379"
       id="path3100"
       style="fill:#000000;fill-opacity:0;stroke:#4f7f21;stroke-width:2.5;stroke-linecap:butt;stroke-linejoin:miter;stroke-miterlimit:4;stroke-opacity:1;stroke-dasharray:none" />
    <path
       d="m 326.73425,803.246 c 0,32.93308 257.51768,0 257.51768,32.93308 0,-32.93308 257.51762,0 257.30502,-32.8379"
       id="path3100-0"
       style="fill:none;stroke:#216a7f;stroke-width:2.49999976;stroke-linecap:butt;stroke-linejoin:miter;stroke-miterlimit:4;stroke-opacity:1;stroke-dasharray:none" />
    <path
       d="m 340.90748,736.96648 c 0,-18.75984 12.92856,0 12.92856,-18.75984 0,18.75984 12.92856,0 12.91789,18.70563"
       id="path3100-8"
       style="fill:none;stroke:#404040;stroke-width:2.5;stroke-linecap:butt;stroke-linejoin:miter;stroke-miterlimit:4;stroke-opacity:1;stroke-dasharray:none" />
    <path
       d="m 404.68701,736.96648 c 0,-18.75984 23.56286,0 23.56286,-18.75984 0,18.75984 23.56287,0 23.54343,18.70563"
       id="path3100-5"
       style="fill:none;stroke:#404040;stroke-width:2.5;stroke-linecap:butt;stroke-linejoin:miter;stroke-miterlimit:4;stroke-opacity:1;stroke-dasharray:none" />
    <path
       d="m 496.81296,736.96647 c 0,-18.75985 165.35365,0 165.35365,-18.75985 0,18.75985 165.35364,0 165.21713,18.70562"
       id="path3100-3"
       style="fill:none;stroke:#404040;stroke-width:2.5;stroke-linecap:butt;stroke-linejoin:miter;stroke-miterlimit:4;stroke-opacity:1;stroke-dasharray:none" />
    <g
       id="text3141"
       style="font-size:40px;font-style:normal;font-variant:normal;font-weight:500;font-stretch:normal;text-align:center;line-height:125%;letter-spacing:0px;word-spacing:0px;writing-mode:lr-tb;text-anchor:middle;fill:#404040;fill-opacity:1;stroke:none;font-family:Lato;-inkscape-font-specification:Lato Medium">
      <path
         d="m 119.64507,874.01569 -4.14,0 0,-12.98 -15.14,0 0,12.98 -4.140005,0 0,-28.7 4.140005,0 0,12.72 15.14,0 0,-12.72 4.14,0 0,28.7"
         id="path3058" />
      <path
         d="m 133.78507,853.39569 c 1.22665,2e-5 2.35998,0.20668 3.4,0.62 1.03998,0.40002 1.93998,0.98668 2.7,1.76 0.75998,0.77335 1.35331,1.72668 1.78,2.86 0.42664,1.12001 0.63998,2.40668 0.64,3.86 -2e-5,0.58667 -0.0667,0.98001 -0.2,1.18 -0.12002,0.20001 -0.35336,0.30001 -0.7,0.3 l -13.4,0 c 0.04,1.24 0.21332,2.32 0.52,3.24 0.31999,0.92 0.74666,1.68667 1.28,2.3 0.54665,0.6 1.19999,1.05333 1.96,1.36 0.75999,0.29333 1.60665,0.44 2.54,0.44 0.87998,0 1.63332,-0.1 2.26,-0.3 0.63998,-0.2 1.18665,-0.42 1.64,-0.66 0.46665,-0.24 0.85998,-0.46 1.18,-0.66 0.31998,-0.2 0.59998,-0.3 0.84,-0.3 0.31998,0 0.55331,0.12 0.7,0.36 l 1.08,1.38 c -0.46669,0.56 -1.00669,1.04 -1.62,1.44 -0.61336,0.38666 -1.27335,0.71333 -1.98,0.98 -0.70669,0.25333 -1.44002,0.44 -2.2,0.56 -0.74668,0.12 -1.48668,0.18 -2.22,0.18 -1.40001,0 -2.70001,-0.23334 -3.9,-0.7 -1.18668,-0.48 -2.21334,-1.17334 -3.08,-2.08 -0.86667,-0.92 -1.54667,-2.05333 -2.04,-3.4 -0.48001,-1.36 -0.72001,-2.92 -0.72,-4.68 -1e-5,-1.41333 0.21999,-2.72666 0.66,-3.94 0.43999,-1.22665 1.06666,-2.28665 1.88,-3.18 0.82666,-0.90665 1.82666,-1.61998 3,-2.14 1.18665,-0.51998 2.51999,-0.77998 4,-0.78 m 0.06,2.78 c -1.66668,10e-6 -2.98001,0.48668 -3.94,1.46 -0.94668,0.96001 -1.54001,2.29334 -1.78,4 l 10.78,0 c -2e-5,-0.79999 -0.11335,-1.53332 -0.34,-2.2 -0.22669,-0.66666 -0.56002,-1.23999 -1,-1.72 -0.42669,-0.47999 -0.95335,-0.85332 -1.58,-1.12 -0.62668,-0.27999 -1.34002,-0.41999 -2.14,-0.42"
         id="path3060" />
      <path
         d="m 159.55694,874.01569 c -0.37335,0 -0.66001,-0.06 -0.86,-0.18 -0.20001,-0.12 -0.36001,-0.35334 -0.48,-0.7 l -0.42,-1.82 c -0.52001,0.48 -1.03335,0.91333 -1.54,1.3 -0.50668,0.37333 -1.04001,0.68666 -1.6,0.94 -0.54668,0.25333 -1.13334,0.44666 -1.76,0.58 -0.62667,0.13333 -1.32667,0.2 -2.1,0.2 -0.80001,0 -1.54667,-0.10667 -2.24,-0.32 -0.69334,-0.22667 -1.3,-0.56667 -1.82,-1.02 -0.50667,-0.45334 -0.91334,-1.01334 -1.22,-1.68 -0.29333,-0.68 -0.44,-1.48 -0.44,-2.4 0,-0.8 0.21333,-1.56666 0.64,-2.3 0.44,-0.73333 1.14666,-1.38666 2.12,-1.96 0.98666,-0.58666 2.26666,-1.06666 3.84,-1.44 1.58666,-0.37333 3.53332,-0.58666 5.84,-0.64 l 0,-1.52 c -1e-5,-1.53332 -0.33335,-2.68665 -1,-3.46 -0.65335,-0.78665 -1.62001,-1.17999 -2.9,-1.18 -0.86668,10e-6 -1.59334,0.11335 -2.18,0.34 -0.57334,0.21335 -1.07334,0.45335 -1.5,0.72 -0.41334,0.25335 -0.78001,0.48668 -1.1,0.7 -0.32,0.21334 -0.64,0.32001 -0.96,0.32 -0.26667,1e-5 -0.49334,-0.0667 -0.68,-0.2 -0.17334,-0.14665 -0.32667,-0.31332 -0.46,-0.5 l -0.68,-1.24 c 1.13333,-1.06665 2.35333,-1.86665 3.66,-2.4 1.31999,-0.53332 2.77332,-0.79998 4.36,-0.8 1.14666,2e-5 2.16665,0.18668 3.06,0.56 0.89332,0.37335 1.63999,0.90002 2.24,1.58 0.61332,0.66668 1.07332,1.47335 1.38,2.42 0.31998,0.94668 0.47998,1.99334 0.48,3.14 l 0,12.96 -1.68,0 m -7.62,-2.34 c 0.59999,0 1.15332,-0.06 1.66,-0.18 0.51999,-0.12 0.99999,-0.29333 1.44,-0.52 0.45332,-0.22667 0.87999,-0.5 1.28,-0.82 0.39999,-0.33333 0.79999,-0.70667 1.2,-1.12 l 0,-4.08 c -1.60001,0.0533 -2.96001,0.18 -4.08,0.38 -1.12001,0.2 -2.03334,0.46 -2.74,0.78 -0.69334,0.32 -1.20001,0.70667 -1.52,1.16 -0.32,0.44 -0.48,0.92667 -0.48,1.46 0,0.52 0.08,0.96667 0.24,1.34 0.17333,0.37333 0.40666,0.68 0.7,0.92 0.29333,0.22667 0.63333,0.4 1.02,0.52 0.39999,0.10667 0.82666,0.16 1.28,0.16"
         id="path3062" />
      <path
         d="m 181.15882,874.01569 c -0.53335,0 -0.86669,-0.25334 -1,-0.76 l -0.34,-2.38 c -0.42669,0.52 -0.88669,0.99333 -1.38,1.42 -0.49335,0.41333 -1.02002,0.77333 -1.58,1.08 -0.56002,0.29333 -1.15335,0.52 -1.78,0.68 -0.62668,0.16 -1.30001,0.24 -2.02,0.24 -1.16001,0 -2.21335,-0.22 -3.16,-0.66 -0.93334,-0.45334 -1.74001,-1.12 -2.42,-2 -0.66667,-0.88 -1.18001,-1.96 -1.54,-3.24 -0.36001,-1.29333 -0.54001,-2.78 -0.54,-4.46 -1e-5,-1.50666 0.19999,-2.89999 0.6,-4.18 0.39999,-1.29332 0.97999,-2.41332 1.74,-3.36 0.75999,-0.94665 1.67999,-1.68665 2.76,-2.22 1.07999,-0.54665 2.29999,-0.81998 3.66,-0.82 1.22665,2e-5 2.27332,0.20668 3.14,0.62 0.87998,0.40002 1.65998,0.96668 2.34,1.7 l 0,-11.16 3.8,0 0,29.5 -2.28,0 m -6.86,-2.78 c 1.13332,0 2.12665,-0.25333 2.98,-0.76 0.85331,-0.52 1.63998,-1.25333 2.36,-2.2 l 0,-9.68 c -0.64002,-0.85332 -1.34002,-1.44665 -2.1,-1.78 -0.76002,-0.34665 -1.60002,-0.51999 -2.52,-0.52 -1.82668,10e-6 -3.23335,0.65335 -4.22,1.96 -0.98668,1.30668 -1.48001,3.20001 -1.48,5.68 -10e-6,1.29334 0.11332,2.4 0.34,3.32 0.22666,0.92 0.55332,1.68 0.98,2.28 0.42665,0.58667 0.94665,1.02 1.56,1.3 0.61332,0.26667 1.31332,0.4 2.1,0.4"
         id="path3064" />
      <path
         d="m 197.30069,853.39569 c 1.22665,2e-5 2.35999,0.20668 3.4,0.62 1.03998,0.40002 1.93998,0.98668 2.7,1.76 0.75998,0.77335 1.35332,1.72668 1.78,2.86 0.42665,1.12001 0.63998,2.40668 0.64,3.86 -2e-5,0.58667 -0.0667,0.98001 -0.2,1.18 -0.12002,0.20001 -0.35335,0.30001 -0.7,0.3 l -13.4,0 c 0.04,1.24 0.21333,2.32 0.52,3.24 0.31999,0.92 0.74666,1.68667 1.28,2.3 0.54666,0.6 1.19999,1.05333 1.96,1.36 0.75999,0.29333 1.60666,0.44 2.54,0.44 0.87999,0 1.63332,-0.1 2.26,-0.3 0.63999,-0.2 1.18665,-0.42 1.64,-0.66 0.46665,-0.24 0.85998,-0.46 1.18,-0.66 0.31998,-0.2 0.59998,-0.3 0.84,-0.3 0.31998,0 0.55332,0.12 0.7,0.36 l 1.08,1.38 c -0.46669,0.56 -1.00668,1.04 -1.62,1.44 -0.61335,0.38666 -1.27335,0.71333 -1.98,0.98 -0.70668,0.25333 -1.44001,0.44 -2.2,0.56 -0.74668,0.12 -1.48668,0.18 -2.22,0.18 -1.40001,0 -2.70001,-0.23334 -3.9,-0.7 -1.18667,-0.48 -2.21334,-1.17334 -3.08,-2.08 -0.86667,-0.92 -1.54667,-2.05333 -2.04,-3.4 -0.48,-1.36 -0.72,-2.92 -0.72,-4.68 0,-1.41333 0.22,-2.72666 0.66,-3.94 0.44,-1.22665 1.06666,-2.28665 1.88,-3.18 0.82666,-0.90665 1.82666,-1.61998 3,-2.14 1.18666,-0.51998 2.51999,-0.77998 4,-0.78 m 0.06,2.78 c -1.66668,10e-6 -2.98001,0.48668 -3.94,1.46 -0.94667,0.96001 -1.54001,2.29334 -1.78,4 l 10.78,0 c -2e-5,-0.79999 -0.11335,-1.53332 -0.34,-2.2 -0.22668,-0.66666 -0.56002,-1.23999 -1,-1.72 -0.42668,-0.47999 -0.95335,-0.85332 -1.58,-1.12 -0.62668,-0.27999 -1.34001,-0.41999 -2.14,-0.42"
         id="path3066" />
      <path
         d="m 210.09257,874.01569 0,-20.3 2.18,0 c 0.41332,2e-5 0.69332,0.0734 0.84,0.22 0.15999,0.14668 0.26666,0.41335 0.32,0.8 l 0.24,2.96 c 0.63999,-1.34665 1.42665,-2.40665 2.36,-3.18 0.93332,-0.77332 2.05332,-1.15998 3.36,-1.16 0.43998,2e-5 0.85332,0.0467 1.24,0.14 0.39998,0.0933 0.74665,0.24002 1.04,0.44 l -0.26,2.84 c -0.08,0.36001 -0.29335,0.54001 -0.64,0.54 -0.18668,10e-6 -0.46668,-0.04 -0.84,-0.12 -0.36002,-0.08 -0.76002,-0.11999 -1.2,-0.12 -0.62668,10e-6 -1.18668,0.0933 -1.68,0.28 -0.48001,0.18668 -0.91335,0.46001 -1.3,0.82 -0.38668,0.36001 -0.73335,0.80001 -1.04,1.32 -0.29335,0.52001 -0.56668,1.11334 -0.82,1.78 l 0,12.74 -3.8,0"
         id="path3068" />
    </g>
    <g
       id="text3149"
       style="font-size:40px;font-style:normal;font-variant:normal;font-weight:500;font-stretch:normal;text-align:center;line-height:125%;letter-spacing:0px;word-spacing:0px;writing-mode:lr-tb;text-anchor:middle;fill:#404040;fill-opacity:1;stroke:none;font-family:Lato;-inkscape-font-specification:Lato Medium">
      <path
         d="m 522.27599,863.39569 0,10.62 -4.12,0 0,-28.7 8.62,0 c 1.82665,2e-5 3.41332,0.21336 4.76,0.64 1.35998,0.42669 2.47998,1.03336 3.36,1.82 0.89331,0.77335 1.55998,1.71335 2,2.82 0.43998,1.09335 0.65998,2.31335 0.66,3.66 -2e-5,1.34668 -0.23336,2.58001 -0.7,3.7 -0.46669,1.10668 -1.15336,2.06668 -2.06,2.88 -0.90669,0.81334 -2.03335,1.44667 -3.38,1.9 -1.33335,0.44001 -2.88002,0.66001 -4.64,0.66 l -4.5,0 m 0,-3.28 4.5,0 c 1.07999,10e-6 2.03332,-0.13999 2.86,-0.42 0.83998,-0.29332 1.53998,-0.69332 2.1,-1.2 0.55998,-0.51999 0.97998,-1.13999 1.26,-1.86 0.29331,-0.71999 0.43998,-1.51332 0.44,-2.38 -2e-5,-0.89332 -0.14002,-1.68665 -0.42,-2.38 -0.26669,-0.70665 -0.68002,-1.30665 -1.24,-1.8 -0.54668,-0.49331 -1.24002,-0.86665 -2.08,-1.12 -0.82668,-0.26665 -1.80001,-0.39998 -2.92,-0.4 l -4.5,0 0,11.56"
         id="path3071" />
      <path
         d="m 553.83161,874.01569 c -0.37334,0 -0.66001,-0.06 -0.86,-0.18 -0.20001,-0.12 -0.36001,-0.35334 -0.48,-0.7 l -0.42,-1.82 c -0.52001,0.48 -1.03334,0.91333 -1.54,1.3 -0.50667,0.37333 -1.04001,0.68666 -1.6,0.94 -0.54667,0.25333 -1.13334,0.44666 -1.76,0.58 -0.62667,0.13333 -1.32667,0.2 -2.1,0.2 -0.8,0 -1.54667,-0.10667 -2.24,-0.32 -0.69333,-0.22667 -1.3,-0.56667 -1.82,-1.02 -0.50667,-0.45334 -0.91333,-1.01334 -1.22,-1.68 -0.29333,-0.68 -0.44,-1.48 -0.44,-2.4 0,-0.8 0.21334,-1.56666 0.64,-2.3 0.44,-0.73333 1.14667,-1.38666 2.12,-1.96 0.98667,-0.58666 2.26666,-1.06666 3.84,-1.44 1.58666,-0.37333 3.53333,-0.58666 5.84,-0.64 l 0,-1.52 c -10e-6,-1.53332 -0.33334,-2.68665 -1,-3.46 -0.65334,-0.78665 -1.62001,-1.17999 -2.9,-1.18 -0.86667,10e-6 -1.59334,0.11335 -2.18,0.34 -0.57334,0.21335 -1.07334,0.45335 -1.5,0.72 -0.41334,0.25335 -0.78,0.48668 -1.1,0.7 -0.32,0.21334 -0.64,0.32001 -0.96,0.32 -0.26667,1e-5 -0.49333,-0.0667 -0.68,-0.2 -0.17333,-0.14665 -0.32667,-0.31332 -0.46,-0.5 l -0.68,-1.24 c 1.13333,-1.06665 2.35333,-1.86665 3.66,-2.4 1.32,-0.53332 2.77333,-0.79998 4.36,-0.8 1.14666,2e-5 2.16666,0.18668 3.06,0.56 0.89332,0.37335 1.63999,0.90002 2.24,1.58 0.61332,0.66668 1.07332,1.47335 1.38,2.42 0.31999,0.94668 0.47999,1.99334 0.48,3.14 l 0,12.96 -1.68,0 m -7.62,-2.34 c 0.6,0 1.15333,-0.06 1.66,-0.18 0.51999,-0.12 0.99999,-0.29333 1.44,-0.52 0.45333,-0.22667 0.87999,-0.5 1.28,-0.82 0.39999,-0.33333 0.79999,-0.70667 1.2,-1.12 l 0,-4.08 c -1.60001,0.0533 -2.96001,0.18 -4.08,0.38 -1.12,0.2 -2.03334,0.46 -2.74,0.78 -0.69334,0.32 -1.2,0.70667 -1.52,1.16 -0.32,0.44 -0.48,0.92667 -0.48,1.46 0,0.52 0.08,0.96667 0.24,1.34 0.17333,0.37333 0.40666,0.68 0.7,0.92 0.29333,0.22667 0.63333,0.4 1.02,0.52 0.4,0.10667 0.82666,0.16 1.28,0.16"
         id="path3073" />
      <path
         d="m 566.68474,879.93569 c -0.12001,0.29332 -0.27334,0.51332 -0.46,0.66 -0.18668,0.15999 -0.47334,0.23999 -0.86,0.24 l -2.82,0 3.72,-8.06 -8.36,-19.06 3.3,0 c 0.31999,2e-5 0.57333,0.08 0.76,0.24 0.18666,0.14668 0.31333,0.32002 0.38,0.52 l 5.26,12.4 c 0.22666,0.61334 0.40665,1.22 0.54,1.82 0.0933,-0.30667 0.19332,-0.61333 0.3,-0.92 0.10665,-0.32 0.21999,-0.63333 0.34,-0.94 l 5.08,-12.36 c 0.08,-0.22665 0.21998,-0.40665 0.42,-0.54 0.19998,-0.14665 0.42665,-0.21998 0.68,-0.22 l 3.02,0 -11.3,26.22"
         id="path3075" />
      <path
         d="m 584.90786,844.51569 0,29.5 -3.8,0 0,-29.5 3.8,0"
         id="path3077" />
      <path
         d="m 599.15911,853.39569 c 1.49332,2e-5 2.83999,0.24668 4.04,0.74 1.19999,0.48002 2.21999,1.17335 3.06,2.08 0.83998,0.90668 1.48665,2.00668 1.94,3.3 0.45332,1.28001 0.67998,2.72001 0.68,4.32 -2e-5,1.6 -0.22668,3.04667 -0.68,4.34 -0.45335,1.29333 -1.10002,2.39333 -1.94,3.3 -0.84001,0.90666 -1.86001,1.60666 -3.06,2.1 -1.20001,0.48 -2.54668,0.72 -4.04,0.72 -1.49334,0 -2.84667,-0.24 -4.06,-0.72 -1.2,-0.49334 -2.22667,-1.19334 -3.08,-2.1 -0.84,-0.90667 -1.48667,-2.00667 -1.94,-3.3 -0.45333,-1.29333 -0.68,-2.74 -0.68,-4.34 0,-1.59999 0.22667,-3.03999 0.68,-4.32 0.45333,-1.29332 1.1,-2.39332 1.94,-3.3 0.85333,-0.90665 1.88,-1.59998 3.08,-2.08 1.21333,-0.49332 2.56666,-0.73998 4.06,-0.74 m 0,17.94 c 1.94666,0 3.39999,-0.65333 4.36,-1.96 0.95999,-1.30666 1.43999,-3.14666 1.44,-5.52 -10e-6,-2.35999 -0.48001,-4.19999 -1.44,-5.52 -0.96001,-1.31999 -2.41334,-1.97999 -4.36,-1.98 -1.97334,10e-6 -3.44667,0.66001 -4.42,1.98 -0.96,1.32001 -1.44,3.16001 -1.44,5.52 0,2.37334 0.48,4.21334 1.44,5.52 0.97333,1.30667 2.44666,1.96 4.42,1.96"
         id="path3079" />
      <path
         d="m 626.25349,874.01569 c -0.37335,0 -0.66002,-0.06 -0.86,-0.18 -0.20002,-0.12 -0.36002,-0.35334 -0.48,-0.7 l -0.42,-1.82 c -0.52001,0.48 -1.03335,0.91333 -1.54,1.3 -0.50668,0.37333 -1.04001,0.68666 -1.6,0.94 -0.54668,0.25333 -1.13334,0.44666 -1.76,0.58 -0.62668,0.13333 -1.32668,0.2 -2.1,0.2 -0.80001,0 -1.54667,-0.10667 -2.24,-0.32 -0.69334,-0.22667 -1.3,-0.56667 -1.82,-1.02 -0.50667,-0.45334 -0.91334,-1.01334 -1.22,-1.68 -0.29334,-0.68 -0.44,-1.48 -0.44,-2.4 0,-0.8 0.21333,-1.56666 0.64,-2.3 0.44,-0.73333 1.14666,-1.38666 2.12,-1.96 0.98666,-0.58666 2.26666,-1.06666 3.84,-1.44 1.58666,-0.37333 3.53332,-0.58666 5.84,-0.64 l 0,-1.52 c -10e-6,-1.53332 -0.33335,-2.68665 -1,-3.46 -0.65335,-0.78665 -1.62001,-1.17999 -2.9,-1.18 -0.86668,10e-6 -1.59334,0.11335 -2.18,0.34 -0.57334,0.21335 -1.07334,0.45335 -1.5,0.72 -0.41334,0.25335 -0.78001,0.48668 -1.1,0.7 -0.32001,0.21334 -0.64001,0.32001 -0.96,0.32 -0.26667,1e-5 -0.49334,-0.0667 -0.68,-0.2 -0.17334,-0.14665 -0.32667,-0.31332 -0.46,-0.5 l -0.68,-1.24 c 1.13333,-1.06665 2.35333,-1.86665 3.66,-2.4 1.31999,-0.53332 2.77332,-0.79998 4.36,-0.8 1.14665,2e-5 2.16665,0.18668 3.06,0.56 0.89332,0.37335 1.63998,0.90002 2.24,1.58 0.61332,0.66668 1.07332,1.47335 1.38,2.42 0.31998,0.94668 0.47998,1.99334 0.48,3.14 l 0,12.96 -1.68,0 m -7.62,-2.34 c 0.59999,0 1.15332,-0.06 1.66,-0.18 0.51999,-0.12 0.99999,-0.29333 1.44,-0.52 0.45332,-0.22667 0.87999,-0.5 1.28,-0.82 0.39999,-0.33333 0.79999,-0.70667 1.2,-1.12 l 0,-4.08 c -1.60001,0.0533 -2.96001,0.18 -4.08,0.38 -1.12001,0.2 -2.03334,0.46 -2.74,0.78 -0.69334,0.32 -1.20001,0.70667 -1.52,1.16 -0.32001,0.44 -0.48001,0.92667 -0.48,1.46 -1e-5,0.52 0.08,0.96667 0.24,1.34 0.17333,0.37333 0.40666,0.68 0.7,0.92 0.29333,0.22667 0.63333,0.4 1.02,0.52 0.39999,0.10667 0.82666,0.16 1.28,0.16"
         id="path3081" />
      <path
         d="m 647.85536,874.01569 c -0.53335,0 -0.86668,-0.25334 -1,-0.76 l -0.34,-2.38 c -0.42668,0.52 -0.88668,0.99333 -1.38,1.42 -0.49334,0.41333 -1.02001,0.77333 -1.58,1.08 -0.56001,0.29333 -1.15334,0.52 -1.78,0.68 -0.62667,0.16 -1.30001,0.24 -2.02,0.24 -1.16,0 -2.21334,-0.22 -3.16,-0.66 -0.93333,-0.45334 -1.74,-1.12 -2.42,-2 -0.66667,-0.88 -1.18,-1.96 -1.54,-3.24 -0.36,-1.29333 -0.54,-2.78 -0.54,-4.46 0,-1.50666 0.2,-2.89999 0.6,-4.18 0.4,-1.29332 0.98,-2.41332 1.74,-3.36 0.76,-0.94665 1.68,-1.68665 2.76,-2.22 1.08,-0.54665 2.29999,-0.81998 3.66,-0.82 1.22666,2e-5 2.27332,0.20668 3.14,0.62 0.87999,0.40002 1.65999,0.96668 2.34,1.7 l 0,-11.16 3.8,0 0,29.5 -2.28,0 m -6.86,-2.78 c 1.13333,0 2.12666,-0.25333 2.98,-0.76 0.85332,-0.52 1.63999,-1.25333 2.36,-2.2 l 0,-9.68 c -0.64001,-0.85332 -1.34001,-1.44665 -2.1,-1.78 -0.76001,-0.34665 -1.60001,-0.51999 -2.52,-0.52 -1.82667,10e-6 -3.23334,0.65335 -4.22,1.96 -0.98667,1.30668 -1.48,3.20001 -1.48,5.68 0,1.29334 0.11333,2.4 0.34,3.32 0.22666,0.92 0.55333,1.68 0.98,2.28 0.42666,0.58667 0.94666,1.02 1.56,1.3 0.61333,0.26667 1.31333,0.4 2.1,0.4"
         id="path3083" />
    </g>
    <g
       id="text3153"
       style="font-size:32px;font-style:normal;font-variant:normal;font-weight:500;font-stretch:normal;text-align:center;line-height:125%;letter-spacing:0px;word-spacing:0px;writing-mode:lr-tb;text-anchor:middle;fill:#404040;fill-opacity:1;stroke:none;font-family:Lato;-inkscape-font-specification:Lato Medium">
      <path
         d="m 338.83172,681.454 0,2.768 -7.344,0 0,20.192 -3.296,0 0,-20.192 -7.36,0 0,-2.768 18,0"
         id="path3106" />
      <path
         d="m 343.85122,709.15 c -0.096,0.23466 -0.21868,0.41066 -0.368,0.528 -0.14935,0.128 -0.37868,0.192 -0.688,0.192 l -2.256,0 2.976,-6.448 -6.688,-15.248 2.64,0 c 0.25599,2e-5 0.45866,0.064 0.608,0.192 0.14932,0.11735 0.25066,0.25602 0.304,0.416 l 4.208,9.92 c 0.18132,0.49067 0.32532,0.97601 0.432,1.456 0.0746,-0.24533 0.15465,-0.49066 0.24,-0.736 0.0853,-0.25599 0.17599,-0.50666 0.272,-0.752 l 4.064,-9.888 c 0.064,-0.18132 0.17598,-0.32532 0.336,-0.432 0.15998,-0.11732 0.34131,-0.17598 0.544,-0.176 l 2.416,0 -9.04,20.976"
         id="path3108" />
      <path
         d="m 355.30972,709.87 0,-21.696 1.824,0 c 0.42666,2e-5 0.69332,0.20268 0.8,0.608 l 0.256,1.856 c 0.68266,-0.82132 1.46666,-1.48265 2.352,-1.984 0.89599,-0.51198 1.91999,-0.76798 3.072,-0.768 0.92798,2e-5 1.76532,0.18135 2.512,0.544 0.75731,0.35202 1.40265,0.88002 1.936,1.584 0.54398,0.70402 0.95998,1.57335 1.248,2.608 0.28798,1.02401 0.43198,2.20801 0.432,3.552 -2e-5,1.20534 -0.16002,2.32534 -0.48,3.36 -0.32002,1.02401 -0.78402,1.91467 -1.392,2.672 -0.60802,0.75734 -1.34402,1.35467 -2.208,1.792 -0.86402,0.42667 -1.84002,0.64 -2.928,0.64 -0.99201,0 -1.83468,-0.16 -2.528,-0.48 -0.69334,-0.32 -1.31201,-0.77866 -1.856,-1.376 l 0,7.088 -3.04,0 m 7.312,-19.536 c -0.91735,2e-5 -1.71735,0.20802 -2.4,0.624 -0.67201,0.40535 -1.29601,0.98668 -1.872,1.744 l 0,7.76 c 0.51199,0.672 1.06666,1.14667 1.664,1.424 0.60799,0.26667 1.28532,0.4 2.032,0.4 1.46132,0 2.58665,-0.52266 3.376,-1.568 0.78932,-1.04533 1.18398,-2.55999 1.184,-4.544 -2e-5,-1.03466 -0.0907,-1.91999 -0.272,-2.656 -0.18135,-0.73599 -0.44268,-1.33865 -0.784,-1.808 -0.34135,-0.47999 -0.75735,-0.82665 -1.248,-1.04 -0.49068,-0.22398 -1.05068,-0.33598 -1.68,-0.336"
         id="path3110" />
      <path
         d="m 380.01372,687.918 c 0.98132,2e-5 1.88798,0.16535 2.72,0.496 0.83198,0.32002 1.55198,0.78935 2.16,1.408 0.60798,0.61868 1.08265,1.38135 1.424,2.288 0.34131,0.89601 0.51198,1.92535 0.512,3.088 -2e-5,0.46934 -0.0534,0.78401 -0.16,0.944 -0.096,0.16001 -0.28269,0.24001 -0.56,0.24 l -10.72,0 c 0.032,0.99201 0.17066,1.85601 0.416,2.592 0.25599,0.73601 0.59732,1.34934 1.024,1.84 0.43732,0.48 0.95999,0.84267 1.568,1.088 0.60799,0.23467 1.28532,0.352 2.032,0.352 0.70399,0 1.30665,-0.08 1.808,-0.24 0.51198,-0.16 0.94932,-0.336 1.312,-0.528 0.37332,-0.192 0.68798,-0.368 0.944,-0.528 0.25598,-0.15999 0.47998,-0.23999 0.672,-0.24 0.25598,1e-5 0.44265,0.096 0.56,0.288 l 0.864,1.104 c -0.37335,0.448 -0.80535,0.832 -1.296,1.152 -0.49069,0.30934 -1.01868,0.57067 -1.584,0.784 -0.56535,0.20267 -1.15202,0.352 -1.76,0.448 -0.59735,0.096 -1.18935,0.144 -1.776,0.144 -1.12001,0 -2.16001,-0.18667 -3.12,-0.56 -0.94934,-0.384 -1.77068,-0.93866 -2.464,-1.664 -0.69334,-0.736 -1.23734,-1.64266 -1.632,-2.72 -0.38401,-1.08799 -0.57601,-2.33599 -0.576,-3.744 -10e-6,-1.13066 0.17599,-2.18132 0.528,-3.152 0.35199,-0.98132 0.85333,-1.82932 1.504,-2.544 0.66132,-0.72532 1.46132,-1.29598 2.4,-1.712 0.94932,-0.41598 2.01599,-0.62398 3.2,-0.624 m 0.048,2.224 c -1.33335,2e-5 -2.38401,0.38935 -3.152,1.168 -0.75734,0.76801 -1.23201,1.83468 -1.424,3.2 l 8.624,0 c -2e-5,-0.63999 -0.0907,-1.22665 -0.272,-1.76 -0.18135,-0.53332 -0.44802,-0.99199 -0.8,-1.376 -0.34135,-0.38399 -0.76268,-0.68265 -1.264,-0.896 -0.50135,-0.22398 -1.07201,-0.33598 -1.712,-0.336"
         id="path3112" />
    </g>
    <g
       id="text3159"
       style="font-size:32px;font-style:normal;font-variant:normal;font-weight:500;font-stretch:normal;text-align:center;line-height:125%;letter-spacing:0px;word-spacing:0px;writing-mode:lr-tb;text-anchor:middle;fill:#404040;fill-opacity:1;stroke:none;font-family:Lato;-inkscape-font-specification:Lato Medium">
      <path
         d="m 417.02891,709.87006 -3.312,0 0,-22.96 3.312,0 0,22.96"
         id="path3101" />
      <path
         d="m 442.76341,698.38206 c -3e-5,1.71734 -0.27736,3.28534 -0.832,4.704 -0.54403,1.408 -1.31736,2.61867 -2.32,3.632 -0.99202,1.00266 -2.18669,1.78133 -3.584,2.336 -1.39735,0.544 -2.94402,0.816 -4.64,0.816 l -8.608,0 0,-22.96 8.608,0 c 1.69598,2e-5 3.24265,0.27735 4.64,0.832 1.39731,0.55468 2.59198,1.33335 3.584,2.336 1.00264,1.00268 1.77597,2.21335 2.32,3.632 0.55464,1.40801 0.83197,2.96534 0.832,4.672 m -3.376,0 c -2e-5,-1.37599 -0.18669,-2.60799 -0.56,-3.696 -0.37336,-1.09865 -0.91202,-2.02132 -1.616,-2.768 -0.69335,-0.75732 -1.53602,-1.33332 -2.528,-1.728 -0.98135,-0.40532 -2.08002,-0.60798 -3.296,-0.608 l -5.296,0 0,17.616 5.296,0 c 1.21598,0 2.31465,-0.19733 3.296,-0.592 0.99198,-0.40533 1.83465,-0.98133 2.528,-1.728 0.70398,-0.75733 1.24264,-1.68 1.616,-2.768 0.37331,-1.09866 0.55998,-2.34133 0.56,-3.728"
         id="path3103" />
    </g>
    <g
       id="text3165"
       style="font-size:32px;font-style:normal;font-variant:normal;font-weight:500;font-stretch:normal;text-align:center;line-height:125%;letter-spacing:0px;word-spacing:0px;writing-mode:lr-tb;text-anchor:middle;fill:#404040;fill-opacity:1;stroke:none;font-family:Lato;-inkscape-font-specification:Lato Medium">
      <path
         d="m 623.1664,704.75001 c 0.18132,10e-6 0.34132,0.0693 0.48,0.208 l 1.312,1.44 c -0.93868,1.09867 -2.08535,1.952 -3.44,2.56 -1.34401,0.608 -2.96001,0.912 -4.848,0.912 -1.66401,0 -3.17334,-0.288 -4.528,-0.864 -1.344,-0.576 -2.496,-1.38133 -3.456,-2.416 -0.94933,-1.03466 -1.68533,-2.27199 -2.208,-3.712 -0.512,-1.43999 -0.768,-3.02399 -0.768,-4.752 0,-1.72798 0.272,-3.31198 0.816,-4.752 0.544,-1.43998 1.312,-2.67198 2.304,-3.696 0.992,-1.03464 2.176,-1.83997 3.552,-2.416 1.38666,-0.57597 2.91199,-0.86397 4.576,-0.864 1.63199,3e-5 3.07732,0.26669 4.336,0.8 1.26932,0.53336 2.37332,1.24269 3.312,2.128 l -1.088,1.536 c -0.0747,0.10669 -0.16535,0.19736 -0.272,0.272 -0.096,0.064 -0.23468,0.096 -0.416,0.096 -0.20268,2e-5 -0.44268,-0.10131 -0.72,-0.304 -0.26668,-0.20264 -0.62401,-0.42664 -1.072,-0.672 -0.43735,-0.25598 -0.98668,-0.48531 -1.648,-0.688 -0.66134,-0.20264 -1.47734,-0.30398 -2.448,-0.304 -1.15201,2e-5 -2.21334,0.20269 -3.184,0.608 -0.96001,0.40536 -1.78667,0.98669 -2.48,1.744 -0.69334,0.75735 -1.232,1.68535 -1.616,2.784 -0.384,1.09868 -0.576,2.34135 -0.576,3.728 0,1.40801 0.19733,2.66668 0.592,3.776 0.40533,1.09868 0.95466,2.02668 1.648,2.784 0.704,0.75734 1.53066,1.33867 2.48,1.744 0.94933,0.39467 1.96799,0.59201 3.056,0.592 0.67199,10e-6 1.27466,-0.0373 1.808,-0.112 0.53332,-0.0853 1.02399,-0.20799 1.472,-0.368 0.45865,-0.15999 0.88532,-0.36799 1.28,-0.624 0.39465,-0.25599 0.78932,-0.55999 1.184,-0.912 0.0853,-0.0747 0.17065,-0.13332 0.256,-0.176 0.096,-0.0533 0.19732,-0.08 0.304,-0.08"
         id="path3086" />
      <path
         d="m 634.4049,693.11801 c 1.19466,2e-5 2.27199,0.19735 3.232,0.592 0.95999,0.38402 1.77599,0.93869 2.448,1.664 0.67199,0.72535 1.18932,1.60535 1.552,2.64 0.36265,1.02401 0.54399,2.17601 0.544,3.456 -10e-6,1.28001 -0.18135,2.43734 -0.544,3.472 -0.36268,1.03467 -0.88001,1.91467 -1.552,2.64 -0.67201,0.72534 -1.48801,1.28534 -2.448,1.68 -0.96001,0.384 -2.03734,0.576 -3.232,0.576 -1.19467,0 -2.27734,-0.192 -3.248,-0.576 -0.96,-0.39466 -1.78133,-0.95466 -2.464,-1.68 -0.672,-0.72533 -1.18933,-1.60533 -1.552,-2.64 -0.36266,-1.03466 -0.544,-2.19199 -0.544,-3.472 0,-1.27999 0.18134,-2.43199 0.544,-3.456 0.36267,-1.03465 0.88,-1.91465 1.552,-2.64 0.68267,-0.72531 1.504,-1.27998 2.464,-1.664 0.97066,-0.39465 2.05333,-0.59198 3.248,-0.592 m 0,14.352 c 1.55733,10e-6 2.71999,-0.52266 3.488,-1.568 0.76799,-1.04532 1.15199,-2.51732 1.152,-4.416 -10e-6,-1.88799 -0.38401,-3.35998 -1.152,-4.416 -0.76801,-1.05598 -1.93067,-1.58398 -3.488,-1.584 -1.57867,2e-5 -2.75734,0.52802 -3.536,1.584 -0.768,1.05602 -1.152,2.52801 -1.152,4.416 0,1.89868 0.384,3.37068 1.152,4.416 0.77866,1.04534 1.95733,1.56801 3.536,1.568"
         id="path3088" />
      <path
         d="m 645.6964,709.61401 0,-16.24 1.824,0 c 0.42667,2e-5 0.69333,0.20269 0.8,0.608 l 0.224,1.68 c 0.704,-0.75731 1.488,-1.37065 2.352,-1.84 0.864,-0.46931 1.86133,-0.70398 2.992,-0.704 0.88533,2e-5 1.66399,0.14935 2.336,0.448 0.68266,0.29869 1.25332,0.72002 1.712,1.264 0.45866,0.53335 0.80532,1.17868 1.04,1.936 0.23465,0.74668 0.35199,1.57868 0.352,2.496 l 0,10.352 -3.04,0 0,-10.352 c -10e-6,-1.17332 -0.27201,-2.08532 -0.816,-2.736 -0.54401,-0.66132 -1.37067,-0.99198 -2.48,-0.992 -0.82134,2e-5 -1.584,0.19202 -2.288,0.576 -0.704,0.38402 -1.36,0.91202 -1.968,1.584 l 0,11.92 -3.04,0"
         id="path3090" />
      <path
         d="m 668.3774,709.87001 c -1.30134,0 -2.304,-0.36266 -3.008,-1.088 -0.704,-0.72533 -1.056,-1.77066 -1.056,-3.136 l 0,-9.792 -1.904,0 c -0.18133,2e-5 -0.33066,-0.0533 -0.448,-0.16 -0.11733,-0.11732 -0.176,-0.28265 -0.176,-0.496 l 0,-1.216 2.64,-0.352 0.688,-4.912 c 0.0427,-0.17064 0.12267,-0.30398 0.24,-0.4 0.11733,-0.10664 0.272,-0.15997 0.464,-0.16 l 1.536,0 0,5.488 4.624,0 0,2.208 -4.624,0 0,9.584 c 0,0.65067 0.15466,1.14134 0.464,1.472 0.32,0.32001 0.736,0.48001 1.248,0.48 0.288,1e-5 0.53866,-0.0373 0.752,-0.112 0.21333,-0.0747 0.39466,-0.15999 0.544,-0.256 0.14933,-0.096 0.27733,-0.18133 0.384,-0.256 0.11733,-0.0747 0.21866,-0.11199 0.304,-0.112 0.096,10e-6 0.17066,0.0213 0.224,0.064 0.064,0.0427 0.12799,0.11734 0.192,0.224 l 0.896,1.456 c -0.51201,0.46934 -1.12001,0.832 -1.824,1.088 -0.69334,0.256 -1.41334,0.384 -2.16,0.384"
         id="path3092" />
      <path
         d="m 681.5879,693.11801 c 0.98133,2e-5 1.88799,0.16535 2.72,0.496 0.83199,0.32002 1.55199,0.78935 2.16,1.408 0.60799,0.61868 1.08266,1.38135 1.424,2.288 0.34132,0.89602 0.51199,1.92535 0.512,3.088 -10e-6,0.46935 -0.0534,0.78401 -0.16,0.944 -0.096,0.16001 -0.28268,0.24001 -0.56,0.24 l -10.72,0 c 0.032,0.99201 0.17067,1.85601 0.416,2.592 0.256,0.73601 0.59733,1.34934 1.024,1.84 0.43733,0.48001 0.96,0.84267 1.568,1.088 0.608,0.23467 1.28533,0.35201 2.032,0.352 0.70399,10e-6 1.30666,-0.08 1.808,-0.24 0.51199,-0.15999 0.94932,-0.33599 1.312,-0.528 0.37332,-0.19199 0.68799,-0.36799 0.944,-0.528 0.25599,-0.15999 0.47999,-0.23999 0.672,-0.24 0.25599,10e-6 0.44266,0.096 0.56,0.288 l 0.864,1.104 c -0.37335,0.44801 -0.80534,0.83201 -1.296,1.152 -0.49068,0.30934 -1.01868,0.57067 -1.584,0.784 -0.56534,0.20267 -1.15201,0.352 -1.76,0.448 -0.59734,0.096 -1.18934,0.144 -1.776,0.144 -1.12,0 -2.16,-0.18666 -3.12,-0.56 -0.94934,-0.384 -1.77067,-0.93866 -2.464,-1.664 -0.69333,-0.73599 -1.23733,-1.64266 -1.632,-2.72 -0.384,-1.08799 -0.576,-2.33599 -0.576,-3.744 0,-1.13065 0.176,-2.18132 0.528,-3.152 0.352,-0.98132 0.85333,-1.82932 1.504,-2.544 0.66133,-0.72531 1.46133,-1.29598 2.4,-1.712 0.94933,-0.41598 2.016,-0.62398 3.2,-0.624 m 0.048,2.224 c -1.33334,2e-5 -2.384,0.38935 -3.152,1.168 -0.75734,0.76802 -1.232,1.83468 -1.424,3.2 l 8.624,0 c -10e-6,-0.63999 -0.0907,-1.22665 -0.272,-1.76 -0.18134,-0.53332 -0.44801,-0.99198 -0.8,-1.376 -0.34134,-0.38398 -0.76267,-0.68265 -1.264,-0.896 -0.50134,-0.22398 -1.07201,-0.33598 -1.712,-0.336"
         id="path3094" />
      <path
         d="m 691.8214,709.61401 0,-16.24 1.824,0 c 0.42667,2e-5 0.69333,0.20269 0.8,0.608 l 0.224,1.68 c 0.704,-0.75731 1.488,-1.37065 2.352,-1.84 0.864,-0.46931 1.86133,-0.70398 2.992,-0.704 0.88533,2e-5 1.66399,0.14935 2.336,0.448 0.68266,0.29869 1.25332,0.72002 1.712,1.264 0.45866,0.53335 0.80532,1.17868 1.04,1.936 0.23465,0.74668 0.35199,1.57868 0.352,2.496 l 0,10.352 -3.04,0 0,-10.352 c -10e-6,-1.17332 -0.27201,-2.08532 -0.816,-2.736 -0.54401,-0.66132 -1.37067,-0.99198 -2.48,-0.992 -0.82134,2e-5 -1.584,0.19202 -2.288,0.576 -0.704,0.38402 -1.36,0.91202 -1.968,1.584 l 0,11.92 -3.04,0"
         id="path3096" />
      <path
         d="m 714.5024,709.87001 c -1.30134,0 -2.304,-0.36266 -3.008,-1.088 -0.704,-0.72533 -1.056,-1.77066 -1.056,-3.136 l 0,-9.792 -1.904,0 c -0.18133,2e-5 -0.33066,-0.0533 -0.448,-0.16 -0.11733,-0.11732 -0.176,-0.28265 -0.176,-0.496 l 0,-1.216 2.64,-0.352 0.688,-4.912 c 0.0427,-0.17064 0.12267,-0.30398 0.24,-0.4 0.11733,-0.10664 0.272,-0.15997 0.464,-0.16 l 1.536,0 0,5.488 4.624,0 0,2.208 -4.624,0 0,9.584 c 0,0.65067 0.15466,1.14134 0.464,1.472 0.32,0.32001 0.736,0.48001 1.248,0.48 0.288,1e-5 0.53866,-0.0373 0.752,-0.112 0.21333,-0.0747 0.39466,-0.15999 0.544,-0.256 0.14933,-0.096 0.27733,-0.18133 0.384,-0.256 0.11733,-0.0747 0.21866,-0.11199 0.304,-0.112 0.096,10e-6 0.17066,0.0213 0.224,0.064 0.064,0.0427 0.12799,0.11734 0.192,0.224 l 0.896,1.456 c -0.51201,0.46934 -1.12001,0.832 -1.824,1.088 -0.69334,0.256 -1.41334,0.384 -2.16,0.384"
         id="path3098" />
    </g>
    <g
       id="text4097"
       style="font-size:40px;font-style:normal;font-variant:normal;font-weight:normal;font-stretch:normal;text-align:start;line-height:125%;letter-spacing:0px;word-spacing:0px;writing-mode:lr-tb;text-anchor:start;fill:#216a7f;fill-opacity:1;stroke:none;font-family:Consolas;-inkscape-font-specification:Consolas">
      <path
         d="m 335.62061,789.01062 -9.62891,0 0,-36.28906 9.62891,0 0,2.73437 -6.38672,0 0,30.82032 6.38672,0 0,2.73437"
         id="path3115" />
      <path
         d="m 360.75732,781.00281 -16.03515,0 0,-3.16406 6.5625,0 0,-18.63282 -6.11328,3.32032 -1.25,-2.89063 8.125,-4.27734 3.00781,0 0,22.48047 5.70312,0 0,3.16406"
         id="path3117" />
      <path
         d="m 367.96436,785.00671 c 0.66405,0.026 1.30858,-0.0326 1.93359,-0.17578 0.62499,-0.14323 1.17187,-0.35807 1.64062,-0.64453 0.48177,-0.27344 0.86588,-0.61849 1.15235,-1.03515 0.28645,-0.41667 0.42968,-0.89193 0.42969,-1.42579 -10e-6,-0.54687 -0.0977,-0.98958 -0.29297,-1.32812 -0.1823,-0.33854 -0.39064,-0.65104 -0.625,-0.9375 -0.23439,-0.28646 -0.44923,-0.59245 -0.64453,-0.91797 -0.1823,-0.32552 -0.27345,-0.76172 -0.27344,-1.30859 -1e-5,-0.27344 0.0521,-0.5599 0.15625,-0.85938 0.10416,-0.29947 0.26041,-0.57291 0.46875,-0.82031 0.22134,-0.24739 0.49478,-0.44921 0.82031,-0.60547 0.33853,-0.15624 0.73567,-0.23437 1.19141,-0.23437 0.45571,0 0.89191,0.0977 1.30859,0.29296 0.42968,0.1823 0.80077,0.46876 1.11328,0.85938 0.32551,0.39063 0.57942,0.87891 0.76172,1.46484 0.1953,0.58594 0.29296,1.27605 0.29297,2.07032 -10e-6,1.08072 -0.20184,2.11588 -0.60547,3.10546 -0.39064,1.00261 -0.98308,1.88802 -1.77734,2.65625 -0.78126,0.76823 -1.76434,1.38021 -2.94922,1.83594 -1.17188,0.45572 -2.53907,0.68359 -4.10156,0.6836 l 0,-2.67579"
         id="path3119" />
      <path
         d="m 428.33545,775.35828 -4.35547,0 0,5.64453 -3.47656,0 0,-5.64453 -12.28516,0 0,-2.98828 10.87891,-16.89454 4.88281,0 0,16.89454 4.35547,0 0,2.98828 m -7.83203,-16.60157 -8.88672,13.61329 8.88672,0 0,-13.61329"
         id="path3121" />
      <path
         d="m 449.09717,781.00281 -16.81641,0 0,-3.04688 6.60156,-6.5625 c 1.08072,-1.0677 1.95963,-1.99217 2.63672,-2.77343 0.67707,-0.78124 1.20442,-1.49088 1.58203,-2.12891 0.37759,-0.65103 0.6315,-1.26301 0.76172,-1.83594 0.1302,-0.5729 0.1953,-1.19139 0.19532,-1.85547 -2e-5,-0.62498 -0.0847,-1.21743 -0.25391,-1.77734 -0.16929,-0.5729 -0.4297,-1.0742 -0.78125,-1.50391 -0.35158,-0.42966 -0.80731,-0.7682 -1.36719,-1.01562 -0.55991,-0.24738 -1.23048,-0.37107 -2.01172,-0.3711 -1.08074,3e-5 -2.06381,0.24091 -2.94922,0.72266 -0.88542,0.48179 -1.69922,1.10679 -2.4414,1.875 l -1.875,-2.24609 c 0.96354,-1.01561 2.07031,-1.82941 3.32031,-2.44141 1.26301,-0.61195 2.72786,-0.91794 4.39453,-0.91797 1.1328,3e-5 2.16145,0.1693 3.08594,0.50781 0.93748,0.33857 1.74478,0.82685 2.42187,1.46485 0.67707,0.63804 1.1979,1.41929 1.5625,2.34375 0.37759,0.9245 0.56639,1.96616 0.56641,3.125 -2e-5,0.97658 -0.13023,1.88152 -0.39062,2.71484 -0.26044,0.83335 -0.65757,1.66668 -1.19141,2.5 -0.52085,0.82033 -1.18491,1.67319 -1.99219,2.5586 -0.79428,0.88542 -1.73829,1.85547 -2.83203,2.91015 l -4.62891,4.51172 12.40235,0 0,3.24219"
         id="path3123" />
      <path
         d="m 456.08936,785.00671 c 0.66405,0.026 1.30858,-0.0326 1.93359,-0.17578 0.62499,-0.14323 1.17187,-0.35807 1.64062,-0.64453 0.48177,-0.27344 0.86588,-0.61849 1.15235,-1.03515 0.28645,-0.41667 0.42968,-0.89193 0.42969,-1.42579 -10e-6,-0.54687 -0.0977,-0.98958 -0.29297,-1.32812 -0.1823,-0.33854 -0.39064,-0.65104 -0.625,-0.9375 -0.23439,-0.28646 -0.44923,-0.59245 -0.64453,-0.91797 -0.1823,-0.32552 -0.27345,-0.76172 -0.27344,-1.30859 -1e-5,-0.27344 0.0521,-0.5599 0.15625,-0.85938 0.10416,-0.29947 0.26041,-0.57291 0.46875,-0.82031 0.22134,-0.24739 0.49478,-0.44921 0.82031,-0.60547 0.33853,-0.15624 0.73567,-0.23437 1.19141,-0.23437 0.45571,0 0.89191,0.0977 1.30859,0.29296 0.42968,0.1823 0.80077,0.46876 1.11328,0.85938 0.32551,0.39063 0.57942,0.87891 0.76172,1.46484 0.1953,0.58594 0.29296,1.27605 0.29297,2.07032 -10e-6,1.08072 -0.20184,2.11588 -0.60547,3.10546 -0.39064,1.00261 -0.98308,1.88802 -1.77734,2.65625 -0.78126,0.76823 -1.76434,1.38021 -2.94922,1.83594 -1.17188,0.45572 -2.53907,0.68359 -4.10156,0.6836 l 0,-2.67579"
         id="path3125" />
      <path
         d="m 504.85889,753.40515 -0.54688,9.16016 -3.20312,0 -0.56641,-9.16016 4.31641,0 m 7.59765,0 -0.54687,9.16016 -3.20313,0 -0.5664,-9.16016 4.3164,0"
         id="path3127" />
      <path
         d="m 537.37842,781.00281 -3.47656,0 0,-11.71875 -10.72266,0 0,11.71875 -3.47656,0 0,-25.52735 3.47656,0 0,10.80079 10.72266,0 0,-10.80079 3.47656,0 0,25.52735"
         id="path3129" />
      <path
         d="m 559.25342,770.16296 c -2e-5,0.48179 -0.007,0.88543 -0.0195,1.21094 -0.013,0.32553 -0.0326,0.63152 -0.0586,0.91797 l -13.76953,0 c 0,2.00522 0.55989,3.54818 1.67969,4.62891 1.11978,1.06771 2.73436,1.60156 4.84375,1.60156 0.5729,0 1.14582,-0.0195 1.71875,-0.0586 0.5729,-0.0521 1.12629,-0.11719 1.66016,-0.19532 0.53383,-0.0781 1.04165,-0.16275 1.52343,-0.2539 0.49478,-0.10417 0.95051,-0.21484 1.36719,-0.33203 l 0,2.79296 c -0.9245,0.26042 -1.97267,0.46875 -3.14453,0.625 -1.15887,0.16927 -2.3633,0.25391 -3.61328,0.25391 -1.6797,0 -3.12501,-0.22786 -4.33594,-0.68359 -1.21094,-0.45573 -2.20704,-1.11328 -2.98828,-1.97266 -0.76823,-0.87239 -1.34115,-1.93359 -1.71875,-3.18359 -0.36459,-1.26302 -0.54688,-2.6888 -0.54688,-4.27735 0,-1.38019 0.19531,-2.68228 0.58594,-3.90625 0.40364,-1.23696 0.98307,-2.31769 1.73828,-3.24218 0.76823,-0.93749 1.70573,-1.67967 2.8125,-2.22657 1.10677,-0.54685 2.36327,-0.82029 3.76953,-0.82031 1.36718,2e-5 2.57812,0.21486 3.63282,0.64453 1.05467,0.42971 1.94008,1.04169 2.65625,1.83594 0.72915,0.78127 1.27602,1.7383 1.64062,2.87109 0.37759,1.11981 0.56639,2.37632 0.56641,3.76953 m -3.53516,-0.48828 c 0.039,-0.87238 -0.0456,-1.66665 -0.2539,-2.38281 -0.20835,-0.72915 -0.53387,-1.35415 -0.97657,-1.875 -0.4297,-0.52082 -0.97006,-0.92446 -1.62109,-1.21094 -0.65106,-0.29946 -1.40626,-0.4492 -2.26563,-0.44922 -0.74219,2e-5 -1.41928,0.14325 -2.03125,0.42969 -0.61198,0.28648 -1.13933,0.69012 -1.58203,1.21094 -0.44271,0.52085 -0.80078,1.14585 -1.07422,1.875 -0.27344,0.72918 -0.44271,1.52996 -0.50781,2.40234 l 10.3125,0"
         id="path3131" />
      <path
         d="m 571.40186,756.19812 -5.80079,0 0,-2.79297 9.23829,0 0,24.76563 5.83984,0 0,2.83203 -15.72266,0 0,-2.83203 6.44532,0 0,-21.97266"
         id="path3133" />
      <path
         d="m 593.43311,756.19812 -5.80079,0 0,-2.79297 9.23829,0 0,24.76563 5.83984,0 0,2.83203 -15.72266,0 0,-2.83203 6.44532,0 0,-21.97266"
         id="path3135" />
      <path
         d="m 625.85498,771.04187 c -2e-5,1.52345 -0.21486,2.92318 -0.64453,4.19922 -0.42971,1.26302 -1.0482,2.35026 -1.85547,3.26172 -0.80731,0.89844 -1.79038,1.60156 -2.94922,2.10937 -1.15887,0.49479 -2.47397,0.74219 -3.94531,0.74219 -1.40626,0 -2.66928,-0.21484 -3.78906,-0.64453 -1.10678,-0.44271 -2.05079,-1.08724 -2.83203,-1.93359 -0.76824,-0.84636 -1.36068,-1.89453 -1.77735,-3.14454 -0.40365,-1.24999 -0.60547,-2.68879 -0.60547,-4.3164 0,-1.52343 0.21484,-2.91015 0.64453,-4.16016 0.42969,-1.263 1.04818,-2.34373 1.85547,-3.24219 0.80729,-0.91144 1.79036,-1.61456 2.94922,-2.10937 1.15885,-0.50779 2.47395,-0.7617 3.94531,-0.76172 1.40624,2e-5 2.66275,0.22137 3.76954,0.66406 1.11977,0.42971 2.06378,1.06773 2.83203,1.91407 0.78123,0.83335 1.37368,1.87501 1.77734,3.125 0.41665,1.25001 0.62498,2.6823 0.625,4.29687 m -3.47656,0.15625 c -2e-5,-1.21093 -0.13674,-2.26561 -0.41016,-3.16406 -0.26043,-0.91145 -0.63803,-1.66665 -1.13281,-2.26563 -0.49481,-0.61196 -1.10028,-1.06769 -1.81641,-1.36718 -0.70313,-0.31249 -1.49089,-0.46874 -2.36328,-0.46875 -1.01563,10e-6 -1.88803,0.20183 -2.61719,0.60546 -0.71615,0.39064 -1.3086,0.91799 -1.77734,1.58204 -0.45573,0.66407 -0.79428,1.43881 -1.01562,2.32421 -0.20834,0.87241 -0.31251,1.79038 -0.3125,2.75391 -1e-5,1.21095 0.1302,2.27214 0.39062,3.18359 0.27343,0.91147 0.65755,1.67319 1.15234,2.28516 0.49479,0.59896 1.09375,1.05469 1.79688,1.36719 0.70311,0.29948 1.49738,0.44922 2.38281,0.44922 1.01561,0 1.8815,-0.19531 2.59766,-0.58594 0.72915,-0.40364 1.3216,-0.9375 1.77734,-1.60156 0.46874,-0.66406 0.80728,-1.43229 1.01563,-2.30469 0.22133,-0.88541 0.33201,-1.8164 0.33203,-2.79297"
         id="path3137" />
      <path
         d="m 666.83154,781.00281 0,-14.08203 c -10e-6,-0.61197 -0.0261,-1.11327 -0.0781,-1.50391 -0.0391,-0.39061 -0.1107,-0.6966 -0.21485,-0.91797 -0.0912,-0.23436 -0.21486,-0.39712 -0.37109,-0.48828 -0.14325,-0.0911 -0.32554,-0.1367 -0.54687,-0.13672 -0.26044,2e-5 -0.50132,0.0781 -0.72266,0.23438 -0.22137,0.15626 -0.46226,0.41017 -0.72266,0.76172 -0.24741,0.35157 -0.52735,0.82032 -0.83984,1.40625 -0.29949,0.57293 -0.65757,1.28256 -1.07422,2.1289 l 0,12.59766 -3.10547,0 0,-13.71094 c -1e-5,-0.71613 -0.026,-1.29556 -0.0781,-1.73828 -0.0391,-0.44269 -0.11069,-0.78775 -0.21485,-1.03516 -0.0911,-0.24738 -0.21485,-0.41665 -0.37109,-0.50781 -0.15626,-0.0911 -0.34506,-0.1367 -0.56641,-0.13672 -0.23438,2e-5 -0.45573,0.0651 -0.66406,0.19531 -0.20834,0.13023 -0.44271,0.3646 -0.70312,0.70313 -0.24741,0.33856 -0.52735,0.8008 -0.83985,1.38672 -0.3125,0.58595 -0.6836,1.33465 -1.11328,2.24609 l 0,12.59766 -3.125,0 0,-19.60938 2.59766,0 0.15625,3.73047 c 0.33853,-0.74217 0.66405,-1.37368 0.97656,-1.89453 0.32551,-0.52081 0.65755,-0.93748 0.99609,-1.25 0.33854,-0.3255 0.69661,-0.55988 1.07422,-0.70312 0.39062,-0.15624 0.82031,-0.23436 1.28906,-0.23438 1.05468,2e-5 1.85546,0.34507 2.40235,1.03516 0.54686,0.69012 0.8203,1.75783 0.82031,3.20312 0.31249,-0.67707 0.61848,-1.27602 0.91797,-1.79687 0.29947,-0.53384 0.61848,-0.97655 0.95703,-1.32813 0.35155,-0.36456 0.73566,-0.638 1.15234,-0.82031 0.41666,-0.19529 0.89843,-0.29295 1.44532,-0.29297 2.46092,2e-5 3.69138,1.89455 3.6914,5.68359 l 0,14.27735 -3.125,0"
         id="path3139" />
      <path
         d="m 691.94873,771.04187 c -2e-5,1.52345 -0.21486,2.92318 -0.64453,4.19922 -0.42971,1.26302 -1.0482,2.35026 -1.85547,3.26172 -0.80731,0.89844 -1.79038,1.60156 -2.94922,2.10937 -1.15887,0.49479 -2.47397,0.74219 -3.94531,0.74219 -1.40626,0 -2.66928,-0.21484 -3.78906,-0.64453 -1.10678,-0.44271 -2.05079,-1.08724 -2.83203,-1.93359 -0.76824,-0.84636 -1.36068,-1.89453 -1.77735,-3.14454 -0.40365,-1.24999 -0.60547,-2.68879 -0.60547,-4.3164 0,-1.52343 0.21484,-2.91015 0.64453,-4.16016 0.42969,-1.263 1.04818,-2.34373 1.85547,-3.24219 0.80729,-0.91144 1.79036,-1.61456 2.94922,-2.10937 1.15885,-0.50779 2.47395,-0.7617 3.94531,-0.76172 1.40624,2e-5 2.66275,0.22137 3.76954,0.66406 1.11977,0.42971 2.06378,1.06773 2.83203,1.91407 0.78123,0.83335 1.37368,1.87501 1.77734,3.125 0.41665,1.25001 0.62498,2.6823 0.625,4.29687 m -3.47656,0.15625 c -2e-5,-1.21093 -0.13674,-2.26561 -0.41016,-3.16406 -0.26043,-0.91145 -0.63803,-1.66665 -1.13281,-2.26563 -0.49481,-0.61196 -1.10028,-1.06769 -1.81641,-1.36718 -0.70313,-0.31249 -1.49089,-0.46874 -2.36328,-0.46875 -1.01563,10e-6 -1.88803,0.20183 -2.61719,0.60546 -0.71615,0.39064 -1.3086,0.91799 -1.77734,1.58204 -0.45573,0.66407 -0.79428,1.43881 -1.01562,2.32421 -0.20834,0.87241 -0.31251,1.79038 -0.3125,2.75391 -1e-5,1.21095 0.1302,2.27214 0.39062,3.18359 0.27343,0.91147 0.65755,1.67319 1.15234,2.28516 0.49479,0.59896 1.09375,1.05469 1.79688,1.36719 0.70311,0.29948 1.49738,0.44922 2.38281,0.44922 1.01561,0 1.8815,-0.19531 2.59766,-0.58594 0.72915,-0.40364 1.3216,-0.9375 1.77734,-1.60156 0.46874,-0.66406 0.80728,-1.43229 1.01563,-2.30469 0.22133,-0.88541 0.33201,-1.8164 0.33203,-2.79297"
         id="path3141" />
      <path
         d="m 712.43701,775.65125 c -2e-5,0.6901 -0.1172,1.30859 -0.35156,1.85546 -0.23439,0.54688 -0.5534,1.03516 -0.95703,1.46485 -0.40366,0.41667 -0.87241,0.77474 -1.40625,1.07422 -0.53387,0.29948 -1.10679,0.54687 -1.71875,0.74218 -0.59897,0.19532 -1.21746,0.33855 -1.85547,0.42969 -0.63803,0.0911 -1.26303,0.13672 -1.875,0.13672 -1.32813,0 -2.55209,-0.0586 -3.67188,-0.17578 -1.10677,-0.11719 -2.19401,-0.30599 -3.26171,-0.56641 l 0,-3.125 c 1.14582,0.32553 2.28515,0.57292 3.41796,0.74219 1.13281,0.16927 2.25911,0.25391 3.37891,0.25391 1.62759,0 2.83202,-0.22136 3.61328,-0.66407 0.78124,-0.4427 1.17186,-1.07421 1.17188,-1.89453 -2e-5,-0.35155 -0.0651,-0.66405 -0.19532,-0.9375 -0.1172,-0.28645 -0.33855,-0.55338 -0.66406,-0.80078 -0.32553,-0.26041 -0.83335,-0.52734 -1.52344,-0.80078 -0.67709,-0.27343 -1.60808,-0.58593 -2.79296,-0.9375 -0.88543,-0.26041 -1.70574,-0.55338 -2.46094,-0.87891 -0.7422,-0.33853 -1.38673,-0.73566 -1.9336,-1.1914 -0.54688,-0.45572 -0.97656,-0.98957 -1.28906,-1.60156 -0.3125,-0.61197 -0.46875,-1.33463 -0.46875,-2.16797 0,-0.54686 0.1237,-1.14582 0.3711,-1.79688 0.26041,-0.65102 0.69661,-1.25649 1.30859,-1.8164 0.61197,-0.55988 1.43879,-1.02212 2.48047,-1.38672 1.04166,-0.37759 2.34374,-0.56639 3.90625,-0.56641 0.76821,2e-5 1.62108,0.0456 2.55859,0.13672 0.93749,0.0781 1.91405,0.22137 2.92969,0.42969 l 0,3.02734 c -1.06773,-0.2604 -2.08335,-0.4492 -3.04688,-0.56641 -0.95053,-0.13019 -1.77735,-0.19529 -2.48046,-0.19531 -0.84637,2e-5 -1.56251,0.0651 -2.14844,0.19531 -0.57293,0.13023 -1.04168,0.31252 -1.40625,0.54688 -0.35157,0.22137 -0.60548,0.4883 -0.76172,0.80078 -0.15626,0.29949 -0.23438,0.62502 -0.23438,0.97656 0,0.35158 0.0651,0.67059 0.19532,0.95703 0.14322,0.28648 0.39712,0.56642 0.76172,0.83985 0.37759,0.26043 0.89842,0.52735 1.5625,0.80078 0.66405,0.26043 1.52993,0.54689 2.59765,0.85937 1.15884,0.33856 2.1354,0.69663 2.92969,1.07422 0.79425,0.3646 1.43878,0.77475 1.93359,1.23047 0.49478,0.45574 0.84634,0.97006 1.05469,1.54297 0.22134,0.57292 0.33201,1.22396 0.33203,1.95313"
         id="path3143" />
      <path
         d="m 731.53857,781.00281 -0.0781,-2.63672 c -1.06772,1.05469 -2.15496,1.81641 -3.26172,2.28516 -1.09376,0.46875 -2.2461,0.70312 -3.45703,0.70312 -1.1198,0 -2.07683,-0.14323 -2.87109,-0.42969 -0.79428,-0.28646 -1.45183,-0.67708 -1.97266,-1.17187 -0.50782,-0.50781 -0.88542,-1.10026 -1.13281,-1.77735 -0.23438,-0.67708 -0.35157,-1.41275 -0.35157,-2.20703 0,-1.96614 0.72917,-3.50259 2.1875,-4.60937 1.47135,-1.11978 3.63932,-1.67968 6.50391,-1.67969 l 4.0625,0 0,-1.71875 c -10e-6,-1.15884 -0.37111,-2.08332 -1.11328,-2.77344 -0.7422,-0.70311 -1.87501,-1.05467 -3.39844,-1.05468 -1.10678,10e-6 -2.20053,0.12371 -3.28125,0.37109 -1.06771,0.24741 -2.17448,0.59897 -3.32031,1.05469 l 0,-3.06641 c 0.42968,-0.15623 0.90494,-0.30597 1.42578,-0.44922 0.53385,-0.15623 1.09374,-0.29295 1.67969,-0.41015 0.58593,-0.11717 1.19791,-0.20832 1.83594,-0.27344 0.63801,-0.0781 1.28254,-0.11717 1.93359,-0.11719 1.18488,2e-5 2.25259,0.13023 3.20312,0.39063 0.95051,0.26043 1.75129,0.65757 2.40235,1.1914 0.66404,0.53387 1.17186,1.20445 1.52344,2.01172 0.35154,0.80731 0.52732,1.75783 0.52734,2.85156 l 0,13.51563 -3.04688,0 m -0.37109,-8.92578 -4.31641,0 c -0.84636,10e-6 -1.57553,0.0846 -2.1875,0.2539 -0.61198,0.16928 -1.11328,0.41017 -1.5039,0.72266 -0.39063,0.31251 -0.6836,0.69011 -0.87891,1.13281 -0.1823,0.4297 -0.27344,0.91798 -0.27344,1.46485 0,0.3776 0.0586,0.74219 0.17579,1.09375 0.11718,0.33854 0.30598,0.64453 0.5664,0.91796 0.26041,0.26042 0.59895,0.46876 1.01563,0.625 0.41666,0.15626 0.92447,0.23438 1.52343,0.23438 0.78124,0 1.67317,-0.23437 2.67579,-0.70313 1.01561,-0.48176 2.08331,-1.23697 3.20312,-2.26562 l 0,-3.47656"
         id="path3145" />
      <path
         d="m 747.65186,764.20593 -5.80079,0 0,-2.8125 9.23829,0 0,16.77735 5.83984,0 0,2.83203 -15.72266,0 0,-2.83203 6.44532,0 0,-13.96485 m 1.1914,-11.03515 c 0.37759,2e-5 0.72916,0.0716 1.05469,0.21484 0.32551,0.13024 0.60546,0.31904 0.83984,0.56641 0.24739,0.24742 0.43619,0.53388 0.56641,0.85937 0.14321,0.31253 0.21483,0.65758 0.21484,1.03516 -10e-6,0.36461 -0.0716,0.70966 -0.21484,1.03515 -0.13022,0.32555 -0.31902,0.61201 -0.56641,0.85938 -0.23438,0.24742 -0.51433,0.44273 -0.83984,0.58594 -0.32553,0.13023 -0.6771,0.19533 -1.05469,0.19531 -0.37761,2e-5 -0.72918,-0.0651 -1.05469,-0.19531 -0.32553,-0.14321 -0.61198,-0.33852 -0.85937,-0.58594 -0.23438,-0.24737 -0.42319,-0.53383 -0.56641,-0.85938 -0.13021,-0.32549 -0.19532,-0.67054 -0.19531,-1.03515 -10e-6,-0.37758 0.0651,-0.72263 0.19531,-1.03516 0.14322,-0.32549 0.33203,-0.61195 0.56641,-0.85937 0.24739,-0.24737 0.53384,-0.43617 0.85937,-0.56641 0.32551,-0.1432 0.67708,-0.21482 1.05469,-0.21484"
         id="path3147" />
      <path
         d="m 780.64014,781.00281 -4.66797,0 -9.14063,-10.50781 0,10.50781 -3.39843,0 0,-27.59766 3.39843,0 0,16.95313 8.8086,-8.96485 4.49218,0 -9.19921,9.04297 9.70703,10.56641"
         id="path3149" />
      <path
         d="m 794.91748,753.40515 -0.52734,20.11719 -3.00782,0 -0.58593,-20.11719 4.12109,0 m -2.05078,22.79297 c 0.35155,0 0.68358,0.0716 0.99609,0.21484 0.31249,0.13022 0.57942,0.31251 0.80078,0.54688 0.23437,0.23438 0.41666,0.51433 0.54688,0.83984 0.14321,0.31251 0.21483,0.64454 0.21484,0.9961 -10e-6,0.35156 -0.0716,0.68359 -0.21484,0.99609 -0.13022,0.3125 -0.31251,0.58594 -0.54688,0.82031 -0.22136,0.22136 -0.48829,0.39714 -0.80078,0.52735 -0.31251,0.14323 -0.64454,0.21484 -0.99609,0.21484 -0.36459,0 -0.70314,-0.0716 -1.01563,-0.21484 -0.31251,-0.13021 -0.58594,-0.30599 -0.82031,-0.52735 -0.23438,-0.23437 -0.42318,-0.50781 -0.5664,-0.82031 -0.13022,-0.3125 -0.19533,-0.64453 -0.19532,-0.99609 -10e-6,-0.35156 0.0651,-0.68359 0.19532,-0.9961 0.14322,-0.32551 0.33202,-0.60546 0.5664,-0.83984 0.23437,-0.23437 0.5078,-0.41666 0.82031,-0.54688 0.31249,-0.14322 0.65104,-0.21484 1.01563,-0.21484"
         id="path3151" />
      <path
         d="m 813.29639,753.40515 -0.54688,9.16016 -3.20312,0 -0.56641,-9.16016 4.31641,0 m 7.59765,0 -0.54687,9.16016 -3.20313,0 -0.5664,-9.16016 4.3164,0"
         id="path3153" />
      <path
         d="m 841.22607,789.01062 -9.6289,0 0,-2.73437 6.34765,0 0,-30.82032 -6.34765,0 0,-2.73437 9.6289,0 0,36.28906"
         id="path3155" />
    </g>
  </g>
</svg>
