<?xml version="1.0" encoding="UTF-8" standalone="no"?>
<!-- Created with Inkscape (http://www.inkscape.org/) -->

<svg
   xmlns:dc="http://purl.org/dc/elements/1.1/"
   xmlns:cc="http://creativecommons.org/ns#"
   xmlns:rdf="http://www.w3.org/1999/02/22-rdf-syntax-ns#"
   xmlns:svg="http://www.w3.org/2000/svg"
   xmlns="http://www.w3.org/2000/svg"
   version="1.1"
   width="1452.7559"
   height="425.19684"
   id="svg2">
  <defs
     id="defs4">
    <marker
       refX="0"
       refY="0"
       orient="auto"
       id="Arrow2Mstart"
       style="overflow:visible">
      <path
         d="M 8.7185878,4.0337352 -2.2072895,0.01601326 8.7185884,-4.0017078 c -1.7454984,2.3720609 -1.7354408,5.6174519 -6e-7,8.035443 z"
         transform="scale(0.6,0.6)"
         id="path4557"
         style="fill-rule:evenodd;stroke-width:0.625;stroke-linejoin:round" />
    </marker>
    <marker
       refX="0"
       refY="0"
       orient="auto"
       id="Arrow2Mend"
       style="overflow:visible">
      <path
         d="M 8.7185878,4.0337352 -2.2072895,0.01601326 8.7185884,-4.0017078 c -1.7454984,2.3720609 -1.7354408,5.6174519 -6e-7,8.035443 z"
         transform="scale(-0.6,-0.6)"
         id="path4560"
         style="fill-rule:evenodd;stroke-width:0.625;stroke-linejoin:round" />
    </marker>
  </defs>
  <metadata
     id="metadata7">
    <rdf:RDF>
      <cc:Work
         rdf:about="">
        <dc:format>image/svg+xml</dc:format>
        <dc:type
           rdf:resource="http://purl.org/dc/dcmitype/StillImage" />
        <dc:title></dc:title>
      </cc:Work>
    </rdf:RDF>
  </metadata>
  <g
     transform="translate(0.49999973,-518.71831)"
     id="layer1">
    <g
       id="text4256-1-6-8-6-5-7"
       style="font-size:40px;font-style:normal;font-variant:normal;font-weight:500;font-stretch:normal;text-align:center;line-height:125%;letter-spacing:0px;word-spacing:0px;writing-mode:lr-tb;text-anchor:middle;fill:#484848;fill-opacity:1;stroke:none;font-family:Lato;-inkscape-font-specification:Lato Medium">
      <path
         d="m 224.03841,893.63524 c -2e-5,2.50668 -0.27335,4.68001 -0.82,6.52 -0.53335,1.84001 -1.27335,3.36667 -2.22,4.58 -0.93335,1.2 -2.04001,2.09333 -3.32,2.68 -1.26668,0.58667 -2.63334,0.88 -4.1,0.88 -1.46667,0 -2.83334,-0.29333 -4.1,-0.88 -1.26667,-0.58667 -2.37334,-1.48 -3.32,-2.68 -0.93333,-1.21333 -1.66667,-2.73999 -2.2,-4.58 -0.53333,-1.83999 -0.8,-4.01332 -0.8,-6.52 0,-2.50665 0.26667,-4.67998 0.8,-6.52 0.53333,-1.83998 1.26667,-3.35998 2.2,-4.56 0.94666,-1.21331 2.05333,-2.11331 3.32,-2.7 1.26666,-0.58664 2.63333,-0.87997 4.1,-0.88 1.46666,3e-5 2.83332,0.29336 4.1,0.88 1.27999,0.58669 2.38665,1.48669 3.32,2.7 0.94665,1.20002 1.68665,2.72002 2.22,4.56 0.54665,1.84002 0.81998,4.01335 0.82,6.52 m -3.94,0 c -2e-5,-2.15998 -0.18001,-3.97332 -0.54,-5.44 -0.36001,-1.46665 -0.84001,-2.64664 -1.44,-3.54 -0.60001,-0.89331 -1.29335,-1.52664 -2.08,-1.9 -0.78668,-0.38664 -1.60668,-0.57997 -2.46,-0.58 -0.85334,3e-5 -1.67334,0.19336 -2.46,0.58 -0.78667,0.37336 -1.48,1.00669 -2.08,1.9 -0.6,0.89336 -1.08,2.07335 -1.44,3.54 -0.34667,1.46668 -0.52,3.28002 -0.52,5.44 0,2.17334 0.17333,3.99334 0.52,5.46 0.36,1.46667 0.84,2.64667 1.44,3.54 0.6,0.88 1.29333,1.51334 2.08,1.9 0.78666,0.37334 1.60666,0.56 2.46,0.56 0.85332,0 1.67332,-0.18666 2.46,-0.56 0.78665,-0.38666 1.47999,-1.02 2.08,-1.9 0.59999,-0.89333 1.07999,-2.07333 1.44,-3.54 0.35999,-1.46666 0.53998,-3.28666 0.54,-5.46"
         id="path3039"
         style="line-height:125%;fill:#484848;font-family:Lato;-inkscape-font-specification:Lato Medium" />
    </g>
    <path
       d="m 212.09842,837.42914 1197.63778,0"
       id="path3004"
       style="fill:none;stroke:#484848;stroke-width:3.54330707;stroke-linecap:round;stroke-linejoin:round;stroke-miterlimit:4;stroke-opacity:1;stroke-dasharray:none" />
    <path
       d="m 1388.4764,823.25591 21.2598,14.17323 -21.2598,14.17323"
       id="path3006"
       style="fill:none;stroke:#484848;stroke-width:3.54330707;stroke-linecap:round;stroke-linejoin:miter;stroke-miterlimit:4;stroke-opacity:1;stroke-dasharray:none" />
    <rect
       width="283.46457"
       height="106.29923"
       ry="14.173257"
       x="212.09842"
       y="695.69684"
       id="rect3757-9-54"
       style="fill:#bddd8c;fill-opacity:1;stroke:none" />
    <rect
       width="106.29921"
       height="106.2992"
       ry="14.173257"
       x="34.933071"
       y="695.69684"
       id="rect2985-11-9"
       style="fill:#5e8227;fill-opacity:1;stroke:none" />
    <rect
       width="106.29922"
       height="106.29923"
       ry="14.173257"
       x="212.09842"
       y="695.69684"
       id="rect2985-11-0-5-0-9"
       style="fill:#5e8227;fill-opacity:1;stroke:none" />
    <path
       d="m 212.09842,837.42914 0,28.34645"
       id="path3004-0"
       style="fill:none;stroke:#484848;stroke-width:3.54330707;stroke-linecap:round;stroke-linejoin:round;stroke-miterlimit:4;stroke-opacity:1;stroke-dasharray:none" />
    <path
       d="m 495.56299,837.42914 0,28.34645"
       id="path3004-0-3"
       style="fill:none;stroke:#484848;stroke-width:3.54330707;stroke-linecap:round;stroke-linejoin:round;stroke-miterlimit:4;stroke-opacity:1;stroke-dasharray:none" />
    <path
       d="m 779.02756,837.42914 0,28.34645"
       id="path3004-0-5"
       style="fill:none;stroke:#484848;stroke-width:3.54330707;stroke-linecap:round;stroke-linejoin:round;stroke-miterlimit:4;stroke-opacity:1;stroke-dasharray:none" />
    <path
       d="m 1062.4921,837.42914 0,28.34645"
       id="path3004-0-7"
       style="fill:none;stroke:#484848;stroke-width:3.54330707;stroke-linecap:round;stroke-linejoin:round;stroke-miterlimit:4;stroke-opacity:1;stroke-dasharray:none" />
    <g
       id="text4256-1-6-8-6-5-7-1"
       style="font-size:40px;font-style:normal;font-variant:normal;font-weight:500;font-stretch:normal;text-align:center;line-height:125%;letter-spacing:0px;word-spacing:0px;writing-mode:lr-tb;text-anchor:middle;fill:#484848;fill-opacity:1;stroke:none;font-family:Lato;-inkscape-font-specification:Lato Medium">
      <path
         d="m 490.203,905.58206 6.1,0 0,-19.06 c -10e-6,-0.58665 0.02,-1.19331 0.06,-1.82 l -4.94,4.22 c -0.18667,0.14668 -0.37334,0.24001 -0.56,0.28 -0.17334,0.04 -0.34,0.0467 -0.5,0.02 -0.16,-0.04 -0.30667,-0.1 -0.44,-0.18 -0.13334,-0.08 -0.23334,-0.16665 -0.3,-0.26 l -1.18,-1.66 8.58,-7.4 3.08,0 0,25.86 5.58,0 0,2.9 -15.48,0 0,-2.9"
         id="path3042"
         style="line-height:125%;fill:#484848;font-family:Lato;-inkscape-font-specification:Lato Medium" />
    </g>
    <g
       id="text4256-1-6-8-6-5-7-0"
       style="font-size:40px;font-style:normal;font-variant:normal;font-weight:500;font-stretch:normal;text-align:center;line-height:125%;letter-spacing:0px;word-spacing:0px;writing-mode:lr-tb;text-anchor:middle;fill:#484848;fill-opacity:1;stroke:none;font-family:Lato;-inkscape-font-specification:Lato Medium">
      <path
         d="m 780.92759,879.27529 c 1.23998,3e-5 2.38665,0.18669 3.44,0.56 1.05331,0.36003 1.96664,0.88669 2.74,1.58 0.77331,0.68002 1.37998,1.52002 1.82,2.52 0.43998,0.98669 0.65997,2.10669 0.66,3.36 -3e-5,1.06668 -0.16002,2.06002 -0.48,2.98 -0.30669,0.90668 -0.73336,1.77335 -1.28,2.6 -0.53336,0.82668 -1.16002,1.63335 -1.88,2.42 -0.70669,0.78668 -1.46002,1.58001 -2.26,2.38 l -7.38,7.52 c 0.54665,-0.14667 1.09999,-0.26667 1.66,-0.36 0.55999,-0.0933 1.09332,-0.14 1.6,-0.14 l 9.24,0 c 0.41331,0 0.73997,0.12 0.98,0.36 0.23997,0.24 0.35997,0.55333 0.36,0.94 l 0,2.3 -19.24,0 0,-1.3 c -10e-6,-0.26667 0.0533,-0.54 0.16,-0.82 0.11999,-0.29333 0.29999,-0.55333 0.54,-0.78 l 9.1,-9.16 c 0.75998,-0.77332 1.44665,-1.51332 2.06,-2.22 0.61331,-0.70665 1.13998,-1.41332 1.58,-2.12 0.43998,-0.70665 0.77331,-1.41998 1,-2.14 0.23998,-0.73332 0.35998,-1.51332 0.36,-2.34 -2e-5,-0.81331 -0.12669,-1.52665 -0.38,-2.14 -0.25335,-0.61331 -0.60669,-1.12664 -1.06,-1.54 -0.44002,-0.41331 -0.96669,-0.71998 -1.58,-0.92 -0.61335,-0.19998 -1.27335,-0.29998 -1.98,-0.3 -0.70668,2e-5 -1.35335,0.10669 -1.94,0.32 -0.58668,0.20002 -1.11335,0.48669 -1.58,0.86 -0.45335,0.36002 -0.84001,0.79336 -1.16,1.3 -0.30668,0.49335 -0.52668,1.04002 -0.66,1.64 -0.17334,0.49335 -0.40668,0.82669 -0.7,1 -0.28001,0.16002 -0.68001,0.20002 -1.2,0.12 l -2,-0.36 c 0.19999,-1.31998 0.56666,-2.48665 1.1,-3.5 0.54666,-1.01331 1.23332,-1.85998 2.06,-2.54 0.82666,-0.69331 1.77332,-1.21331 2.84,-1.56 1.06665,-0.34664 2.21998,-0.51997 3.46,-0.52"
         id="path3045"
         style="line-height:125%;fill:#484848;font-family:Lato;-inkscape-font-specification:Lato Medium" />
    </g>
    <g
       id="text4256-1-6-8-6-5-7-3"
       style="font-size:40px;font-style:normal;font-variant:normal;font-weight:500;font-stretch:normal;text-align:center;line-height:125%;letter-spacing:0px;word-spacing:0px;writing-mode:lr-tb;text-anchor:middle;fill:#484848;fill-opacity:1;stroke:none;font-family:Lato;-inkscape-font-specification:Lato Medium">
      <path
         d="m 1064.6321,878.95528 c 1.24,3e-5 2.3733,0.18003 3.4,0.54 1.0266,0.3467 1.9066,0.8467 2.64,1.5 0.7466,0.64003 1.3266,1.41336 1.74,2.32 0.4133,0.89336 0.62,1.88669 0.62,2.98 0,0.92002 -0.1134,1.74002 -0.34,2.46 -0.2267,0.70669 -0.5534,1.32669 -0.98,1.86 -0.4267,0.53335 -0.9467,0.98668 -1.56,1.36 -0.6,0.36002 -1.28,0.66002 -2.04,0.9 1.8533,0.50668 3.24,1.33335 4.16,2.48 0.9333,1.14668 1.4,2.59334 1.4,4.34 0,1.34667 -0.2534,2.55334 -0.76,3.62 -0.5067,1.05334 -1.1934,1.95334 -2.06,2.7 -0.8667,0.73334 -1.8867,1.3 -3.06,1.7 -1.16,0.38667 -2.4,0.58 -3.72,0.58 -1.5067,0 -2.8,-0.18667 -3.88,-0.56 -1.08,-0.37333 -2,-0.88666 -2.76,-1.54 -0.76,-0.66666 -1.3867,-1.46 -1.88,-2.38 -0.4933,-0.91999 -0.9067,-1.92666 -1.24,-3.02 l 1.64,-0.7 c 0.4267,-0.18666 0.84,-0.23999 1.24,-0.16 0.4,0.08 0.6933,0.31334 0.88,0.7 0.1867,0.38667 0.4133,0.83334 0.68,1.34 0.2667,0.50667 0.62,0.99334 1.06,1.46 0.44,0.45334 0.9933,0.84 1.66,1.16 0.68,0.30667 1.5333,0.46 2.56,0.46 0.9733,0 1.8267,-0.16 2.56,-0.48 0.7333,-0.32 1.34,-0.73333 1.82,-1.24 0.4933,-0.50666 0.86,-1.06666 1.1,-1.68 0.24,-0.62666 0.36,-1.24666 0.36,-1.86 0,-0.75999 -0.1,-1.45332 -0.3,-2.08 -0.1867,-0.62666 -0.5467,-1.16665 -1.08,-1.62 -0.52,-0.45332 -1.2533,-0.80665 -2.2,-1.06 -0.9333,-0.25332 -2.1467,-0.37999 -3.64,-0.38 l 0,-2.76 c 1.2267,-0.0133 2.26,-0.13998 3.1,-0.38 0.8533,-0.25332 1.5467,-0.59332 2.08,-1.02 0.5333,-0.43998 0.9133,-0.95998 1.14,-1.56 0.24,-0.59998 0.36,-1.25998 0.36,-1.98 0,-0.79998 -0.1267,-1.49331 -0.38,-2.08 -0.24,-0.59998 -0.58,-1.09331 -1.02,-1.48 -0.44,-0.39997 -0.96,-0.69997 -1.56,-0.9 -0.6,-0.19997 -1.2533,-0.29997 -1.96,-0.3 -0.7067,3e-5 -1.36,0.10669 -1.96,0.32 -0.5867,0.20003 -1.1133,0.48669 -1.58,0.86 -0.4533,0.36003 -0.84,0.79336 -1.16,1.3 -0.3067,0.49336 -0.5267,1.04002 -0.66,1.64 -0.1867,0.49336 -0.42,0.82669 -0.7,1 -0.2667,0.16002 -0.66,0.20002 -1.18,0.12 l -2,-0.36 c 0.1867,-1.31998 0.5533,-2.48664 1.1,-3.5 0.5467,-1.01331 1.2333,-1.85997 2.06,-2.54 0.8267,-0.6933 1.7733,-1.2133 2.84,-1.56 1.0667,-0.34664 2.22,-0.51997 3.46,-0.52"
         id="path3048"
         style="line-height:125%;fill:#484848;font-family:Lato;-inkscape-font-specification:Lato Medium" />
    </g>
    <g
       id="text4256-1-6-8-6-5-7-5"
       style="font-size:40px;font-style:normal;font-variant:normal;font-weight:500;font-stretch:normal;text-align:center;line-height:125%;letter-spacing:0px;word-spacing:0px;writing-mode:lr-tb;text-anchor:middle;fill:#484848;fill-opacity:1;stroke:none;font-family:Lato;-inkscape-font-specification:Lato Medium">
      <path
         d="m 1354.0667,897.85529 4.22,0 0,2.2 c -1e-4,0.22667 -0.073,0.42001 -0.22,0.58 -0.1334,0.14667 -0.3334,0.22001 -0.6,0.22 l -3.4,0 0,7.44 -3.32,0 0,-7.44 -12.64,0 c -0.28,1e-5 -0.52,-0.08 -0.72,-0.24 -0.2,-0.15999 -0.3267,-0.36666 -0.38,-0.62 l -0.38,-1.94 13.9,-18.48 3.54,0 0,18.28 m -3.32,-11.4 c 0,-0.35998 0.013,-0.75331 0.04,-1.18 0.027,-0.42665 0.073,-0.86664 0.14,-1.32 l -10.2,13.9 10.02,0 0,-11.4"
         id="path3051"
         style="line-height:125%;fill:#484848;font-family:Lato;-inkscape-font-specification:Lato Medium" />
    </g>
    <path
       d="m 1345.9567,837.42914 0,28.34645"
       id="path3004-0-7-1"
       style="fill:none;stroke:#484848;stroke-width:3.54330707;stroke-linecap:round;stroke-linejoin:round;stroke-miterlimit:4;stroke-opacity:1;stroke-dasharray:none" />
    <g
       transform="translate(0.03476181,10.806669)"
       id="g4288">
      <g
         id="text4256-6-6"
         style="font-size:40px;font-style:normal;font-variant:normal;font-weight:500;font-stretch:normal;text-align:center;line-height:125%;letter-spacing:0px;word-spacing:0px;writing-mode:lr-tb;text-anchor:middle;fill:#ffffff;fill-opacity:1;stroke:none;font-family:Lato;-inkscape-font-specification:Lato Medium">
        <path
           d="m 101.58791,752.38977 -3.199996,0 c -0.360023,0 -0.653356,-0.0867 -0.88,-0.26 -0.226689,-0.18667 -0.400023,-0.42667 -0.52,-0.72 l -2.58,-6.74 -12.74,0 -2.58,6.74 c -0.08,0.25333 -0.246671,0.48 -0.5,0.68 -0.240004,0.2 -0.533337,0.3 -0.88,0.3 l -3.2,0 11.44,-28.7 4.18,0 11.459996,28.7 m -18.779996,-10.68 10.46,0 -4.34,-11.3 c -0.146681,-0.35998 -0.300014,-0.77331 -0.46,-1.24 -0.14668,-0.47998 -0.293347,-0.99998 -0.44,-1.56 -0.14668,0.56002 -0.293346,1.08002 -0.44,1.56 -0.14668,0.48002 -0.293346,0.90002 -0.44,1.26 l -4.34,11.28"
           id="path3063"
           style="line-height:125%;fill:#ffffff;font-family:Lato;-inkscape-font-specification:Lato Medium" />
      </g>
    </g>
    <g
       id="text4256-1-6-8-6-5-77"
       style="font-size:40px;font-style:normal;font-variant:normal;font-weight:500;font-stretch:normal;text-align:center;line-height:125%;letter-spacing:0px;word-spacing:0px;writing-mode:lr-tb;text-anchor:middle;fill:#ffffff;fill-opacity:1;stroke:none;font-family:Lato;-inkscape-font-specification:Lato Medium">
      <path
         d="m 276.23803,748.84648 c -2e-5,2.50668 -0.27336,4.68001 -0.82,6.52 -0.53336,1.84001 -1.27335,3.36667 -2.22,4.58 -0.93335,1.2 -2.04002,2.09334 -3.32,2.68 -1.26668,0.58667 -2.63335,0.88 -4.1,0.88 -1.46668,0 -2.83334,-0.29333 -4.1,-0.88 -1.26667,-0.58666 -2.37334,-1.48 -3.32,-2.68 -0.93334,-1.21333 -1.66667,-2.73999 -2.2,-4.58 -0.53334,-1.83999 -0.8,-4.01332 -0.8,-6.52 0,-2.50665 0.26666,-4.67998 0.8,-6.52 0.53333,-1.83998 1.26666,-3.35997 2.2,-4.56 0.94666,-1.2133 2.05333,-2.1133 3.32,-2.7 1.26666,-0.58664 2.63332,-0.87997 4.1,-0.88 1.46665,3e-5 2.83332,0.29336 4.1,0.88 1.27998,0.5867 2.38665,1.4867 3.32,2.7 0.94665,1.20003 1.68664,2.72002 2.22,4.56 0.54664,1.84002 0.81998,4.01335 0.82,6.52 m -3.94,0 c -2e-5,-2.15998 -0.18002,-3.97331 -0.54,-5.44 -0.36002,-1.46664 -0.84002,-2.64664 -1.44,-3.54 -0.60002,-0.89331 -1.29335,-1.52664 -2.08,-1.9 -0.78668,-0.38664 -1.60668,-0.57997 -2.46,-0.58 -0.85335,3e-5 -1.67334,0.19336 -2.46,0.58 -0.78668,0.37336 -1.48001,1.00669 -2.08,1.9 -0.60001,0.89336 -1.08001,2.07336 -1.44,3.54 -0.34667,1.46669 -0.52001,3.28002 -0.52,5.44 -10e-6,2.17335 0.17333,3.99335 0.52,5.46 0.35999,1.46668 0.83999,2.64667 1.44,3.54 0.59999,0.88001 1.29332,1.51334 2.08,1.9 0.78666,0.37334 1.60665,0.56 2.46,0.56 0.85332,0 1.67332,-0.18666 2.46,-0.56 0.78665,-0.38666 1.47998,-1.01999 2.08,-1.9 0.59998,-0.89333 1.07998,-2.07332 1.44,-3.54 0.35998,-1.46665 0.53998,-3.28665 0.54,-5.46"
         id="path3060"
         style="line-height:125%;fill:#ffffff;font-family:Lato;-inkscape-font-specification:Lato Medium" />
    </g>
    <g
       id="text4256-1-6-8-6-5-77-8"
       style="font-size:40px;font-style:normal;font-variant:normal;font-weight:500;font-stretch:normal;text-align:center;line-height:125%;letter-spacing:0px;word-spacing:0px;writing-mode:lr-tb;text-anchor:middle;fill:#000000;fill-opacity:1;stroke:none;font-family:Lato;-inkscape-font-specification:Lato Medium">
      <path
         d="m 206.33181,577.33564 c 0,-0.08 0,-0.18 0,-0.3 0,-0.13333 0.007,-0.32 0.02,-0.56 0.0267,-0.25333 0.06,-0.57333 0.1,-0.96 0.0533,-0.4 0.12,-0.91333 0.2,-1.54 l 1.22,-9.96 -2.2,0 c -0.2,1e-5 -0.36,-0.0666 -0.48,-0.2 -0.12,-0.14665 -0.16,-0.35332 -0.12,-0.62 l 0.16,-1.52 3.12,-0.44 1.54,-6.14 c 0.0667,-0.21331 0.17333,-0.37998 0.32,-0.5 0.14666,-0.13331 0.33333,-0.19998 0.56,-0.2 l 2,0 -0.86,6.86 5.26,0 -0.32,2.76 -5.28,0 -1.2,9.78 c -0.0667,0.54667 -0.12,0.98667 -0.16,1.32 -0.04,0.33334 -0.0733,0.6 -0.1,0.8 -0.0133,0.18667 -0.0267,0.32 -0.04,0.4 0,0.08 0,0.14 0,0.18 0,0.64 0.15333,1.12667 0.46,1.46 0.32,0.32 0.74,0.48 1.26,0.48 0.33333,0 0.62666,-0.0467 0.88,-0.14 0.25333,-0.0933 0.47333,-0.2 0.66,-0.32 0.19999,-0.12 0.35999,-0.22667 0.48,-0.32 0.13333,-0.0933 0.25333,-0.14 0.36,-0.14 0.11999,0 0.20666,0.0267 0.26,0.08 0.0667,0.0533 0.13333,0.14667 0.2,0.28 l 0.8,1.82 c -0.66667,0.58666 -1.42001,1.04 -2.26,1.36 -0.84,0.32 -1.68667,0.48 -2.54,0.48 -1.32,0 -2.36,-0.36 -3.12,-1.08 -0.76,-0.72 -1.15333,-1.76 -1.18,-3.12"
         id="path3102"
         style="font-style:italic;-inkscape-font-specification:Lato Medium Italic" />
      <path
         d="m 219.68271,589.21564 0,-13.19519 1.48203,0 c 0.34666,10e-6 0.56333,0.16468 0.65,0.49401 l 0.18201,1.36502 c 0.572,-0.61533 1.20901,-1.11367 1.91102,-1.49502 0.70201,-0.38133 1.51235,-0.572 2.43104,-0.57201 0.71933,10e-6 1.35201,0.12135 1.89802,0.364 0.55467,0.24269 1.01834,0.58502 1.39102,1.02702 0.37266,0.43335 0.65433,0.95769 0.84502,1.57302 0.19065,0.60669 0.28599,1.28269 0.286,2.02803 l 0,8.41112 -2.47003,0 0,-8.41112 c -1e-5,-0.95334 -0.22102,-1.69435 -0.66301,-2.22303 -0.44202,-0.53733 -1.11369,-0.806 -2.01503,-0.80601 -0.66735,10e-6 -1.28703,0.15601 -1.85903,0.468 -0.57201,0.31202 -1.10502,0.74102 -1.59902,1.28702 l 0,9.68514 -2.47004,0"
         id="path3104"
         style="font-size:65.00091553%;baseline-shift:sub" />
      <path
         d="m 239.80943,575.81245 c 0.97068,10e-6 1.84602,0.16035 2.62604,0.48101 0.78,0.31201 1.44301,0.76268 1.98903,1.35201 0.54599,0.58936 0.96633,1.30437 1.26102,2.14503 0.29465,0.83202 0.44199,1.76804 0.442,2.80804 -1e-5,1.04002 -0.14735,1.98037 -0.442,2.82104 -0.29469,0.84069 -0.71503,1.55569 -1.26102,2.14503 -0.54602,0.58935 -1.20903,1.04435 -1.98903,1.36502 -0.78002,0.31201 -1.65536,0.46801 -2.62604,0.46801 -0.97068,0 -1.85036,-0.156 -2.63903,-0.46801 -0.78002,-0.32067 -1.44736,-0.77567 -2.00203,-1.36502 -0.54601,-0.58934 -0.96635,-1.30434 -1.26102,-2.14503 -0.29467,-0.84067 -0.44201,-1.78102 -0.442,-2.82104 -1e-5,-1.04 0.14733,-1.97602 0.442,-2.80804 0.29467,-0.84066 0.71501,-1.55567 1.26102,-2.14503 0.55467,-0.58933 1.22201,-1.04 2.00203,-1.35201 0.78867,-0.32066 1.66835,-0.481 2.63903,-0.48101 m 0,11.66116 c 1.26535,0 2.21003,-0.42467 2.83404,-1.27402 0.624,-0.84934 0.93601,-2.04535 0.93602,-3.58805 -1e-5,-1.53401 -0.31202,-2.73002 -0.93602,-3.58805 -0.62401,-0.858 -1.56869,-1.287 -2.83404,-1.28701 -1.28269,10e-6 -2.24037,0.42901 -2.87304,1.28701 -0.62401,0.85803 -0.93601,2.05404 -0.93601,3.58805 0,1.5427 0.312,2.73871 0.93601,3.58805 0.63267,0.84935 1.59035,1.27402 2.87304,1.27402"
         id="path3106"
         style="font-size:65.00091553%;baseline-shift:sub" />
      <path
         d="m 247.37676,576.02045 1.95003,0 c 0.19933,10e-6 0.35967,0.0477 0.481,0.143 0.13,0.0953 0.21667,0.21235 0.26001,0.35101 l 2.43103,8.22911 c 0.078,0.32935 0.14733,0.64568 0.208,0.94902 0.0607,0.30334 0.117,0.60668 0.16901,0.91001 0.078,-0.30333 0.16033,-0.60667 0.247,-0.91001 0.0867,-0.30334 0.17766,-0.61967 0.273,-0.94902 l 2.67804,-8.28111 c 0.0433,-0.13866 0.12133,-0.25133 0.234,-0.33801 0.12133,-0.0953 0.26867,-0.14299 0.44201,-0.143 l 1.06602,0 c 0.18199,10e-6 0.33366,0.0477 0.455,0.143 0.12133,0.0867 0.20366,0.19935 0.24701,0.33801 l 2.63903,8.28111 c 0.0953,0.32935 0.18199,0.64568 0.26001,0.94902 0.078,0.30334 0.15165,0.60668 0.221,0.91001 0.052,-0.30333 0.10832,-0.60667 0.169,-0.91001 0.0693,-0.30334 0.14732,-0.61967 0.23401,-0.94902 l 2.47003,-8.22911 c 0.052,-0.14732 0.13865,-0.26433 0.26,-0.35101 0.12999,-0.0953 0.28166,-0.14299 0.45501,-0.143 l 1.85903,0 -4.26406,13.19519 -1.95003,0 c -0.24268,0 -0.40735,-0.156 -0.49401,-0.46801 l -2.82104,-8.71012 c -0.0693,-0.208 -0.13001,-0.416 -0.182,-0.62401 -0.052,-0.20799 -0.0997,-0.416 -0.143,-0.62401 -0.0434,0.20801 -0.0867,0.42035 -0.13,0.63701 -0.0434,0.20801 -0.0997,0.41601 -0.16901,0.62401 l -2.87304,8.69712 c -0.0953,0.31201 -0.28167,0.46801 -0.559,0.46801 l -1.85903,0 -4.26406,-13.19519"
         id="path3108"
         style="font-size:65.00091553%;baseline-shift:sub" />
    </g>
    <g
       id="text4256-1-6-8-6-5-77-8-7"
       style="font-size:40px;font-style:normal;font-variant:normal;font-weight:500;font-stretch:normal;text-align:center;line-height:125%;letter-spacing:0px;word-spacing:0px;writing-mode:lr-tb;text-anchor:middle;fill:#000000;fill-opacity:1;stroke:none;font-family:Lato;-inkscape-font-specification:Lato Medium">
      <path
         d="m 489.79641,577.30964 c -10e-6,-0.08 -10e-6,-0.18 0,-0.3 -10e-6,-0.13333 0.007,-0.32 0.02,-0.56 0.0267,-0.25333 0.06,-0.57333 0.1,-0.96 0.0533,-0.4 0.11999,-0.91333 0.2,-1.54 l 1.22,-9.96 -2.2,0 c -0.20001,10e-6 -0.36001,-0.0666 -0.48,-0.2 -0.12,-0.14665 -0.16,-0.35332 -0.12,-0.62 l 0.16,-1.52 3.12,-0.44 1.54,-6.14 c 0.0667,-0.21331 0.17332,-0.37998 0.32,-0.5 0.14666,-0.13331 0.33332,-0.19998 0.56,-0.2 l 2,0 -0.86,6.86 5.26,0 -0.32,2.76 -5.28,0 -1.2,9.78 c -0.0667,0.54667 -0.12001,0.98667 -0.16,1.32 -0.04,0.33334 -0.0733,0.6 -0.1,0.8 -0.0133,0.18667 -0.0267,0.32 -0.04,0.4 -10e-6,0.08 -10e-6,0.14 0,0.18 -10e-6,0.64 0.15332,1.12667 0.46,1.46 0.31999,0.32 0.73999,0.48 1.26,0.48 0.33332,0 0.62665,-0.0467 0.88,-0.14 0.25332,-0.0933 0.47332,-0.2 0.66,-0.32 0.19999,-0.12 0.35999,-0.22667 0.48,-0.32 0.13332,-0.0933 0.25332,-0.14 0.36,-0.14 0.11999,0 0.20665,0.0267 0.26,0.08 0.0666,0.0533 0.13332,0.14667 0.2,0.28 l 0.8,1.82 c -0.66668,0.58666 -1.42001,1.04 -2.26,1.36 -0.84001,0.32 -1.68668,0.48 -2.54,0.48 -1.32001,0 -2.36001,-0.36 -3.12,-1.08 -0.76001,-0.72 -1.15334,-1.76 -1.18,-3.12"
         id="path3091"
         style="font-style:italic;-inkscape-font-specification:Lato Medium Italic" />
      <path
         d="m 503.14731,589.18964 0,-13.19519 1.48202,0 c 0.34667,10e-6 0.56334,0.16468 0.65001,0.49401 l 0.182,1.36502 c 0.572,-0.61533 1.20901,-1.11367 1.91103,-1.49502 0.702,-0.38133 1.51234,-0.572 2.43103,-0.57201 0.71933,1e-5 1.35201,0.12135 1.89803,0.364 0.55466,0.24269 1.01833,0.58502 1.39102,1.02702 0.37266,0.43335 0.65433,0.95769 0.84501,1.57302 0.19066,0.60668 0.28599,1.28269 0.286,2.02803 l 0,8.41112 -2.47003,0 0,-8.41112 c -10e-6,-0.95334 -0.22102,-1.69435 -0.66301,-2.22303 -0.44202,-0.53733 -1.11369,-0.806 -2.01503,-0.80601 -0.66735,1e-5 -1.28702,0.15601 -1.85903,0.468 -0.57201,0.31202 -1.10502,0.74102 -1.59902,1.28702 l 0,9.68514 -2.47003,0"
         id="path3093"
         style="font-size:65.00091553%;baseline-shift:sub" />
      <path
         d="m 523.11803,575.78645 c 0.79733,1e-5 1.53401,0.13435 2.21003,0.403 0.676,0.26002 1.261,0.64136 1.75502,1.14402 0.494,0.50268 0.87967,1.12236 1.15702,1.85903 0.27732,0.72801 0.41599,1.56436 0.416,2.50903 -1e-5,0.38135 -0.0433,0.63702 -0.13,0.76701 -0.078,0.13001 -0.22968,0.19501 -0.45501,0.195 l -8.71012,0 c 0.026,0.80602 0.13867,1.50803 0.33801,2.10603 0.208,0.59802 0.48533,1.09636 0.83201,1.49503 0.35533,0.39 0.78,0.68467 1.27402,0.88401 0.494,0.19067 1.04434,0.286 1.65102,0.286 0.572,0 1.06167,-0.065 1.46902,-0.195 0.416,-0.13 0.77133,-0.273 1.06602,-0.42901 0.30332,-0.156 0.55899,-0.299 0.76701,-0.429 0.20799,-0.13 0.38999,-0.195 0.546,-0.19501 0.208,10e-6 0.35966,0.078 0.45501,0.23401 l 0.70201,0.89701 c -0.30335,0.36401 -0.65435,0.67601 -1.05301,0.93601 -0.39869,0.25134 -0.82769,0.46368 -1.28702,0.63701 -0.45935,0.16467 -0.93603,0.28601 -1.43002,0.36401 -0.48535,0.078 -0.96636,0.117 -1.44302,0.117 -0.91002,0 -1.75503,-0.15167 -2.53504,-0.45501 -0.77135,-0.312 -1.43869,-0.76267 -2.00203,-1.35202 -0.56334,-0.598 -1.00535,-1.33468 -1.32602,-2.21003 -0.312,-0.88401 -0.468,-1.89802 -0.468,-3.04204 0,-0.91867 0.143,-1.77235 0.429,-2.56104 0.28601,-0.79733 0.69334,-1.48634 1.22202,-2.06703 0.53734,-0.58933 1.18735,-1.053 1.95003,-1.39102 0.77134,-0.33799 1.63802,-0.50699 2.60004,-0.507 m 0.039,1.80702 c -1.08336,10e-6 -1.93704,0.31635 -2.56104,0.94902 -0.61535,0.62402 -1.00102,1.49069 -1.15702,2.60003 l 7.0071,0 c -10e-6,-0.52 -0.0737,-0.99667 -0.221,-1.43002 -0.14735,-0.43333 -0.36402,-0.806 -0.65001,-1.11801 -0.27735,-0.312 -0.61968,-0.55467 -1.02701,-0.72801 -0.40735,-0.18199 -0.87102,-0.273 -1.39102,-0.27301"
         id="path3095"
         style="font-size:65.00091553%;baseline-shift:sub" />
      <path
         d="m 534.36156,582.40354 -4.43306,-6.40909 2.36603,0 c 0.19933,10e-6 0.34234,0.0303 0.42901,0.091 0.0953,0.0607 0.17766,0.15168 0.247,0.27301 l 3.15904,4.84906 c 0.0433,-0.12132 0.091,-0.24266 0.14301,-0.364 0.052,-0.12999 0.12132,-0.26 0.208,-0.39001 l 2.74304,-4.05605 c 0.078,-0.12999 0.16466,-0.22966 0.26,-0.29901 0.0953,-0.0693 0.21233,-0.10399 0.35101,-0.104 l 2.26203,0 -4.43306,6.30509 4.61506,6.8901 -2.36603,0 c -0.19935,0 -0.35968,-0.052 -0.48101,-0.15601 -0.11268,-0.104 -0.20368,-0.221 -0.273,-0.351 l -3.22405,-5.07007 c -0.0433,0.13867 -0.0867,0.26867 -0.13,0.39 -0.0433,0.11268 -0.0997,0.21668 -0.169,0.31201 l -2.96404,4.36806 c -0.0867,0.12133 -0.18634,0.23834 -0.29901,0.351 -0.104,0.10401 -0.24267,0.15601 -0.416,0.15601 l -2.21004,0 4.61507,-6.7861"
         id="path3097"
         style="font-size:65.00091553%;baseline-shift:sub" />
      <path
         d="m 548.43954,589.39764 c -1.05735,0 -1.87203,-0.29467 -2.44404,-0.88401 -0.57201,-0.58934 -0.85801,-1.43869 -0.85801,-2.54804 l 0,-7.95611 -1.54702,0 c -0.14734,10e-6 -0.26867,-0.0433 -0.36401,-0.13 -0.0953,-0.0953 -0.143,-0.22966 -0.143,-0.40301 l 0,-0.98801 2.14503,-0.28601 0.55901,-3.99105 c 0.0347,-0.13865 0.0997,-0.24699 0.195,-0.32501 0.0953,-0.0866 0.221,-0.12998 0.37701,-0.13 l 1.24802,0 0,4.45906 3.75705,0 0,1.79403 -3.75705,0 0,7.78711 c -10e-6,0.52868 0.12566,0.92735 0.377,1.19602 0.26,0.26 0.598,0.39 1.01402,0.39 0.23399,0 0.43766,-0.0303 0.611,-0.091 0.17333,-0.0607 0.32067,-0.13 0.44201,-0.208 0.12133,-0.078 0.22533,-0.14734 0.31201,-0.20801 0.0953,-0.0607 0.17766,-0.091 0.247,-0.091 0.078,0 0.13866,0.0173 0.182,0.052 0.052,0.0347 0.10399,0.0953 0.156,0.18201 l 0.72801,1.18301 c -0.41601,0.38134 -0.91002,0.67601 -1.48202,0.88401 -0.56335,0.20801 -1.14835,0.31201 -1.75502,0.31201"
         id="path3099"
         style="font-size:65.00091553%;baseline-shift:sub" />
    </g>
    <path
       d="m 205.01181,646.09055 7.08661,14.17323 7.08662,-14.17323 z"
       id="path4669"
       style="fill:#484848;fill-opacity:1;stroke:#484848;stroke-width:2.83464575;stroke-linecap:square;stroke-linejoin:miter;stroke-miterlimit:4;stroke-opacity:1;stroke-dasharray:none" />
    <path
       d="m 212.09842,596.48426 0,49.6063"
       id="path4669-8"
       style="fill:none;stroke:#484848;stroke-width:2.83464575;stroke-linecap:square;stroke-linejoin:miter;stroke-miterlimit:4;stroke-opacity:1;stroke-dasharray:none" />
    <path
       d="m 488.47638,610.65749 7.08661,-14.17323 7.08662,14.17323 z"
       id="path4669-5"
       style="fill:#484848;fill-opacity:1;stroke:#484848;stroke-width:2.83464575;stroke-linecap:square;stroke-linejoin:miter;stroke-miterlimit:4;stroke-opacity:1;stroke-dasharray:none" />
    <path
       d="m 495.56299,660.26378 0,-56.69291"
       id="path4669-8-1"
       style="fill:none;stroke:#484848;stroke-width:2.83464575;stroke-linecap:square;stroke-linejoin:miter;stroke-miterlimit:4;stroke-opacity:1;stroke-dasharray:none" />
    <g
       transform="translate(0.13583317,127.55906)"
       id="g4767"
       style="stroke-width:2.83464575;stroke-miterlimit:4;stroke-dasharray:none">
      <path
         d="m 488.34054,553.96457 -276.37795,0"
         id="path4669-8-0"
         style="fill:none;stroke:#484848;stroke-width:2.83464575;stroke-linecap:square;stroke-linejoin:miter;stroke-miterlimit:4;stroke-opacity:1;stroke-dasharray:none" />
      <path
         d="m 495.42716,539.79134 c -7.08661,7.08662 -7.08661,21.25983 0,28.34645"
         id="path4669-8-4"
         style="fill:none;stroke:#484848;stroke-width:2.83464575;stroke-linecap:square;stroke-linejoin:miter;stroke-miterlimit:4;stroke-opacity:1;stroke-dasharray:none" />
      <path
         d="m 211.96259,539.79134 0,28.34645"
         id="path4669-8-17"
         style="fill:none;stroke:#484848;stroke-width:2.83464575;stroke-linecap:square;stroke-linejoin:miter;stroke-miterlimit:4;stroke-opacity:1;stroke-dasharray:none" />
    </g>
    <g
       id="text4256-1-6-8-6-5-77-8-0"
       style="font-size:40px;font-style:normal;font-variant:normal;font-weight:500;font-stretch:normal;text-align:center;line-height:125%;letter-spacing:0px;word-spacing:0px;writing-mode:lr-tb;text-anchor:middle;fill:#000000;fill-opacity:1;stroke:none;font-family:Lato;-inkscape-font-specification:Lato Medium">
      <path
         d="m 262.84666,650.4904 c -0.18668,0.32002 -0.44668,0.48002 -0.78,0.48 -0.21335,2e-5 -0.45335,-0.0733 -0.72,-0.22 -0.25335,-0.14665 -0.56002,-0.30665 -0.92,-0.48 -0.36002,-0.18665 -0.79335,-0.35331 -1.3,-0.5 -0.49335,-0.14665 -1.08001,-0.21998 -1.76,-0.22 -0.57335,2e-5 -1.09334,0.0734 -1.56,0.22 -0.46668,0.14669 -0.86668,0.34669 -1.2,0.6 -0.32001,0.25335 -0.57334,0.55335 -0.76,0.9 -0.17334,0.33335 -0.26001,0.70002 -0.26,1.1 -1e-5,0.50668 0.14666,0.93335 0.44,1.28 0.30666,0.33335 0.69999,0.62668 1.18,0.88 0.49332,0.24002 1.05332,0.46002 1.68,0.66 0.62665,0.18668 1.26665,0.38668 1.92,0.6 0.65332,0.21335 1.29332,0.46001 1.92,0.74 0.62665,0.26668 1.17998,0.60001 1.66,1 0.49332,0.40001 0.88665,0.89335 1.18,1.48 0.30665,0.57334 0.45998,1.26668 0.46,2.08 -2e-5,0.94667 -0.17335,1.82001 -0.52,2.62 -0.33335,0.80001 -0.83335,1.49334 -1.5,2.08 -0.65335,0.58667 -1.46002,1.04667 -2.42,1.38 -0.96001,0.33334 -2.06668,0.5 -3.32,0.5 -1.41334,0 -2.70668,-0.23333 -3.88,-0.7 -1.16001,-0.46666 -2.14001,-1.06 -2.94,-1.78 l 0.88,-1.44 c 0.10666,-0.18666 0.23999,-0.32666 0.4,-0.42 0.15999,-0.10666 0.35999,-0.15999 0.6,-0.16 0.25333,10e-6 0.51333,0.0933 0.78,0.28 0.26666,0.18667 0.58666,0.39334 0.96,0.62 0.38666,0.21334 0.84666,0.41334 1.38,0.6 0.54666,0.18667 1.21999,0.28001 2.02,0.28 0.67999,1e-5 1.26665,-0.0867 1.76,-0.26 0.50665,-0.17333 0.92665,-0.39999 1.26,-0.68 0.33332,-0.29333 0.57998,-0.63333 0.74,-1.02 0.15998,-0.38666 0.23998,-0.79333 0.24,-1.22 -2e-5,-0.54666 -0.15335,-0.99999 -0.46,-1.36 -0.29335,-0.35999 -0.68668,-0.66666 -1.18,-0.92 -0.48001,-0.25332 -1.03335,-0.47332 -1.66,-0.66 -0.62668,-0.18666 -1.27334,-0.38665 -1.94,-0.6 -0.65334,-0.21332 -1.29334,-0.45332 -1.92,-0.72 -0.62667,-0.27999 -1.18667,-0.63332 -1.68,-1.06 -0.48001,-0.42665 -0.87334,-0.93999 -1.18,-1.54 -0.29334,-0.61332 -0.44001,-1.35998 -0.44,-2.24 -1e-5,-0.78665 0.15999,-1.53998 0.48,-2.26 0.31999,-0.71998 0.78666,-1.35331 1.4,-1.9 0.62666,-0.54664 1.39332,-0.97998 2.3,-1.3 0.90666,-0.31998 1.93999,-0.47998 3.1,-0.48 1.33332,2e-5 2.53998,0.21336 3.62,0.64 1.09332,0.41336 2.01998,0.99336 2.78,1.74 l -0.84,1.38"
         id="path3066"
         style="line-height:125%;fill:#000000;font-family:Lato;-inkscape-font-specification:Lato Medium" />
      <path
         d="m 274.59041,667.6704 c -1.62668,0 -2.88001,-0.45333 -3.76,-1.36 -0.88001,-0.90666 -1.32001,-2.21333 -1.32,-3.92 l 0,-12.24 -2.38,0 c -0.22667,2e-5 -0.41334,-0.0666 -0.56,-0.2 -0.14667,-0.14665 -0.22,-0.35331 -0.22,-0.62 l 0,-1.52 3.3,-0.44 0.86,-6.14 c 0.0533,-0.2133 0.15332,-0.37997 0.3,-0.5 0.14666,-0.1333 0.33999,-0.19997 0.58,-0.2 l 1.92,0 0,6.86 5.78,0 0,2.76 -5.78,0 0,11.98 c -10e-6,0.81334 0.19332,1.42667 0.58,1.84 0.39999,0.40001 0.91999,0.60001 1.56,0.6 0.35999,1e-5 0.67332,-0.0467 0.94,-0.14 0.26665,-0.0933 0.49332,-0.19999 0.68,-0.32 0.18665,-0.11999 0.34665,-0.22666 0.48,-0.32 0.14665,-0.0933 0.27332,-0.13999 0.38,-0.14 0.11998,10e-6 0.21332,0.0267 0.28,0.08 0.08,0.0533 0.15998,0.14667 0.24,0.28 l 1.12,1.82 c -0.64002,0.58667 -1.40002,1.04 -2.28,1.36 -0.86668,0.32 -1.76668,0.48 -2.7,0.48"
         id="path3068"
         style="line-height:125%;fill:#000000;font-family:Lato;-inkscape-font-specification:Lato Medium" />
      <path
         d="m 291.10353,646.7304 c 1.22666,2e-5 2.35999,0.20669 3.4,0.62 1.03999,0.40002 1.93999,0.98669 2.7,1.76 0.75998,0.77335 1.35332,1.72669 1.78,2.86 0.42665,1.12002 0.63998,2.40668 0.64,3.86 -2e-5,0.58668 -0.0667,0.98001 -0.2,1.18 -0.12002,0.20001 -0.35335,0.30001 -0.7,0.3 l -13.4,0 c 0.04,1.24001 0.21333,2.32001 0.52,3.24 0.32,0.92001 0.74666,1.68667 1.28,2.3 0.54666,0.60001 1.19999,1.05334 1.96,1.36 0.75999,0.29334 1.60666,0.44001 2.54,0.44 0.87999,10e-6 1.63332,-0.1 2.26,-0.3 0.63999,-0.19999 1.18665,-0.41999 1.64,-0.66 0.46665,-0.23999 0.85999,-0.45999 1.18,-0.66 0.31998,-0.19999 0.59998,-0.29999 0.84,-0.3 0.31998,10e-6 0.55332,0.12001 0.7,0.36 l 1.08,1.38 c -0.46668,0.56001 -1.00668,1.04 -1.62,1.44 -0.61335,0.38667 -1.27335,0.71334 -1.98,0.98 -0.70668,0.25334 -1.44001,0.44 -2.2,0.56 -0.74668,0.12 -1.48668,0.18 -2.22,0.18 -1.40001,0 -2.70001,-0.23333 -3.9,-0.7 -1.18667,-0.48 -2.21334,-1.17333 -3.08,-2.08 -0.86667,-0.91999 -1.54667,-2.05333 -2.04,-3.4 -0.48,-1.35999 -0.72,-2.91999 -0.72,-4.68 0,-1.41332 0.22,-2.72665 0.66,-3.94 0.44,-1.22665 1.06666,-2.28665 1.88,-3.18 0.82666,-0.90665 1.82666,-1.61998 3,-2.14 1.18666,-0.51998 2.51999,-0.77998 4,-0.78 m 0.06,2.78 c -1.66667,2e-5 -2.98001,0.48669 -3.94,1.46 -0.94667,0.96002 -1.54,2.29335 -1.78,4 l 10.78,0 c -10e-6,-0.79998 -0.11335,-1.53332 -0.34,-2.2 -0.22668,-0.66665 -0.56001,-1.23998 -1,-1.72 -0.42668,-0.47998 -0.95335,-0.85331 -1.58,-1.12 -0.62668,-0.27998 -1.34001,-0.41998 -2.14,-0.42"
         id="path3070"
         style="line-height:125%;fill:#000000;font-family:Lato;-inkscape-font-specification:Lato Medium" />
      <path
         d="m 303.89541,674.1704 0,-27.12 2.28,0 c 0.53332,2e-5 0.86666,0.25336 1,0.76 l 0.32,2.32 c 0.85332,-1.02665 1.83332,-1.85331 2.94,-2.48 1.11999,-0.63998 2.39998,-0.95998 3.84,-0.96 1.15998,2e-5 2.20665,0.22669 3.14,0.68 0.94665,0.44002 1.75331,1.10002 2.42,1.98 0.67998,0.88002 1.19998,1.96669 1.56,3.26 0.35998,1.28002 0.53998,2.76001 0.54,4.44 -2e-5,1.50668 -0.20002,2.90668 -0.6,4.2 -0.40002,1.28001 -0.98002,2.39334 -1.74,3.34 -0.76002,0.94667 -1.68002,1.69334 -2.76,2.24 -1.08002,0.53334 -2.30002,0.8 -3.66,0.8 -1.24001,0 -2.29335,-0.2 -3.16,-0.6 -0.86668,-0.4 -1.64001,-0.97333 -2.32,-1.72 l 0,8.86 -3.8,0 m 9.14,-24.42 c -1.14668,2e-5 -2.14668,0.26002 -3,0.78 -0.84001,0.50669 -1.62001,1.23335 -2.34,2.18 l 0,9.7 c 0.63999,0.84001 1.33332,1.43334 2.08,1.78 0.75999,0.33334 1.60665,0.50001 2.54,0.5 1.82665,1e-5 3.23332,-0.65333 4.22,-1.96 0.98665,-1.30666 1.47998,-3.19999 1.48,-5.68 -2e-5,-1.29332 -0.11335,-2.39998 -0.34,-3.32 -0.22669,-0.91998 -0.55335,-1.67332 -0.98,-2.26 -0.42669,-0.59998 -0.94668,-1.03331 -1.56,-1.3 -0.61335,-0.27998 -1.31335,-0.41998 -2.1,-0.42"
         id="path3072"
         style="line-height:125%;fill:#000000;font-family:Lato;-inkscape-font-specification:Lato Medium" />
      <path
         d="m 344.93416,667.3504 -3.44,0 -8.24,-20.3 3.12,0 c 0.30666,2e-5 0.55333,0.0734 0.74,0.22 0.19999,0.14669 0.33333,0.32669 0.4,0.54 l 4.96,12.66 c 0.17332,0.50668 0.31999,1.01334 0.44,1.52 0.11999,0.49334 0.23332,0.98667 0.34,1.48 0.10665,-0.49333 0.21999,-0.98666 0.34,-1.48 0.13332,-0.49332 0.29332,-0.99999 0.48,-1.52 l 5.02,-12.66 c 0.0667,-0.22664 0.19998,-0.40664 0.4,-0.54 0.19998,-0.14664 0.43331,-0.21998 0.7,-0.22 l 2.98,0 -8.24,20.3"
         id="path3074"
         style="line-height:125%;fill:#000000;font-family:Lato;-inkscape-font-specification:Lato Medium" />
      <path
         d="m 368.82853,667.3504 c -0.37335,0 -0.66001,-0.06 -0.86,-0.18 -0.20001,-0.12 -0.36001,-0.35333 -0.48,-0.7 l -0.42,-1.82 c -0.52001,0.48001 -1.03334,0.91334 -1.54,1.3 -0.50668,0.37334 -1.04001,0.68667 -1.6,0.94 -0.54668,0.25334 -1.13334,0.44667 -1.76,0.58 -0.62667,0.13334 -1.32667,0.2 -2.1,0.2 -0.8,0 -1.54667,-0.10666 -2.24,-0.32 -0.69334,-0.22666 -1.3,-0.56666 -1.82,-1.02 -0.50667,-0.45333 -0.91333,-1.01333 -1.22,-1.68 -0.29333,-0.67999 -0.44,-1.47999 -0.44,-2.4 0,-0.79999 0.21333,-1.56666 0.64,-2.3 0.44,-0.73332 1.14667,-1.38666 2.12,-1.96 0.98666,-0.58665 2.26666,-1.06665 3.84,-1.44 1.58666,-0.37332 3.53332,-0.58665 5.84,-0.64 l 0,-1.52 c -10e-6,-1.53332 -0.33335,-2.68665 -1,-3.46 -0.65334,-0.78665 -1.62001,-1.17998 -2.9,-1.18 -0.86667,2e-5 -1.59334,0.11335 -2.18,0.34 -0.57334,0.21335 -1.07334,0.45335 -1.5,0.72 -0.41334,0.25335 -0.78,0.48669 -1.1,0.7 -0.32,0.21335 -0.64,0.32002 -0.96,0.32 -0.26667,2e-5 -0.49334,-0.0667 -0.68,-0.2 -0.17334,-0.14665 -0.32667,-0.31331 -0.46,-0.5 l -0.68,-1.24 c 1.13333,-1.06665 2.35333,-1.86664 3.66,-2.4 1.31999,-0.53331 2.77333,-0.79998 4.36,-0.8 1.14666,2e-5 2.16666,0.18669 3.06,0.56 0.89332,0.37336 1.63999,0.90002 2.24,1.58 0.61332,0.66669 1.07332,1.47335 1.38,2.42 0.31998,0.94668 0.47998,1.99335 0.48,3.14 l 0,12.96 -1.68,0 m -7.62,-2.34 c 0.59999,10e-6 1.15333,-0.06 1.66,-0.18 0.51999,-0.11999 0.99999,-0.29333 1.44,-0.52 0.45332,-0.22666 0.87999,-0.49999 1.28,-0.82 0.39999,-0.33333 0.79999,-0.70666 1.2,-1.12 l 0,-4.08 c -1.60001,0.0534 -2.96001,0.18001 -4.08,0.38 -1.12001,0.20001 -2.03334,0.46001 -2.74,0.78 -0.69334,0.32001 -1.2,0.70668 -1.52,1.16 -0.32,0.44001 -0.48,0.92668 -0.48,1.46 0,0.52001 0.08,0.96667 0.24,1.34 0.17333,0.37334 0.40666,0.68001 0.7,0.92 0.29333,0.22667 0.63333,0.40001 1.02,0.52 0.39999,0.10667 0.82666,0.16001 1.28,0.16"
         id="path3076"
         style="line-height:125%;fill:#000000;font-family:Lato;-inkscape-font-specification:Lato Medium" />
      <path
         d="m 379.67041,637.8504 0,29.5 -3.8,0 0,-29.5 3.8,0"
         id="path3078"
         style="line-height:125%;fill:#000000;font-family:Lato;-inkscape-font-specification:Lato Medium" />
      <path
         d="m 389.28166,647.0504 0,20.3 -3.8,0 0,-20.3 3.8,0 m 0.74,-6.3 c -10e-6,0.36003 -0.0733,0.70003 -0.22,1.02 -0.13334,0.30669 -0.32668,0.58003 -0.58,0.82 -0.24001,0.24003 -0.52668,0.43336 -0.86,0.58 -0.32001,0.13336 -0.66001,0.20003 -1.02,0.2 -0.34667,3e-5 -0.68001,-0.0666 -1,-0.2 -0.30667,-0.14664 -0.58001,-0.33997 -0.82,-0.58 -0.24001,-0.23997 -0.43334,-0.51331 -0.58,-0.82 -0.13334,-0.31997 -0.20001,-0.65997 -0.2,-1.02 -1e-5,-0.35997 0.0667,-0.69997 0.2,-1.02 0.14666,-0.3333 0.33999,-0.61997 0.58,-0.86 0.23999,-0.23997 0.51333,-0.42663 0.82,-0.56 0.31999,-0.14663 0.65333,-0.21997 1,-0.22 0.35999,3e-5 0.69999,0.0734 1.02,0.22 0.33332,0.13337 0.61999,0.32003 0.86,0.56 0.25332,0.24003 0.44666,0.5267 0.58,0.86 0.14666,0.32003 0.21999,0.66003 0.22,1.02"
         id="path3080"
         style="line-height:125%;fill:#000000;font-family:Lato;-inkscape-font-specification:Lato Medium" />
      <path
         d="m 409.64916,667.3504 c -0.53335,0 -0.86669,-0.25333 -1,-0.76 l -0.34,-2.38 c -0.42669,0.52001 -0.88669,0.99334 -1.38,1.42 -0.49335,0.41334 -1.02002,0.77334 -1.58,1.08 -0.56002,0.29334 -1.15335,0.52 -1.78,0.68 -0.62668,0.16 -1.30001,0.24 -2.02,0.24 -1.16001,0 -2.21334,-0.22 -3.16,-0.66 -0.93334,-0.45333 -1.74001,-1.12 -2.42,-2 -0.66667,-0.87999 -1.18001,-1.95999 -1.54,-3.24 -0.36001,-1.29332 -0.54001,-2.77999 -0.54,-4.46 -1e-5,-1.50665 0.19999,-2.89998 0.6,-4.18 0.39999,-1.29331 0.97999,-2.41331 1.74,-3.36 0.75999,-0.94665 1.67999,-1.68664 2.76,-2.22 1.07999,-0.54664 2.29999,-0.81998 3.66,-0.82 1.22665,2e-5 2.27332,0.20669 3.14,0.62 0.87998,0.40002 1.65998,0.96669 2.34,1.7 l 0,-11.16 3.8,0 0,29.5 -2.28,0 m -6.86,-2.78 c 1.13332,1e-5 2.12665,-0.25333 2.98,-0.76 0.85332,-0.51999 1.63998,-1.25333 2.36,-2.2 l 0,-9.68 c -0.64002,-0.85331 -1.34002,-1.44665 -2.1,-1.78 -0.76002,-0.34665 -1.60002,-0.51998 -2.52,-0.52 -1.82668,2e-5 -3.23334,0.65335 -4.22,1.96 -0.98668,1.30668 -1.48001,3.20002 -1.48,5.68 -1e-5,1.29334 0.11332,2.40001 0.34,3.32 0.22666,0.92001 0.55332,1.68001 0.98,2.28 0.42666,0.58667 0.94666,1.02001 1.56,1.3 0.61332,0.26667 1.31332,0.40001 2.1,0.4"
         id="path3082"
         style="line-height:125%;fill:#000000;font-family:Lato;-inkscape-font-specification:Lato Medium" />
      <path
         d="m 421.39103,647.0504 0,20.3 -3.8,0 0,-20.3 3.8,0 m 0.74,-6.3 c -1e-5,0.36003 -0.0733,0.70003 -0.22,1.02 -0.13334,0.30669 -0.32667,0.58003 -0.58,0.82 -0.24,0.24003 -0.52667,0.43336 -0.86,0.58 -0.32,0.13336 -0.66,0.20003 -1.02,0.2 -0.34667,3e-5 -0.68,-0.0666 -1,-0.2 -0.30667,-0.14664 -0.58,-0.33997 -0.82,-0.58 -0.24,-0.23997 -0.43333,-0.51331 -0.58,-0.82 -0.13333,-0.31997 -0.2,-0.65997 -0.2,-1.02 0,-0.35997 0.0667,-0.69997 0.2,-1.02 0.14667,-0.3333 0.34,-0.61997 0.58,-0.86 0.24,-0.23997 0.51333,-0.42663 0.82,-0.56 0.32,-0.14663 0.65333,-0.21997 1,-0.22 0.36,3e-5 0.7,0.0734 1.02,0.22 0.33333,0.13337 0.62,0.32003 0.86,0.56 0.25333,0.24003 0.44666,0.5267 0.58,0.86 0.14666,0.32003 0.21999,0.66003 0.22,1.02"
         id="path3084"
         style="line-height:125%;fill:#000000;font-family:Lato;-inkscape-font-specification:Lato Medium" />
      <path
         d="m 433.41853,667.6704 c -1.62667,0 -2.88,-0.45333 -3.76,-1.36 -0.88,-0.90666 -1.32,-2.21333 -1.32,-3.92 l 0,-12.24 -2.38,0 c -0.22667,2e-5 -0.41333,-0.0666 -0.56,-0.2 -0.14667,-0.14665 -0.22,-0.35331 -0.22,-0.62 l 0,-1.52 3.3,-0.44 0.86,-6.14 c 0.0533,-0.2133 0.15333,-0.37997 0.3,-0.5 0.14666,-0.1333 0.34,-0.19997 0.58,-0.2 l 1.92,0 0,6.86 5.78,0 0,2.76 -5.78,0 0,11.98 c -10e-6,0.81334 0.19333,1.42667 0.58,1.84 0.39999,0.40001 0.91999,0.60001 1.56,0.6 0.35999,1e-5 0.67332,-0.0467 0.94,-0.14 0.26666,-0.0933 0.49332,-0.19999 0.68,-0.32 0.18666,-0.11999 0.34666,-0.22666 0.48,-0.32 0.14666,-0.0933 0.27332,-0.13999 0.38,-0.14 0.11999,10e-6 0.21332,0.0267 0.28,0.08 0.08,0.0533 0.15999,0.14667 0.24,0.28 l 1.12,1.82 c -0.64001,0.58667 -1.40001,1.04 -2.28,1.36 -0.86668,0.32 -1.76668,0.48 -2.7,0.48"
         id="path3086"
         style="line-height:125%;fill:#000000;font-family:Lato;-inkscape-font-specification:Lato Medium" />
      <path
         d="m 447.93166,673.2704 c -0.12001,0.29333 -0.27335,0.51333 -0.46,0.66 -0.18668,0.16 -0.47335,0.24 -0.86,0.24 l -2.82,0 3.72,-8.06 -8.36,-19.06 3.3,0 c 0.31999,2e-5 0.57333,0.08 0.76,0.24 0.18666,0.14669 0.31333,0.32002 0.38,0.52 l 5.26,12.4 c 0.22665,0.61334 0.40665,1.22001 0.54,1.82 0.0933,-0.30666 0.19332,-0.61332 0.3,-0.92 0.10665,-0.31999 0.21999,-0.63332 0.34,-0.94 l 5.08,-12.36 c 0.08,-0.22664 0.21998,-0.40664 0.42,-0.54 0.19998,-0.14664 0.42665,-0.21998 0.68,-0.22 l 3.02,0 -11.3,26.22"
         id="path3088"
         style="line-height:125%;fill:#000000;font-family:Lato;-inkscape-font-specification:Lato Medium" />
    </g>
    <rect
       width="566.92908"
       height="106.29923"
       ry="14.173257"
       x="495.56299"
       y="695.69684"
       id="rect3757-9-54-5"
       style="fill:#bddd8c;fill-opacity:1;stroke:none" />
    <rect
       width="106.29922"
       height="106.29923"
       ry="14.173257"
       x="495.56299"
       y="695.69684"
       id="rect2985-11-0-5-0-9-2"
       style="fill:#5e8227;fill-opacity:1;stroke:none" />
    <g
       id="text4256-1-6-8-6-5-77-9"
       style="font-size:40px;font-style:normal;font-variant:normal;font-weight:500;font-stretch:normal;text-align:center;line-height:125%;letter-spacing:0px;word-spacing:0px;writing-mode:lr-tb;text-anchor:middle;fill:#ffffff;fill-opacity:1;stroke:none;font-family:Lato;-inkscape-font-specification:Lato Medium">
      <path
         d="m 542.6026,760.30648 6.1,0 0,-19.06 c -10e-6,-0.58664 0.02,-1.19331 0.06,-1.82 l -4.94,4.22 c -0.18667,0.14669 -0.37334,0.24002 -0.56,0.28 -0.17334,0.04 -0.34001,0.0467 -0.5,0.02 -0.16001,-0.04 -0.30667,-0.1 -0.44,-0.18 -0.13334,-0.08 -0.23334,-0.16665 -0.3,-0.26 l -1.18,-1.66 8.58,-7.4 3.08,0 0,25.86 5.58,0 0,2.9 -15.48,0 0,-2.9"
         id="path3057"
         style="line-height:125%;fill:#ffffff;font-family:Lato;-inkscape-font-specification:Lato Medium" />
    </g>
    <rect
       width="283.46457"
       height="106.29923"
       ry="14.173257"
       x="1062.4921"
       y="695.69684"
       id="rect3757-9-54-0"
       style="fill:#bddd8c;fill-opacity:1;stroke:none" />
    <rect
       width="106.29922"
       height="106.29923"
       ry="14.173257"
       x="1062.4921"
       y="695.69684"
       id="rect2985-11-0-5-0-9-4"
       style="fill:#5e8227;fill-opacity:1;stroke:none" />
    <g
       id="text4256-1-6-8-6-5-77-94"
       style="font-size:40px;font-style:normal;font-variant:normal;font-weight:500;font-stretch:normal;text-align:center;line-height:125%;letter-spacing:0px;word-spacing:0px;writing-mode:lr-tb;text-anchor:middle;fill:#ffffff;fill-opacity:1;stroke:none;font-family:Lato;-inkscape-font-specification:Lato Medium">
      <path
         d="m 1116.4317,734.18648 c 1.24,3e-5 2.3866,0.1867 3.44,0.56 1.0533,0.36003 1.9666,0.8867 2.74,1.58 0.7733,0.68003 1.38,1.52003 1.82,2.52 0.44,0.98669 0.66,2.10669 0.66,3.36 0,1.06669 -0.16,2.06002 -0.48,2.98 -0.3067,0.90669 -0.7334,1.77335 -1.28,2.6 -0.5334,0.82668 -1.16,1.63335 -1.88,2.42 -0.7067,0.78668 -1.46,1.58001 -2.26,2.38 l -7.38,7.52 c 0.5466,-0.14666 1.1,-0.26666 1.66,-0.36 0.56,-0.0933 1.0933,-0.13999 1.6,-0.14 l 9.24,0 c 0.4133,10e-6 0.74,0.12001 0.98,0.36 0.24,0.24 0.36,0.55334 0.36,0.94 l 0,2.3 -19.24,0 0,-1.3 c 0,-0.26666 0.053,-0.54 0.16,-0.82 0.12,-0.29333 0.3,-0.55333 0.54,-0.78 l 9.1,-9.16 c 0.76,-0.77332 1.4466,-1.51332 2.06,-2.22 0.6133,-0.70665 1.14,-1.41332 1.58,-2.12 0.44,-0.70665 0.7733,-1.41998 1,-2.14 0.24,-0.73331 0.36,-1.51331 0.36,-2.34 0,-0.81331 -0.1267,-1.52664 -0.38,-2.14 -0.2534,-0.61331 -0.6067,-1.12664 -1.06,-1.54 -0.44,-0.41331 -0.9667,-0.71997 -1.58,-0.92 -0.6134,-0.19997 -1.2734,-0.29997 -1.98,-0.3 -0.7067,3e-5 -1.3534,0.10669 -1.94,0.32 -0.5867,0.20003 -1.1134,0.48669 -1.58,0.86 -0.4534,0.36003 -0.84,0.79336 -1.16,1.3 -0.3067,0.49336 -0.5267,1.04002 -0.66,1.64 -0.1734,0.49336 -0.4067,0.82669 -0.7,1 -0.28,0.16002 -0.68,0.20002 -1.2,0.12 l -2,-0.36 c 0.2,-1.31998 0.5666,-2.48664 1.1,-3.5 0.5466,-1.01331 1.2333,-1.85997 2.06,-2.54 0.8266,-0.6933 1.7733,-1.2133 2.84,-1.56 1.0666,-0.34664 2.22,-0.51997 3.46,-0.52"
         id="path3054"
         style="line-height:125%;fill:#ffffff;font-family:Lato;-inkscape-font-specification:Lato Medium" />
    </g>
  </g>
</svg>
