<?xml version="1.0" encoding="UTF-8"?>
<svg width="735.76" height="425.2" version="1.1" xmlns="http://www.w3.org/2000/svg" xmlns:cc="http://creativecommons.org/ns#" xmlns:dc="http://purl.org/dc/elements/1.1/" xmlns:rdf="http://www.w3.org/1999/02/22-rdf-syntax-ns#" xmlns:xlink="http://www.w3.org/1999/xlink">
 <defs>
  <linearGradient id="linearGradient3634" x1="492.28" x2="601.68" y1="604.25" y2="604.25" gradientTransform="matrix(.7039 0 0 1.0046 237.98 -2.8031)" gradientUnits="userSpaceOnUse">
   <stop stop-color="#5e8227" offset="0"/>
   <stop stop-color="#5e8227" stop-opacity="0" offset="1"/>
  </linearGradient>
  <linearGradient id="linearGradient3642" x1="492.28" x2="601.68" y1="604.25" y2="604.25" gradientTransform="matrix(.7039 0 0 1.0046 237.98 -2.8031)" gradientUnits="userSpaceOnUse">
   <stop stop-color="#4c6921" offset="0"/>
   <stop stop-color="#4c6921" stop-opacity="0" offset="1"/>
  </linearGradient>
 </defs>
 <metadata>
  <rdf:RDF>
   <cc:Work rdf:about="">
    <dc:format>image/svg+xml</dc:format>
    <dc:type rdf:resource="http://purl.org/dc/dcmitype/StillImage"/>
    <dc:title/>
   </cc:Work>
  </rdf:RDF>
 </metadata>
 <g transform="translate(.5 -518.72)">
  <g transform="rotate(-90 187.44 505.24)">
   <path d="m88.083 540.5-6e-6 66.161" fill="none" stroke="#5e8227" stroke-dasharray="10.6299, 10.6299" stroke-linecap="square" stroke-width="3.5433"/>
   <path d="m77.453 603.57 10.63 21.26 10.63-21.26c-7.0866 7.0866-14.173 7.0866-21.26 0z" fill="#5e8227"/>
  </g>
  <g transform="translate(-8 70.866)">
   <path d="m88.083 589.4v21.26" fill="none" stroke="#484848" stroke-linecap="square" stroke-width="3.5433"/>
   <path d="m77.453 603.57 10.63 21.26 10.63-21.26c-7.0866 7.0866-14.173 7.0866-21.26 0z" fill="#484848"/>
  </g>
  <rect x="34.933" y="553.96" width="106.3" height="106.3" ry="14.173" fill="#5e8227"/>
  <g transform="translate(.034761 -130.93)">
   <text x="88.041664" y="752.38977" fill="#ffffff" font-family="Lato" font-weight="500" letter-spacing="0px" text-align="center" text-anchor="middle" word-spacing="0px" style="line-height:0%" xml:space="preserve"><tspan x="88.041664" y="752.38977" fill="#ffffff" font-family="Lato" font-size="40px" font-weight="500" text-align="center" text-anchor="middle" style="line-height:125%">A</tspan></text>
  </g>
  <rect x="34.933" y="695.7" width="106.3" height="106.3" ry="14.173" fill="#266580"/>
  <g fill="#ffffff" font-family="Lato" font-weight="500" letter-spacing="0px" text-anchor="middle" word-spacing="0px">
   <text x="87.261429" y="763.19641" text-align="center" style="line-height:0%" xml:space="preserve"><tspan x="87.261429" y="763.19641" fill="#ffffff" font-family="Lato" font-size="40px" font-weight="500" text-align="center" text-anchor="middle" style="line-height:125%">B</tspan></text>
   <text x="641.26416" y="761.47424" text-align="center" style="line-height:0%" xml:space="preserve"><tspan x="641.26416" y="761.47424" fill="#ffffff" font-family="Lato" font-size="40px" font-weight="500" text-align="center" text-anchor="middle" style="line-height:125%">2</tspan></text>
   <text x="833.51587" y="619.40356" text-align="center" style="line-height:0%" xml:space="preserve"><tspan x="833.51587" y="619.40356" fill="#ffffff" font-family="Lato" font-size="40px" font-weight="500" text-align="center" text-anchor="middle" style="line-height:125%">3</tspan></text>
   <text x="832.72876" y="761.47418" text-align="center" style="line-height:0%" xml:space="preserve"><tspan x="832.72876" y="761.47418" fill="#ffffff" font-family="Lato" font-size="40px" font-weight="500" text-align="center" text-anchor="middle" style="line-height:125%">4</tspan></text>
   <text x="1115.9252" y="619.82397" text-align="center" style="line-height:0%" xml:space="preserve"><tspan x="1115.9252" y="619.82397" fill="#ffffff" font-family="Lato" font-size="40px" font-weight="500" text-align="center" text-anchor="middle" style="line-height:125%">5</tspan></text>
   <text x="1114.4332" y="763.20648" text-align="center" style="line-height:0%" xml:space="preserve"><tspan x="1114.4332" y="763.20648" fill="#ffffff" font-family="Lato" font-size="40px" font-weight="500" text-align="center" text-anchor="middle" style="line-height:125%">7</tspan></text>
  </g>
  <g fill="none" stroke="#484848" stroke-linecap="round" stroke-width="3.5433">
   <path d="m261.74 836h413.64" stroke-linejoin="round"/>
   <path d="m660.11 821.82 21.26 14.173-21.26 14.173"/>
   <path d="m305.74 838v28.346" stroke-linejoin="round"/>
   <path d="m589.2 836v28.346" stroke-linejoin="round"/>
  </g>
  <text x="1116.1619" y="622.04114" fill="#ffffff" font-family="Lato" font-weight="500" letter-spacing="0px" text-align="center" text-anchor="middle" word-spacing="0px" style="line-height:0%" xml:space="preserve"><tspan x="1116.1619" y="622.04114" fill="#ffffff" font-family="Lato" font-size="40px" font-weight="500" text-align="center" text-anchor="middle" style="line-height:125%">4</tspan></text>
  <text x="1399.6263" y="622.04114" fill="#ffffff" font-family="Lato" font-weight="500" letter-spacing="0px" text-align="center" text-anchor="middle" word-spacing="0px" style="line-height:0%" xml:space="preserve"><tspan x="1399.6263" y="622.04114" fill="#ffffff" font-family="Lato" font-size="40px" font-weight="500" text-align="center" text-anchor="middle" style="line-height:125%">6</tspan></text>
  <g fill="#266580" stroke="#20516a" stroke-width="3.1">
   <rect x="367.26" y="676.26" width="106.3" height="106.3" ry="14.173"/>
   <rect x="337.83" y="686.26" width="106.3" height="106.3" ry="14.173"/>
   <rect x="305.83" y="696.26" width="106.3" height="106.3" ry="14.173"/>
  </g>
  <text x="389.77185" y="760.34033" fill="#ffffff" font-family="Lato" font-weight="500" letter-spacing="0px" text-align="center" text-anchor="middle" word-spacing="0px" style="line-height:0%" xml:space="preserve"><tspan x="389.77185" y="760.34033" fill="#ffffff" font-family="Lato" font-size="40px" font-weight="500" text-align="center" text-anchor="middle" style="line-height:125%">1</tspan></text>
  <g transform="matrix(1 0 0 -1 12 1283.3)">
   <path d="m88.083 589.4v21.26" fill="none" stroke="#484848" stroke-linecap="square" stroke-width="3.5433"/>
   <path d="m77.453 603.57 10.63 21.26 10.63-21.26c-7.0866 7.0866-14.173 7.0866-21.26 0z" fill="#484848"/>
  </g>
  <g>
   <rect x="367.53" y="530.53" width="106.3" height="106.3" ry="14.173" fill="#5e8227" stroke="#4c6921" stroke-width="3.1"/>
   <rect x="336.96" y="540.53" width="106.3" height="106.3" ry="14.173" fill="#5e8227" stroke="#4c6921" stroke-width="3.1"/>
   <text x="425.23267" y="607.47424" fill="#ffffff" font-family="Lato" font-weight="500" letter-spacing="0px" text-align="center" text-anchor="middle" word-spacing="0px" style="line-height:0%" xml:space="preserve"><tspan x="425.23267" y="607.47424" fill="#ffffff" font-family="Lato" font-size="40px" font-weight="500" text-align="center" text-anchor="middle" style="line-height:125%">2</tspan></text>
   <rect x="306.4" y="551.1" width="106.3" height="106.3" ry="14.173" fill="#5e8227" stroke="#4c6921" stroke-opacity=".65" stroke-width="3.1"/>
  </g>
  <g transform="rotate(-90 327.44 365.24)">
   <path d="m88.083 514.5-6e-6 92.161" fill="none" stroke="#5e8227" stroke-dasharray="10.6299, 10.6299" stroke-linecap="square" stroke-width="3.5433"/>
   <path d="m77.453 603.57 10.63 21.26 10.63-21.26c-7.0866 7.0866-14.173 7.0866-21.26 0z" fill="#5e8227"/>
  </g>
  <g transform="matrix(1 0 0 -1 322.63 1273.3)" fill="#2d7b9f" stroke="#2d7b9f">
   <path d="m72.161 580.17 15.921 30.492" stroke-linecap="square" stroke-width="3.5433"/>
   <path d="m77.453 603.57 15.969 19.115 5.2913-19.115c-7.0866 7.0866-14.173 7.0866-21.26 0z"/>
  </g>
  <g fill="#739e2e">
   <g transform="translate(335.72 57.953)" stroke="#6d962c">
    <path d="m88.083 589.4v21.26" stroke-linecap="square" stroke-width="3.5433"/>
    <path d="m77.453 603.57 10.63 21.26 10.63-21.26c-7.0866 7.0866-14.173 7.0866-21.26 0z"/>
   </g>
   <g transform="translate(375.94 48.913)" stroke="#749e2e">
    <path d="m88.083 589.4v21.26" stroke-linecap="square" stroke-width="3.5433"/>
    <path d="m77.453 603.57 10.63 21.26 10.63-21.26c-7.0866 7.0866-14.173 7.0866-21.26 0z"/>
   </g>
   <g transform="translate(292.28 69.039)" stroke="#739e2e">
    <path d="m88.083 589.4v21.26" stroke-linecap="square" stroke-width="3.5433"/>
    <path d="m77.453 603.57 10.63 21.26 10.63-21.26c-7.0866 7.0866-14.173 7.0866-21.26 0z"/>
   </g>
  </g>
  <g transform="matrix(1 0 0 -1 355.54 1263.3)" fill="#2d7c9f" stroke="#2d7c9f">
   <path d="m72.161 580.17 15.921 30.492" stroke-linecap="square" stroke-width="3.5433"/>
   <path d="m77.453 603.57 15.969 19.115 5.2913-19.115c-7.0866 7.0866-14.173 7.0866-21.26 0z"/>
  </g>
  <rect x="585.58" y="550.85" width="74.824" height="106.79" ry="14.239" fill="url(#linearGradient3634)" stroke="url(#linearGradient3642)" stroke-width="2.6069"/>
  <g fill="#ffffff" font-family="Lato" font-weight="500" letter-spacing="0px" text-anchor="middle" word-spacing="0px">
   <text x="389.79959" y="619.47424" text-align="center" style="line-height:0%" xml:space="preserve"><tspan x="389.79959" y="619.47424" fill="#ffffff" font-family="Lato" font-size="40px" font-weight="500" text-align="center" text-anchor="middle" style="line-height:125%">0</tspan></text>
   <text x="426.90573" y="749.20648" text-align="center" style="line-height:0%" xml:space="preserve"><tspan x="426.90573" y="749.20648" fill="#ffffff" font-family="Lato" font-size="40px" font-weight="500" text-align="center" text-anchor="middle" style="line-height:125%">3</tspan></text>
   <text x="460.09882" y="593.47418" text-align="center" style="line-height:0%" xml:space="preserve"><tspan x="460.09882" y="593.47418" fill="#ffffff" font-family="Lato" font-size="40px" font-weight="500" text-align="center" text-anchor="middle" style="line-height:125%">4</tspan></text>
   <text x="460.33884" y="735.77344" text-align="center" style="line-height:0%" xml:space="preserve"><tspan x="460.33884" y="735.77344" fill="#ffffff" font-family="Lato" font-size="40px" font-weight="500" text-align="center" text-anchor="middle" style="line-height:125%">5</tspan></text>
  </g>
  <text x="307.69919" y="906.48212" fill="#484848" font-family="Lato" font-weight="500" letter-spacing="0px" text-align="center" text-anchor="middle" word-spacing="0px" style="line-height:0%" xml:space="preserve"><tspan x="307.69919" y="906.48212" fill="#484848" font-family="Lato" font-size="40px" font-weight="500" text-align="center" text-anchor="middle" style="line-height:125%">i</tspan></text>
  <text x="593.5238" y="906.29535" fill="#484848" font-family="Lato" font-weight="500" letter-spacing="0px" text-align="center" text-anchor="middle" word-spacing="0px" style="line-height:0%" xml:space="preserve"><tspan x="593.5238" y="906.29535" fill="#484848" font-family="Lato" font-size="40px" font-weight="500" text-align="center" text-anchor="middle" style="line-height:125%">i + 1</tspan></text>
 </g>
</svg>
