<?xml version="1.0" encoding="UTF-8"?>
<svg width="384.38mm" height="112.5mm" version="1.1" xmlns="http://www.w3.org/2000/svg" xmlns:cc="http://creativecommons.org/ns#" xmlns:dc="http://purl.org/dc/elements/1.1/" xmlns:rdf="http://www.w3.org/1999/02/22-rdf-syntax-ns#">
 <metadata>
  <rdf:RDF>
   <cc:Work rdf:about="">
    <dc:format>image/svg+xml</dc:format>
    <dc:type rdf:resource="http://purl.org/dc/dcmitype/StillImage"/>
    <dc:title/>
   </cc:Work>
  </rdf:RDF>
 </metadata>
 <g transform="translate(.5 -518.72)">
  <g transform="translate(457.6 68.689)">
   <path d="m88.083 589.4v21.26" fill="none" stroke="#5e8227" stroke-dasharray="10.6299, 10.6299" stroke-linecap="square" stroke-width="3.5433"/>
   <path d="m77.453 603.57 10.63 21.26 10.63-21.26c-7.0866 7.0866-14.173 7.0866-21.26 0z" fill="#5e8227"/>
  </g>
  <g fill="#484848">
   <path d="m224.04 893.64c-2e-5 2.5067-0.27335 4.68-0.82 6.52-0.53335 1.84-1.2734 3.3667-2.22 4.58-0.93335 1.2-2.04 2.0933-3.32 2.68-1.2667 0.58667-2.6333 0.88-4.1 0.88-1.4667 0-2.8333-0.29333-4.1-0.88-1.2667-0.58667-2.3733-1.48-3.32-2.68-0.93333-1.2133-1.6667-2.74-2.2-4.58-0.53333-1.84-0.8-4.0133-0.8-6.52 0-2.5066 0.26667-4.68 0.8-6.52 0.53333-1.84 1.2667-3.36 2.2-4.56 0.94666-1.2133 2.0533-2.1133 3.32-2.7 1.2667-0.58664 2.6333-0.87997 4.1-0.88 1.4667 3e-5 2.8333 0.29336 4.1 0.88 1.28 0.58669 2.3866 1.4867 3.32 2.7 0.94665 1.2 1.6866 2.72 2.22 4.56 0.54665 1.84 0.81998 4.0134 0.82 6.52m-3.94 0c-2e-5 -2.16-0.18001-3.9733-0.54-5.44-0.36001-1.4666-0.84001-2.6466-1.44-3.54-0.60001-0.89331-1.2934-1.5266-2.08-1.9-0.78668-0.38664-1.6067-0.57997-2.46-0.58-0.85334 3e-5 -1.6733 0.19336-2.46 0.58-0.78667 0.37336-1.48 1.0067-2.08 1.9-0.6 0.89336-1.08 2.0734-1.44 3.54-0.34667 1.4667-0.52 3.28-0.52 5.44 0 2.1733 0.17333 3.9933 0.52 5.46 0.36 1.4667 0.84 2.6467 1.44 3.54 0.6 0.88 1.2933 1.5133 2.08 1.9 0.78666 0.37334 1.6067 0.56 2.46 0.56 0.85332 0 1.6733-0.18666 2.46-0.56 0.78665-0.38666 1.48-1.02 2.08-1.9 0.59999-0.89333 1.08-2.0733 1.44-3.54 0.35999-1.4667 0.53998-3.2867 0.54-5.46" fill="#484848"/>
  </g>
  <path d="m212.1 837.43h1085.6" fill="none" stroke="#484848" stroke-linecap="round" stroke-linejoin="round" stroke-width="3.5433"/>
  <path d="m1280.5 823.26 21.26 14.173-21.26 14.173" fill="none" stroke="#484848" stroke-linecap="round" stroke-width="3.5433"/>
  <g transform="translate(3e-6 70.866)">
   <path d="m88.083 589.4v21.26" fill="none" stroke="#484848" stroke-linecap="square" stroke-width="3.5433"/>
   <path d="m77.453 603.57 10.63 21.26 10.63-21.26c-7.0866 7.0866-14.173 7.0866-21.26 0z" fill="#484848"/>
  </g>
  <rect x="34.933" y="553.96" width="106.3" height="106.3" ry="14.173" fill="#5e8227"/>
  <rect x="212.1" y="553.96" width="106.3" height="106.3" ry="14.173" fill="#5e8227"/>
  <g fill="none" stroke="#484848" stroke-linecap="round" stroke-linejoin="round" stroke-width="3.5433">
   <path d="m212.1 837.43v28.346"/>
   <path d="m495.56 837.43v28.346"/>
   <path d="m779.03 837.43v28.346"/>
   <path d="m1062.5 837.43v28.346"/>
  </g>
  <g>
   <g fill="#484848">
    <path d="m490.2 905.58h6.1v-19.06c-1e-5 -0.58665 0.02-1.1933 0.06-1.82l-4.94 4.22c-0.18667 0.14668-0.37334 0.24001-0.56 0.28-0.17334 0.04-0.34 0.0467-0.5 0.02-0.16-0.04-0.30667-0.1-0.44-0.18-0.13334-0.08-0.23334-0.16665-0.3-0.26l-1.18-1.66 8.58-7.4h3.08v25.86h5.58v2.9h-15.48v-2.9"/>
    <path d="m780.93 879.28c1.24 3e-5 2.3866 0.18669 3.44 0.56 1.0533 0.36003 1.9666 0.88669 2.74 1.58 0.77331 0.68002 1.38 1.52 1.82 2.52 0.43998 0.98669 0.65997 2.1067 0.66 3.36-3e-5 1.0667-0.16002 2.06-0.48 2.98-0.30669 0.90668-0.73336 1.7734-1.28 2.6-0.53336 0.82668-1.16 1.6334-1.88 2.42-0.70669 0.78668-1.46 1.58-2.26 2.38l-7.38 7.52c0.54665-0.14667 1.1-0.26667 1.66-0.36 0.55999-0.0933 1.0933-0.14 1.6-0.14h9.24c0.41331 0 0.73997 0.12 0.98 0.36 0.23997 0.24 0.35997 0.55333 0.36 0.94v2.3h-19.24v-1.3c-1e-5 -0.26667 0.0533-0.54 0.16-0.82 0.11999-0.29333 0.29999-0.55333 0.54-0.78l9.1-9.16c0.75998-0.77332 1.4466-1.5133 2.06-2.22 0.61331-0.70665 1.14-1.4133 1.58-2.12 0.43998-0.70665 0.77331-1.42 1-2.14 0.23998-0.73332 0.35998-1.5133 0.36-2.34-2e-5 -0.81331-0.12669-1.5266-0.38-2.14-0.25335-0.61331-0.60669-1.1266-1.06-1.54-0.44002-0.41331-0.96669-0.71998-1.58-0.92-0.61335-0.19998-1.2734-0.29998-1.98-0.3-0.70668 2e-5 -1.3534 0.10669-1.94 0.32-0.58668 0.20002-1.1134 0.48669-1.58 0.86-0.45335 0.36002-0.84001 0.79336-1.16 1.3-0.30668 0.49335-0.52668 1.04-0.66 1.64-0.17334 0.49335-0.40668 0.82669-0.7 1-0.28001 0.16002-0.68001 0.20002-1.2 0.12l-2-0.36c0.19999-1.32 0.56666-2.4866 1.1-3.5 0.54666-1.0133 1.2333-1.86 2.06-2.54 0.82666-0.69331 1.7733-1.2133 2.84-1.56 1.0666-0.34664 2.22-0.51997 3.46-0.52"/>
    <path d="m1064.6 878.96c1.24 3e-5 2.3733 0.18003 3.4 0.54 1.0266 0.3467 1.9066 0.8467 2.64 1.5 0.7466 0.64003 1.3266 1.4134 1.74 2.32 0.4133 0.89336 0.62 1.8867 0.62 2.98 0 0.92002-0.1134 1.74-0.34 2.46-0.2267 0.70669-0.5534 1.3267-0.98 1.86-0.4267 0.53335-0.9467 0.98668-1.56 1.36-0.6 0.36002-1.28 0.66002-2.04 0.9 1.8533 0.50668 3.24 1.3334 4.16 2.48 0.9333 1.1467 1.4 2.5933 1.4 4.34 0 1.3467-0.2534 2.5533-0.76 3.62-0.5067 1.0533-1.1934 1.9533-2.06 2.7-0.8667 0.73334-1.8867 1.3-3.06 1.7-1.16 0.38667-2.4 0.58-3.72 0.58-1.5067 0-2.8-0.18667-3.88-0.56s-2-0.88666-2.76-1.54c-0.76-0.66666-1.3867-1.46-1.88-2.38-0.4933-0.91999-0.9067-1.9267-1.24-3.02l1.64-0.7c0.4267-0.18666 0.84-0.23999 1.24-0.16 0.4 0.08 0.6933 0.31334 0.88 0.7 0.1867 0.38667 0.4133 0.83334 0.68 1.34 0.2667 0.50667 0.62 0.99334 1.06 1.46 0.44 0.45334 0.9933 0.84 1.66 1.16 0.68 0.30667 1.5333 0.46 2.56 0.46 0.9733 0 1.8267-0.16 2.56-0.48s1.34-0.73333 1.82-1.24c0.4933-0.50666 0.86-1.0667 1.1-1.68 0.24-0.62666 0.36-1.2467 0.36-1.86 0-0.75999-0.1-1.4533-0.3-2.08-0.1867-0.62666-0.5467-1.1666-1.08-1.62-0.52-0.45332-1.2533-0.80665-2.2-1.06-0.9333-0.25332-2.1467-0.37999-3.64-0.38v-2.76c1.2267-0.0133 2.26-0.13998 3.1-0.38 0.8533-0.25332 1.5467-0.59332 2.08-1.02 0.5333-0.43998 0.9133-0.95998 1.14-1.56 0.24-0.59998 0.36-1.26 0.36-1.98 0-0.79998-0.1267-1.4933-0.38-2.08-0.24-0.59998-0.58-1.0933-1.02-1.48-0.44-0.39997-0.96-0.69997-1.56-0.9-0.6-0.19997-1.2533-0.29997-1.96-0.3-0.7067 3e-5 -1.36 0.10669-1.96 0.32-0.5867 0.20003-1.1133 0.48669-1.58 0.86-0.4533 0.36003-0.84 0.79336-1.16 1.3-0.3067 0.49336-0.5267 1.04-0.66 1.64-0.1867 0.49336-0.42 0.82669-0.7 1-0.2667 0.16002-0.66 0.20002-1.18 0.12l-2-0.36c0.1867-1.32 0.5533-2.4866 1.1-3.5 0.5467-1.0133 1.2333-1.86 2.06-2.54 0.8267-0.6933 1.7733-1.2133 2.84-1.56 1.0667-0.34664 2.22-0.51997 3.46-0.52"/>
   </g>
   <g fill="#fff">
    <path d="m276.24 607.11c-2e-5 2.5067-0.27336 4.68-0.82 6.52-0.53336 1.84-1.2734 3.3667-2.22 4.58-0.93335 1.2-2.04 2.0933-3.32 2.68-1.2667 0.58667-2.6334 0.88-4.1 0.88-1.4667 0-2.8333-0.29333-4.1-0.88-1.2667-0.58666-2.3733-1.48-3.32-2.68-0.93334-1.2133-1.6667-2.74-2.2-4.58-0.53334-1.84-0.8-4.0133-0.8-6.52 0-2.5066 0.26666-4.68 0.8-6.52 0.53333-1.84 1.2667-3.36 2.2-4.56 0.94666-1.2133 2.0533-2.1133 3.32-2.7 1.2667-0.58663 2.6333-0.87997 4.1-0.88 1.4666 3e-5 2.8333 0.29337 4.1 0.88 1.28 0.5867 2.3866 1.4867 3.32 2.7 0.94665 1.2 1.6866 2.72 2.22 4.56 0.54664 1.84 0.81998 4.0134 0.82 6.52m-3.94 0c-2e-5 -2.16-0.18002-3.9733-0.54-5.44-0.36002-1.4666-0.84002-2.6466-1.44-3.54-0.60002-0.89331-1.2934-1.5266-2.08-1.9-0.78668-0.38664-1.6067-0.57997-2.46-0.58-0.85335 3e-5 -1.6733 0.19336-2.46 0.58-0.78668 0.37336-1.48 1.0067-2.08 1.9-0.60001 0.89336-1.08 2.0734-1.44 3.54-0.34667 1.4667-0.52001 3.28-0.52 5.44-1e-5 2.1734 0.17333 3.9934 0.52 5.46 0.35999 1.4667 0.83999 2.6467 1.44 3.54 0.59999 0.88001 1.2933 1.5133 2.08 1.9 0.78666 0.37334 1.6066 0.56001 2.46 0.56 0.85332 1e-5 1.6733-0.18666 2.46-0.56 0.78665-0.38666 1.48-1.02 2.08-1.9 0.59998-0.89332 1.08-2.0733 1.44-3.54 0.35998-1.4666 0.53998-3.2866 0.54-5.46" fill="#fff"/>
   </g>
   <rect x="495.56" y="553.96" width="106.3" height="106.3" ry="14.173" fill="#5e8227"/>
   <rect x="779.03" y="553.96" width="106.3" height="106.3" ry="14.173" fill="#5e8227"/>
   <rect x="34.933" y="695.7" width="106.3" height="106.3" ry="14.173" fill="#266580"/>
   <rect x="1062.5" y="553.96" width="106.3" height="106.3" ry="14.173" fill="#5e8227"/>
   <g transform="translate(285.85 -142.93)" fill="#fff">
    <path d="m257.38 760.31h6.1v-19.06c-1e-5 -0.58664 0.02-1.1933 0.06-1.82l-4.94 4.22c-0.18667 0.14669-0.37334 0.24002-0.56 0.28-0.17334 0.04-0.34001 0.0467-0.5 0.02-0.16001-0.04-0.30667-0.1-0.44-0.18-0.13334-0.08-0.23334-0.16665-0.3-0.26l-1.18-1.66 8.58-7.4h3.08v25.86h5.58v2.9h-15.48v-2.9" fill="#fff"/>
   </g>
   <rect x="495.56" y="695.7" width="106.3" height="106.3" ry="14.173" fill="#266580"/>
   <path d="m551 732.05c1.24 3e-5 2.3866 0.1867 3.44 0.56 1.0533 0.36003 1.9666 0.8867 2.74 1.58 0.77331 0.68003 1.38 1.52 1.82 2.52 0.43998 0.98669 0.65998 2.1067 0.66 3.36-2e-5 1.0667-0.16002 2.06-0.48 2.98-0.30669 0.90669-0.73335 1.7734-1.28 2.6-0.53335 0.82668-1.16 1.6334-1.88 2.42-0.70669 0.78668-1.46 1.58-2.26 2.38l-7.38 7.52c0.54666-0.14666 1.1-0.26666 1.66-0.36 0.55999-0.0933 1.0933-0.13999 1.6-0.14h9.24c0.41331 1e-5 0.73998 0.12001 0.98 0.36 0.23998 0.24001 0.35998 0.55334 0.36 0.94v2.3h-19.24v-1.3c0-0.26666 0.0533-0.53999 0.16-0.82 0.12-0.29333 0.3-0.55333 0.54-0.78l9.1-9.16c0.75999-0.77332 1.4466-1.5133 2.06-2.22 0.61332-0.70665 1.14-1.4133 1.58-2.12 0.43998-0.70665 0.77331-1.42 1-2.14 0.23998-0.73331 0.35998-1.5133 0.36-2.34-2e-5 -0.81331-0.12669-1.5266-0.38-2.14-0.25335-0.61331-0.60668-1.1266-1.06-1.54-0.44002-0.41331-0.96668-0.71997-1.58-0.92-0.61335-0.19997-1.2734-0.29997-1.98-0.3-0.70668 3e-5 -1.3534 0.1067-1.94 0.32-0.58668 0.20003-1.1133 0.48669-1.58 0.86-0.45334 0.36003-0.84001 0.79336-1.16 1.3-0.30668 0.49336-0.52668 1.04-0.66 1.64-0.17334 0.49336-0.40667 0.82669-0.7 1-0.28001 0.16002-0.68001 0.20002-1.2 0.12l-2-0.36c0.2-1.32 0.56666-2.4866 1.1-3.5 0.54666-1.0133 1.2333-1.86 2.06-2.54 0.82666-0.6933 1.7733-1.2133 2.84-1.56 1.0666-0.34663 2.22-0.51997 3.46-0.52" fill="#fff"/>
   <path d="m1118 590.87c1.2399 3e-5 2.3733 0.18003 3.4 0.54 1.0266 0.3467 1.9066 0.8467 2.64 1.5 0.7466 0.64003 1.3266 1.4134 1.74 2.32 0.4133 0.89336 0.62 1.8867 0.62 2.98 0 0.92002-0.1134 1.74-0.34 2.46-0.2267 0.70669-0.5534 1.3267-0.98 1.86-0.4267 0.53335-0.9467 0.98668-1.56 1.36-0.6 0.36002-1.2801 0.66002-2.04 0.9 1.8533 0.50668 3.24 1.3334 4.16 2.48 0.9333 1.1467 1.4 2.5934 1.4 4.34 0 1.3467-0.2534 2.5533-0.76 3.62-0.5067 1.0533-1.1934 1.9533-2.06 2.7-0.8667 0.73334-1.8867 1.3-3.06 1.7-1.16 0.38667-2.4 0.58-3.72 0.58-1.5067 0-2.8-0.18666-3.88-0.56-1.08-0.37333-2-0.88666-2.76-1.54-0.76-0.66666-1.3867-1.46-1.88-2.38-0.4934-0.91999-0.9067-1.9267-1.24-3.02l1.64-0.7c0.4266-0.18666 0.84-0.23999 1.24-0.16 0.4 0.08 0.6933 0.31334 0.88 0.7 0.1866 0.38668 0.4133 0.83334 0.68 1.34 0.2666 0.50667 0.62 0.99334 1.06 1.46 0.44 0.45334 0.9933 0.84001 1.66 1.16 0.68 0.30667 1.5333 0.46 2.56 0.46 0.9733 0 1.8266-0.15999 2.56-0.48 0.7333-0.31999 1.3399-0.73333 1.82-1.24 0.4933-0.50666 0.86-1.0667 1.1-1.68 0.24-0.62666 0.3599-1.2467 0.36-1.86-1e-4 -0.75999-0.1-1.4533-0.3-2.08-0.1867-0.62665-0.5467-1.1666-1.08-1.62-0.5201-0.45332-1.2534-0.80665-2.2-1.06-0.9334-0.25332-2.1467-0.37998-3.64-0.38v-2.76c1.2266-0.0133 2.26-0.13998 3.1-0.38 0.8533-0.25331 1.5466-0.59331 2.08-1.02 0.5333-0.43998 0.9133-0.95998 1.14-1.56 0.24-0.59998 0.36-1.26 0.36-1.98 0-0.79998-0.1267-1.4933-0.38-2.08-0.24-0.59997-0.5801-1.0933-1.02-1.48-0.44-0.39997-0.96-0.69997-1.56-0.9-0.6-0.19997-1.2534-0.29997-1.96-0.3-0.7067 3e-5 -1.36 0.10669-1.96 0.32-0.5867 0.20003-1.1134 0.48669-1.58 0.86-0.4534 0.36003-0.84 0.79336-1.16 1.3-0.3067 0.49336-0.5267 1.04-0.66 1.64-0.1867 0.49336-0.42 0.82669-0.7 1-0.2667 0.16002-0.66 0.20002-1.18 0.12l-2-0.36c0.1866-1.32 0.5533-2.4866 1.1-3.5 0.5466-1.0133 1.2333-1.86 2.06-2.54 0.8266-0.6933 1.7733-1.2133 2.84-1.56 1.0666-0.34664 2.22-0.51997 3.46-0.52" fill="#fff"/>
   <rect x="1062.5" y="695.7" width="106.3" height="106.3" ry="14.173" fill="#266580"/>
   <path d="m276.4 749.44c-2e-5 2.5067-0.27336 4.68-0.82 6.52-0.53336 1.84-1.2734 3.3667-2.22 4.58-0.93335 1.2-2.04 2.0933-3.32 2.68-1.2667 0.58667-2.6334 0.88-4.1 0.88-1.4667 0-2.8333-0.29333-4.1-0.88-1.2667-0.58666-2.3733-1.48-3.32-2.68-0.93334-1.2133-1.6667-2.74-2.2-4.58-0.53334-1.84-0.8-4.0133-0.8-6.52 0-2.5066 0.26666-4.68 0.8-6.52 0.53333-1.84 1.2667-3.36 2.2-4.56 0.94666-1.2133 2.0533-2.1133 3.32-2.7 1.2667-0.58663 2.6333-0.87997 4.1-0.88 1.4666 3e-5 2.8333 0.29337 4.1 0.88 1.28 0.5867 2.3866 1.4867 3.32 2.7 0.94665 1.2 1.6866 2.72 2.22 4.56 0.54664 1.84 0.81998 4.0134 0.82 6.52m-3.94 0c-2e-5 -2.16-0.18002-3.9733-0.54-5.44-0.36002-1.4666-0.84002-2.6466-1.44-3.54-0.60002-0.89331-1.2934-1.5266-2.08-1.9-0.78668-0.38664-1.6067-0.57997-2.46-0.58-0.85335 3e-5 -1.6733 0.19336-2.46 0.58-0.78668 0.37336-1.48 1.0067-2.08 1.9-0.60001 0.89336-1.08 2.0734-1.44 3.54-0.34667 1.4667-0.52001 3.28-0.52 5.44-1e-5 2.1734 0.17333 3.9934 0.52 5.46 0.35999 1.4667 0.83999 2.6467 1.44 3.54 0.59999 0.88001 1.2933 1.5133 2.08 1.9 0.78666 0.37334 1.6066 0.56001 2.46 0.56 0.85332 1e-5 1.6733-0.18666 2.46-0.56 0.78665-0.38666 1.48-1.02 2.08-1.9 0.59998-0.89332 1.08-2.0733 1.44-3.54 0.35998-1.4666 0.53998-3.2866 0.54-5.46" fill="#fff"/>
  </g>
  <g transform="rotate(-63.519 655.55 -113.34)" fill="#668000">
   <path d="m88.083 381.23-2e-6 229.43" stroke="#5e8227" stroke-dasharray="14.1732, 7.08662" stroke-linecap="square" stroke-width="3.5433"/>
   <path d="m77.453 603.57 10.63 21.26 10.63-21.26c-7.0866 7.0866-14.173 7.0866-21.26 0z"/>
  </g>
  <text x="119.96746" y="614.6839" fill="#000000" font-family="sans-serif" font-size="5.3333px" letter-spacing="0px" word-spacing="0px" style="line-height:1.25" xml:space="preserve"><tspan x="119.96746" y="614.6839"/></text>
  <g transform="rotate(-90 282.37 409.16)">
   <path d="m88.083 430.5-6e-6 176.16" fill="none" stroke="#5e8227" stroke-dasharray="10.6299, 10.6299" stroke-linecap="square" stroke-width="3.5433"/>
   <path d="m77.453 603.57 10.63 21.26 10.63-21.26c-7.0866 7.0866-14.173 7.0866-21.26 0z" fill="#5e8227"/>
  </g>
  <g transform="rotate(-90 422.93 269.51)">
   <path d="m88.083 430.5-6e-6 176.16" fill="none" stroke="#5e8227" stroke-dasharray="10.6299, 10.6299" stroke-linecap="square" stroke-width="3.5433"/>
   <path d="m77.453 603.57 10.63 21.26 10.63-21.26c-7.0866 7.0866-14.173 7.0866-21.26 0z" fill="#5e8227"/>
  </g>
  <g transform="rotate(-90 564.86 128.78)">
   <path d="m88.083 430.5-6e-6 176.16" fill="none" stroke="#5e8227" stroke-dasharray="10.6299, 10.6299" stroke-linecap="square" stroke-width="3.5433"/>
   <path d="m77.453 603.57 10.63 21.26 10.63-21.26c-7.0866 7.0866-14.173 7.0866-21.26 0z" fill="#5e8227"/>
  </g>
  <path d="m834.51 589.66c1.24 3e-5 2.3866 0.1867 3.44 0.56 1.0533 0.36003 1.9666 0.8867 2.74 1.58 0.77331 0.68003 1.38 1.52 1.82 2.52 0.43998 0.98669 0.65998 2.1067 0.66 3.36-2e-5 1.0667-0.16002 2.06-0.48 2.98-0.30669 0.90669-0.73335 1.7734-1.28 2.6-0.53335 0.82668-1.16 1.6334-1.88 2.42-0.70669 0.78668-1.46 1.58-2.26 2.38l-7.38 7.52c0.54666-0.14666 1.1-0.26666 1.66-0.36 0.55999-0.0933 1.0933-0.13999 1.6-0.14h9.24c0.41331 1e-5 0.73998 0.12001 0.98 0.36 0.23998 0.24001 0.35998 0.55334 0.36 0.94v2.3h-19.24v-1.3c0-0.26666 0.0533-0.53999 0.16-0.82 0.12-0.29333 0.3-0.55333 0.54-0.78l9.1-9.16c0.75999-0.77332 1.4466-1.5133 2.06-2.22 0.61332-0.70665 1.14-1.4133 1.58-2.12 0.43998-0.70665 0.77331-1.42 1-2.14 0.23998-0.73331 0.35998-1.5133 0.36-2.34-2e-5 -0.81331-0.12669-1.5266-0.38-2.14-0.25335-0.61331-0.60668-1.1266-1.06-1.54-0.44002-0.41331-0.96668-0.71997-1.58-0.92-0.61335-0.19997-1.2734-0.29997-1.98-0.3-0.70668 3e-5 -1.3534 0.1067-1.94 0.32-0.58668 0.20003-1.1133 0.48669-1.58 0.86-0.45334 0.36003-0.84001 0.79336-1.16 1.3-0.30668 0.49336-0.52668 1.04-0.66 1.64-0.17334 0.49336-0.40667 0.82669-0.7 1-0.28001 0.16002-0.68001 0.20002-1.2 0.12l-2-0.36c0.2-1.32 0.56666-2.4866 1.1-3.5 0.54666-1.0133 1.2333-1.86 2.06-2.54 0.82666-0.6933 1.7733-1.2133 2.84-1.56 1.0666-0.34663 2.22-0.51997 3.46-0.52" fill="#fff"/>
  <g transform="translate(283.02 138.41)" fill="#fff">
   <path d="m838.99 611.03h4.22v2.2c-2e-5 0.22668-0.0734 0.42001-0.22 0.58-0.13336 0.14668-0.33336 0.22001-0.6 0.22h-3.4v7.44h-3.32v-7.44h-12.64c-0.28 1e-5 -0.52-0.08-0.72-0.24-0.2-0.15999-0.32667-0.36666-0.38-0.62l-0.38-1.94 13.9-18.48h3.54v18.28m-3.32-11.4c-2e-5 -0.35998 0.0133-0.75331 0.04-1.18 0.0267-0.42664 0.0733-0.86664 0.14-1.32l-10.2 13.9h10.02v-11.4" fill="#fff"/>
  </g>
  <g transform="translate(1.2985 -134.74)">
   <text x="88.041664" y="752.38977" fill="#ffffff" font-family="Lato" font-weight="500" letter-spacing="0px" text-align="center" text-anchor="middle" word-spacing="0px" style="line-height:0%" xml:space="preserve"><tspan x="88.041664" y="752.38977" fill="#ffffff" font-family="Lato" font-size="40px" font-weight="500" text-align="center" text-anchor="middle" style="line-height:125%">A</tspan></text>
  </g>
  <text x="83.698471" y="761.6015" fill="#ffffff" font-family="Lato" font-weight="500" letter-spacing="0px" text-align="center" text-anchor="middle" word-spacing="0px" style="line-height:0%" xml:space="preserve"><tspan x="83.698471" y="761.6015" fill="#ffffff" font-family="Lato" font-size="40px" font-weight="500" text-align="center" text-anchor="middle" style="line-height:125%">B</tspan></text>
 </g>
</svg>
